<?xml version="1.0" encoding="UTF-8"?>
<svg id="Layer_2" data-name="Layer 2" xmlns="http://www.w3.org/2000/svg" viewBox="0 0 131.2 122.9">
  <defs>
    <style>
      .cls-1 {
        fill: #a37d2d;
        stroke-width: 0px;
      }
    </style>
  </defs>
  <g id="Layer_1-2" data-name="Layer 1">
    <g>
      <g>
        <path class="cls-1" d="m32.22,63.2c-.51-3.72,1.15-7.59,3.85-10.13,2.69-2.68,6.06-4.92,7.08-8.72,1.57,1.44,2.21,3.84,1.36,5.69.35-1.74-.28-3.54-1.48-4.61l.69-.18c-.88,3.77-4.2,6.18-6.82,8.65-2.68,2.42-4.38,5.66-4.68,9.3h0Z"/>
        <path class="cls-1" d="m44.54,48.04c.43-1.2,1.39-2.21,2.41-2.92.8-.55,1.74-1.31,1.53-2.25,0,0-1.29-4.16-1.29-4.16l2.34,3.64c1.07,1.66,1.34,3.83.58,5.56-.08-1.86-.61-3.53-1.57-4.9l1.05-.52c.75,3.25-3.47,3.62-5.06,5.57h0Z"/>
        <path class="cls-1" d="m50.28,46.14c2.56-2.29,3.8-5.52,1.24-8.23-.76-1.05-1.73-2.51-1.23-3.98.35-1.21,2.05-1.39,2.85-.54.96.92.56,2.42-.28,3.23-.12.08-.15.26-.02.15.02-.01-.02,0-.03-.05.03,0,.05.05,0,.03.05,0,.01,0-.02-.01.03-.04.07-.01.08.03-.14.29-.37-.03-.17-.27.73-.94.52-2.91-.95-2.7-.49.09-.63.72-.41,1.41.47,1.55,1.96,2.66,2.48,4.34.87,2.77-1.24,5.51-3.55,6.6h0Z"/>
        <path class="cls-1" d="m52.91,36.49c1.82,1.36,3.32,3.23,4.21,5.39.22.51.41,1.22.61,1.26.1.11.74-.2,1.15-.47.88-.54,1.63-1.43,1.34-2.13l-.49-1.18c1.35.51,2.82,1.17,3.62,2.44.37.53.54,1.24,1.06.55.37-.64-.23-2.87-.28-3.67,1.31,1.77,2.89,3.71,5.06,4.42,0,0-.7.28-.7.28.57-.93.39-2.21.28-3.24,1.21,1.05,2.6,2.08,4.21,2.39.24.03.2.04.26-.02.31-1.46.85-3.07,1.84-4.23.65-.83,1.45-1.54,2.35-2.06-1.62,1.3-2.74,3.11-3.19,5.06-.23.67.03,1.71-.84,2.05-1.56.11-3.08-.67-4.33-1.56,0,0,.85-.47.85-.47.15,1.05-.14,2.13-.65,3.05-1.83-.55-3.48-1.62-4.69-3.11,0,0,1.07-.47,1.07-.47.08.61.24,1.4-.23,2.22-.47.87-1.91,1.19-2.53.32-.45-.64-.55-.99-1.05-1.47-.38-.4-.84-.72-1.34-.95l.74-.67c.45,1.48-.77,2.67-1.9,3.27-.66.29-1.19.75-2.02.39-.43-.26-.53-.65-.63-.93-.68-2.42-1.96-4.64-3.8-6.45h0Z"/>
        <path class="cls-1" d="m77.65,36.69c-1.26-.59-1.42-2.97.17-3.41,1.05-.35,2.44.35,2.43,1.58-.02,1.52-1.4,2.18-1.97,3.39-1.63,2.77-.05,6.55,3.27,7.1-1.69.22-3.52-.77-4.4-2.38-1.45-2.48-.3-5.51,1.66-7.32,1.23-1.27-.83-2.29-1.52-1.08-.35.6-.21,1.52.37,2.12h0Z"/>
        <path class="cls-1" d="m82.42,47.64c-1.15-1.11-2.03-3.05-.67-4.48,0,0,1.23-1.25,1.23-1.25l-.28,1.78c-.04.91,1.15,1.54,1.88,2.1.97.67,1.9,1.32,3.16,1.44-1.9.9-6.67-1.32-6.17-3.75,0,0,.95.53.95.53-.98.86-.44,2.45-.1,3.63h0Z"/>
        <path class="cls-1" d="m88.35,49.39c-.07.24-.37.13-.5,0-.37-.25-.45-1.22-.59-1.6-.31-1.15-.63-2.55-.89-3.71,0,0,1.01,1.27,1.01,1.27,1.7,2.14,4.42,3.24,6.6,4.92,3.82,2.9,6.06,7.96,5.44,12.65-.32-3.73-1.83-7.2-4.21-9.87-2.4-2.84-6.34-4.01-8.42-7.28,0,0,.66-.27.66-.27.09.74.16,1.49.23,2.23.07.36.02,1.3.27,1.59.09.13.3.29.41.09h0Z"/>
        <path class="cls-1" d="m29.46,64.14c.56-1.59,2.81-2.16,4.05-1.01-1.56.63-2.38.83-4.05,1.01h0Z"/>
        <path class="cls-1" d="m29.26,64.21c3.71,1.65,5.28,5.84,8.03,8.58,2.59,2.96,5.51,5.62,8.56,8.1,3.07,2.45,6.21,4.92,9.36,7.2,3.24,2.42,7.3,1.97,11.14,2.15,8.84,1.03,13.99-4.63,19.48-10.64,0,0,8.15-8.63,8.15-8.63l4.11-4.28c1.35-1.39,2.75-3.01,4.72-3.51-1.92.63-3.18,2.27-4.48,3.72l-3.91,4.46-7.9,8.86c-5.43,6.34-11.09,12.2-20.21,11.22-2.96-.2-6.1.07-8.99-.99-4.56-2.14-8.15-5.79-12.07-8.87-3-2.6-5.89-5.35-8.42-8.43-2.64-2.9-3.99-7.06-7.58-8.97h0Z"/>
        <path class="cls-1" d="m99.96,62.89c.38-1.41,2.65-1.41,3,.02-1.38.19-1.63.19-3-.02h0Z"/>
        <path class="cls-1" d="m14.29,40.72c-1.95-4.48-3.16-9.56-1.9-14.43,2.78-9.48,10.08-17.42,18.58-22.24,4.34-2.29,9.26-3.67,14.18-3.44-4.88.29-9.57,1.84-13.72,4.26-8.07,4.94-15.12,12.62-18.13,21.66-1.42,4.6-.46,9.57,1,14.19h0Z"/>
        <path class="cls-1" d="m20.59,40.13c4.54.36,7.93-3.91,8.52-8.05.72-4.25-.31-8.6-.32-13.09-.34-7.98,4.68-11.96,10.71-16.02,1.87-1.19,3.88-2.25,6.06-2.67-4.2,1.39-7.5,4.51-10.75,7.37-8,6.63-3.11,15.87-4.79,24.59-.78,4.3-4.76,8.79-9.44,7.87h0Z"/>
        <path class="cls-1" d="m31.26,21.38c.21,1.77-.02,3.95.35,5.59,1.02,1.61,5.98-3.56,6.9-4.49,3.51-3.75,4.49-8.95,5.62-13.83,0,0,.03-.12.03-.12l.07.09c.15.2.06.49-.13.57.17-.12.17-.39.04-.5.16,2.22-.45,5.21-1.02,7.65-1.07,4.54-4.36,8.25-8.21,10.75-.8.57-1.89,1.26-3.01,1.02-1.35-.31-1.17-1.87-1.05-2.9.14-1.28.23-2.56.41-3.84h0Z"/>
        <path class="cls-1" d="m31.19,21.71c4.92-3.95,9.17-8.19,13.15-13.08-2.49,5.78-7.37,10.62-13.15,13.08h0Z"/>
        <path class="cls-1" d="m18.78,52.07c-4.59-.33-7.18-5.38-6.79-9.6.02-.35.14-.94.65-1.28.79-.45,1.41-.29,2.17-.41,0,0,3.84-.26,3.84-.26.78.01,2.36-.28,3.1,0,.5.22.72.63.87.93.89,1.81,1.17,3.89.69,5.83-.07.31-.11.61-.05.9.06.29.24.58.56.67-.33-.02-.61-.3-.74-.62-.13-.33-.11-.68-.09-1,.15-1.85-.23-3.77-1.19-5.34-.35-.54-.41-.48-1.15-.42l-1.91.19c-.78.11-4.97.33-5.43.51-.89,3.92,1.32,8.83,5.47,9.9h0Z"/>
        <path class="cls-1" d="m31.89,62.13c-5.27.42-10.68-1.97-14.07-6.08-.75-.79-1.34-2.53-.11-3.39.83-.63,2-.61,2.72-1.13,1.64-1.12,2.51-3.15,4.88-3.49.81-.1,1.65.25,2.21.71.57.46,1,.98,1.43,1.42l-.83.13c.38-.6.27-1.42.18-2.09,0,0,.73.28.73.28,2.41.99,3.39,3.53,4.11,5.78,0,0-.47,0-.47,0,.3-.61.34-1.34.21-2.02,0,0,.27.15.27.15.84.46,1.51,1.2,1.9,2.04-.5-.78-1.23-1.39-2.05-1.75l.23-.17c.22.83,0,1.74-.31,2.54-.95-2.12-1.87-4.85-4.22-5.65,0,0,.64-.52.64-.52.19.89-.18,1.79-.63,2.55-.98-.93-2.14-2.46-3.28-2.22-1.89.31-2.75,2.37-4.35,3.35-.88.72-2.61.49-2.93,1.48-.07.33.18.88.54,1.34,3.13,4.01,8.07,6.5,13.19,6.77h0Z"/>
        <g>
          <path class="cls-1" d="m116.63,39.14c1.27-4.67,2.03-9.68.43-14.22-3.37-8.92-10.73-16.3-18.98-20.92-4.25-2.25-9-3.61-13.88-3.7,4.91-.42,9.87.75,14.31,2.87,8.68,4.48,16.3,12.11,19.45,21.48,1.46,4.81.45,9.93-1.32,14.49h0Z"/>
          <path class="cls-1" d="m110.31,38.8c-4.63,1.11-8.79-3.22-9.74-7.48-2.02-8.64,2.49-18.09-5.77-24.38-3.36-2.73-6.78-5.71-11.04-6.93,2.19.33,4.25,1.3,6.17,2.42,6.19,3.83,11.36,7.59,11.34,15.58.17,4.49-.68,8.87.2,13.09.76,4.11,4.32,8.24,8.84,7.7h0Z"/>
          <path class="cls-1" d="m98.91,20.5c.22,1.27.37,2.55.56,3.82.15,1.01.4,2.58-.94,2.94-1.85.35-3.24-1.12-4.67-1.98-3.27-2.22-5.92-5.53-7-9.33-.68-2.41-1.4-5.38-1.33-7.6-.12.11-.11.38.06.49-.19-.08-.29-.36-.15-.57l.07-.1.03.12c1.33,4.83,2.52,9.99,6.17,13.6,1.3,1.35,2.82,2.51,4.36,3.59.75.52,2.08,1.53,2.72.62.3-1.67-.02-3.83.12-5.6h0Z"/>
          <path class="cls-1" d="m98.99,20.82c-5.88-2.23-10.94-6.88-13.66-12.55,4.17,4.74,8.59,8.8,13.66,12.55h0Z"/>
          <path class="cls-1" d="m112.6,50.66c4.1-1.23,6.12-6.23,5.07-10.11-.46-.16-4.67-.21-5.45-.29,0,0-1.92-.11-1.92-.11-.74-.03-.8-.09-1.13.47-.89,1.61-1.21,3.54-.98,5.38.11.6-.03,1.54-.76,1.65.31-.1.49-.41.53-.7.05-.29,0-.6-.09-.9-.56-1.92-.36-4.01.46-5.86.14-.3.35-.73.83-.96.72-.31,2.32-.08,3.1-.12,0,0,3.84.11,3.84.11.76.09,1.38-.1,2.18.32.52.32.66.9.7,1.25.56,4.2-1.82,9.35-6.4,9.87h0Z"/>
          <path class="cls-1" d="m99.91,61.23c5.11-.47,9.94-3.15,12.91-7.29.34-.47.57-1.03.49-1.36-.36-.97-2.09-.68-2.99-1.36-1.64-.91-2.58-2.94-4.48-3.17-1.15-.2-2.25,1.38-3.19,2.35-.48-.74-.88-1.62-.73-2.52,0,0,.66.5.66.5-2.32.9-3.13,3.66-4,5.82-.35-.78-.6-1.68-.41-2.52,0,0,.24.16.24.16-.8.39-1.5,1.03-1.97,1.83.35-.86.99-1.62,1.82-2.12l.27-.16c-.09.68-.03,1.41.29,2.01,0,0-.47.03-.47.03.63-2.27,1.51-4.86,3.87-5.94,0,0,.72-.31.72-.31-.06.67-.14,1.5.26,2.08,0,0-.83-.09-.83-.09.42-.46.82-.99,1.37-1.47.54-.48,1.36-.87,2.18-.8,2.38.24,3.33,2.24,5.01,3.29.74.49,1.91.43,2.77,1.02,1.26.81.75,2.58.03,3.39-3.22,4.24-8.53,6.84-13.81,6.63h0Z"/>
        </g>
        <path class="cls-1" d="m55.98,89.72c-.51.95-.01,2.03.71,2.59.72.58,1.73.68,2.69.65,2-.15,4.11-.34,6.16-.45,2.93-.35,6.33.19,9.1-.62.83-.36,1.58-1.29,1.36-2.33.25.47.22,1.07,0,1.57-.64,1.64-2.71,2-4.2,2.1-2.06.21-4.13.36-6.19.48-2.08.09-4.1.23-6.24.18-1.07-.05-2.27-.3-3.09-1.17-.73-.79-1.09-2.18-.3-3.02h0Z"/>
        <g>
          <path class="cls-1" d="m26.15,68.4c-.51,1.52-.91,3.28.07,4.31.95,1.02,2.54,1.36,4.1,1.65,2.35.47,4.75.73,7.15.87.77.09,1.71-.02,2.41.49-1.58-.29-3.23.4-4.86.28-4.51.1-13.39-1.2-8.88-7.59h0Z"/>
          <path class="cls-1" d="m26.16,68.23c3.1.21,5.99,1.18,8.72,2.57.35.17,1.05.62.74,1.09.02-.24-.17-.34-.34-.41-3.21-.55-6.34-1.45-9.12-3.25h0Z"/>
          <path class="cls-1" d="m23.62,71.24c-2.12-.54-4.19-1.31-6.15-2.3-.98-.47-2.09-1.18-2.6-2.43-.64-1.46.29-3.07,1.87-3.16,3.03-.05,5.28,1.9,7.73,3.32.24.21.75.38.78.76-.02.39-.1.4-.14.55-.47,1.13-.94,2.27-1.46,3.38.26-1.23.61-2.74.91-3.82.02.06.08.12.03.09-.1-.06-.42-.22-.53-.28-1.35-.63-8.98-5.17-8.11-1.24.27.84,1.08,1.46,1.98,2.01,1.84,1.1,3.74,2.15,5.7,3.13h0Z"/>
          <path class="cls-1" d="m14.32,65.31c-2.79-1.35-10.21-6.58-9.03-10.14.22-.82,1.08-1.5,1.92-1.57,3.08-.14,4.35,3.3,6.08,5.24,0,0,2.31,3.15,2.31,3.15.22.27.51.78.27,1.15-.22.38-.52.51-.73.74-.44.44-.78,1-.95,1.63-.02-.97.75-1.87,1.26-2.56.07-.19-.07-.31-.32-.58l-2.57-2.93c-.87-.97-1.68-1.98-2.52-2.97-.79-.99-1.69-1.79-2.68-1.65-1.08.11-1.23,1.35-.84,2.22,1.82,3.23,4.83,5.97,7.8,8.28h0Z"/>
          <path class="cls-1" d="m5.52,55.37c-4.75-3.77-6.83-11.46-.46-14.79-1.23,4.82,1.05,9.48,3.26,13.71-1.39-1.78-2.7-3.64-3.61-5.74-.92-2.09-1.42-4.47-1.06-6.84l.92.6c-4.43,3.29-2.03,9.55.94,13.06h0Z"/>
          <path class="cls-1" d="m41.65,78.3c.31,1.33.36,2.58.38,3.89.07.43.03.35.26.45.62.17,1.63.13,2.34.14.84-.02,1.68-.09,2.58-.17-.72.55-1.57.91-2.46,1.11-5.04,1.07-4.05-1.91-3.11-5.42h0Z"/>
          <path class="cls-1" d="m19.42,78.05c.04.97.12,2.01.65,2.73.5.75,1.37.75,2.36.71,1.97-.06,3.94-.04,5.91-.01,3.94.1,7.87.29,11.8.85-3.95.4-7.89.43-11.82.36-2.51-.15-4.99,0-7.47-.49-1.72-.55-1.79-2.75-1.42-4.14h0Z"/>
          <path class="cls-1" d="m19.67,78.1c5.84-1.09,12-1.42,17.79.2.48.12,1.72.4,2.18.53.24.06.66.25.78.64.1.35.03.6.02.84-.07.72-.13,1.51-.23,2.22-.1-.71-.16-1.51-.23-2.22,0-.88-.27-.77-1.22-.89-1.42-.17-2.98-.4-4.38-.62-4.87-.8-9.74-.36-14.71-.71h0Z"/>
          <path class="cls-1" d="m6.31,84.23c-.45,1.49.95,2.78,1.86,3.53,2.24-1.6,5.14-3.79,7.36-5.39,1.31-.91,2.84-1.7,4.45-1.83-2.97,1.27-4.93,3.8-7.55,5.62-.93.68-2,1.39-3,1.98-.49.23-.68.58-1.39.55-.48-.11-.6-.4-.72-.51-.92-1.01-1.87-2.67-1.01-3.96h0Z"/>
          <path class="cls-1" d="m6.42,84.33c2.79-4.07,8.29-6.34,13.14-5.39-4.87.85-9.08,2.57-13.14,5.39h0Z"/>
          <path class="cls-1" d="m.38,99.23c-1.42-5.52,1.28-12.06,6.19-14.96-3.71,4.29-5.79,9.3-6.19,14.96H.38Z"/>
          <path class="cls-1" d="m.58,99.33c.81-3.53,2.78-6.63,4.97-9.44.72-.9,1.54-1.95,2.7-2.4-2.57,3.56-4.8,8.03-7.67,11.84h0Z"/>
          <path class="cls-1" d="m44.67,84.69c-.76,4.75,2.52,3.6,5.3,1.89.39-.23.81-.52,1.28-.63-1.43,1.84-3.78,4.24-6.36,3.01-1.43-.97-1.29-3.2-.22-4.26h0Z"/>
          <path class="cls-1" d="m44.52,84.95c.77-1.78,3.38-1.76,4.69-.59-1.77.58-2.88.29-4.69.59h0Z"/>
          <path class="cls-1" d="m27.21,86.6c-1.48,1.1-1.17,3.44.58,3.98,1.54.54,3.42.26,5.2.09,3.59-.42,7.07-1.43,10.52-2.81-2.98,2.24-6.64,3.56-10.37,4.02-1.92.15-3.89.43-5.73-.43-2.09-.84-2.31-3.97-.19-4.84h0Z"/>
          <path class="cls-1" d="m27.16,86.6c5.15-1.95,10.85-2.04,16.24-1.24-.08.88-.1,1.75-.21,2.65-.18-.78-.28-1.58-.42-2.39l.29.31c-4.71.11-11.23.3-15.89.67h0Z"/>
          <path class="cls-1" d="m16.76,98.89c-.2-1.15-.03-2.38.42-3.5.85-2.24,3.08-3.55,4.56-5.21.71-.79,1.48-1.93,2.83-2.3l.68-.19c-.36,1.33-.11,2.78,1.07,3.82-1.21-.47-2.1-1.81-2.05-3.25l.57.46c-.89.37-1.46,1.31-2.2,2.23-2.35,2.54-5.46,4.2-5.88,7.95h0Z"/>
          <path class="cls-1" d="m16.98,99.04c1.27-.04,2.69.13,3.81-.32,1.89-2.28,3.6-4.74,5.46-7.13,0,0,.09-.12.09-.12l.05.1c.1.2-.08.37-.21.34.14-.03.14-.22.08-.24h.14c-.97,3-2.67,5.76-5,7.9-1.4.62-3.1-.01-4.41-.54h0Z"/>
          <path class="cls-1" d="m16.4,100.04c-.15,2.66-.26,5.45.12,8.05.76,2.44,2.23,4.84,3.72,6.91,0,0-1.05.55-1.05.55-1.19-3.69-1.5-7.66-.84-11.48.22-1.27.5-2.52.94-3.72l.25.29c-1.13.09-2.27-.12-3.26-.61,1.05.3,2.16.37,3.19.16l.33-.07-.07.36c-1.45,5.99-.47,12.27,1.63,17.97-2.38-3.02-4.93-6.42-5.73-10.22-.2-2.8.13-5.5.76-8.19h0Z"/>
          <path class="cls-1" d="m51.97,87.05c-.17.53-.5,1.01-.92,1.42-.39.4-1.13.68-1.19.87-.31.91.8,1.95,1.56,2.4.15.07.2.07.33.04,1.17-.62,1.8-2.29,2.09-3.67.4,1.67,0,3.8-1.7,4.75-1.78.65-4.36-2.48-3.02-4.12.31-.33.65-.41.89-.48.75-.22,1.38-.64,1.95-1.21h0Z"/>
          <path class="cls-1" d="m37.37,95.08c-.24,1.39.5,2.79,1.61,3.41,1.77,1.05,3.87-.25,5.45-1.21,1.53-1.01,5.55-3,4.5-5.21-.19-.42-.8-1.15-1.08-1.42-.04,0,.08-.01-.04,0-.87.27-2.52.9-3.39,1.22-2.25.89-4.52,1.83-6.67,2.96-.28.18-.55.43-.6.78-.02-.36.22-.69.49-.93,2.86-2.05,6.06-3.63,9.34-4.92.43-.18,1-.42,1.5-.08.26.17.39.34.5.46,3.69,3.58-1.04,6.51-4.03,8.06-1.83,1.02-4.35,2.17-6.3.78-1.21-.92-1.8-2.57-1.28-3.91h0Z"/>
          <path class="cls-1" d="m36.17,96.62c-1.23,1.87-1.79,4.31-.86,6.33,2.17,1.94,3.46.94,3.69-1.77.08-.7.34-1.38.55-2.03-.07,1.49.3,2.75-.11,4.25-.79,2.54-3.77,1.91-5.11.22-1.23-2.33-.22-5.54,1.84-6.99h0Z"/>
          <path class="cls-1" d="m33.96,103.1c-.08,2.35-1.82,10.34.92,11.07,1.43.07,3.54.04,4.58-1.01.73-.65.82-1.74.62-2.86-.48-2.28-1.1-4.67-1.5-6.99,1.54,4.42,5.82,11.48-1.97,12.07-6.79,1.02-3.66-8.72-2.65-12.27h0Z"/>
          <path class="cls-1" d="m35.18,115.11c1.38,1.34,2.15,3.37,3.86,4.58,2.75,2.59,9.31,1.79,5.04-2.47-1.52-1.31-3.06-2.7-4.52-4.14,1.76,1.08,3.46,2.18,5.13,3.41.83.61,1.73,1.53,1.9,2.8.23,4.45-6.25,3.4-8.17,1.11-1.66-1.42-2.17-3.54-3.24-5.29h0Z"/>
        </g>
        <g>
          <path class="cls-1" d="m103.95,68.28c4.78,6.15-4.08,7.88-8.57,7.94-1.62.18-3.3-.44-4.87-.08,1.35-.81,3.27-.52,4.79-.86,2.84-.58,6.63-.66,8.74-2.68.94-1.07.47-2.81-.1-4.31h0Z"/>
          <path class="cls-1" d="m103.93,68.11c-2.7,1.92-5.8,2.93-8.98,3.61-.17.08-.35.18-.32.42-.18-.18-.05-.52.12-.69,2.7-1.87,5.91-2.92,9.19-3.35h0Z"/>
          <path class="cls-1" d="m106.59,71.02c1.91-1.06,3.77-2.18,5.57-3.36.88-.58,1.67-1.24,1.9-2.08.71-3.96-6.72.88-8.05,1.56-.1.06-.42.24-.52.3-.05.04.01-.02.03-.09.34,1.07.75,2.56,1.06,3.78-.51-.97-.95-1.97-1.42-2.95-.14-.35-.6-1.01-.08-1.33.1-.08.39-.29.5-.38,2.39-1.52,4.56-3.55,7.59-3.62,1.57.02,2.58,1.59,1.99,3.08-.46,1.27-1.54,2.02-2.5,2.54-1.93,1.07-3.96,1.92-6.06,2.55h0Z"/>
          <path class="cls-1" d="m115.64,64.72c2.88-2.43,5.77-5.29,7.47-8.59.36-.88.15-2.12-.93-2.18-1-.11-1.87.73-2.61,1.76-1.36,1.79-3.41,4.33-4.86,6.1-.64.59-.12.78.29,1.29.44.52.71,1.16.78,1.81-.2-.62-.56-1.17-1.01-1.59-.22-.21-.52-.34-.76-.71-.25-.36,0-.87.22-1.16,0,0,2.18-3.24,2.18-3.24,1.66-2.01,2.79-5.49,5.87-5.48.84.03,1.72.68,1.98,1.49,1.3,3.54-5.86,9.01-8.62,10.5h0Z"/>
          <path class="cls-1" d="m124.04,54.44c2.83-3.62,4.97-9.98.42-13.09,0,0,.9-.63.9-.63.46,2.35.05,4.75-.79,6.88-.82,2.13-2.05,4.04-3.38,5.88,2.04-4.32,4.13-9.06,2.71-13.83,6.5,3.07,4.73,10.83.13,14.79h0Z"/>
          <path class="cls-1" d="m88.85,78.79c1.08,3.48,2.19,6.41-2.89,5.54-.89-.17-1.76-.49-2.5-1.01.9.04,1.75.08,2.58.07.71-.04,1.72-.04,2.33-.23.23-.11.2-.03.24-.46-.03-1.31-.02-2.56.23-3.9h0Z"/>
          <path class="cls-1" d="m111.06,77.65c.42,1.37.44,3.58-1.26,4.2-2.46.6-4.94.55-7.44.79-3.93.22-7.87.35-11.83.11,3.9-.72,7.83-1.07,11.76-1.32,1.97-.11,3.93-.2,5.9-.22.99,0,1.86-.03,2.33-.8.5-.73.53-1.78.54-2.75h0Z"/>
          <path class="cls-1" d="m110.81,77.72c-4.96.54-9.84.3-14.67,1.29-1.39.28-2.94.56-4.35.79-.48.08-1.07.12-1.1.31-.12.26-.08,1.04-.12,1.37-.02.5-.05.99-.1,1.49-.13-.71-.22-1.5-.32-2.21-.02-.24-.1-.49-.02-.84.1-.39.51-.6.75-.67.45-.15,1.69-.49,2.16-.62,5.72-1.85,11.89-1.76,17.77-.91h0Z"/>
          <path class="cls-1" d="m124.4,83.31c.91,1.25.02,2.95-.85,4-.12.12-.22.41-.7.54-.71.05-.92-.28-1.42-.49-1.02-.56-2.11-1.22-3.07-1.86-2.69-1.71-4.75-4.17-7.77-5.32,1.62.07,3.17.8,4.52,1.65,2.27,1.5,5.28,3.59,7.57,5.09.88-.79,2.23-2.14,1.72-3.6h0Z"/>
          <path class="cls-1" d="m124.3,83.41c-4.17-2.66-8.44-4.21-13.34-4.86,4.81-1.14,10.39.91,13.34,4.86h0Z"/>
          <path class="cls-1" d="m130.93,98.06c-.63-5.64-2.91-10.56-6.78-14.7,5.02,2.7,7.98,9.13,6.78,14.7h0Z"/>
          <path class="cls-1" d="m130.73,98.16c-3.03-3.7-5.41-8.06-8.13-11.53,1.18.4,2.04,1.42,2.79,2.29,2.3,2.72,4.39,5.74,5.34,9.24h0Z"/>
          <path class="cls-1" d="m86.09,85.3c1.12,1.01,1.34,3.24-.05,4.27-2.53,1.33-4.97-.97-6.48-2.75.91.23,1.64.84,2.5,1.18,1.29.51,3.28,1.53,3.97-.17.29-.74.34-1.62.06-2.53h0Z"/>
          <path class="cls-1" d="m86.26,85.55c-1.82-.23-2.92.11-4.71-.4,1.27-1.22,3.88-1.35,4.71.4h0Z"/>
          <path class="cls-1" d="m103.62,86.51c2.14.78,2.05,3.92,0,4.84-1.8.93-3.78.73-5.71.66-3.75-.31-7.46-1.49-10.53-3.6,3.5,1.25,7.02,2.11,10.62,2.39,1.78.1,3.68.31,5.19-.29,1.72-.6,1.94-2.96.42-4h0Z"/>
          <path class="cls-1" d="m103.66,86.51c-4.64-.18-11.21-.11-15.9-.03,0,0,.28-.32.28-.32-.11.81-.18,1.62-.33,2.41-.15-.9-.21-1.76-.32-2.64,5.35-1.02,11.05-1.15,16.27.59h0Z"/>
          <path class="cls-1" d="m114.55,98.37c-.58-3.74-3.75-5.27-6.2-7.71-.78-.89-1.39-1.81-2.29-2.14l.55-.48c.1,1.44-.73,2.82-1.92,3.33,1.14-1.08,1.33-2.54.92-3.86,0,0,.69.16.69.16,1.37.32,2.18,1.42,2.92,2.19,1.54,1.6,3.83,2.82,4.77,5.03.49,1.11.71,2.32.56,3.48h0Z"/>
          <path class="cls-1" d="m114.33,98.53c-1.29.59-2.97,1.28-4.39.72-2.42-2.04-4.23-4.74-5.31-7.7,0,0,.14,0,.14,0-.07.02-.05.21.09.24-.13.03-.31-.13-.23-.34.07-.16.04-.1.14,0,1.95,2.3,3.75,4.7,5.74,6.9,1.14.4,2.55.17,3.82.17h0Z"/>
          <path class="cls-1" d="m114.96,99.51c.73,2.67,1.18,5.35,1.09,8.16-.65,3.83-3.06,7.33-5.32,10.44,1.87-5.79,2.6-12.1.91-18.02,0,0-.09-.36-.09-.36l.33.05c1.04.17,2.14.06,3.19-.28-.96.54-2.1.78-3.23.74l.24-.3c.49,1.18.82,2.43,1.09,3.68.81,3.79.66,7.77-.38,11.5l-1.07-.51c1.4-2.13,2.77-4.59,3.44-7.06.28-2.62.05-5.4-.2-8.05h0Z"/>
          <path class="cls-1" d="m78.89,87.95c1.07,1.1,1.91.86,2.91,1.58,1.4,1.6-1.03,4.79-2.85,4.24-1.74-.89-2.22-3-1.89-4.68.35,1.37,1.05,3.01,2.24,3.58.13.02.18.02.33-.06.74-.48,1.81-1.56,1.46-2.46-.07-.18-.82-.44-1.22-.82-.44-.38-.79-.85-.98-1.38h0Z"/>
          <path class="cls-1" d="m93.81,95.39c.57,1.32.04,2.99-1.13,3.96-1.9,1.47-4.46.42-6.32-.53-3.05-1.43-7.89-4.17-4.34-7.89.11-.13.23-.3.49-.48.48-.36,1.06-.14,1.5.02,3,1.03,5.91,2.35,8.63,3.97.56.35,1.39.72,1.42,1.49-.06-.36-.34-.59-.63-.76-2.19-1.04-4.5-1.89-6.78-2.69-.89-.29-2.55-.84-3.44-1.08-.12,0,0-.01-.04,0-.27.28-.84,1.03-1.02,1.46-.96,2.24,3.14,4.08,4.71,5.02,1.62.9,3.77,2.12,5.5.99,1.09-.67,1.77-2.09,1.47-3.48h0Z"/>
          <path class="cls-1" d="m95.06,96.88c2.11,1.37,3.25,4.54,2.12,6.92-1.28,1.75-4.22,2.49-5.12-.01-.46-1.48-.14-2.76-.28-4.25.24.64.52,1.32.63,2.01.33,2.7,1.66,3.64,3.75,1.62.86-2.06.2-4.46-1.11-6.29h0Z"/>
          <path class="cls-1" d="m97.53,103.26c1.15,3.5,4.68,13.1-2.15,12.36-7.81-.27-3.82-7.5-2.45-11.98-.31,2.34-.84,4.75-1.22,7.05-.15,1.13-.01,2.22.74,2.83,1.08,1,3.19.95,4.61.83,2.71-.84.65-8.74.48-11.09h0Z"/>
          <path class="cls-1" d="m96.79,115.32c-.99,1.79-1.42,3.94-3.02,5.42-1.82,2.36-8.26,3.67-8.21-.78.12-1.27.98-2.23,1.78-2.87,1.62-1.29,3.27-2.46,4.99-3.61-1.4,1.5-2.88,2.94-4.35,4.31-4.09,4.43,2.49,4.96,5.14,2.27,1.66-1.28,2.35-3.34,3.68-4.73h0Z"/>
        </g>
      </g>
      <path class="cls-1" d="m48.23,67.74c2.86,1.61,4.88,4.42,6.55,7.17,1.68,2.75,3.28,5.55,4.56,8.55-4.32-4.86-6.71-10.95-11.11-15.72h0Z"/>
      <path class="cls-1" d="m61.47,84.45c.75-2.15-1.3-3.7-2.18-5.49-1.43-2.73-3.23-6.34-1.53-9.42.62-1,1.44-1.71,2.17-2.42,1.51-1.33,2.16-3.32,2.76-5.33-.06,1.05-.2,2.09-.48,3.13-.67,3.02-4.5,4.51-3.9,7.87.22,1.95,1.02,3.92,1.82,5.73.72,1.75,2.62,4,1.34,5.93h0Z"/>
      <path class="cls-1" d="m67.3,63.35c1.27,1.72,3.37,2.13,5.16,3.38,4.19,2.76,1.59,8.53-.28,11.96-1.05,1.84-2.39,3.49-3.95,4.89,1.2-1.71,2.23-3.49,3.11-5.33,1.26-3.28,3.94-8,.55-10.77-1.52-1.26-3.77-2.18-4.59-4.14h0Z"/>
      <path class="cls-1" d="m14.57,40.43c1.02-1.6,3.15-1.99,4.68-2.87,4.83-2.53,8.39-6.8,10.33-11.96-.58,5.65-4.71,10.71-9.94,12.82-1.7.78-3.65.73-5.08,2.01h0Z"/>
      <path class="cls-1" d="m19.14,40.7c3.94-4.11,9.76-7.31,10.09-13.64,1.54,6.48-5.11,11.03-10.09,13.64h0Z"/>
      <path class="cls-1" d="m13.66,38.79c1.08-1.52,2.86-2.39,4.46-3.18,3.17-1.57,6.01-3.86,8.65-6.18,1.27-1.21,2.41-2.59,3.04-4.31-.59,5.11-6.87,9.52-11.31,11.36-1.7.66-3.42,1.14-4.84,2.31h0Z"/>
      <path class="cls-1" d="m12.98,36.74c2.16-2.87,6.01-3.47,8.72-5.64,2.06-1.38,4.24-3.16,6.24-4.66.71-.51,1.43-.99,1.71-1.85,0,.93-.75,1.66-1.32,2.29-1.82,1.92-3.75,3.72-5.96,5.23-2.82,2.21-6.59,2.49-9.41,4.63h0Z"/>
      <path class="cls-1" d="m12.36,34.67c4.12-3.04,8.51-5.49,13.08-7.74,1.45-.8,2.96-1.54,3.84-3.03-1.11,3.38-4.98,4.65-7.74,6.41-2.98,1.62-6,3.15-9.19,4.36h0Z"/>
      <path class="cls-1" d="m12.41,32.12c5.74-3.5,12.77-4.3,17.32-9.61-3.17,6.44-11.09,7.77-17.32,9.61h0Z"/>
      <path class="cls-1" d="m12.53,29.16c3.15-.19,6.08-1.14,9.05-2.08,2.94-.95,5.76-2.11,8.06-4.32-2.85,5.04-11.68,7.51-17.11,6.39h0Z"/>
      <path class="cls-1" d="m13.08,26.54c2.82,0,5.47-.44,8.15-1.06l4.04-.91c1.36-.3,2.7-.47,3.89-1.25-.85,1.18-2.35,1.72-3.63,2.17-3.93,1.36-8.37,2.46-12.45,1.05h0Z"/>
      <path class="cls-1" d="m13.75,24.18c5.32.48,10.27-.08,15.35-1.72-4.26,3.22-10.49,3.91-15.35,1.72h0Z"/>
      <path class="cls-1" d="m14.38,22.66c2.45.84,4.95.17,7.47.24,2.53-.06,5,.34,7.39-.71-1.87,1.93-4.9,1.86-7.37,1.93-2.48-.1-5.45.3-7.48-1.46h0Z"/>
      <path class="cls-1" d="m31.55,27.18c5.29-4.54,9.2-10.03,11.79-16.5-.87,6.91-5.54,13.43-11.79,16.5h0Z"/>
      <path class="cls-1" d="m31.29,25.66c4.33-4.63,8.16-9.31,11.86-14.45-2.18,5.93-6.48,11.15-11.86,14.45h0Z"/>
      <path class="cls-1" d="m31.1,23.13c4.11-3.51,7.82-6.99,11.6-10.86-2.36,4.84-6.62,8.81-11.6,10.86h0Z"/>
      <path class="cls-1" d="m86.1,10.12c3.65,5.94,6.83,12.59,12.95,16.3-6.79-1.97-11.08-9.94-12.95-16.3h0Z"/>
      <path class="cls-1" d="m86.45,11.53c1.49.57,2.44,2.03,3.3,3.22,2.66,3.69,5.42,7.16,9.15,9.89-4.45-1.53-7.69-5.39-9.95-9.38-.78-1.33-1.29-2.75-2.5-3.73h0Z"/>
      <path class="cls-1" d="m86.76,10.98c4.14,3.85,7.49,8.11,12.01,11.54-5.39-1.95-9.25-6.71-12.01-11.54h0Z"/>
      <path class="cls-1" d="m100.62,21.68c4.66,3.01,10.79,1.71,15.19-1.19-3.26,4.46-11.52,5.86-15.19,1.19h0Z"/>
      <path class="cls-1" d="m100.77,22.22c4.52,4.18,10.78,2.62,15.8.06-3.92,4.2-12.52,5.68-15.8-.06h0Z"/>
      <path class="cls-1" d="m101.04,22.62c3.26,6.25,11.08,4.95,16.32,1.92-1.17,1.12-2.51,2.09-4.02,2.76-4.35,2.3-11.36.7-12.3-4.68h0Z"/>
      <path class="cls-1" d="m100.76,23.33c2.29,4.74,7.77,6.56,12.62,4.97,1.62-.44,3.24-1.02,4.89-1.59-1.43.99-2.94,1.88-4.6,2.49-5.02,2.28-11.82-.14-12.91-5.87h0Z"/>
      <path class="cls-1" d="m100.84,24.41c2.72,6.83,11.86,8.05,17.58,4.12-.59.69-1.31,1.25-2.07,1.77-5.36,3.57-14.7,1.06-15.52-5.89h0Z"/>
      <path class="cls-1" d="m100.82,25.24c2.17,4.68,7.26,7.75,12.41,6.97,1.7-.22,3.4-.69,5.14-1.08-3.12,1.74-6.89,3.05-10.47,1.85-3.49-1.11-6.46-4.08-7.08-7.73h0Z"/>
      <path class="cls-1" d="m100.93,26.44c1.18,4.49,5.18,6.81,9.43,7.76,2.54.97,4.98.5,7.58-.32-2.22,1.5-5.21,2.34-7.89,1.43-4.55-.82-9.07-3.82-9.12-8.87h0Z"/>
      <path class="cls-1" d="m100.94,27.69c2.97,7.4,7.93,10.49,15.83,8.5.39-.14.88-.36.88-.85.08.23-.01.5-.17.69-2.92,2.07-7.09,2.25-10.39.88-3.66-1.61-5.54-5.51-6.15-9.22h0Z"/>
      <path class="cls-1" d="m101.34,29.68c1.67,7.03,9.55,10.02,16.07,8.13-6.28,3.85-16.17-.18-16.07-8.13h0Z"/>
      <path class="cls-1" d="m108.27,46.86c.72-.02,1.27.35,1.53,1.02.27.69-.28,1.8-1.09,1.51.32-.93-.4-1.54-.44-2.53h0Z"/>
      <path class="cls-1" d="m108.2,44.97c.03-.17.28-.2.42-.16,2.03.61,2.96,3.59,1.49,5.17-.28-1.8-.63-3.08-1.48-4.57-.14-.2-.17-.48-.43-.44h0Z"/>
      <path class="cls-1" d="m108.07,43.22c.35-.19.79.03,1.08.25,1.92,1.42,3.31,4.91,1.02,6.6.69-2.26-.5-4.25-1.47-6.21-.14-.27-.28-.54-.63-.64h0Z"/>
      <path class="cls-1" d="m108.88,41.57c3.78,1.61,4.62,6.87.99,9.11.81-1.49,1.28-3.06,1.11-4.71-.13-1.69-1.22-2.95-2.09-4.4h0Z"/>
      <path class="cls-1" d="m109.52,40.18c4.16,1.52,4.57,8.15.63,10.17,2.24-3.18,2.06-7.22-.63-10.17h0Z"/>
      <path class="cls-1" d="m112.02,40.33c3.33,2.69,2.31,8.8-1.87,10,2.87-2.72,3.37-6.5,1.87-10h0Z"/>
      <path class="cls-1" d="m114.22,40.22c2.21,3.36.92,9.31-3.44,10.17,3.2-2.45,3.78-6.29,3.44-10.17h0Z"/>
      <path class="cls-1" d="m116.03,40.28c2.96,4.04-.88,9.27-4.82,10.92,2.75-3.16,5.9-6.46,4.82-10.92h0Z"/>
      <path class="cls-1" d="m22.88,46.62c.07,1.53.01,2.1-.39,3.58-1.32-.83-1.07-3.05.39-3.58h0Z"/>
      <path class="cls-1" d="m22.62,44.48c-.3,1.55-1.19,2.95-.88,4.5.12.47.39.98.58,1.57-2.9-1.11-1.94-4.81.3-6.07h0Z"/>
      <path class="cls-1" d="m22.01,42.39c-.17,1.61-1.04,3.16-1.13,4.68-.08,1.29.6,2.64,1.17,3.81l.13.27c.03.05.16.16.19.05.03.16-.2.14-.3.1-.3-.2-.51-.39-.77-.63-2.8-2.55-1.49-5.87.72-8.28h0Z"/>
      <path class="cls-1" d="m19.65,41.01l-.26,2.58c-.26,2.55.43,4.71,2.27,6.69-3.91-1.16-4.36-6.44-2.01-9.27h0Z"/>
      <path class="cls-1" d="m17.33,41.55c.85,3.29,1.5,6.28,3.79,8.89-3.43-1.12-4.77-5.67-3.79-8.89h0Z"/>
      <path class="cls-1" d="m15.68,41.69c.61,2.9,1.7,5.36,3.65,7.47.67.63,1.23,1.49,2.25,1.47-.43.31-1.06.21-1.55.02-3.27-1.46-5.31-5.52-4.35-8.97h0Z"/>
      <path class="cls-1" d="m13.88,41.73c1.29,4.26,4.01,7.32,8.07,9.13-4.56.07-8.7-4.61-8.07-9.13h0Z"/>
      <path class="cls-1" d="m13.2,46.35c.23.9,1.05,1.23,1.74,1.79,1.88,1.39,3.88,2.69,6.25,2.91.22,0,.46.11.61-.06-.06.27-.38.31-.57.4-2.55.82-5.26-.67-6.93-2.54-.56-.64-1.44-1.55-1.11-2.5h0Z"/>
      <path class="cls-1" d="m71.51,82.18c2.17-.98,3.37-3.04,4.38-5.04,1.92-4.16,3.97-8.94,8.28-11.25,1.06-.59,2.24-.98,3.42-1.11,1.15-.13,2.34-.18,3.2-1.01-.66,1.04-2.02,1.29-3.09,1.6-3.33.83-5.82,3.36-7.61,6.2-2.52,3.59-3.79,9.34-8.59,10.63h0Z"/>
      <path class="cls-1" d="m71.51,59.71c3.2.61,4.93-2.33,7.84-3.17,1.5-.45,3.15-.42,4.6.11,1.39.54,2.61,1.06,4.11.64-.61.43-1.37.64-2.16.64-2.11-.22-4.14-1-6.2-.23-2.47.72-5.41,3.7-8.19,2.01h0Z"/>
      <path class="cls-1" d="m43.65,57.67c1.43.08,2.86.2,4.05-.26,3.07-1.73,5.51-2.35,8.14.58.96.95,2.05,1.93,3.49,1.6-.59.44-1.46.44-2.17.21-.74-.22-1.39-.67-1.94-1.1-1.12-.91-2.14-1.61-3.4-1.57-1.21-.08-2.33.78-3.85,1.18-1.56.36-3.02-.09-4.32-.64h0Z"/>
      <path class="cls-1" d="m30.54,64.61c1.47-1.21,3.83-.99,5.04.48-1.92.12-3.18,0-5.04-.48h0Z"/>
      <path class="cls-1" d="m31.18,65.09c1.76-.55,3.55-.12,4.86,1.19-1.84.28-3.36-.1-4.86-1.19h0Z"/>
      <path class="cls-1" d="m32.65,66.9c2.11-.14,3.83.24,5.67,1.26-1.99.66-4.15.17-5.67-1.26h0Z"/>
      <path class="cls-1" d="m33.73,68.27c1.88.13,3.24.64,4.73,1.8-1.8.51-3.71-.23-4.73-1.8h0Z"/>
      <path class="cls-1" d="m34.88,70.43c2.06-.3,3.76-.07,5.66.8-1.9.83-4.06.51-5.66-.8h0Z"/>
      <path class="cls-1" d="m36.76,72.35c1.83-.2,3.3.22,4.74,1.36-1.76.51-3.52,0-4.74-1.36h0Z"/>
      <path class="cls-1" d="m38.87,74.52c1.73-.23,2.92-.06,4.51.68-1.44.97-3.42.67-4.51-.68h0Z"/>
      <path class="cls-1" d="m40.54,76.31c1.59-.58,3.1-.34,4.43.73-1.59.59-3.1.33-4.43-.73h0Z"/>
      <path class="cls-1" d="m42.11,78.06c1.66-.73,3.27-.63,4.83.3-1.62.74-3.31.63-4.83-.3h0Z"/>
      <path class="cls-1" d="m43.67,79.65c1.52-.95,3.35-.92,4.82.11-1.69.64-3.16.6-4.82-.11h0Z"/>
      <path class="cls-1" d="m45.76,81.23c1.41-.89,2.92-.97,4.41-.19-1.41.9-2.92.96-4.41.19h0Z"/>
      <path class="cls-1" d="m47.62,82.23c1.22-.91,2.74-.86,3.89.13-1.38.67-2.56.62-3.89-.13h0Z"/>
      <path class="cls-1" d="m48.78,83.72c1.04-.88,2.17-.93,3.28-.15-1.03.88-2.17.93-3.28.15h0Z"/>
      <path class="cls-1" d="m51.16,84.88c.77-1.02,2.04-1.14,2.97-.26-1.01.8-1.83.87-2.97.26h0Z"/>
      <path class="cls-1" d="m52.52,86.19c.9-.89,1.72-1.03,2.86-.47-.68,1.06-1.87,1.25-2.86.47h0Z"/>
      <path class="cls-1" d="m54.17,87.32c.67-1.04,1.82-1.22,2.78-.44-.87.89-1.68,1.02-2.78.44h0Z"/>
      <path class="cls-1" d="m55.75,88.78c.65-1.02,1.37-1.28,2.53-.91-.42,1.14-1.48,1.51-2.53.91h0Z"/>
      <path class="cls-1" d="m57.4,89.35c.48-1.11,1.21-1.44,2.36-1.03-.38,1.08-1.3,1.48-2.36,1.03h0Z"/>
      <path class="cls-1" d="m59.15,90.12c.47-1.1,1.45-1.53,2.57-1.11-.55,1.15-1.37,1.49-2.57,1.11h0Z"/>
      <path class="cls-1" d="m61.32,90.52c.08-1.09.76-1.6,1.83-1.36-.08,1.09-.76,1.59-1.83,1.36h0Z"/>
      <path class="cls-1" d="m62.66,90.49c.12-.92.28-1.01,1.12-.63.23.9-.48,1.29-1.12.63h0Z"/>
    </g>
  </g>
</svg>