<?xml version="1.0" encoding="UTF-8"?>
<svg id="Layer_2" data-name="Layer 2" xmlns="http://www.w3.org/2000/svg" viewBox="0 0 48.93 63.6">
  <defs>
    <style>
      .cls-1 {
        fill: #a37d2d;
        stroke-width: 0px;
      }
    </style>
  </defs>
  <g id="Layer_1-2" data-name="Layer 1">
    <g>
      <path class="cls-1" d="m12.03,13.2c9.83-5.82,22.56-2.55,28.38,7.28,5.82,9.83,2.55,22.56-7.28,28.38-9.83,5.82-22.56,2.55-28.38-7.28C-1.06,31.75,2.2,19.02,12.03,13.2Zm19.57,33.08c8.41-4.97,11.2-15.86,6.22-24.27-4.98-8.41-15.86-11.2-24.27-6.23-8.41,4.98-11.2,15.86-6.23,24.27,4.98,8.41,15.86,11.2,24.27,6.23Z"/>
      <path class="cls-1" d="m31.61,46.28c6-3.55,13.77-1.56,17.32,4.44l-2.58,1.53c-2.71-4.58-8.63-6.1-13.21-3.39s-6.1,8.64-3.39,13.21l-2.58,1.53c-3.55-6-1.56-13.77,4.44-17.32Z"/>
      <rect class="cls-1" x="7.24" y="-.35" width="3" height="15.95" transform="translate(-2.67 5.51) rotate(-30.61)"/>
      <rect class="cls-1" x="-.35" y="4.25" width="15.95" height="3" transform="translate(-1.86 4.69) rotate(-30.61)"/>
    </g>
  </g>
</svg>