<?xml version="1.0" encoding="UTF-8"?>
<svg id="Layer_2" data-name="Layer 2" xmlns="http://www.w3.org/2000/svg" viewBox="0 0 119.02 149.93">
  <defs>
    <style>
      .cls-1 {
        fill: #a37d2d;
        stroke-width: 0px;
      }
    </style>
  </defs>
  <g id="Layer_1-2" data-name="Layer 1">
    <g>
      <path class="cls-1" d="m9.71,95.26c24.09-8.16,72.63-24.38,96.78-32.35,0,0,.47-.16.47-.16l.16.47c.12.33.41,1.26.52,1.58-27.73,9.07-70.15,22.93-97.66,31.6,0,0-.01,0-.01,0h0s-.25-1.15-.25-1.15h0Zm0,0s.3,1.18.26,1.13c0,0,24.18-8.21,24.18-8.21,15.36-5.19,56.78-18.9,72.7-24.17,0,0-.32.63-.32.63l-.36-1.1.63.32c-24.16,7.92-72.86,23.67-97.09,31.41h0Z"/>
      <path class="cls-1" d="m106.35,62.46l.92,2.24-.22-.11c.75-.31,1.5-.6,2.25-.87,1.16.35,1.81,1.48,2.13,2.57,0,0-.82.19-.82.19-.48-2.99,2.23-5.14,4.73-6.09,0,0,.26.94.26.94-2.46.25-5.29.33-7.19-1.55,0,0,.48-.34.48-.34.31.76.63,1.85-.2,2.42-.02,0-2.31.6-2.33.6h0Zm0,0l2.2-.94c.33-.31.12-1.32-.2-1.82,0,0-.82-1.54-.82-1.54l1.3,1.2c2.74,2.13,7.03.82,10.18.43-.65.29-3.58,1.62-4.16,1.88-1.75.85-3.64,2.5-3.43,4.61,0,0-.82.19-.82.19-.17-.85-.59-1.78-1.39-2.16h.18c-.8.23-1.61.45-2.43.65l-.04-.16-.59-2.35h0Z"/>
      <path class="cls-1" d="m14.14,89.28c.86-.3,1.73-.58,2.59-.89,1.74.88,3.52,1.67,5.28,2.51.11.05.09.04.14.17,0,0,.45,1.16.45,1.16.05.1.03.11,0,.21-.43,1.74-.92,3.46-1.44,5.17-1.42.47-2.87.93-4.3,1.34.51-1.62,1.24-4.27,1.74-5.37,0,0-.32-1.18-.32-1.18l.08.1c-1.56-1.04-3.13-2.06-4.74-3.01,0,0,.53-.21.53-.22h0Zm0,0s-.54.25-.52.22c1.62.96,3.28,1.86,4.96,2.74l.03.07.44,1.14c-.28,1.65-.71,3.32-1.08,4.96,0,0-.58-.55-.58-.55,1.07-.39,2.14-.75,3.22-1.1l-.32.32c.51-1.63,1.05-3.24,1.64-4.85v.21s-.33-1.2-.33-1.2l.14.17c-1.63-.97-3.45-2.05-4.99-2.95-.87.25-1.73.54-2.6.81h0Z"/>
      <path class="cls-1" d="m17.89,98.22c-.15.78-.32,1.56-.49,2.34-1.76.72-3.55,1.34-5.33,2.01l-.74.28.25-.78c.8-2.45,1.67-4.88,2.54-7.3v.33s-.39-1.18-.39-1.18l.21.27c-2.31-1.42-4.61-2.86-6.86-4.38,1.56-.46,4.09-1.18,5.66-1.59,0,0,.06-.02.06-.02.45.35.89.72,1.33,1.09-.48-.29-.95-.57-1.42-.87l.1.02c-1.19.48-3.6,1.39-4.81,1.83,0,0,.07-.63.07-.63,2.2,1.22,4.37,2.5,6.52,3.8.08.24.43,1.28.51,1.52-.91,2.47-1.83,4.94-2.81,7.39l-.49-.5c1.8-.51,3.58-1.06,5.4-1.53l-.1.1c.25-.73.5-1.46.77-2.19h0Z"/>
      <path class="cls-1" d="m8.77,90.46c-2.45,1.01-4.93,1.92-7.42,2.82l-.02-.69c2.85.67,5.68,1.43,8.5,2.19l.26.07c.05.16.38,1.16.44,1.35l.08.24c-1.8,2.42-3.59,4.85-5.46,7.21l-.4-.56c2.53-.75,5.06-1.48,7.62-2.13-2.44,1-4.91,1.91-7.39,2.81l-1.04.38c1.84-2.75,3.78-5.44,5.72-8.11,0,0-.07.45-.07.45l-.36-1.09.34.32c-3.2-.89-6.41-1.8-9.58-2.82,2.91-.85,5.83-1.73,8.77-2.46h0Z"/>
      <path class="cls-1" d="m37.18,1.5c-1.91-.45-3.54,1.11-3.8,2.94-.13.57-.16,1.23-.19,1.78.91,3.98,2.43,7.87,4.77,11.22.76,1.07,1.77,2.19,2.69,3.02,0,0,3.06,1.89,3.06,1.89,8.76,2.33,16.9,7.16,23.95,13.01,3.44,2.88,6.7,6.03,9.35,9.67,2.61,3.67,4.64,7.71,6.39,11.84,2.71,6.68,5.07,13.47,6.27,20.55,1.26,7.94.94,16.3-.56,24.08-1.78,8.09-5.33,15.57-8.69,23.09-1.74,6.22-2.31,14.1.43,20.34,1.31,1.51,3.38,1.18,5.03-.32,0,0,1.2-.93,1.2-.93-.94,4.4-3.86,7.83-8.62,5.47,0,0-1.27-.74-1.27-.74l-.05-.03-.04-.04c-1.22-1.38-1.99-3.08-2.11-4.92l-.23-5.12-.46-10.19c.09-2.17.66-4.34,2.14-6,3.46-5.02,6.47-10.7,7.24-16.79,1.84-4.94,2.31-10.63.45-15.64,1.17-4.75,1.66-10.75-2.03-14.53,0,0-.03-.08-.03-.08l-1.79-5.48c1.4-5.66-2.19-11.27-5.74-15.45-1.3-5.62-4.06-11.64-9.46-14.34-1.72-4.37-6.02-7.24-9.86-9.69-3.95-2.49-8.45-4.25-13.14-4.57,0,0-.02,0-.02,0l-.84-.23-.43-.12c-1.68-.96-2.83-2.59-4.02-4.07-2.68-3.76-5.58-7.66-6.31-12.33-.41-2.3-.16-4.73.82-6.85,1.57-1.69,4.39-2.96,5.89-.47h0Zm0,0c-1.5-2.41-4.28-1.22-5.83.52-.92,2.07-1.17,4.52-.73,6.78.78,4.63,3.7,8.48,6.4,12.17,1.16,1.41,2.31,2.99,3.91,3.92,0,0,.41.11.41.11l.84.22c6.98.38,13.76,4.08,19.09,8.65,1.78,1.63,3.48,3.36,4.33,5.71,0,0-.15-.19-.15-.19,5.51,2.78,8.34,8.84,9.71,14.59,0,0-.07-.15-.07-.15.71.82,2.04,2.53,2.66,3.42,2.32,3.25,4.52,9.03,3.22,12.16,0,0,1.81,5.48,1.81,5.48,3.46,3.16,3.46,10.15,2.15,14.92,1.86,3.69,1.36,11.56-.41,15.69-.8,6.3-3.81,12-7.33,17.16-1.37,1.49-1.88,3.64-1.96,5.45,0,0,.5,10.2.5,10.2l.24,5.08c-.01,1.51,1.1,3.44,1.77,4.22,0,0,1.17.67,1.17.67,3.23,1.67,5.87-.1,6.82-3.4,0,0,.79.49.79.49-1.85,1.68-4.74,2.32-6.47.08-.86-1.66-1.29-3.47-1.57-5.25-.77-5.33-.43-10.8,1.15-15.96,3.34-7.39,6.91-14.9,8.7-22.82,1.02-5.24,1.51-10.58,1.36-15.92-.17-9.84-3.21-19.32-6.86-28.37-3.29-8.37-8.45-15.73-15.5-21.35-7.03-5.83-14.92-10.69-23.77-13.17,0,0-3.04-1.93-3.04-1.93-2.05-1.85-3.59-4.2-4.78-6.67-1.17-2.48-2.06-5.09-2.62-7.77.03-.61.08-1.21.21-1.81.29-1.81,1.92-3.43,3.85-2.93h0Z"/>
      <path class="cls-1" d="m16.44,88.4c4.67-24.78,10.03-49.58,16.02-74.09-4.67,24.79-10.03,49.59-16.02,74.09h0Z"/>
      <path class="cls-1" d="m17.13,89.61c4.67-24.78,10.03-49.58,16.02-74.09-4.67,24.79-10.03,49.59-16.02,74.09h0Z"/>
      <path class="cls-1" d="m20.75,97.23c18.54,13.44,36.79,27.5,54.52,42.01-18.55-13.44-36.8-27.5-54.52-42.01h0Z"/>
      <path class="cls-1" d="m20.85,98.53c18.54,13.44,36.79,27.5,54.52,42.01-18.55-13.44-36.8-27.5-54.52-42.01h0Z"/>
      <path class="cls-1" d="m33.94.27c-.4.57-.07,1.57.57,1.24.1-.04.25-.21.33-.28.2-.41-.27-.88-.9-.88.69-.78,2.21.15,1.76,1.26-.49,1.08-2.05,1.34-2.5.08-.2-.66.17-1.34.72-1.43h0Z"/>
      <path class="cls-1" d="m34.92.1c1.03-.54,1.71,1.26.6,1.51-.05-.01-.08-.08-.06-.1.08,0,0-.09-.03-.1-.38-.5-.34-.5-.51-1.31h0Z"/>
      <path class="cls-1" d="m35.41.16c.88-.36,1.35,1.01.43,1.26-.62-.65-.52-.36-.43-1.26h0Z"/>
      <path class="cls-1" d="m35.85.31c.89-.17.99,1.05.21,1-.12-.2-.25-.22-.31-.26-.27-.15-.16-.3.1-.75h0Z"/>
      <path class="cls-1" d="m36.29.59c.94.03.59,1.1-.02.91-.09-.21-.24-.19-.29-.27-.22-.26-.06-.28.31-.65h0Z"/>
      <path class="cls-1" d="m36.54.87c.78-.27.74.82-.02.48-.17-.19-.27-.27-.41-.26.14.02.24-.04.43-.22h0Z"/>
      <path class="cls-1" d="m36.8.98c.86-.19.44.88-.08.26-.11-.23-.26-.36-.39-.26-.01.05.12.21.47,0h0Z"/>
      <path class="cls-1" d="m30.6,5.57c-.18.72.38,1.33.81,1.42.37,0,1.08-.37,1.17-.72.2-.42-.87-1.5-1.5-.99-.27.15-.48.45-.73.73.11-1.66,1.7-2.08,2.8-.89,1.15,1.28-.17,2.68-1.62,2.7-1.11-.09-1.65-1.62-.95-2.25h0Z"/>
      <path class="cls-1" d="m30.99,2.8c.74.38,1.19,1.06,1.44,1.79l-.63-.32c.12,0,.38-.27.71-.5.31-.22.72-.43,1.15-.38-.38.51-.54.92-.92,1.39-.19.28-.75.5-1.11.61-.25-.87-.52-1.58-.64-2.59h0Z"/>
      <path class="cls-1" d="m31.01,2.85c.53-.68,1.12-1.12,1.77-1.63.62.54,1.13,1.36.83,2.2-.5-.49-.84-.84-1.22-1.18l.66.03c-.57.47-1.29.76-2.04.58h0Z"/>
      <path class="cls-1" d="m31.19,2.49c.56-.79,1.27-1.3,2.07-1.79.42.74.79,1.6.57,2.47,0,.02,0,.06-.04.1-.05.06-.11-.04-.06-.04-.41-.39-.78-1.07-1.1-1.58,0,0,.7.18.7.18-.64.4-1.35.74-2.15.66h0Z"/>
      <path class="cls-1" d="m31.51,1.89c.51-.82,1.34-1.24,2.16-1.65,0,0,.15.57.15.57.52,2.37-.13,2.59-.95.31,0,0,.7.29.7.29-.65.31-1.3.53-2.06.48h0Z"/>
      <path class="cls-1" d="m33.93,2.05c.69-.09.77.12.21.52-.69.09-.77-.12-.21-.52h0Z"/>
      <path class="cls-1" d="m34.28,2.11c.68-.01.69.08.03.24-.68.01-.69-.08-.03-.24h0Z"/>
      <path class="cls-1" d="m32.19,1.27c.18-.86.67-1.13,1.49-.8-.11.83-.74,1.16-1.49.8h0Z"/>
      <path class="cls-1" d="m30.9,3.13c.85.13,1.3,1,.78,1.64-.73-.31-1.14-.79-.78-1.64h0Z"/>
      <path class="cls-1" d="m30.76,3.71c.76-.24,1.16.41.62.99-.77-.13-.84-.24-.62-.99h0Z"/>
      <path class="cls-1" d="m30.72,4.07c.72,0,.78.09.39.71-.69.23-.95-.24-.39-.71h0Z"/>
      <path class="cls-1" d="m30.57,4.47c.69-.14.82.1.32.6-.7.14-.82-.1-.32-.6h0Z"/>
      <path class="cls-1" d="m30.54,4.97c.39-.09.48-.12.52-.09.02.04-.04.12-.23.47-.55.45-.87.03-.29-.38h0Z"/>
      <path class="cls-1" d="m32.16,5.06c.01-.8.41-1.31,1.3-1.17.11.87-.54,1.4-1.3,1.17h0Z"/>
      <path class="cls-1" d="m32.69,5.11c-.1.08-.02.21.09.14l-.37-.3c.05-.39.18-.55.51-.6.12-.01.25-.02.45.01.27.53-.07,1.12-.69,1,0,0-.54-.1-.54-.1l.17-.19c.15-.17.37-.09.37.04h0Z"/>
      <path class="cls-1" d="m32.81,5.46c-.39-.59-.22-.8.44-.53.39.59.21.8-.44.53h0Z"/>
      <path class="cls-1" d="m32.94,5.7c-.24-.33-.3-.4-.29-.45.03-.02.12.01.51.16.31.24.33.37.29.45-.06.06-.19.07-.51-.16,0,0,.31.23,0,0Z"/>
      <path class="cls-1" d="m31.46,5.28c-.42.55.13,1.38.54.9.05-.04.11-.17.09-.11.01-.01,0,.09.02.09,0,0-.01-.03-.02-.06-.04-.13-.14-.25-.25-.37-.18-.12-.07-.16-.3-.12-.18.04-.36.16-.52.36-.11-.51.4-1.15.99-.99.56.13,1.21.72,1.03,1.34-.26.99-1.6,1.29-2.14.38-.35-.62.02-1.38.56-1.42h0Z"/>
      <path class="cls-1" d="m31.69,5.98c-.02.13.06.18.12.18.15-.03.09-.29-.06-.3-.24,0-.35.29.01.41.15.04.25-.12.18-.14-.06-.04-.15-.02-.27,0-.08-.1-.12-.19-.09-.33,0-.12.25-.33.51-.23.52.22.45.74.25.99-.21.29-.77.34-.98,0-.24-.25,0-.79.32-.59h0Z"/>
      <path class="cls-1" d="m30.4,7.46c.35-.02.64.02.86,0,.31-.05.93-.26,1.29-.33.22-.07.45-.12.73-.32.12.34-.05.73-.3.97-.74.76-2.21.79-2.58-.33h0Z"/>
      <path class="cls-1" d="m30.46,8.24c.98,0,1.68-.18,2.55-.53.07-.02.37-.14.39-.1-.04-.02.04-.08.07,0,.01.05,0,.08,0,.1-.17,1.42-2.41,1.97-3,.55h0Z"/>
      <path class="cls-1" d="m30.59,9.05c1.37-.13,1.77-.24,3.03-.78.09,1.54-2.37,2.17-3.03.78h0Z"/>
      <path class="cls-1" d="m30.95,9.28c.35.4.61.85.83,1.24.19.25.97.16,1.26-.1.27-.2.32-.28.26-.52-.05-.37-.09-.74-.08-1.13.19.18.34.39.49.61.07.12.25.38.31.51.31.82-.48,1.53-1.2,1.72-1.71.31-1.99-.92-1.89-2.32h0Z"/>
      <path class="cls-1" d="m31.41,9.38c.4.25.56.75.89.8.04-.05.44-.12.48-.16.26-.02,0-.86.22-1.02,2.36,1.94-2.26,3.44-1.58.39h0Z"/>
      <path class="cls-1" d="m32.51,11.27c.17.21.34.29.41.26.08-.03.06-.1-.04-.07-.04.03,0,.07.08.01.06-.06.17-.19.12-.46.27-.1.58.13.66.42.26.87-1,1.4-1.41.61-.16-.31-.05-.62.18-.76h0Z"/>
      <path class="cls-1" d="m32.18,11.18c.01.88.94,1.01,1.27.35.08-.19.18-.55-.01-.85.47-.02.76.47.79.93.09,1.16-1.59,1.79-2.23.8-.32-.43-.19-1.05.18-1.24h0Z"/>
      <path class="cls-1" d="m31.59,10.96c-.29,1.08.84,1.89,1.71,1.51.2-.07.35-.19.49-.39.61-.58.55-1.24-.06-2,1.12.22,1.61,1.61.81,2.58-.56,1.06-2.29,1.18-2.99.22-.5-.55-.53-1.53.04-1.92h0Z"/>
      <path class="cls-1" d="m32.7,13.05c.66.23.56.33.84.14.31-.14.49-.22.63-.67.3.1.46.46.4.8-.24,1.26-2.2,1.12-1.86-.27h0Z"/>
      <path class="cls-1" d="m32.28,12.88c.12.45.47.64.76.88.29.15.42.04.71-.08.3-.11.58-.37.67-.52.08-.27.11-.82,0-1.16.46.21.72.71.77,1.26-.16,1.03-.96,1.47-1.87,1.51-.84-.03-1.51-1.2-1.06-1.89h0Z"/>
      <path class="cls-1" d="m34.1,14.12c-1.12,1.02.14,2.75,1.21,1.78,1.19-.85-.07-2.47-1.38-1.56.72-1.46,2.98-.66,2.76,1.08-.21,1.59-2.48,2.42-3.38.89-.53-.77-.12-1.99.78-2.19h0Z"/>
      <path class="cls-1" d="m34.61,14.47c-.12.15-.36.56-.27.68.03.06.21.49.26.38.25.02.33-.05.48-.25.07-.06.11-.09.09-.21-.04-.2-.32-.53-.78-.44.53-.92,2.09.03,1.55,1.05-.38,1.11-2.14,1.11-2.24-.09-.13-.63.27-1.1.91-1.12h0Z"/>
      <path class="cls-1" d="m34.71,14.99c-.14.38.36.28.11.05-.08-.06-.14,0-.19.17,0,.06.02.1.07.06.14-.02.21-.22-.02-.24-.06-.14.09-.29.26-.31.4-.01.65.36.61.73-.15.73-1.2.73-1.37.08-.12-.32.24-.75.53-.53h0Z"/>
      <path class="cls-1" d="m34.69,16.64c.41.14.56.05.82-.1.23-.1.42-.16.43-.54.27-.13.59.26.56.6,0,.36-.24.66-.53.82-.54.33-1.51-.1-1.28-.78h0Z"/>
      <path class="cls-1" d="m34.49,16.66c.37.65.87.84,1.42.51.34-.18.67-.72.22-1.5,1.17.1,1.3,1.86.25,2.38-1.03.6-2.37-.25-1.9-1.39h0Z"/>
      <path class="cls-1" d="m36.62,17.3c-.83.67-1.11,2.24.18,2.23,1.69-.67,1.05-2.77-.62-1.92.94-1.55,3.07-.06,2.39,1.49-.59,1.59-2.91,2.03-3.35.14-.17-.94.55-1.77,1.39-1.94h0Z"/>
      <path class="cls-1" d="m36.65,17.89c-.4.78.08,1.44.54.73.04-.45-.4-.68-.83-.34.27-1.54,2.39-.27,1.62.91-.37.85-1.74.93-2.05,0-.2-.58.18-1.19.72-1.3h0Z"/>
      <path class="cls-1" d="m36.6,20.6c.3-.11.41-.32.61-.47.24-.22.75-.65,1-.86.17-.16.36-.24.52-.54.29.23.25.67.15.95-.24.85-1.56,1.63-2.27.91h0Z"/>
      <path class="cls-1" d="m36.93,21.13c.79-.47,1.1-.82,1.79-1.27.2-.13.38-.24.59-.51.44.6-.09,1.29-.54,1.71-.48.44-1.31.51-1.83.08h0Z"/>
      <path class="cls-1" d="m37.54,21.79c.64-.66,1.05-.98,1.66-1.48.17-.15.34-.28.51-.58.27.24.28.67.17.98-.32.92-1.41,1.52-2.33,1.09h0Z"/>
      <path class="cls-1" d="m38,22.36c.49-.39.68-.74,1.08-1.13.4-.39.8-.54,1.2-1.02.65,1.11-1.21,2.84-2.28,2.15h0Z"/>
      <path class="cls-1" d="m38.79,22.15c.33.5.59,1.04.81,1.59l-.5-.26c.7-.37,1.44-.68,2.18-.94l-.33.57c-.15-.71-.23-1.43-.27-2.16l.48.18c-.44.26-.99.21-1.32-.06h.03s-.06.05-.06.05c0,0,.01-.1.01-.1.41.03.77-.14.96-.37,0,0,.28-.33.28-.33.39.97.72,1.98.92,3-.99.41-2.02.75-3.08.96-.09-.7-.18-1.38-.14-2.12h0Z"/>
      <path class="cls-1" d="m39.24,21.85c.32.31.54.64.72.99l-.53-.25c.37-.23.77-.41,1.19-.55l-.33.57c-.04-.33-.06-.67-.05-1l.22.32c.08-.07-.31-.06-.39-.1-.23-.07-.36-.18-.57-.26.17-.15.42-.16.57-.23.24-.11.39-.22.73-.11l.12.04c.2.49.33,1.03.4,1.55-.65.3-1.37.5-2.08.59-.07-.52-.12-1,0-1.55h0Z"/>
      <path class="cls-1" d="m40.53,24.79c.49-1.3,1.14-1.99,1.76-3.15.88,1.16-.4,3.07-1.76,3.15h0Z"/>
      <path class="cls-1" d="m41.03,25.07c.49-1.32.91-2.02,1.86-3.06.47,1.32-.47,2.86-1.86,3.06h0Z"/>
      <path class="cls-1" d="m41.59,25.2c.41-1.29.81-1.95,1.77-2.9.45,1.27-.43,2.71-1.77,2.9h0Z"/>
      <path class="cls-1" d="m47.21,25.29c-.16-.69.52-1.54,1.4-1.52,1.65,0,2.17,1.92.88,2.89-.73.53-1.86.3-2.23-.55-.08-.4-.11-.73.02-1.07.08.32.27.63.41.84.51.49,1.42.22,1.53-.52.05-.24.05-.27-.1-.46-.53-.6-1.49-.49-1.91.4h0Z"/>
      <path class="cls-1" d="m54.47,26.74c-1.31,0-1.22,1.6-.33,1.68.58.04,1.2-.72.79-1.28-.17-.15-.45-.45-.72-.42.27-.24.71-.08,1.03.04,1.24.81.26,2.74-1.12,2.66-.95,0-1.59-.98-1.43-1.86.12-.8,1.15-1.32,1.78-.82h0Z"/>
      <path class="cls-1" d="m42.71,23.95c.84.21,1.12.77.93,1.5-.82.13-1.36-.74-.93-1.5h0Z"/>
      <path class="cls-1" d="m42.5,24.17c.84.11,1.05.48.7,1.26-.78,0-1.1-.59-.7-1.26h0Z"/>
      <path class="cls-1" d="m42.34,24.47c.73-.07,1.01.42.55,1-.79-.03-.95-.32-.55-1h0Z"/>
      <path class="cls-1" d="m42.08,24.76c.63-.27.88.07.41.57-.72.16-.79.05-.41-.57h0Z"/>
      <path class="cls-1" d="m43.06,23.41c.35-.7,1.07-1.11,1.77-.48-.45.75-1.02,1.05-1.77.48h0Z"/>
      <path class="cls-1" d="m43.22,23.08c.25-.76.65-.87,1.23-.31-.17.75-.72.88-1.23.31h0Z"/>
      <path class="cls-1" d="m43.23,22.8c.13-.71.48-.79.88-.18-.13.72-.48.78-.88.18h0Z"/>
      <path class="cls-1" d="m43.34,22.55c.03-.69.19-.71.4-.05-.03.69-.19.71-.4.05h0Z"/>
      <path class="cls-1" d="m43.28,23.71c-.05.3.21.35.27.34.05-.03-.06-.09-.09-.1-.06,0-.12.04-.06.05.19.04.07-.08-.04-.14-.05-.04-.17-.08-.25.07-.36-.28.19-.77.57-.71.24,0,.51.22.6.43.41.81-.71,1.7-1.29.92-.23-.29-.12-.92.29-.88h0Z"/>
      <path class="cls-1" d="m44.3,24.03c-.04.34.17.45.21.36-.06-.13-.04-.12-.04-.14,0,.03.03.04.09-.02.03-.11-.13-.35-.28-.14-.16-.1-.06-.41.15-.49.73-.36,1.34.7.82,1.28-.32.38-.95.49-1.29.06-.28-.35-.06-.9.35-.9h0Z"/>
      <path class="cls-1" d="m45.43,24.31c-.11.21.05.34.19.24.07-.04.1-.11.04-.07,0,.02,0,.04.01.08.09.12.16-.07.05-.11-.07-.03-.19,0-.3.11-.42-.78.96-1.06,1.17-.19.23.84-.88,1.39-1.41.83-.35-.25-.25-1.03.25-.88h0Z"/>
      <path class="cls-1" d="m46.49,24.47c-.05.34.21.42.23.32.03-.03.04-.06,0-.07-.03,0,.02-.04.03-.05.03-.02.06-.06.02-.02-.1.17-.03.18-.06.07,0-.09,0-.09.07-.09.16-.05-.09-.23-.35.01-.22-.39.22-.9.72-.7.39.2.48.47.53.82.1.71-.94,1.15-1.4.67-.36-.28-.24-.96.21-.96h0Z"/>
      <path class="cls-1" d="m43.78,25c1.22-.33,2.12.04,3.04.86-1.14.55-2.29.1-3.04-.86h0Z"/>
      <path class="cls-1" d="m44.46,23.36c1.11-.2,2.25-.2,3.1.75-.9.37-1.63.26-2.42-.11-.22-.11-.61-.29-.68-.65h0Z"/>
      <path class="cls-1" d="m48.23,24.84c-.21.39.09.7.23.51,0,.02.02,0,.05-.1.02-.04.02-.04.05.01,0,.03.05.02.02-.02-.06-.12-.17-.36-.53-.21-.06-.49.68-.65,1.02-.39.24.08.43.57.36.78-.01.91-1.38,1.31-1.77.39-.22-.42.09-1.03.56-.97h0Z"/>
      <path class="cls-1" d="m49.12,26.39c.69-.07.77.14.19.53-.7.07-.77-.14-.19-.53h0Z"/>
      <path class="cls-1" d="m49.52,25.92c.79.17,1.02.6.55,1.27-.78-.13-1.03-.64-.55-1.27h0Z"/>
      <path class="cls-1" d="m49.77,25.28c.97.44,1.39,1.25,1.24,2.28,0,0-.14.05-.14.05l.05-.09c.05.04.5.36.56.4-1.16-.44-2.03-1.31-1.72-2.64h0Z"/>
      <path class="cls-1" d="m49.99,24.71c1.28.58,1.76,1.91,1.83,3.23-1.15-.48-1.76-2.06-1.83-3.23h0Z"/>
      <path class="cls-1" d="m50.9,25.05c.82.57,1.22,1.26,1.67,2.01.19.31.28.67.36,1.01.05.16.15.37.11.58-1.3-.69-2.2-2.08-2.15-3.6h0Z"/>
      <path class="cls-1" d="m51.74,25.38c1.03.37,1.54,1.25,1.35,2.34-1.03-.46-1.45-1.2-1.35-2.34h0Z"/>
      <path class="cls-1" d="m52.64,25.82c.82.03,1.04.63.75,1.24-.57.24-1.2-.48-.75-1.24h0Z"/>
      <path class="cls-1" d="m53.35,26.13c.79-.04.72.32.26.65-.55.19-.9-.24-.26-.65h0Z"/>
      <path class="cls-1" d="m54.2,27.26c-.17.16-.21.34-.07.45.06.04.1.16.16.13,0-.01.06.02.07,0,.02-.02-.05-.02-.03-.03.05.01.07-.09.07-.17.05-.1-.09-.32-.49-.31.37-.81,1.48-.21,1.39.58-.01.81-1.14,1.22-1.64.53-.41-.43-.13-1.48.54-1.19h0Z"/>
      <path class="cls-1" d="m55.37,28.36c-.14.22.07.23.19.26.09.02-.02-.1-.02-.11-.04-.03,0-.03-.06,0-.05.03-.06.06-.06.11.1.26.33-.15-.09-.19.13-.74,1.17-.25,1.01.42-.09.73-1.28.85-1.46.13-.13-.27.17-.9.5-.62h0Z"/>
      <path class="cls-1" d="m56,28.7c-.08.19.12.42.16.29.05-.1-.07-.15-.1-.13.02-.01-.13.13-.07.22.08.08.15-.06.08-.14-.04-.05-.15-.2-.21-.08-.2-.09.05-.36.17-.41.54-.26,1.13.46.82.98-.29.55-1.18.53-1.39-.08-.13-.46.24-.81.53-.65h0Z"/>
      <path class="cls-1" d="m56.57,29.03c-.01.11-.01.25.03.31.03.06.11.06.12,0-.04-.18,0-.15-.08-.15-.03.03-.05.05-.05.11.02.07.05.11.1.09.13.02.08-.27-.19-.19-.16-.31.37-.67.76-.35.18.13.28.37.26.63-.12.74-1.15.95-1.49.2-.13-.39.19-.77.55-.65h0Z"/>
      <path class="cls-1" d="m57.18,29.32c-.05.2.13.47.17.38.07-.03-.08-.16-.13-.17-.03,0,.06-.05-.03,0-.03.03-.08.11-.07.15,0,.03,0,.02.01-.01.03-.11,0-.11.11-.04.18.03.02-.24-.25-.16-.09-.28.29-.71.8-.4.3.28.32.54.29.82-.11.71-1.28.83-1.44.11-.1-.33.25-.81.55-.67h0Z"/>
      <path class="cls-1" d="m57.71,29.62c.07.11.04.5.13.44.02-.07,0-.12.02-.13.05-.02.15.03.12-.02-.04-.03-.11-.01-.13,0-.06.08,0,.11.05.04,0-.02.13-.05.05-.12-.1-.04-.17-.14-.3-.09-.08-.16.12-.31.23-.39.7-.3,1.25.79.61,1.32-.78.69-2-.69-.79-1.05h0Z"/>
      <path class="cls-1" d="m58.36,30.11c-.07.3.12.43.16.3.07-.08-.08-.14-.1-.11-.09.09.18.21.16.01-.01-.09-.21-.05-.29-.11.05-.42.51-.56.83-.26.37.36.24.92-.12,1.18-.35.27-.99.15-1.14-.29-.17-.37.13-.8.5-.71h0Z"/>
      <path class="cls-1" d="m58.91,30.45c0,.13.07.47.11.49.03,0,.04-.12.02-.15.05-.07,0-.13-.09-.07-.02.03-.02.13.13.14.26-.06-.28-.17-.38-.14.01-.35.29-.69.76-.55.55.24.53.94.19,1.26-.88.8-2.01-.69-.75-.97h0Z"/>
      <path class="cls-1" d="m54.74,29.06c1.53.23,2.98,1.16,3.84,2.43-1.63-.14-3.01-1.04-3.84-2.43h0Z"/>
      <path class="cls-1" d="m55.69,28c0-.07.11-.08.15-.08.74-.04,1.47.27,2.09.63,2.3,1.58,1.93,2.18-.51.86-.64-.37-1.2-.92-1.73-1.41h0Z"/>
      <path class="cls-1" d="m60.59,30.44c-1,.27-1.38,1.1-.77,1.81.13.16.22.33.36.33.13,0,.42-.12.57-.26.43-.37.38-.82.11-1.34-.12-.27-.3-.53-.67-.49.29-.31.81-.07,1.05.19,1.19.95.48,2.78-1.04,2.9-.95,0-1.6-1.18-1.46-2.06.14-.85,1.09-1.38,1.84-1.08h0Z"/>
      <path class="cls-1" d="m60.15,31.22c-.22.41-.03.64.21.65.02-.04-.11,0-.08-.02,0,0,.06-.05.02-.01,0,.04,0,.05,0,.05.02,0,0-.12,0-.12.04-.07-.11-.23-.12-.29-.02-.07-.19-.09-.32.04-.2-.56.66-.68.99-.37.22.12.33.38.39.63.15.67-.65,1.28-1.26.96-.76-.35-.64-1.61.17-1.52h0Z"/>
      <path class="cls-1" d="m61.61,32.46c-.01.17-.12.35-.07.42,0,.07.05-.04.15.03.25.16.18-.01.06.05-.02.01-.02.11-.02.03.05-.16-.03-.09.12-.06.04,0-.02-.04-.06-.07-.04-.03-.07-.06-.09-.08-.01-.07-.19-.09-.18.09-.23-.02-.22-.44.04-.56.11-.06.23-.08.32-.1.41-.09.76.32.8.7.19.57-.53,1.23-1.13.95-.72-.37-.82-1.37.08-1.39h0Z"/>
      <path class="cls-1" d="m62.5,33.38c-.19.16-.07.33.1.3.1,0,.15-.06.06-.04-.07.18-.05-.1.11.07.09-.05-.05-.09-.1-.12-.09-.04-.21-.2-.29-.08-.17-.16.14-.35.26-.41.47-.3,1,.18.94.68.02.88-1.23,1.12-1.59.37-.26-.35.09-1.09.52-.77h0Z"/>
      <path class="cls-1" d="m63.37,34.04c-.17.3,0,.46.08.44.12,0,0-.1-.04-.07-.06.08-.03.15.04.03.1-.15-.13-.26-.3-.1-.12-.14-.03-.38.14-.5.43-.29,1.01.13,1.04.62.14.95-1.35,1.29-1.59.34-.14-.39.23-.91.63-.76h0Z"/>
      <path class="cls-1" d="m64.3,34.65c-.31.19-.18.53-.06.41.02-.01.23.04.2.02-.02,0-.1,0-.14.04-.06.09.01,0,.02-.08.02-.03.02-.03.04,0,.02.03.07.05.05,0-.06-.08-.18-.18-.13-.22-.02-.06-.2.02-.37.07,0-.17,0-.36.24-.55.28-.1.45-.04.69.04.25.06.46.52.42.77-.03,1.08-1.32,1.2-1.75.24-.19-.5.37-1.06.79-.76h0Z"/>
      <path class="cls-1" d="m60.92,33.44c1.64.09,2.53,1.56,3.33,2.84-1.62-.17-2.45-1.6-3.33-2.84h0Z"/>
      <path class="cls-1" d="m62.03,31.97c.06.03.41.07.53.08.63.09,1.22.65,1.64.97.63.41,1.35.9,1.64,1.65,0,.04.07.12.02.16-.03.01-.05-.02-.03-.03-.05.02-.44-.15-.54-.19-.57-.26-1.13-.41-1.69-.79-.65-.59-1.03-1.11-1.58-1.71,0-.04-.07-.12-.02-.16.03-.01.05.02.04.03h0Z"/>
      <path class="cls-1" d="m65.33,35.53c-1.2,1.09.1,3.19,1.37,2.22.54-.47.76-.88.28-1.57-.34-.55-1.31-1-1.91-.5.13-.46.74-.63,1.18-.59,1.32-.04,2.54,1.72,1.59,2.87-.72,1.27-2.68,1.35-3.34,0-.49-.85-.13-2.16.83-2.42h0Z"/>
      <path class="cls-1" d="m65.53,39.76c-1.02-.63-.51-1.34.07-1.89-.14.23-.14.46-.32.37,0,0,.18-.05.18-.05.64.45.67,1.02.07,1.57h0Z"/>
      <path class="cls-1" d="m66.14,38.47c.76.32.73,1.14.14,1.63-.79-.42-.65-1.12-.14-1.63h0Z"/>
      <path class="cls-1" d="m67.06,38.08c.64.72.78,1.8.03,2.56,0,0-.14-.04-.14-.04l.1-.04c.02.08.13.44.16.52-.34-.51-.66-1.19-.61-1.72.04-.43.09-.99.46-1.28h0Z"/>
      <path class="cls-1" d="m67.07,38.34c.64-.92,1.62-1.24,2.68-.85-.7.94-1.57,1.22-2.68.85h0Z"/>
      <path class="cls-1" d="m67.79,37.17c.15-.18.12-.31.18-.4.12-.21.44-.26.67-.18.16.06.26.16.4.28.02.02,0,.12-.04.1-.02,0-.05-.03-.03-.04.02,0,0-.03,0-.03-.02-.02-.05.06-.04.07.02.05.04.05.03.08-.04.09-.12.23-.17.3-.17.21-.29.19-.56.14-.13-.02-.38-.09-.44-.33h0Z"/>
      <path class="cls-1" d="m67.68,36.5c-.07-.66.38-.76.69-.39.05.06.15.2.05.29-.12.02-.1.14-.11.2-.09.42-.25.33-.63-.1h0Z"/>
      <path class="cls-1" d="m67.04,39.34c-.24-.79.22-1.38,1.05-1.33.17.88-.16,1.29-1.05,1.33h0Z"/>
      <path class="cls-1" d="m67.07,40.65c.31-1.24.94-2.08,1.86-2.86.15-.11.37-.23.56-.18-.38,1.33-.94,2.59-2.43,3.04h0Z"/>
      <path class="cls-1" d="m67.88,41.2c.49-1.36,1.08-2.33,2.36-3.06-.07,1.43-.93,2.71-2.36,3.06h0Z"/>
      <path class="cls-1" d="m70.24,38.08c.36.15.44.2.45.23-.02.01-.11,0-.49-.12-.37-.16-.44-.2-.45-.23.02-.01.11,0,.49.12,0,0-.38-.12,0,0Z"/>
      <path class="cls-1" d="m68.61,40.55c.09.1.17.08.25.11.56.35.62,1.01.06,1.52-.65-.37-.71-.78-.52-1.34.03-.09.07-.26.2-.29h0Z"/>
      <path class="cls-1" d="m69.18,39.73c.99.99,1.27,2.42.91,3.71-.04.07-.03.2-.13.23-.72-.99-1.09-2.55-.79-3.94h0Z"/>
      <path class="cls-1" d="m69.88,38.8c1.03,1.57,1.24,3.52.57,5.29-.72-1.72-.89-3.49-.57-5.29h0Z"/>
      <path class="cls-1" d="m69.96,39.49c.2-.71.64-1.03,1.38-.58-.11.8-.74,1.1-1.38.58h0Z"/>
      <path class="cls-1" d="m70.2,40.11c.22-.76,1.06-1.13,1.61-.63-.06.73-.94,1.13-1.61.63h0Z"/>
      <path class="cls-1" d="m70.24,40.85c.38-.8,1.32-1.25,2.13-.88-.23.87-1.27,1.3-2.13.88h0Z"/>
      <path class="cls-1" d="m72.06,46.59c.8-.37,1.74-.37,2.6-.1l-.61.29c.16-.66.4-1.31.64-1.95.82.12,1.66.43,2.22,1.03,0,0-.29.06-.29.06.15-.11.27-.31.31-.56.18.25.15.65-.02.95-.65-.23-1.33-.41-1.97-.45,0,0,.52-.33.52-.33-.18.68-.44,1.37-.71,2.03-.86-.42-1.67-.71-2.69-.97h0Z"/>
      <path class="cls-1" d="m71.62,45.72c.71-.14,1.54-.05,2.16,0,.02,0-.07.03-.09.05-.02.02-.01.01,0-.02l.13-.32c.26-.43.45-1.39,1.17-1.29.45.11.76.42,1.17.53.03.01.1-.02.11-.02.02-.01.06-.11-.01-.1.07-.08.16.05.16.13-.2.63-1.14.26-1.53.28.18.05.26-.23.13.16-.19.42-.34,1.02-.68,1.35-.12.12-.33.19-.44.16-.9-.12-1.51-.47-2.27-.94h0Z"/>
      <path class="cls-1" d="m71.33,45.13c.4-.29.99-.06,1.41-.09,0,0,.65-.02.65-.02.14,0,.19-.03.06.02-.09.06-.05.06-.04-.02.13-.44.25-1.31.85-1.46.31-.04.33,0,.47.02.35.08.71.17,1.04.32-.37.2-.98.3-1.26.39,0,0,.07,0,.07-.01-.21.54,0,1.15-.62,1.6-.54.23-.87.04-1.35-.07-.57-.16-.8-.56-1.27-.68h0Z"/>
      <path class="cls-1" d="m70.71,44.31c.19-.22.53-.14.73-.17.5-.01,1.12-.03,1.62-.06-.05-.02-.24.11-.25.16-.04.09-.02.03,0-.03.06-.22.21-.79.29-1,.05-.23.21-.53.47-.55.31-.05.49.04.79.07.23.05.47.1.71.2-.32.18-.67.29-1.01.39-.02,0-.37.08-.25.08.01.02.17-.13.16-.13.01-.01,0,.08-.01.13-.06.39-.1.94-.27,1.32-.16.34-.64.36-.94.31-1.09-.1-1.32-.49-2.02-.73h0Z"/>
      <path class="cls-1" d="m70.51,43.38c.59-.34,1.27-.19,1.87-.2.06,0,.09-.03-.02.02-.06.05-.08.06-.08.06.25-.53.5-1.79,1.35-1.68.27.06.38.21.61.21-.14.22-.47.2-.6.28-.08.03-.07.07-.06.09-.36,2.59-1.08,2.2-3.05,1.22h0Z"/>
      <path class="cls-1" d="m70.38,42.3c.56,0,1.07.04,1.55.02,0-.03-.22.02-.29.15-.06.1-.03.05-.02,0,.12-.45.3-.99.58-1.37.46-.44.84-.23,1.32-.12-.28.26-.79.47-.69.57,0,.06.01.09,0,.15-.09.46-.16.87-.39,1.31-.08.15-.37.28-.53.25-.65-.12-1.18-.41-1.53-.97h0Z"/>
      <path class="cls-1" d="m70.4,41.67s-.08-.04-.07-.1c.06-.16.53-.14.7-.16.23,0,.46.02.68.06l-.59.29c.11-.33.18-.65.45-1.01.24-.35.89-.64,1.22-.26-.33.16-.38.39-.46.69-.06.38-.33.98-.52,1.38-.48-.22-1.02-.45-1.36-.87,0-.02,0-.03,0-.06-.01-.01-.05,0-.03.04h0Z"/>
      <path class="cls-1" d="m81.05,71.02c.07-.48-.29-1.14.29-1.54,1.28-.78,2.47-1.29,3.97-1.64.78-.09,1.3.36,1.88.75-.64.04-1.34-.18-1.71.01-1.06.53-2.25,1.04-3.4,1.33-.34.1-.51.09-.61.25-.13.19-.14.62-.42.83h0Z"/>
      <path class="cls-1" d="m80.95,68.35c.71-.42,1.55.02,1.69.88-.88.34-1.45-.12-1.69-.88h0Z"/>
      <path class="cls-1" d="m81.02,67.64c1.18-.2,1.98.17,2.58,1.21-1.09.25-2.07-.22-2.58-1.21h0Z"/>
      <path class="cls-1" d="m81.13,66.6c1.39,0,2.5.61,3.32,1.63.04.07.07.08.07.15.01.01.02-.03,0-.02,0-.03.07-.01.07.03-.02.13-.17.08-.26.09-1.28-.11-2.49-.75-3.21-1.88h0Z"/>
      <path class="cls-1" d="m82.21,67c.23-2.23,1.1-4.22,2.58-5.9-.23,2.23-1.1,4.22-2.58,5.9h0Z"/>
      <path class="cls-1" d="m83.35,67.76c.13-1.8.92-3.39,2.28-4.57-.15,1.84-.9,3.34-2.28,4.57h0Z"/>
      <path class="cls-1" d="m84.53,68.36c-.11-1.29.49-2.81,1.66-3.36-.07,1.34-.48,2.56-1.66,3.36h0Z"/>
      <path class="cls-1" d="m80.94,64.98c.8-.47,1.45-.29,1.86.55-.76.49-1.49.27-1.86-.55h0Z"/>
      <path class="cls-1" d="m80.45,63.54c1.13-.35,2.1-.05,2.81.9-1.13.36-2.1.04-2.81-.9h0Z"/>
      <path class="cls-1" d="m79.84,61.95c1.48-.12,2.99.28,4.25.98,0,0-.05.15-.05.15l-.08-.15c.11.01.42.04.54.05-1.65.57-3.44.27-4.65-1.02h0Z"/>
      <path class="cls-1" d="m81.82,62.76c-.38.11-.47.12-.49.11,0-.02.09-.06.46-.2.38-.11.47-.12.49-.11-.01.02-.09.06-.46.2,0,0,.37-.14,0,0Z"/>
      <path class="cls-1" d="m81.9,62.61c.23-1.65.58-3.09,1.8-4.29.08,1.65-.38,3.32-1.8,4.29h0Z"/>
      <path class="cls-1" d="m80.33,62.16c.26-2.29,1.12-4.24,2.64-5.98-.23,2.23-1.15,4.29-2.64,5.98h0Z"/>
      <path class="cls-1" d="m79.13,60.36c.29-2.44,1.2-4.59,2.75-6.49-.27,2.41-1.22,4.62-2.75,6.49h0Z"/>
      <path class="cls-1" d="m77.56,57.51c.99-.42,1.76-.25,2.49.51,0,0-.04.22-.04.22-.04-.04-.07-.09-.11-.14.05-.03.1-.06.15-.09l-.04.22c-.93.33-1.85.09-2.44-.73h0Z"/>
      <path class="cls-1" d="m76.4,55.98c1.52-.37,3.05-.17,4.39.71,0,0-.03.07-.03.07l-.04-.07c.06,0,.2.01.26.02-1.57.48-3.28.25-4.58-.73h0Z"/>
      <path class="cls-1" d="m74.84,54.1c2.24-.41,4.6-.29,6.63.75-2.24.32-4.51.2-6.63-.75h0Z"/>
      <path class="cls-1" d="m72.94,48.19c1.01.06,1.95.29,2.87.58l-.64.42c0-.98.17-1.96.5-2.89.93.32,1.83.64,2.69,1.18-.87.05-1.7-.05-2.51-.18l.54-.33c-.13.97-.26,1.97-.33,2.94-1.09-.47-2.15-.96-3.11-1.71h0Z"/>
      <path class="cls-1" d="m74.01,50.47c.98,0,1.84.07,2.76.09-.06-.02-.25.08-.28.15-.06.11-.02.04-.02-.01.12-.72.35-1.42.58-2.12.79.03,1.6.16,2.28.59-.7.1-1.33.15-1.96.27l.39-.36c-.13.76-.16,1.47-.47,2.19-.09.17-.4.29-.56.26-.98-.12-1.93-.44-2.72-1.05h0Z"/>
      <path class="cls-1" d="m74.52,52.4c.91-.13,1.83-.05,2.68.02-.03-.03-.21.08-.18.08.22-.41.4-.85.52-1.3.05-.35.38-.96.82-.99.75-.09,1.33.11,1.92.49-.32.02-.62.04-.92.08-.27.04-.62.09-.78.18-.13.1-.07.2-.13.44-.11.6-.31,1.14-.66,1.66-.05.12-.37.33-.56.3-.97-.17-1.85-.5-2.72-.96h0Z"/>
      <path class="cls-1" d="m78.65,54.47c-.24-.6-.16-1.23.08-1.8.06-.13.18-.34.36-.42.46-.15.67-.11,1.1-.11.26.03.73.06.9.22-.03-.01.03-.09.07,0,.01.05-.04.09-.06.11-.44.33-.95.55-1.48.66-.09.01-.15.04-.09.02.03-.02.08-.06.08-.05-.22.39-.55.95-.96,1.38h0Z"/>
      <path class="cls-1" d="m82.21,74.47c.3-.16.66.06.86.04.77-.05,1.39-.58,2.17-.83.54-.2,1.1-.37,1.69-.44.6-.09,1.09.08,1.43-.45.16.68-.77,1.05-1.24,1.21,0,0-1.52.62-1.52.62-.79.25-1.78.78-2.67.37-.33-.18-.42-.43-.71-.51h0Z"/>
      <path class="cls-1" d="m84.73,78.79c.65-2.34,1.9-4.35,3.72-5.96-.65,2.34-1.9,4.34-3.72,5.96h0Z"/>
      <path class="cls-1" d="m83.82,76.66c0-1.24.53-2.05,1.67-2.54.05,1.18-.57,2.11-1.67,2.54h0Z"/>
      <path class="cls-1" d="m85.55,77.66c1.7.27,3.01,1.08,4.04,2.44-.09.17-.05.12-.15,0,.16.01.18-.05.09.12-1.63-.31-3.03-1.17-3.98-2.56h0Z"/>
      <path class="cls-1" d="m86.7,75.67c1.12-.12,2.17.45,2.52,1.5-1.09.06-2.06-.42-2.52-1.5h0Z"/>
      <path class="cls-1" d="m85.39,82.51c.28-1.53,1.09-2.65,2.47-3.36-.25,1.5-1.12,2.67-2.47,3.36h0Z"/>
      <path class="cls-1" d="m85.35,85.23c.93-2.07,2.46-3.78,4.42-4.93-.97,2.12-2.42,3.73-4.42,4.93h0Z"/>
      <path class="cls-1" d="m85.33,86.7c.25-.8.66-1.51,1.1-2.2.11-.15.13-.25.42-.35.22-.05.36.01.42.03.47.21.94.47,1.38.73,0,0-.65.13-.65.13.53-.69,1.18-1.3,1.98-1.72-.42.95-.9,1.74-1.39,2.59-.44-.21-.93-.42-1.35-.65-.07-.04-.26-.14-.32-.18-.02-.01.03.03.16,0,.13-.04.14-.09.13-.08-.57.63-1.13,1.21-1.89,1.7h0Z"/>
      <path class="cls-1" d="m87.77,82.61c.36-.02.65.08.92.19.03,0-.1-.09-.23-.06-.1.03-.07.03-.03-.02l.11-.12c.25-.23.56-.4.91-.48.12-.04.31-.05.33-.01-.07-.06.11-.11.1.04-.25,1.3-1.75,2.42-2.11.48h0Z"/>
      <path class="cls-1" d="m84.89,88.41c.41-.71.89-1.28,1.47-1.84.07-.07.25-.17.43-.19.67.07.96.19,1.48.55.15.12.29.3.32.34.02.03.04.04-.03.02-.08-.02-.2.03-.18.02,1.28-.97,2.38-1.8.81.35-.14.19-.28.41-.57.51-.58.14-.8-.48-1.22-.62-.11-.07-.63-.23-.55-.23-.27.23-1.31.87-1.96,1.09h0Z"/>
      <path class="cls-1" d="m85,90.86c.37-.76.93-2.11,1.99-1.62.38.16.77.35,1.13.55.13.09.2.08.04.08-.09.01-.12.07-.09.04l.15-.12c.54-.44,1.19-.75,1.88-.84l.05.12h-.19s.14-.12.14-.12l.05.12c-.39.38-.74.74-1.08,1.11-.09.09-.3.33-.38.42-.06.06-.2.2-.42.23-.44.03-.58-.17-.68-.2-.36-.16-.82-.44-1.14-.62-.43.15-.92.66-1.47.86h0Z"/>
      <path class="cls-1" d="m85.58,93c.15-.62.35-1.16.65-1.68.04-.07.21-.18.36-.18.9.09,1.62.66,2.31,1.18.03.03.14.1.09.08-.04-.04-.29,0-.29.06.38-.31.81-.61,1.28-.85l.06.08h-.13c.06-.05.2-.21.25-.27-.23.58-.52,1.12-.88,1.61-.23.29-.58.22-.85.05-.61-.31-1.25-.79-1.86-1.08-.02-.01,0,0,.07,0,.09,0,.19-.08.2-.1-.34.35-.77.81-1.25,1.12h0Z"/>
      <path class="cls-1" d="m85.75,96.06c.14-1.53.92-2.79,2.23-3.59-.16,1.57-.9,2.74-2.23,3.59h0Z"/>
      <path class="cls-1" d="m85.71,98.34c.85-2.17,2.22-3.91,4.14-5.23-.82,2.15-2.24,3.93-4.14,5.23h0Z"/>
      <path class="cls-1" d="m86.37,97.58c1.51.26,2.21,1.69,2.54,3.04,0,0-.13.07-.13.07l.04-.15c.07.07.29.28.36.35-1.54-.6-2.14-1.9-2.8-3.31h0Z"/>
      <path class="cls-1" d="m87.76,95.76c1.08.16,1.7,1.05,1.48,2.12-1.01-.43-1.42-1.02-1.48-2.12h0Z"/>
      <path class="cls-1" d="m85.6,99.39c1.37.07,2.47.82,3.08,2-1.39-.06-2.44-.77-3.08-2h0Z"/>
      <path class="cls-1" d="m85.32,101.29c1.29,0,2.41.73,3.03,1.8,0,.02.01.03.03.05.02,0,.02.1-.04.08-.03-.02-.05-.05-.04-.07.01.02.04,0,.04,0-.05.13-.04.04-.08.07-1.26-.1-2.32-.74-2.95-1.92h0Z"/>
      <path class="cls-1" d="m84.26,104.62c.33-.84.87-1.43,1.45-2.03.63.43,1.22,1,1.48,1.73-.02-.03-.08-.1-.17-.13-.19-.05-.23.02-.23.02.46-.26.75-.15,1.19,0-.2.16-.52.25-.62.36-.06.1-.05.15-.22.27-.11.12-.51.11-.63-.13-.35-.38-.69-.76-1.06-1.11,0,0,.64-.02.64-.02-.53.43-1.11.81-1.83,1.03h0Z"/>
      <path class="cls-1" d="m84.07,106.66c.17-.62.48-1.1.84-1.58.04-.05.02-.05.16-.17.14-.16.6-.14.73.03.7.59,1.25,1.39,1.33,2.37-.74-.44-1.25-.94-1.78-1.44l-.18-.18c.08.1.39.1.47,0-.34.31-.98.79-1.57.97h0Z"/>
      <path class="cls-1" d="m76.14,123.6c.89-1.18,3.3-.66,3.81.66-.13.16-.08.16-.18-.02.2.01.19-.04.06.13-1.33-.29-2.36-.57-3.7-.78h0Z"/>
      <path class="cls-1" d="m78.28,120.42c-.26.41-.39.86-.38,1.29-.1.66.95,1.4,1.46,1.27.54-.14,1.19-1.12,1.17-1.69.02-.86-.94-.99-1.62-.86-.48.05-.72.52-1.16.68.33-.37.47-.93.99-1.14,2.17-1.01,3.54,1.14,2.22,2.9-.72,1.15-2.16,1.44-3.06.34-.92-.76-.55-2.23.37-2.8h0Z"/>
      <path class="cls-1" d="m80.16,118.82c-.12.45,0,.84.18.9.24.08.14.02.3-.15.31-.54-.48-.85-.67-.22-.39-.54.4-1.23.98-.96.32.1.57.37.68.71.36,1.11-1.18,2.19-1.89,1.11-.39-.62,0-1.24.42-1.4h0Z"/>
      <path class="cls-1" d="m80.75,117.56c-.18.53.25.87.48.54.02-.02.04-.16.04-.28,0-.11.06-.03.04-.1-.07-.11-.43-.17-.69.18-.32-1,1.4-1.38,1.59-.2.28,1.01-.91,1.89-1.71,1.14-.47-.49-.19-1.21.26-1.28h0Z"/>
      <path class="cls-1" d="m81.16,115.52c-.27.54.16,1.44.57,1.64.54.2,1.08-.6,1.17-1.2,0-.5-1.11-.87-1.51-.63-.11.05-.19.21-.3.37-.07.17-.37.33-.15.37-.12.11-.22-.11-.17-.2.1-.31.03-.55.26-.88.82-.92,2.88-.33,2.85,1.02-.1.76-.36,1.31-1.01,1.79-.63.44-1.74.23-1.98-.55-.22-.54-.27-1.37.27-1.73h0Z"/>
      <path class="cls-1" d="m82.66,113.81c-.49.66.24,1.14.5.5.19-.3.1-.34.15-.39-.06-.04-.29,0-.46.06-.08.04-.52.17-.34.29-.05.04-.16,0-.19-.09,0-.5.42-.93.96-1.04.42-.08.85.31.93.71.22,1.08-1.1,2.18-1.97,1.35-.53-.44-.25-1.42.41-1.4h0Z"/>
      <path class="cls-1" d="m83.15,112.44c.05.25.05.72.32.69.13-.01.4-.18.38-.26.03-.02,0-.06-.06-.09-.15-.11-.44.26-.57.36-.03,0-.02.08.04.06-.09.14-.24-.02-.21-.23-.1-.82.95-1.38,1.56-.67.75.91-.55,2.15-1.49,1.53-.56-.37-.37-1.06.04-1.38h0Z"/>
      <path class="cls-1" d="m83.66,111.47c-.17.37.18.83.46.52.1-.08.17-.34.15-.42.02-.02.03-.05-.07-.09-.19-.07-.51.11-.81.45-.05-.22-.03-.45.06-.69.57-1.14,2.12-.42,1.76.78-.16.62-.92,1.14-1.52.79-.57-.23-.63-1.19-.03-1.34h0Z"/>
      <path class="cls-1" d="m83.65,108.42c.09.45-.12.9,0,1.23.57,1.69,1.59,1.09,2.04-.31.13-.49.13-.44-.09-.66-.63-.94-1.66-.52-2.1.42-.07-1.01,1.01-1.97,2.07-1.51.42.21.58.43.9.68.35.35.27.98.16,1.34-.22,1.25-1.89,2.81-3.01,1.47-.29-.43-.46-.87-.46-1.39.01-.55.36-.86.48-1.27h0Z"/>
      <path class="cls-1" d="m83.91,107.81c.25-.93,1.03-1.48,1.84-1.85.46.65.96,1.26,1.18,2.05-.2.13-.16.13-.14-.09.12.08.38.32.48.42-.65-.24-1.27-.55-1.75-1.05,0,0-.36-.44-.36-.44l.65.2c-.59.27-1.14.55-1.9.77h0Z"/>
      <path class="cls-1" d="m84.87,146.03c.22.15.37.19.48.11-.01,0-.03.02-.02.1.01.07.05.19.21.35-.02.45-.54.56-.84.31-.3-.25-.28-.78.16-.88h0Z"/>
      <path class="cls-1" d="m84.24,146.33c.85.29.59.04.96.86-.56.79-1.68-.22-.96-.86h0Z"/>
      <path class="cls-1" d="m83.8,146.34c.75.76.46.37.99,1.31-.81.85-2.02-.75-.99-1.31h0Z"/>
      <path class="cls-1" d="m83.23,146.42c.36.89.78.92,1.19,1.91-1.13.51-2.4-1.26-1.19-1.91h0Z"/>
      <path class="cls-1" d="m82.62,146.57c-.07,0-.02.09,0,.12.04,0,.06.08.09.13.08.18.29.6.38.79.16.26.26.52.64.84l-.08.21c-.14-.32.18-.15.37-.15-1.13.93-2.44-.62-1.77-1.73.05-.07.13-.26.27-.28.05-.02.14.02.12.06h0Z"/>
      <path class="cls-1" d="m81.01,146.36c-.45.58-.56,1.21-.19,1.8.34.49.79.21,1.08-.13.85-1.24-1.29-2-1.39-.43-.54-.86.6-1.9,1.51-1.5.49.14.87.61.99,1.1.26,1.03-.56,2.06-1.61,2.16-1.73.03-1.83-2.55-.39-2.99h0Z"/>
      <path class="cls-1" d="m81.26,147.24c-.15.16-.03.44.09.26.03-.04-.03-.09-.13-.08-.17.03-.08.24,0,.25.04-.01.04-.03.05-.08.04-.13-.26-.06-.23.27-.34,0-.61-.61-.11-.97.5-.36,1.25.08,1.18.71-.03.62-.91.98-1.28.48-.36-.33-.03-1.07.42-.84h0Z"/>
      <path class="cls-1" d="m80.29,149.21c-1.33-.68-.7-3.48.86-3.49-.43.89-.5,1.65-.73,2.57-.07.29-.16.54-.12.92h0Z"/>
      <path class="cls-1" d="m79.38,149.07c-1.06-1.16-.19-3.37,1.38-3.49-.62,1.37-.9,2.06-1.38,3.49h0Z"/>
      <path class="cls-1" d="m78.2,148.42c-1.14-1.17.69-3.78,2.21-3.16-.58.46-.88.88-1.26,1.46-.32.53-.83,1.04-.95,1.7h0Z"/>
      <path class="cls-1" d="m77.26,142.84c-.45.08-.53.86-.68,1.21-.31.96.15,1.6,1.04,1.82.92.35,2.12-1.58,1.34-2.28-.3-.33-.7-.36-1.13-.32-.46.01-1.03.08-1.07.64-.25-.58.51-1.02.98-1.12.86-.37,2,.04,2.31,1,.28.94-.19,1.83-.83,2.55-.95,1-2.74.47-3.28-.73-.34-.94.11-1.73.64-2.38.15-.19.4-.47.68-.37h0Z"/>
      <path class="cls-1" d="m77.69,144.2c-.06.26.11.56.32.46.05-.03.1-.07.07-.08-.03.01-.02,0-.03-.03,0-.02.03,0,.02-.02-.02-.03,0-.04-.03-.08-.04,0-.11.04-.12.1-.01.08.11.23.31.19-.06.21-.39.32-.65.16-.66-.5-.01-1.47.7-1.3.34.04.66.36.74.68.33,1.19-1.53,1.7-1.68.45,0-.26.15-.5.36-.55h0Z"/>
      <path class="cls-1" d="m75.32,143.59c.5-1.68,3.08-2.35,4.25-.97,0,0,.69.82.69.82l-.78-.6c-.25-.18-.23-.22.07-.23,0,0-.09.22-.09.22-1.62-.18-2.6.18-4.13.76h0Z"/>
      <path class="cls-1" d="m75.39,142.66c.15-1.27,1.73-1.77,2.81-1.46.34.08.81.25.98.64-.4-.02-.67.09-1.01.14-.95.16-1.87.25-2.78.69h0Z"/>
      <path class="cls-1" d="m75.33,141.85c.09-1.77,2.83-2.47,3.8-1.01.08.09-.08.14-.09.08-1.17-.05-2.43.15-3.7.93h0Z"/>
      <path class="cls-1" d="m75.56,137.54c-.27.62.02,1.37.33,1.87.28.22,1.21.6,1.5.37.63-.32.85-1.28.78-1.97-.02-.26-.02-.24-.13-.35-.64-.75-2.21-.4-2.65.5-.02-.52.39-.98.83-1.24.83-.58,2.18-.49,2.76.5.43,1.24.09,2.84-1.22,3.43-.67.26-1.34-.02-1.74-.3-.22-.17-.52-.29-.66-.57-.3-.75-.38-1.67.21-2.24h0Z"/>
      <path class="cls-1" d="m76.6,138.18c-.12.6.44.85.58.44.08-.35-.34-.55-.63-.29-.04.06-.17.11-.06.12.02.08-.15.08-.17-.02-.14-.5.33-.95.85-.94.66.03,1.14.7.98,1.36-.13.65-1,1.05-1.56.65-.6-.38-.43-1.2.01-1.33h0Z"/>
      <path class="cls-1" d="m75.19,136.73c.41-1.18,2.58-1.89,3.38-.78.04.11.08.11,0,.15-.17.11-.27-.07-.22-.12.04.07.13-.03.05-.02v.15c-.25-.02-.44.1-.73.17-.85.2-1.51.4-2.48.46h0Z"/>
      <path class="cls-1" d="m75.17,135.83c.52-1.24,2.2-1.59,3.28-.95,0,0-.14.33-.14.33-.19-.34-.14-.41.23-.29,0,0,.45.13.45.13-1.35.48-2.39.64-3.83.78h0Z"/>
      <path class="cls-1" d="m75.13,134.94c.51-1.57,2.65-1.43,3.69-.34-.17-.02-.57.02-.6-.22.09.02.16-.03.18-.07v.27c-1.28.29-1.97.1-3.27.36h0Z"/>
      <path class="cls-1" d="m74.99,131.8c-.11.08-.05.21,0,.3.36.89,1.44,2.28,2.36,1.26.49-.49.81-1.4.59-2.05,0-.04-.09-.09-.32-.17-.62-.21-1.17-.22-1.78.16-.4.22-.84.45-.76.98-.35-.46.12-1.07.47-1.37.51-.59,1.52-.84,2.3-.61.21.06.66.13.9.52.22.35.22.67.24.94.02,2.93-3.51,4.08-4.1.76,0-.2-.16-.62.1-.71h0Z"/>
      <path class="cls-1" d="m76.51,132.02c-.17.5.31.64.34.46,0-.01.01-.05,0-.06.05.05-.02-.08-.12-.12-.16-.05-.39.19-.43.36,0,.03,0,.09.05.08-.09.14-.26-.06-.28-.15-.41-1.35,1.74-1.54,1.79-.16.03.7-.85,1.23-1.41.83-.51-.25-.5-1.13.06-1.23h0Z"/>
      <path class="cls-1" d="m74.91,130.64c.72-1.35,2.81-1.56,3.85-.5-.09.27-.05.25-.25.05.27-.06.26-.11.16.17-1.2.06-2.51.18-3.77.28h0Z"/>
      <path class="cls-1" d="m74.89,129.82c.44-1.47,2.98-1.51,3.95-.58.02.02.07.07.05.12-.05.07-.11,0-.08-.02-.1.11-.76.12-.96.16-.97.2-1.98.03-2.96.31h0Z"/>
      <path class="cls-1" d="m74.83,128.72c.77-1.59,3.41-1.58,4.24-.05,0,0,.3.54.3.54l-.39-.38c-.16-.14-.14-.17.07-.17,0,0-.09.16-.09.16-1.56-.39-2.53-.39-4.13-.09h0Z"/>
      <path class="cls-1" d="m75.52,125.29c-.56.64.29,2.4.99,2.4,1.39.15,3.05-1.05,2.04-2.28-.3-.3-.86-.66-1.21-.76-.39-.09-.92.08-1.35.37-.49.22-.68.75-.86,1.31-.06-.61.06-1.26.55-1.69.43-.42,1-.82,1.77-.77,1.01.2,2.04.75,2.34,1.8.45,1.92-1.71,3.18-3.36,2.78-.34-.02-.75-.33-.91-.62-.45-.68-.78-2.03.01-2.55h0Z"/>
      <path class="cls-1" d="m76.42,125.61c-.59.66.39,1.61,1,1.26.56-.27.44-1.03-.1-1.07-.55,0-.97.42-.24.6.24.03.45-.18.31-.35-.11-.19-.41.05-.22.21.04.05.21.04.2-.09.06.12-.1.27-.26.23-.65-.29.01-1.1.55-.76.33.16.46.64.29.97-.32.68-1.24.74-1.78.3-1.05-.93.03-2.15,1.17-2.11,1.65.11,1.84,2.4.33,2.8-1.19.44-2.43-1.37-1.26-1.99h0Z"/>
    </g>
  </g>
</svg>