<?xml version="1.0" encoding="UTF-8"?>
<svg id="Layer_2" data-name="Layer 2" xmlns="http://www.w3.org/2000/svg" viewBox="0 0 110.15 128.13">
  <defs>
    <style>
      .cls-1 {
        fill: #a37d2d;
        stroke-width: 0px;
      }
    </style>
  </defs>
  <g id="Layer_1-2" data-name="Layer 1">
    <g>
      <path class="cls-1" d="m90.82,25.53c5.24,3.6,8.5,9.8,8.76,16.13-.54,6.77,3.73,11.4,9.55,14.2-1.48-.49-2.9-1.19-4.24-2.03-4.42-2.79-6.58-6.96-6.3-12.14-.23-6.15-3.16-12.09-7.76-16.17h0Z"/>
      <path class="cls-1" d="m100.76,59.64c.37,1.88,1.83,3.12,3.74,3.19-1.95,1.63-5.04-1.01-3.74-3.19h0Z"/>
      <path class="cls-1" d="m105.89,64.52c-2.18-2.42,2.71-4.52,3.43-6.5.28-.7.35-1.6-.24-2.31,2.04,1.12.77,3.86-.62,4.91-1,1.07-3.34,2.13-2.57,3.89h0Z"/>
      <path class="cls-1" d="m105.65,70.22c.56-.98,1.23-1.96,1.46-3.02.06-.34-.24-.75-.62-1.23-.36-.45-.84-1.08-.73-1.75.5.85,1.41,1.09,2,1.9,1.09,1.54-.71,3.51-2.11,4.1h0Z"/>
      <path class="cls-1" d="m103.53,61.74c.21-1.5,1.83-2.86,3.42-2.59.85.42.33,1.58-.37,1.64-.95.14-1.99.2-2.77.9.17-.72.87-1.24,1.54-1.5.31-.15.96-.29,1.07-.34-.03.06.02.17.13.22-.92.08-2.27.72-3.02,1.67h0Z"/>
      <path class="cls-1" d="m103.6,61.63c.4-1.21,1.37-2.25,2.7-2.43.97.85-.22,1.86-1.03,1.22,0,0-1.17-.68-1.17-.68.98.05,3.95-.28,1.38.71,0,0,.07-.7.07-.7.17.05.29.02.27,0-.15.02-.17.13-.05.32,0,0,.48.14.48.14-.95.3-1.69.99-2.65,1.43h0Z"/>
      <path class="cls-1" d="m105.27,77.23c-.72-1.29-.16-3.08.88-4.03,1.01-.88.53-2.18-.37-3.04,1.37.18,2.32,2,1.5,3.25-1.1,1.18-1.89,2.12-2.01,3.82h0Z"/>
      <path class="cls-1" d="m105.18,76.96c.46,1.3,1.39,2.34,1.77,3.76.78,5.3-6.06,5.49-9.74,5.66-2.64.25-5.56-.61-8.09-.11-2.62.72-4.23,3.28-4.97,5.8.36-2.76,1.96-5.57,4.74-6.53,1.43-.52,2.91-.25,4.23-.2,2.71.16,5.42.07,8.12-.25,2.5-.1,5.64-1.35,5.24-4.27-.17-1.29-1.04-2.49-1.29-3.85h0Z"/>
      <path class="cls-1" d="m99.02,71.27c.12.07.26.07.37.02-.12.15-.02-.04-.16-.16,0,0,.22.01.22.01-.05.1-.04.22.01.3l-.36.19c-.15-.19-.16-.47.03-.67l.25-.27c.11.25.3.57.22.86,0,0-.56-.17-.56-.17.21-.94,1.32-1.29,1.97-1.8,1.44-.91,2.62-1.89,4.08-2.83.39-.21.88-.38,1.36-.31.46.05.93.32,1.07.74-.3-.31-.72-.36-1.07-.31-1.18.27-1.81,1.44-2.83,2.11-1,.78-2.09,1.45-3.25,1.98-.39.17-.62.3-.77.6l-.56-.17s.03-.09.03-.13l.42.1s-.05.03-.04.05l-.36.19c-.09-.32.09-.57.31-.75.11.19.17.43.08.63-.17.02-.35-.06-.44-.18h0Z"/>
      <path class="cls-1" d="m106.23,73.88c-1.74.36-3.49-.13-4.78-1.36,1.79-.06,3.29.37,4.78,1.36h0Z"/>
      <path class="cls-1" d="m99.7,71.37c1.94-.71,3.98-1,5.62-2.27,0,0,2.99-2.47,2.99-2.47-.06.08-2.57,3.49-2.52,3.41,0,0-.47-.7-.47-.7-.04.02-.02.02-.03.06l.85.1c-.02.28-.14.54-.31.75l-.51-.55s.01.01.02.02l.64.22c-.3.39-.79.44-1.21.42-.36,0-.69-.05-1.01.15.33-.62,1.3-.43,1.64-.96,0,0,.72-1.65.72-1.65l-.08,1.87c0,.23-.12.44-.32.58l-1.31.91c.09-.24.95-1.54.88-1.79,0,0,.85.1.85.1-.06.34-.3.59-.64.67l-1.01.24c.14-.24.61-1.05.75-1.28l.71.63c-1.69,1.49-4.09,1.78-6.23,1.54h0Z"/>
      <path class="cls-1" d="m105.78,69.36c-.01-.69.13-.71.36-.07.01.69-.13.71-.36.07h0Z"/>
      <path class="cls-1" d="m106.07,69.31c.76.24.22,1.09-.31.48-.17-.77-.46-.33.31-.48h0Z"/>
      <path class="cls-1" d="m68.69,74.93c1.55,1.79,3.17,3.53,5.14,4.74,5.11,2.87,11.29,3.13,16.83,4.92,1.13.39,2.26.75,3.37,1.17-4.66-1-9.31-1.62-13.95-2.71-2.3-.58-4.67-1.3-6.67-2.74-1.99-1.43-3.49-3.35-4.71-5.38h0Z"/>
      <path class="cls-1" d="m83.41,113.25c-1.21-2.49-2.29-5.19-2.26-8.03.38-4.62,1.76-9.06,3.06-13.5-.36,3.67-1.02,7.29-1.75,10.88-.39,1.78-.51,3.51-.23,5.3.25,1.78.74,3.55,1.18,5.34h0Z"/>
      <path class="cls-1" d="m66.21,58.47c.1.81.15,1.65.5,2.32.32.69.95,1.09,1.64,1.49,1.44.92,2.95,1.66,3.96,3.16,1.11,1.63.2,4.29-1.87,4.51-.93.15-1.97-.27-2.42-1.1-.45-.79-.4-1.83.2-2.43-.39.73-.27,1.6.21,2.16,1.75,1.9,4.38-.58,3.02-2.62-1.24-2.06-4.27-2.66-5.21-4.99-.24-.86-.17-1.69-.05-2.5h0Z"/>
      <path class="cls-1" d="m52.1,61.77c1.92,3.4,4.8,6.1,8.26,7.61,2.34,1.11,5.94,1.82,7.15-1,.3-.83.13-1.89-.61-2.55.9.47,1.28,1.64,1.08,2.67-.96,3.5-5.46,3.08-8.02,1.79-3.64-1.6-6.65-4.74-7.86-8.53h0Z"/>
      <path class="cls-1" d="m56.97,59.8c-1.56,4.2,1.32,5.1,4.91,5.14.91-.02,1.73.62,2.56.7.19-.03.16-.09.07-.32-.4-.67-1.27-1.37-1.63-2.19-.25-.43-.3-1.11-.4-1.26-.02-.07-.16-.07-.1-.1-.08.14.01.44-.21.66-.41.33-.82,0-.91-.27-.14-.74-.02-1.39-.02-2.13.15.62.17,1.39.36,1.97.06.15.26.11.2.09.02-.16-.06-.39.09-.65.28-.4.81-.31,1.09,0,.37.5.26.85.57,1.3.49.83,1.2,1.23,1.78,2.11.44.66.07,1.7-.82,1.74-1.16.04-1.71-.66-2.72-.7-3.83.02-7.43-1.98-4.83-6.11h0Z"/>
      <path class="cls-1" d="m53.8,60.81c.86,3.29,3.82,4.68,6.45,6.5-3.13-.37-7.11-2.88-6.45-6.5h0Z"/>
      <path class="cls-1" d="m66.92,58.22c1.18,4.43,6.59,4.65,8.68,8.57,1.15,2.05.63,5.01-1.79,5.8-2.09.85-4.73-.1-5.53-2.09,2.57,3.65,8.87,1.19,6.43-3.26-1.78-3.39-7.58-4.56-7.79-9.02h0Z"/>
      <path class="cls-1" d="m67.4,57.85c1.05,3.76,4.27,5.99,6.82,8.69,1.84,2,1.05,5.34-1.67,5.75,1.42-.57,2.17-2.12,1.91-3.39-.28-1.31-1.43-2.28-2.55-3.26-2.23-1.99-4.43-4.67-4.51-7.79h0Z"/>
      <path class="cls-1" d="m68.13,57.7c.54,3.13,3.43,4.88,6.27,5.48.94.22,2.05.32,3.05.96,1.92,1.23,2.84,3.82,1.92,5.92-.9,2.07-3.32,3.18-5.32,2.6,2.05.18,3.97-1.16,4.59-2.89.62-1.74-.21-3.84-1.73-4.79-.73-.5-1.72-.62-2.74-.88-2.99-.69-6.17-3.1-6.05-6.4h0Z"/>
      <path class="cls-1" d="m68.42,57.58c.58,2.32,2.53,3.82,4.16,5.39,1.72,1.68,4.15,1.26,6.28.54-1.88,1.58-5.04,2.09-6.94.21-1.67-1.63-3.73-3.62-3.51-6.15h0Z"/>
      <path class="cls-1" d="m70.78,55.79c1.09,1.37,2.33,2.76,4,2.8,1.79.08,3.74.3,5.24,1.54.86.66,1.07,2.15.38,2.99-1.15,1.63-3.13,2.04-4.95,2.27-.86.07-1.96.04-2.53-.71.72.56,1.64.44,2.45.23,3.36-.64,7.14-3.55,1.84-5.08-.81-.26-1.61-.32-2.53-.47-1.94-.22-3.14-1.97-3.9-3.57h0Z"/>
      <path class="cls-1" d="m71.68,55.36c1.2,1.36,2.77,2.3,4.43,2.74,1.28.33,2.77.39,4.01,1.07,2.67,1.43,1.06,5.27-1.18,6.23-1.77.9-3.76.72-5.47.19,1.79.16,3.65.01,5.08-.87,2.1-1.29,3.13-4.52-.06-5.17-2.62-.51-5.55-1.68-6.82-4.2h0Z"/>
      <path class="cls-1" d="m72,54.99c1.54,1.71,3.69,2.29,5.88,2.27,2.16.55,5.06,2.13,4.7,4.8-.81,3.38-5.29,6.32-8.48,4.24,2.78,1.16,5.68-.86,7.07-3.19.47-.77.63-1.62.28-2.35-.64-1.29-2.34-2.23-3.73-2.67-2.21-.11-4.57-1.09-5.71-3.09h0Z"/>
      <path class="cls-1" d="m72.64,54.17c1.53,1.61,3.77,1.97,6,1.91-1.67,1.44-4.59.83-5.75-1.01-.16-.25-.34-.59-.24-.9h0Z"/>
      <path class="cls-1" d="m70.06,56.71c.73,1.89,1.42,3.13,2.64,4.75-2.04-.32-3.43-2.85-2.64-4.75h0Z"/>
      <path class="cls-1" d="m69,57.19c1,.88,1.44,1.75,1.51,3.08-1.22-.53-1.83-1.8-1.51-3.08h0Z"/>
      <path class="cls-1" d="m76.63,42.47c1.18,5.58-2.27,10.65-6.13,14.34-2.14,1.78-5.04,2.22-7.68,2.79-4.04.33-9.41.14-12.02,3.78-1.97,2.85-1.07,6.9,1.54,9.05,1.42,1.03,2.7,2.45,3.96,3.66,2.62,2.28,5.88,4.15,8.13,7.09,5.66,6.6,1.51,15.42-7.01,15.84,8.04-.82,12-9.11,6.41-15.36-2.24-2.74-5.34-4.54-8.14-6.9-1.35-1.26-2.46-2.52-3.96-3.6-3.9-2.99-4.06-9.69.36-12.28,2.03-1.2,4.33-1.57,6.62-1.93,2.25-.08,4.43-.03,6.6-.68,2.72-.52,5.03-1.58,6.65-3.82,0,0,1.72-2.04,1.72-2.04,2.29-2.77,3.43-6.35,2.96-9.93h0Z"/>
      <path class="cls-1" d="m82.13,45.43c2.76-3.14,7.14-6.09,11.48-4.4,1.21.45,2.27,1.04,3.49,1.34.37.08.88.2.91.05.39-.58.27-1.56-.32-2.16.78.35,1.38,2.21.38,2.73-.8.17-1.6-.06-2.36-.26-5.63-2.52-8.91-.57-13.57,2.69h0Z"/>
      <path class="cls-1" d="m97.3,42.61c-.3-1.05-.31-1.31,0-2.36,1.04.39,1.04,1.97,0,2.36h0Z"/>
      <path class="cls-1" d="m97.66,42.15c.12-.01-.01-.15-.04-.19-.02-.04-.06.02-.08-.04-.26-.54-.24-.82.11-1.46.84.26.9,1.19.4,1.72-.09.09-.42.16-.39-.03h0Z"/>
      <path class="cls-1" d="m96.42,42.34c-.31-.98-.27-1.31.28-2.17.86.57.69,1.84-.28,2.17h0Z"/>
      <path class="cls-1" d="m96.72,42.61c-.38-1.07-.37-1.61.1-2.65.91.67.85,2.05-.1,2.65h0Z"/>
      <path class="cls-1" d="m82.46,45.14c2.03-2.82,4.59-6.04,8.29-6.51,2.2-.03,4.18.88,6.23,1.55-1.41-.11-2.8-.29-4.18-.52-4.17-.88-7.39,3.19-10.34,5.47h0Z"/>
      <path class="cls-1" d="m95.74,42.34c-.1-1.07-.03-1.39.58-2.28.85.68.49,2.09-.58,2.28h0Z"/>
      <path class="cls-1" d="m95.51,41.71l-.07.25h-.03c.18-.63.24-1.29.13-1.92-.01-.06.03-.12.09-.13.07-.01.13.03.14.1.14.64.08,1.33-.18,1.94l-.16-.25c.17,0,.31-.28.32-.53.02-.28-.04-.65.19-1.02.1-.18.39-.1.4.1,0,0,.2,1.94.2,1.94l-.45-.08c.21-.44.3-.94.27-1.43,0-.14.1-.25.23-.26.13,0,.24.09.26.21l.23,1.7-.45-.05c.17-.51.25-1.05.26-1.59,0-.12.09-.22.21-.22.1,0,.19.07.21.17.1.52.18,1.04.28,1.56l-.33-.04c.18-.34.23-.76.15-1.15l.27-.06.22,1.44-.13-.03c.22-.21.24-.51.36-.69.08-.02-.05.56-.04.58,0,0,0-.55,0-.55h.07c0,.15-.23.96-.41.72,0,0-.35-1.42-.34-1.42-.05-.17.23-.24.27-.06.13.44.09.93-.1,1.36-.04.09-.14.13-.23.09-.25-.34-.31-1.2-.45-1.67,0,0,.43-.04.43-.04.04.34-.16,2.62-.7,1.68,0,0-.25-1.64-.25-1.64l.49-.06c.1.35-.3,2.47-.79,1.56,0,0-.16-1.95-.16-1.95l.4.1c-.24.46.03,1.6-.86,1.66-.1,0-.18-.07-.18-.17.24-.57.39-1.2.29-1.83,0,0,.23-.03.23-.03.03.62-.04,1.5-.36,1.93,0,0,.1-.24.1-.24h0Z"/>
      <path class="cls-1" d="m84.79,43.01c1.08-.98,2.23-1.9,3.45-2.72l.1.17c-.74.43-1.39,1.02-1.89,1.7l-.2-.21c.99-.76,2.03-1.45,3.12-2.06.24-.14.45.24.21.37-.58.35-1.13.75-1.64,1.19l-.23-.43c.89-.28,1.71-.76,2.39-1.38l.28.48-2.01.89-.03-.56c.62.23,1.41.02,1.83-.48l.28.55-1.6.17c-.43.06-.53-.62-.1-.69,0,0,1.77-.38,1.77-.38l.12.73c-.61.09-1.22.11-1.84.07-.22-.01-.38-.2-.36-.42.01-.19.15-.33.33-.36.36-.05.71-.18,1.02-.37l.36.72c-.33.11-.98.56-1.18.04-.45-1.04,4.06-1.46,3.73-.3-.26.65-1.08.1-1.49-.11-.42-.25-.11-.92.34-.78,0,0,1.59.41,1.59.41l-.23.85c-.7-.19-1.47-.12-2.12.17l-.08-.85,2.09.48c.25.06.4.3.34.55-.05.21-.25.36-.46.35-.84-.02-1.69-.12-2.51-.29l.24-.9,2.11.65-.31.89c-.73-.28-1.53-.39-2.31-.3l.27-.84.44.4c.3.25.15.77-.23.83,0,0-.96.2-.96.2l-.14-.96,2.78-.39-.35.25c-.27.48.51.99.73.33.02-.11,0-.17-.02-.22-.11-.16-.05-.05.06-.02.2.09.41.15.63.18l-.16.98c-.69-.14-1.36-.39-1.97-.74-.23-.13-.32-.43-.19-.66.1-.17.29-.27.48-.25.89.1,1.75.39,2.51.85l-.66.65-.37-.66c-.25-.4.24-.88.64-.66,0,0,1.65.89,1.65.89l-.66.57c-.08-.28-.44-.52-.74-.49l.24-.84c.46.35.97.63,1.51.85l-.43.8c-.82-.56-1.76-.93-2.74-1.09l.34-.79c.77.59,1.67,1.01,2.61,1.22l-.29.04c-.07,0-.21.22-.17.32.01.09.03.1.03.1h-.02s-.46-.22-.46-.22c-.58-.26-2.14-.97-2.74-1.24-.47-.19-.19-.93.29-.77,0,0,2.65.81,2.65.81.21.06.32.28.26.48-.06.18-.23.29-.41.27-.9-.11-1.79-.38-2.59-.8-.34-.15-.2-.69.16-.67,1.05.01,2.09.27,3.02.75l-.39.49c-.28-.34-.62-.63-1-.85-.14-.09-.19-.27-.1-.42.06-.1.17-.15.27-.15.58.02,1.14.24,1.58.62.29.23-.07.69-.36.45-.4-.32-.95-.46-1.46-.36l-.05-.53c1.18.04,2.33.5,3.2,1.27.2.17-.04.49-.26.35-.65-.41-1.41-.66-2.17-.63l.12-.29c.35.45.85.79,1.4.97l-.17.19c-.08-.25-.4-.7-.19-.77.56.09,1.05.6,1.39,1.05.03.04.02.11-.02.14-.11.1-1.58-.35-1.08-.48.47.15,1.04.61,1.19.95.47.08.53-.69.93-.82.13-.07.34-.07.4.08-.07-.15-.27-.14-.39-.07-.29.14-.34.47-.54.7-.09.12-.29.26-.45.17-.29-.41-.72-.72-1.19-.86l.06-.15c.32.15.67.25,1.02.29l-.09.16c-.31-.41-.74-.74-1.21-.92l.17-.17.28.59c.05.11-.06.23-.17.19-.3,0-2.15-1.04-1.46-1.3.85-.07,1.69.18,2.42.6l-.25.35c-.83-.67-1.88-1.05-2.93-1.06-.15,0-.27-.12-.26-.27,0-.13.1-.23.21-.26.67-.15,1.38,0,1.93.43l-.36.45c-.35-.28-.79-.44-1.23-.45l.16-.57c.44.25.84.58,1.17.96.12.13.1.34-.03.45-.1.09-.24.1-.35.05-.85-.42-1.8-.63-2.74-.62l.16-.67c.74.36,1.54.59,2.35.67l-.15.75-2.67-.75.29-.77,1.84.81c.3.13,1.09.48,1.38.61.46.17.73.88.21,1.15-.54.23-4.03-1.17-3.35-1.94.1-.13.27-.19.42-.17,1.11.17,2.18.58,3.12,1.21.21.14.27.42.12.63-.12.18-.35.25-.55.17-.61-.24-1.19-.56-1.72-.95-.35-.24-.17-.82.24-.84.75-.04,1.44.41,1.69,1.12.16.39-.31.78-.66.57,0,0-1.66-.87-1.66-.87l.64-.66c.18.36.75.99.2,1.31-.15.09-.34.08-.49,0-.65-.38-1.38-.62-2.12-.7l.29-.91c.52.29,1.09.5,1.68.62.27.05.44.31.39.58-.18.67-1.01.32-1.46.15-.12-.08-.33-.07-.57-.48-.26-.52.32-1.06.81-.82.47.17.43.96-.09,1.03,0,0-2.86.38-2.86.38-.61.08-.76-.84-.16-.96,0,0,.97-.19.98-.19,0,0-.23.83-.23.83l-.43-.4c-.31-.26-.13-.81.27-.84.64-.07,3.34-.03,3.03.99-.09.23-.35.35-.58.28l-2.11-.67c-.25-.08-.38-.34-.31-.58.07-.23.31-.36.54-.32.77.17,1.56.26,2.34.29l-.12.9-2.09-.5c-.24-.06-.39-.3-.34-.54.17-.73,3.53-1.03,3.28.03-.06.23-.3.37-.54.31l-1.59-.43.34-.78c.22.14.46.25.71.31l-.22.83c-.86-.25-1.82-.16-2.63.21l-.33-.76s.65-.25.66-.25c.21-.08.44.02.52.23.17.68-1.02.84-1.49.95,0,0-.02-.78-.02-.78.56.05,1.13.04,1.69-.03.2-.02.39.12.41.32.02.19-.11.37-.3.41l-1.78.34-.1-.69,1.6-.13c.3-.04.49.34.28.55-.64.71-1.69.96-2.57.6-.25-.09-.25-.46,0-.55,0,0,2.1-.87,2.1-.87.28-.13.53.28.29.47-.76.67-1.67,1.16-2.64,1.45-1.17-.13,1.21-1.43,1.53-1.61,0,0,.21.37.21.37-1.09.56-2.15,1.2-3.15,1.92-.07.05-.16.03-.2-.03-.04-.05-.03-.13,0-.18.56-.69,1.25-1.27,2.03-1.69.11-.06.21.1.1.17-1.23.78-2.43,1.62-3.55,2.55h0Z"/>
      <path class="cls-1" d="m96.02,40.93c-.58.15-1.24-.03-1.73-.45l.33-.15c.03.18.35.27.42.18l.05.51c-1.77-.36-3.58-.36-5.31,0l.05-.95c-.15-.02-.19,0-.25.14l.5.6c-1.36.04-2.72.6-3.72,1.57l-.48-.65c1-.49,2.01-.98,3.05-1.41l.1.32-.98-.08h-.16c.07-.08.42-.43.5-.5,0,0-.28.47-.28.47l-.06-.12c.39-.05,1.23-.15,1.62-.2-1.1.8-2.26,1.53-3.43,2.25l-2.25,1.4,1.78-2.04c1.21-1.42,3.11-2.1,4.96-2.01-.15.64-.35,1.41-1.19,1.2,0,0-2.1-.53-2.1-.53,2.52-.6,5.36-.98,7.8,0,0,0,.69.25.69.25l-.64.26c-.52.22-1.03-.15-1.06-.64l-.04-.64c.41.63.97,1.2,1.82,1.21h0Z"/>
      <path class="cls-1" d="m85.68,49.16c.78-1.32,1.93-2.35,3.19-3.18,1.2-.72,2.57-1.52,4.03-1.35.09.03.23.12.18.23-.01-.1-.12-.09-.2-.08-.58.21-1.13.54-1.66.86-1.82,1.16-3.66,2.42-5.55,3.52h0Z"/>
      <path class="cls-1" d="m85.29,49.73c3.62-.24,6.22-4.75,10.07-3.41-3.85-.99-6.34,3.51-10.07,3.41h0Z"/>
      <path class="cls-1" d="m86.59,49.59c.64-.27,1.38-.28,2.08-.09.73.2,1.26.61,1.76.68,1.16.14,2.54.24,3.79.14-1.15.88-2.55.98-4,.84-1.5-.5-2.11-1.34-3.63-1.57h0Z"/>
      <path class="cls-1" d="m93.22,47.92c.76.53,1.01,1.67.53,2.46-.23-.9-.37-1.55-.53-2.46h0Z"/>
      <path class="cls-1" d="m91.39,48.56c.32.71.51,1.08.89,1.76-.8-.04-1.33-1.09-.89-1.76h0Z"/>
      <path class="cls-1" d="m88.37,49.61c1.31-.74,2.75-1.2,4.17-1.65,1.33-.4,3.14-.77,3.37-2.4,0,1.7-1.97,2.25-3.29,2.64-1.43.42-2.85.86-4.24,1.41h0Z"/>
      <path class="cls-1" d="m93.48,47.97c.97-.83,1.69-1.83,2.19-3-.16,1.27-1.02,2.46-2.19,3,0,0,1.16-.54,0,0Z"/>
      <path class="cls-1" d="m93.47,47.81c.55-.89,1.04-1.73,1.56-2.64-.19,1.02-.76,1.98-1.56,2.64h0Z"/>
      <path class="cls-1" d="m92.94,47.99c.57-.98.98-1.97,1.29-3.06.04,1.14-.45,2.3-1.29,3.06,0,0,.84-.76,0,0Z"/>
      <path class="cls-1" d="m92.21,48.28c.59-1.07,1.13-2.1,1.69-3.18-.24,1.19-.84,2.32-1.69,3.18h0Z"/>
      <path class="cls-1" d="m91.49,48.12c.69-.82,1.23-1.67,1.7-2.63-.13,1.07-.78,2.07-1.7,2.63,0,0,.92-.56,0,0Z"/>
      <path class="cls-1" d="m91.04,48.28c.52-.62.99-1.19,1.5-1.82-.2.78-.77,1.48-1.5,1.82h0Z"/>
      <path class="cls-1" d="m90.08,48.78c.42-.53.95-.94,1.57-1.2-.42.53-.95.93-1.57,1.2h0Z"/>
      <path class="cls-1" d="m89.2,49.26c.12-.02.05.32-.2.11-.16-.27.11-.53.2-.72.44-.6.97-.96,1.82-.94-.11.59-.4.93-.74,1.22-.26.19-.61.38-.93.41-.05,0-.04-.05-.1-.09-.2-.08-.03.08-.05,0h0Z"/>
      <path class="cls-1" d="m87.96,49.45c.88-.7,1.77-1.32,2.73-1.91-.74.84-1.69,1.5-2.73,1.91h0Z"/>
      <path class="cls-1" d="m89.96,48.15c.54-.59,1.18-1.05,1.91-1.36-.54.59-1.18,1.05-1.91,1.36h0Z"/>
      <path class="cls-1" d="m93.67,47.94c1.08-.75,2.06-1.53,3.02-2.42-.7,1.11-1.79,1.98-3.02,2.42h0Z"/>
      <path class="cls-1" d="m87.02,49.67c.58-.14.88.81.31,1.02-.21-.5-.2-.5-.31-1.02h0Z"/>
      <path class="cls-1" d="m87.84,49.68c.37.3.4.66.08,1.01-.37-.3-.39-.66-.08-1.01h0Z"/>
      <path class="cls-1" d="m88.24,49.87c.53.04.75.71.36,1.06-.33-.41-.37-.54-.36-1.06h0Z"/>
      <path class="cls-1" d="m88.82,50.52c.41-.27.89.25.59.64-.43-.2-.42-.19-.59-.64h0Z"/>
      <path class="cls-1" d="m89.73,50.92c.3-.3.69.11.37.39-.41-.08-.31.02-.37-.39h0Z"/>
      <path class="cls-1" d="m90.29,50.92c.32-.42,1,.09.67.51-.45-.19-.37-.13-.67-.51h0Z"/>
      <path class="cls-1" d="m91.41,50.9c.44-.29.97.33.61.72-.41-.27-.41-.27-.61-.72h0Z"/>
      <path class="cls-1" d="m91.82,51.08c.35-.52,1.23.08.86.59-.45-.28-.44-.27-.86-.59h0Z"/>
      <path class="cls-1" d="m92.76,51.11c.38-.24.79.13.59.53-.44-.07-.47-.1-.59-.53h0Z"/>
      <path class="cls-1" d="m93.37,50.89c.45-.15.84.3.62.72-.45-.17-.52-.26-.62-.72h0Z"/>
      <path class="cls-1" d="m94,50.79c.39-.19.72.27.4.57-.4-.16-.39-.14-.4-.57h0Z"/>
      <path class="cls-1" d="m94.38,50.81c.41-.2.78.03.77.48-.45.07-.63-.05-.77-.48h0Z"/>
      <path class="cls-1" d="m40.67,113.63c-3.68,5.29-.92,12.58,5.26,14.22,0,0-.95.16-.95.16-5.05.81-10.1-2.63-11.86-7.31-1.84-4.72-.8-10.15,1.84-14.35,1.61-2.63,3.76-5.09,6.52-6.59,1.59-.73,3.32-1.58,4.73-2.62,3.1-2.32,8.12-7.02,7.57-11.2-.42-2.3-2.33-3.98-4.32-5.09-2.12-1.12-4.77-2.38-5.5-4.96-1.29-5,.72-10.32,4.35-13.69,3.6-3.57,8.73-4.62,13.55-5.23,3.65-.46,6.97-2.04,10.09-3.93,1.04-.61,2.17-1.18,2.82-2.25-.6,1.09-1.74,1.72-2.75,2.36-2.07,1.29-4.19,2.56-6.52,3.34-3.46,1.18-7.24,1.27-10.65,2.48-4.48,1.57-8.37,5.13-9.78,9.72-.69,2.23-.92,4.74-.28,6.93.72,2.37,3.07,3.32,5.12,4.44,5.67,3.11,6.31,7.88,2.22,12.74-2.61,3.47-6.22,6.12-10.21,7.8-6.51,3.81-10.73,12.5-8.11,19.85,1.57,4.44,6.33,7.77,11.09,7.09,0,0-.05.48-.05.48-5.7-2.1-7.91-9.59-4.18-14.36h0Z"/>
      <path class="cls-1" d="m67.24,3.1c1.68.4,3.37.85,5.02,1.4.59.26,2.25,1.01,2.87,1.28,6.6,2.89,12.3,7.52,13.48,15.03.21,1.39.3,2.79.15,4.17-.08-1.38-.27-2.75-.63-4.07-1.69-7.13-7.13-11.28-13.35-14.45-.59-.3-2.16-1.14-2.73-1.44-1.59-.66-3.2-1.27-4.81-1.92h0Z"/>
      <path class="cls-1" d="m67.58,2.89c5.61-1.44,11.73-3.4,17.31-.74,1.85.8,3.45,2.1,4.84,3.47,2.73,2.69,5.97,5.86,5.9,10.04.06,4.05-2.7,7.82-6.44,9.17,5.4-2.51,7.53-9.61,3.76-14.29C84.6.2,79.81.68,67.58,2.89h0Z"/>
      <path class="cls-1" d="m67.72,3.25c5.91.31,11.41,2.9,16.08,6.41,3.54,2.45,6.95,6.45,6.35,11.1-.18,1.47-.66,2.91-1.48,4.11.63-1.31.98-2.73.99-4.14.21-4.44-3.02-7.83-6.45-10.26-4.63-3.51-9.74-6.13-15.49-7.22h0Z"/>
      <path class="cls-1" d="m67.94,3.19c6.14-.54,12.69,1.17,17.32,5.42,3.34,3.19,6.05,7.75,5.48,12.51-.25,1.55-.89,3.06-2,4.14.93-1.23,1.43-2.71,1.51-4.2.22-4.51-2.53-8.71-5.68-11.72-4.46-4.13-10.65-5.91-16.64-6.15h0Z"/>
      <path class="cls-1" d="m68.68,3.02c3.14-.15,6.27-.52,9.48-.09,8.15,1.23,14.27,9.39,13.11,17.56-.3,1.36-.32,3.68-1.97,4.07,1.51-.57,1.32-2.77,1.48-4.11.52-7.8-5.13-15.18-12.77-16.76-3.03-.59-6.24-.4-9.33-.66h0Z"/>
      <path class="cls-1" d="m69.02,2.71c.83-.02,1.58-.37,2.38-.58,2.4-.71,4.96-.8,7.44-.38,6.68,1.09,12.42,6.69,13.54,13.39.53,3.22,0,7.1-2.7,9.22,2.32-2.36,2.6-5.99,1.94-9.07-1.39-6.29-6.64-11.42-12.93-12.78-2.36-.54-4.85-.56-7.23-.12-.79.14-1.61.41-2.44.32h0Z"/>
      <path class="cls-1" d="m69.45,2.97c2.48-.63,4.85-1.49,7.4-1.81,8,.1,15.75,5.06,16.3,13.58.22,3.42-.83,6.93-3.02,9.56,1.79-2.81,2.64-6.2,2.25-9.49-.92-8.05-7.97-12.39-15.51-13.02-2.47.19-4.96.86-7.43,1.18h0Z"/>
      <path class="cls-1" d="m91.71,8.5c3.04,4.35,3.77,11.87-1.08,15.25.49-.47.82-1.07,1.13-1.67,2.25-4.29,1.39-9.11-.05-13.59h0Z"/>
      <path class="cls-1" d="m89.22,24.92c3.2-.98,5.81-3.44,6.64-6.71.29-1.07.44-2.2.63-3.35,1.25,4.77-2.11,10.23-7.27,10.06h0Z"/>
      <path class="cls-1" d="m91.55,7.92c4.78,1.01,11.74,5.81,11.52,11.25-.04,2.99-2.1,5.85-4.97,6.71-1.39.46-2.91.51-4.3.11-1.36-.43-2.56-1.17-3.98-1.19,1.42-.21,2.78.48,4.1.72,1.31.28,2.7.14,3.92-.35,2.48-.95,4.2-3.36,4.23-6.02.22-4.89-6.34-9.69-10.52-11.22h0Z"/>
      <path class="cls-1" d="m89.36,25.06c-.31.06-.77,0-1.08,0,0,0,.67-.44.67-.44.95-.63,2.54,0,2.58,1.19,0,0-2.48-.71-2.48-.71l.07-.46c.09.13.18.25.24.41h0Z"/>
      <path class="cls-1" d="m88.65,25.04c.42.33.93,0,1.48.04,1.02-.08,2.04.63,2.95.77,2.47.19,4.89-.32,7.33-1.09-2.35,1.86-6.27,3.02-9.01,1.35-.64-.39-1.32-.59-2.07-.67-.26-.04-.58-.14-.69-.4h0Z"/>
      <path class="cls-1" d="m91.12,24.55c4.14.2,7.09-.12,9.65-3.67,1.51-1.68.76-4.1.55-6.19.64,1.39,1.05,2.88,1.08,4.48.03.82-.38,1.71-.89,2.32-.98,1.21-2.02,2.48-3.51,3.12-2.19.96-4.69.56-6.88-.05h0Z"/>
      <path class="cls-1" d="m91.83,24.2c4.52-.33,9.07-3.25,9.35-8,.02-.63-.16-1.27-.6-1.79.61.34.95,1.05,1.09,1.74.69,5.18-5.07,9.16-9.84,8.05h0Z"/>
      <path class="cls-1" d="m92.07,24.11c4.1-1.6,7.17-5.12,7.87-9.42.09-.59.05-1.23-.43-1.69,1.26.68.94,2.49.75,3.66-.79,3.84-4.23,7.18-8.19,7.45h0Z"/>
      <path class="cls-1" d="m92.39,23.82c3.67-2.06,5.74-6.38,5.72-10.49-.06-.56-.24-1.18-.84-1.42.32,0,.64.18.86.44,1.28,1.93.58,4.56-.21,6.55-.96,2.33-2.97,4.47-5.52,4.93h0Z"/>
      <path class="cls-1" d="m94.5,22.36c1.06-2.03,1.95-4.04,2.21-6.32.19-1.09.48-2.24.3-3.21-.19-1.01-.91-1.93-1.57-2.88,1.48.89,2.82,2.65,2.5,4.53-.21,2.91-1.17,5.9-3.44,7.87h0Z"/>
      <path class="cls-1" d="m93.4,23.19c.3-.17.35-.5.44-.81.92-3.87,3.35-8.14.66-11.82-.36-.53-.79-1.03-1.17-1.57.54.38,1.04.81,1.55,1.26,3.54,3.49,1.16,8.58-.8,12.23-.14.28-.34.65-.69.72h0Z"/>
      <path class="cls-1" d="m98.65,36.65c4.32.74,8.24-2.76,8.44-7.05.3-3.1-1.06-6.23-2.91-8.7-.64-.8-1.22-1.89-2.34-1.99,1.16-.14,1.97.97,2.72,1.68,2.24,2.45,3.85,5.67,3.53,9.11-.22,4.63-4.84,8.58-9.44,6.95h0Z"/>
      <path class="cls-1" d="m98.35,35.35c-.04-.09-.04.06-.02.08,0,.11.41.07.48.1,5.97.27,8.63-6.42,6.44-11.35-.69-1.7-1.77-3.27-3.2-4.55,1.66.96,3.05,2.46,3.91,4.24,2.88,5.23-.56,13.15-7.18,11.81,0,0-.35-.11-.35-.11-.15.03-.19-.31-.09-.22h0Z"/>
      <path class="cls-1" d="m97.82,34.29c1.54-.46,3.61-.32,4.88-1.24,3.72-3.25,3.16-7.35,1.04-11.37,0,0-.57-1.19-.57-1.19-.2-.37-.34-.84-.8-.92.49-.04.79.46,1.03.79l.77,1.08c2.9,4.01,3.36,9.01-.99,12.23-1.59.99-3.58.51-5.35.62h0Z"/>
      <path class="cls-1" d="m97.34,33.09c2.82-.62,5.9-1.9,6.93-4.75.79-1.99-.36-4.36-.73-6.44-.2-.73-.16-1.59-.81-2.04.39.1.66.47.82.83.94,2.52,2.63,5.24,1.66,8-1.16,3.19-4.74,4.57-7.87,4.41h0Z"/>
      <path class="cls-1" d="m96.5,31.76c3.93.29,7.07-3,8.24-6.45.44-2.28-.78-4.37-2.02-6.3,1.14,1.08,2.23,2.33,2.73,3.94.57,1.58.21,3.54-.79,4.85-1.58,2.73-4.92,5.09-8.17,3.96h0Z"/>
      <path class="cls-1" d="m95.79,31.07c.04.14-.26.04-.13-.09.08-.1.2-.09.29-.11.52-.05,1.08-.14,1.58-.29,3.07-.88,6.61-3.59,6.06-7.12-.15-.99-.5-2.14-.72-3.14-.11-.3-.07-.81-.46-.86.42-.07.55.5.71.78.78,1.68,1.74,3.48,1.32,5.42-1.08,3.52-4.88,5.86-8.49,5.36-.09-.02-.31-.03-.23.08.03.02.1.03.08-.02h0Z"/>
      <path class="cls-1" d="m95.47,29.91c-.07-.06-.12.08-.05.08,1.12-.07,2.26-.5,3.26-1,3.08-1.57,4.98-5.2,4.44-8.61-.05-.13-.17-.27-.33-.2.13-.13.36-.02.46.11,1.96,4.23-1.61,9.57-6.16,9.86-.57.01-1.18.1-1.71-.11-.11-.08.06-.25.1-.14h0Z"/>
      <path class="cls-1" d="m94.65,29.32c2.63-1.17,5.39-2.52,6.78-5.13.37-.91,1.12-2.24,1.15-3.21.04-.56-.08-1.14-.31-1.71.42.45.7,1.04.8,1.68.23,4.7-3.99,8.13-8.42,8.37h0Z"/>
      <path class="cls-1" d="m93.89,28.55c2.01-.59,3.81-1.4,5.09-3.1,1.39-1.6,2.66-3.1,3.22-5.2.28,2.21-1.09,4.26-2.45,5.84-1.32,1.75-3.68,2.7-5.86,2.46h0Z"/>
      <path class="cls-1" d="m93.9,27.32c-.11.04-.21.08-.32.12v-.22c2.1-.37,3.9-.32,5.49-1.9-.32,2.46-3.61,3.01-5.5,2.12,0,0,0-.22,0-.22.11.03.22.07.32.11h0Z"/>
      <path class="cls-1" d="m25.9,7.12c-2.37,4.11,1.35,9.28,5.94,8.13,2.93-.79,5.85-3.18,8.51-4.74,2.81-1.76,5.41-3.91,8.49-5.27,2.08-.92,4.29-1.42,6.46-1.79,2.26-.32,7.62-1.6,9.88-1.3,1.11.1,2.24.48,3.04,1.26-.87-.7-1.98-.97-3.06-1-2.16-.1-7.52,1.4-9.71,1.79-2.14.49-4.29.95-6.24,1.87-2.94,1.33-5.55,3.58-8.34,5.23-2.83,1.59-5.64,3.99-8.87,4.7-5.06,1.06-9.01-4.64-6.09-8.88h0Z"/>
      <path class="cls-1" d="m25.78,6.97c-8.05,3.58-5.07,14.36,2.7,15.94,1.02.25,2.09.29,3.17.21-1.04.3-2.15.37-3.24.27-8.79-.81-12.07-13.75-2.62-16.42h0Z"/>
      <path class="cls-1" d="m54.06,11.16c7.21-5.39,17.52-6.16,25.53-2.12,1.1.61,2.33,1.16,3.08,2.22-.91-.9-2.12-1.32-3.28-1.78-8.16-3.23-17.63-2.49-25.33,1.67h0Z"/>
      <path class="cls-1" d="m37.7,12.65c-2.74.39-4.34-2.78-4.86-5.05-.02-1.04.46-1.82.99-2.54,2.11-2.84,7.56-2.71,8.31,1.15-1.35-3.07-5.7-2.92-7.53-.52-.45.55-.83,1.27-.82,1.86.02.59.43,1.42.68,2.13.57,1.43,1.56,2.86,3.23,2.96h0Z"/>
      <path class="cls-1" d="m42,5.94c-1.07-.52-2.19-1.1-3.39-.96-2.72.34-2.7,3.26-.31,4.21,1.06.46,2.29.65,3.54.62-1.19.43-2.53.49-3.81.11-1.35-.37-2.58-1.61-2.51-3.14.09-1.56,1.61-2.65,3.07-2.58,1.38.01,2.5.82,3.41,1.74h0Z"/>
      <path class="cls-1" d="m45.48,7.45c-3.67-2.94-.45-7.97,3.84-7.41,1.26.12,2.5.93,2.85,2.09-1.48-1.85-4.16-1.51-5.9-.36-1.83,1.25-2.14,3.87-.79,5.69h0Z"/>
      <path class="cls-1" d="m46.83,6.54c-.91-.33-1.49-1.37-1.48-2.4.08-3.12,4.1-4.23,6.4-2.69.18.1.5.29.42.55-.05-.24-.31-.25-.52-.29-1.42-.28-3.08-.27-4.26.6-1.42.93-1.8,2.92-.57,4.24h0Z"/>
      <path class="cls-1" d="m21.07,29.25c-.62,0-1.15-.46-1.56-.86-.41-.42-.86-.84-1.14-1.46-1.29-2.96,2.68-5.42,4.95-3.32.99.91,1.23,2.44.61,3.47.21-1.16-.3-2.29-1.11-2.87-1.68-1.23-4.38.33-3.74,2.43.41.91,1.01,2.12,1.98,2.61h0Z"/>
      <path class="cls-1" d="m18.6,30.17c-1.73-1.53-2.69-4.28-1.68-6.55.97-1.49,2.72-2.2,4.44-1.94,2.63.41,3.95,3.78,2.25,5.71.97-2.07-.26-4.49-2.41-4.78-1.2-.19-2.79.49-3.45,1.47-.89,1.88-.3,4.31.86,6.08h0Z"/>
      <path class="cls-1" d="m20.75,29.17c5.43,3.8,21.04-13.66,34.69-8.72,5.56,2,10.61,7.3,16.79,4.75,2.78-1.07,5.26-3.12,8.39-3.77,3.13-.67,6.51,1.12,7.7,3.98-1.4-2.75-4.7-4.28-7.6-3.5-2.93.69-5.31,2.77-8.2,4-6.2,2.9-11.95-2.54-17.41-4.52-12.6-4.84-28.96,12-34.37,7.78h0Z"/>
      <path class="cls-1" d="m62.38,24.6c5.79-7.26,23.14-10.73,25.87.88-.44-1.2-1.07-2.31-1.92-3.23-5.67-6.29-18.41-2.66-23.95,2.35h0Z"/>
      <path class="cls-1" d="m25.92,29.2c3.29-3.46,6.6-6.91,10.16-10.15,6.35-5.11,15.03-6.66,22.93-5.22,4.2.75,8.32,2.49,11.46,5.41-6.79-5.08-15.97-6.01-24.04-4.14-4.05.97-7.93,2.79-11.03,5.63-3.13,2.67-6.38,5.78-9.48,8.47h0Z"/>
      <path class="cls-1" d="m31.45,18.08c4.1-1.04,7.45-3.87,11.45-5.24,5.9-2.46,12.47-2.95,18.78-2.16,4.18.38,8.6,1.03,12.15,3.47,1.74,1.23,3.24,2.73,4.68,4.26-1.59-1.37-3.16-2.79-4.95-3.85-3.57-2.22-7.84-2.62-11.96-2.98-6.23-.64-12.52-.26-18.43,1.97-4.02,1.2-7.53,3.9-11.72,4.53h0Z"/>
      <path class="cls-1" d="m18.53,30.08c5.09,5.12,12.13-.4,16.94-3.2,5.37-3.25,12.12-5.97,18.38-3.47,2.97,1.32,5.07,3.73,8.21,4.62,4.39,1.47,9.38,1.2,13.53-.91,2.81-1.38,5.56-3.36,8.82-3.47,1.38-.03,2.98.56,3.38,2.01.05.08.13.16.22.12.08-.02.18-.14.09-.22.16.17-.21.38-.35.11-1.41-3.05-5.48-1.52-7.74-.32-2.78,1.48-5.48,3.39-8.65,4.01-3.16.72-6.5.51-9.59-.49-3.1-.81-5.5-3.32-8.31-4.56-5.91-2.43-12.35.24-17.62,3.22-4.93,2.73-12.45,8.08-17.32,2.53h0Z"/>
      <path class="cls-1" d="m16.67,30.83c-1.01-1.75-3.88-1.27-4.65.44-1.61,3.62,2.15,7.55,5.74,7.64,1.85.1,3.67-.56,5.42-1.3,13.78-5.63,16.34-12.88,32.62-7.48,7.36,2.43,15.08,3.66,22.09-.42,3.14-1.28,6.43-6.65,10.01-3.68-3.58-2.75-6.74,2.74-9.76,4.1-3.36,1.97-7.25,3.05-11.17,3.06-13.34-.65-19.99-8.63-33.08.01-3.34,1.94-6.81,3.69-10.41,5.11-1.79.71-3.72,1.38-5.75,1.22-3.93-.2-7.82-4.51-5.93-8.39.88-1.79,3.92-2.2,4.88-.32h0Z"/>
      <path class="cls-1" d="m16.61,31.03c-.71-3.15-4.71-3.01-6.45-.82-2.06,2.1-2.42,4.75-1.19,7.37,2.25,5.32,8.6,7.37,14.03,6.24-5.53,1.99-12.56-.17-14.94-5.84-.57-1.39-.91-2.88-.7-4.44.64-2.84,3.26-5.76,6.38-5.43,1.44.24,2.89,1.39,2.88,2.92h0Z"/>
      <path class="cls-1" d="m7.32,37.27c-3.6,1.35-5.17,6.24-2.86,9.1,2.24,3.02,6.43,3.57,9.84,2.39,7.29-2.32,11.77-9.19,16.79-14.56-2.27,3.04-4.44,6.16-7.03,8.99-2.57,2.82-5.73,5.27-9.46,6.52-4.56,1.66-11.15-.28-11.79-5.7-.3-2.92,1.68-6.01,4.52-6.74h0Z"/>
      <path class="cls-1" d="m58.82,31.67c2.52,1.45,4.87,3.19,7.51,4.3,7.06,3.16,14.32-.29,17.82-6.86.86-1.17,1.9-2.35,3.31-2.82-1.3.68-2.19,1.86-2.9,3.09-3.27,7.29-11.15,11-18.55,7.28-2.65-1.3-4.9-3.19-7.19-4.99h0Z"/>
      <path class="cls-1" d="m7.28,36.99c-1.91-.91-3.71,1.49-4.96,2.64-2.4,2.4-2.18,5.29-1.03,8.25.6,1.85,1.42,3.74,3.07,4.86,2.43,1.49,5.39,2.87,8.25,2.82,4-.15,7.37-2.77,10.41-5.18,4.74-3.81,9.19-8.03,14.68-10.84,5.39-2.79,12.22-4,17.84-1.11,4.94,2.55,11.07,7.81,16.51,3.55-5.25,4.56-11.82-.5-16.78-2.98-9.67-4.43-19.74,2.01-26.95,8.28-6.15,4.97-13.29,12.4-21.67,7.54-.91-.44-1.85-.89-2.7-1.52-1.74-1.23-2.61-3.3-3.2-5.26-1.14-3.09-1.21-6.21,1.38-8.6,1.3-1.14,3.26-3.48,5.15-2.46h0Z"/>
      <path class="cls-1" d="m56.5,37.08c6.66,1.73,13.4,5.18,20.37,4.62,3.26-.51,5.55-4.06,6.9-6.89,1.39-3.16,1.83-7.05,4.42-9.58-2.28,2.85-2.43,6.54-3.71,9.86-1.34,3.24-3.75,6.97-7.47,7.59-7.36.54-13.88-3.1-20.51-5.61h0Z"/>
      <path class="cls-1" d="m10.51,56.12c-.9,3.09,2.39,5.39,5.19,4.83,2.82-.46,5.22-2.42,7.29-4.31,2.13-1.98,3.83-4.35,5.24-6.93,1.45-2.54,2.9-5.34,5.4-7.03-3.35,3.07-4.34,7.68-6.98,11.28-2.7,3.52-6.27,7.11-10.86,7.75-3.13.43-6.67-2.31-5.27-5.59h0Z"/>
      <path class="cls-1" d="m9.78,55.88c-3.08,10.58,6.76,15.79,14.79,8.91,4.33-3.73,6.52-9.24,10.19-13.6,5.58-6.77,14.82-9.62,23.32-9.23-8.41.22-17.18,3.14-22.62,9.81-3.58,4.42-5.82,9.97-10.31,13.72-8.38,7.17-19.34,1.45-15.38-9.61h0Z"/>
      <path class="cls-1" d="m6.38,54.41c-3.5,2.42-4.87,7.05-4.01,11.03.84,4.06,3.88,7.37,7.45,9.31,3.71,2.22,7.75,2.29,11.85,1.21,4.03-.81,7.93-2.49,10.42-5.87,3.72-4.87,6.79-10.96,12.43-14.15,3.63-2.39,8.1-2.51,12.27-2.87,2.09-.17,4.19-.3,6.29-.33,4.1-.06,8.6.2,12.04-2.42-3.3,2.8-7.95,2.69-12.03,2.91-4.15.19-8.36.63-12.45,1.24-4.05.72-7.62,3.13-10.41,6.14-3.61,3.69-5.59,8.94-9.61,12.45-2.47,2.1-5.67,3.15-8.77,3.8-2.06.4-4.17.84-6.35.66-6.3-.84-12.37-5.61-13.62-11.98-.73-4.14.83-8.87,4.49-11.12h0Z"/>
      <path class="cls-1" d="m4.46,71c-.51,3.65,1.26,7.72,4.34,9.7,3.31,1.55,7.47.95,10.81-.33,2.3-.95,4.38-2.56,5.72-4.76-.98,2.44-3.07,4.32-5.4,5.46-3.55,1.63-7.98,2.27-11.6.45-3.28-2.23-4.98-6.73-3.86-10.52h0Z"/>
      <path class="cls-1" d="m3.97,69.78c-1.33,1.22-1.41,3.12-1.28,4.79.14,1.72.33,3.46.75,5.11,1.45,7.22,10.09,9.44,16.25,6.82,3.24-1.21,6.1-3.26,8.82-5.39-2.46,2.46-5.25,4.69-8.53,6.1-6.52,3.15-16.06.53-17.29-7.36-.36-1.75-.45-3.5-.5-5.26.02-1.71.27-3.75,1.77-4.81h0Z"/>
      <path class="cls-1" d="m8.05,86.54c9.93,11.36,30.28.81,34.06-11.68.7-1.86.77-4.24,2.33-5.65-1.39,1.56-1.3,3.88-1.86,5.79-2.28,8.14-9.53,14.3-17.58,16.38-5.9,1.71-13.39.61-16.95-4.85h0Z"/>
      <path class="cls-1" d="m56.7,67.45c-1.23,4.88,3.12,8.56,7.17,10.27,2.08.97,4.3,1.92,6.08,3.6,3.58,3.42,4.03,9.18,1.82,13.46-3.36,6.85-11.79,8.08-18.59,7.01,6.63.42,14.61-.83,17.78-7.42,1.94-3.93,1.55-9.24-1.64-12.4-1.59-1.57-3.73-2.48-5.79-3.56-4.05-1.84-8.56-6.11-6.83-10.96h0Z"/>
      <path class="cls-1" d="m57.3,77.65c4.21,3.85,6.17,11.05,3.67,16.34-2.59,5.49-8.37,8.32-13.07,11.54-3.15,2.15-6.12,4.84-7.49,8.5.98-3.84,3.96-6.82,7.05-9.12,4.61-3.42,10.04-6.07,12.7-11.32,2.41-5.13.81-11.76-2.85-15.94h0Z"/>
      <path class="cls-1" d="m25.96,90.78c2.95,4.05,9.07,3.49,12.74.75,2.9-2.02,4.84-5.35,5.16-8.89.15-1.19.09-2.4-.1-3.61.4,1.16.57,2.4.59,3.64-.02,3.8-1.94,7.5-5.07,9.68-3.85,2.93-10.84,3.24-13.32-1.57h0Z"/>
      <path class="cls-1" d="m22.33,91.72c3,7.11,11.27,9.24,18.04,6.52,3.34-1.22,6.34-3.27,9.14-5.52,2.73-2.13,5.19-5.61,3.78-9.18,1.88,3.48-.58,7.49-3.28,9.77-2.73,2.43-5.8,4.58-9.3,5.88-7.04,2.84-16.02.29-18.38-7.46h0Z"/>
      <path class="cls-1" d="m33.2,120.75c-.21-.5-.72-.7-1.18-.91-3.57-1.47-5.53-5.43-5.53-9.17.04-4.33,2.46-8.31,5.69-11.02-1.32,1.62-2.46,3.35-3.31,5.2-2.46,4.91-1.67,11.73,3.27,14.76.43.26.96.6,1.05,1.14h0Z"/>
      <path class="cls-1" d="m11.96,89.95c-.67,8.61,9.14,15.66,15.68,8.41-1.43,2.85-5.02,4.27-8.14,3.73-5.36-.91-8.92-7.03-7.54-12.15h0Z"/>
      <path class="cls-1" d="m63.69,25.02c5.08-5.74,14.59-7.87,21.31-3.83.91.65,1.72,1.48,2.15,2.5-.62-.9-1.46-1.6-2.4-2.08-6.84-3.15-15.31-1.15-21.05,3.41h0Z"/>
      <path class="cls-1" d="m64.8,25.72c4.98-5.96,14.72-7.58,21.36-3.54-7.23-2.59-15.35-1.24-21.36,3.54h0Z"/>
      <path class="cls-1" d="m66.17,25.91c4.23-4.61,11.47-6.47,17.39-4.46-6.21-.54-12.21.99-17.39,4.46h0Z"/>
      <path class="cls-1" d="m67.85,26.04c4.05-3.02,9.35-5.98,14.55-4.73-5.26.2-9.73,2.9-14.55,4.73h0Z"/>
      <path class="cls-1" d="m70.09,26.1c3.04-2.46,6.66-4.43,10.62-4.79-3.57,1.69-6.87,3.51-10.62,4.79h0Z"/>
      <path class="cls-1" d="m56.91,10.68c6.36-2.82,13.86-4.24,20.5-1.4,4.86,1.98,9.38,5.94,10.48,11.27.34,1.74.33,3.55-.19,5.22.29-1.72.2-3.47-.29-5.11-1.37-5-5.74-8.55-10.39-10.46-6.44-2.79-13.64-1.56-20.12.47h0Z"/>
      <path class="cls-1" d="m59.9,11.12c7.78-4.19,18.98-2.92,24.74,4.1,1.83,2.45,2.75,5.32,3.54,8.15-.6-1.35-1.15-2.72-1.83-4.01-4.43-9.58-17.33-11.74-26.46-8.24h0Z"/>
      <path class="cls-1" d="m62.99,11.24c2.45-1,5.19-.97,7.79-.82,6.54.37,13.48,3.41,16.52,9.52.56,1.2,1,2.46,1.17,3.76-3.17-10.25-15.81-13.95-25.48-12.46h0Z"/>
      <path class="cls-1" d="m67.08,11.81c4.39-.7,8.86.73,12.76,2.62,2.92,1.32,6.28,3.03,7.6,6.22.41,1.04.61,2.2.38,3.28,0-1.1-.29-2.15-.82-3.06-1.58-2.89-4.67-4.18-7.58-5.52-3.92-1.92-7.93-3.43-12.34-3.53h0Z"/>
      <path class="cls-1" d="m73.2,13.77c5.83,1.35,13.83,4.09,14.78,10.9-2.36-6.2-9.37-8.13-14.78-10.9h0Z"/>
      <path class="cls-1" d="m77.03,17c3.63-1.14,8.47,1.75,10.19,4.92-3.02-2.3-6.3-4.5-10.19-4.92h0Z"/>
      <path class="cls-1" d="m61.17,33.33c6.99,1.18,14.33-.38,20.11-4.49,1.52-.9,2.64-2.57,4.41-3.08.6-.16,1.27-.12,1.78.22-.56-.24-1.17-.17-1.7.03-1.61.75-2.56,2.4-4.03,3.44-5.63,4.58-13.67,6.2-20.57,3.88h0Z"/>
      <path class="cls-1" d="m63.91,34.99c3.17-.37,6.46-.15,9.59-.63.99-.19,1.91-.63,2.8-1.18,2.69-1.7,5.34-3.56,7.86-5.54.86-.64,1.69-1.33,2.54-1.99-.7.83-1.46,1.59-2.22,2.36-2.36,2.25-4.89,4.28-7.66,6.02-.94.56-2,1.08-3.14,1.26-3.28.37-6.5-.08-9.76-.3h0Z"/>
      <path class="cls-1" d="m65.91,36.07c6.29.28,12.3-.55,16.37-5.87,1.29-1.56,2.56-3.33,4.36-4.42-1.55,1.39-2.52,3.2-3.74,4.89-3.8,5.74-10.68,6.91-16.99,5.39h0Z"/>
      <path class="cls-1" d="m9.96,55.86c-.46,1.63.1,3.36,1.17,4.55,2.18,2.52,6.11,2.26,8.78.7,4.27-2.54,6.88-6.99,9.45-11.16,1.49-2.53,3.58-6.19,5.34-8.5-1.43,2.5-3.31,6.28-4.67,8.88-2.39,4.38-5.17,9.06-9.67,11.61-2.98,1.68-7.39,1.69-9.61-1.22-1.03-1.38-1.48-3.29-.79-4.85h0Z"/>
      <path class="cls-1" d="m9.74,56.31c.06,1.72.12,3.73,1.21,5.11,2.21,2.43,7.15,1.73,9.93.72,3.25-1.49,4.98-5,6.98-7.83,0,0,2.98-4.56,2.98-4.56,1.74-2.67,4.06-6.54,5.77-9.27-.76,1.66-1.61,3.27-2.44,4.89-2.62,4.83-5.37,9.52-8.59,14.01-1.13,1.46-2.52,2.87-4.33,3.62-3.21,1.08-8.33,1.55-10.69-1.29-1.06-1.61-.97-3.59-.83-5.41h0Z"/>
      <path class="cls-1" d="m9.88,56.12c-.31,1.86-.62,4.12.38,5.77,2.07,2.73,8.04,2.33,10.96,1.31,1.82-.67,3.29-1.96,4.44-3.55,2.3-3.22,4.25-6.84,6.43-10.17,1.89-2.99,4.62-7.25,6.59-10.14-1.62,3.07-4.17,7.48-5.93,10.53-.99,1.75-2.05,3.47-3.07,5.2-2.06,3.41-4.05,7.6-8.14,8.97-3.28,1.13-9.54,1.26-11.69-1.9-.96-1.91-.49-4.1.03-6.03h0Z"/>
      <path class="cls-1" d="m9.63,56.61c-.19,3.29-.34,7.33,3.1,7.95,5.87,1.68,10.23.73,13.73-4.5,5.11-6.97,9.77-14.31,14.27-21.7-1.89,3.91-4.02,7.7-6.26,11.42-2.25,3.72-4.67,7.32-7.2,10.88-1.32,1.73-2.84,3.47-4.9,4.52-3.62,1.74-7.92.96-11.37-.71-1.54-.97-1.59-3.02-1.66-4.6-.03-1.09.08-2.19.3-3.25h0Z"/>
      <path class="cls-1" d="m9.98,62.44c.99,4.56,6.94,4.73,10.54,3.49,4.11-1.3,6.7-4.89,9.25-8.17,3.94-5.02,7.45-10.37,10.58-15.94,1.06-1.79,2.03-4.01,4.09-4.83-1.96,1.03-2.72,3.18-3.66,5.05-.96,1.92-1.97,3.8-3.04,5.66-2.15,3.71-4.59,7.25-7.19,10.66-2.66,3.31-5.47,7.12-9.81,8.29-3.81,1.17-10.14.64-10.77-4.22h0Z"/>
      <path class="cls-1" d="m42.15,39.5c-.06.1-.24-.01-.2-.14.03-.12.13-.19.2-.24,4.98-3.42,12.4-1.11,17.19,1.66-5.52-1.47-11.56-3.75-17.12-1.53-.09.04-.17.07-.21.14-.05.05.05.19.13.12h0Z"/>
      <path class="cls-1" d="m37.18,47.76c5.53-5.18,13.93-7.43,21.31-5.7-7.58-.28-14.88,1.67-21.31,5.7h0Z"/>
      <path class="cls-1" d="m39.6,43.83c4.27-2.22,9.22-2.76,13.97-2.74,1.55.01,3.31.03,4.68.92-1.53-.52-3.08-.25-4.65-.14-4.73.37-9.36.81-14,1.96h0Z"/>
      <path class="cls-1" d="m40.66,41.58c5.9-1.25,13.25-3.38,18.37.95-5.74-3.01-12.24-.8-18.37-.95h0Z"/>
      <path class="cls-1" d="m41.57,40.43c2.65-1.13,5.63-1.22,8.46-1.03,2.69.38,6.21.15,7.97,2.6-1.91-1.68-5.69-1.29-8.04-1.61-2.8-.22-5.56-.33-8.39.03h0Z"/>
      <path class="cls-1" d="m42.06,39.67c1.15-1.07,2.88-1.22,4.37-1.32,4.46-.34,9.81.13,12.79,3.9-3.71-2.83-8.32-3.02-12.77-3.12-1.5-.03-3.01-.18-4.38.54h0Z"/>
      <path class="cls-1" d="m57.39,40.17c1.26-.25,2.46,1,2.14,2.25-1.06-.73-1.46-1.16-2.14-2.25h0Z"/>
      <path class="cls-1" d="m25.92,90.85c4.53,8.69,15.71,1.96,18.7-4.65,1.24-2.38,1.88-5.06,1.9-7.81.41,2.75-.07,5.6-1.2,8.14-2.73,7.36-15.49,14.23-19.39,4.32h0Z"/>
      <path class="cls-1" d="m25.34,90.88c.53,2.9,3.14,4.98,5.91,5.52,5.82.96,10.89-3.7,13.8-8.33,1.52-2.46,2.56-5.23,3.11-8.12-.14,2.97-1.02,5.89-2.44,8.51-2.79,5.09-8.39,10.08-14.64,8.69-2.9-.72-5.62-3.17-5.74-6.26h0Z"/>
      <path class="cls-1" d="m24.28,91.35c2.23,6.71,9.99,8.14,15.55,4.65,2.7-1.56,4.76-4.1,6.34-6.83,1.6-2.76,2.71-5.79,3.67-8.87-.57,3.19-1.5,6.34-2.99,9.24-1.48,2.91-3.61,5.61-6.51,7.32-5.87,3.7-14.48,1.87-16.05-5.52h0Z"/>
      <path class="cls-1" d="m23.55,91.48c2.19,6.78,10.55,8.77,16.48,5.7,2.99-1.39,5.47-3.73,7.47-6.38,1.97-2.69,3.74-5.67,4.25-9.02-.09,3.45-1.77,6.64-3.63,9.47-1.91,2.84-4.5,5.34-7.67,6.84-6.23,3.23-15.35.84-16.91-6.6h0Z"/>
      <path class="cls-1" d="m37.61,99.09c1.91-.33,3.43-1.49,4.92-2.65,4.46-3.47,8.35-7.78,10.35-13.15-.92,5.8-5.12,10.61-9.89,13.78-1.57,1.06-3.41,2.09-5.37,2.01h0Z"/>
      <path class="cls-1" d="m41.28,98.08c2.8-1.34,4.77-3.85,7.06-5.86,2.23-2.12,4.25-4.39,5.56-7.22-.91,4.73-4.83,8.12-8.43,10.98-1.22.96-2.63,1.85-4.2,2.1h0Z"/>
    </g>
  </g>
</svg>