<?xml version="1.0" encoding="UTF-8"?>
<svg id="Layer_2" data-name="Layer 2" xmlns="http://www.w3.org/2000/svg" viewBox="0 0 131.61 132.59">
  <defs>
    <style>
      .cls-1 {
        fill: #a37d2d;
        stroke-width: 0px;
      }
    </style>
  </defs>
  <g id="Layer_1-2" data-name="Layer 1">
    <g>
      <g>
        <path class="cls-1" d="m88.94,111.17c-4.69.75-9.4,1.4-14.11,2.03-2.36.29-5.01.91-7.24-.29-3.81-2.05-4.69-6.93-8.28-9.17-1.05-.64-2.33-1.04-3.01-2.24-.75-1.33.19-2.87,1.33-3.57,1.55-.86,3.18-1.43,4.02-3.11,1.32-2.46,2.83-6.74,6.4-5.97.14.04.3.09.42.2.23.14.2.59-.13.41-.07-.02-.12-.14-.03-.17-.16.11.16.24.23.16.14-.46-.63-.51-.95-.54-3.29.09-4.12,3.83-5.39,6.23-.56,1.09-1.5,2.09-2.6,2.63-1.07.57-2.11,1.07-2.54,2-.76,1.76,1.5,2.45,2.72,3.17,3.69,2.06,4.71,7.15,8.23,9.17,1.93,1.11,4.4.49,6.74.33,4.72-.47,9.45-.92,14.19-1.27h0Z"/>
        <path class="cls-1" d="m66.27,111.51c-2.81-.41-5.93-.95-8.75-1.46-.95-.18-2.08-.41-2.84-1.34-.73-.94-.74-2.07-.9-2.98-.19-2.27-2.25-2.39-4-3.19-2.68-1.03-4.27-4.97-1.2-6.59,2.1-.99,5.32.39,6.08-2.49.31-.94.62-2.13,1.57-2.68,2.27-1.13,4.92-1.23,7.38-.9.31,0,.81.31.98-.03.02-.1-.29-.13-.2,0-.12-.13.24-.16.24,0-.13.42-.73.15-1.04.18-2.34-.15-4.97.17-7.02,1.28-.74.47-.91,1.42-1.19,2.38-.52,2.58-3.09,2.63-5.13,2.77-1.99.06-2.95,1.82-2.02,3.49,1.16,2.34,4.54,1.87,5.91,4.09,1.18,2.59-.24,4.7,3.49,5.39,2.79.62,5.86,1.37,8.62,2.07h0Z"/>
        <path class="cls-1" d="m54.36,107.85c-5.5.06-14.27-4.98-11.3-11.43,2.57-4.11,8.07-6.02,12.68-4.74-3.9-.48-7.99.87-10.68,3.73-.91.92-1.57,1.97-1.61,3.19-.09,5.08,6.49,8.56,10.92,9.25h0Z"/>
        <path class="cls-1" d="m52.1,107.45c-1.75-1.91-3.63-2.93-6.18-3.38,2.44-1.13,5.82.73,6.18,3.38h0Z"/>
        <path class="cls-1" d="m47.02,93.46c2.42.09,4.27-.48,6.24-1.89-.73,2.42-4.29,3.5-6.24,1.89h0Z"/>
        <path class="cls-1" d="m45.83,101.59c-.88-.36-1.17-1.07-.78-1.93.88.35,1.16,1.07.78,1.93h0Z"/>
        <path class="cls-1" d="m45.51,96.26c.02-.91.43-1.34,1.34-1.38.14.92-.43,1.5-1.34,1.38h0Z"/>
        <path class="cls-1" d="m112.39,108.35c-6.86-2.59-12.53,4.1-19.32,3.97-5.75-.23-10.44-4.07-16.21-3.98-5.72-.63-10.19-4.81-15.6-6.2,2.22.36,4.32,1.24,6.36,2.15,2.03.93,4.03,1.93,6.14,2.55,2.15.71,4.31.66,6.56.95,4.45.65,8.31,3.47,12.78,3.62,6.5.13,12.76-6.27,19.3-3.07h0Z"/>
        <path class="cls-1" d="m111.99,108.6c-1.75-2.75-5.66-2.04-7.64-4.6-1.16-1.45-1.02-3.32.4-4.59.95-1.09,2.01-2.28,2.99-3.32,1.21-1.42,3.15-2.8,2.66-4.89.95,1.98-.96,3.95-2.07,5.4-.89,1.13-1.91,2.35-2.84,3.45-1.04.98-1.28,2.18-.38,3.39,1.71,2.28,5.82,2.19,6.89,5.16h0Z"/>
        <path class="cls-1" d="m61.8,101.88c12.66-.31,25.3-2.34,37.31-6.37,8.54-3.08,18.92-6.05,23.03-14.95,1.29-2.87,1.45-6.12,1.36-9.28.31,3.14.27,6.43-.9,9.47-3.89,9.3-14.47,12.52-23.17,15.71-12.1,3.95-24.9,5.92-37.63,5.43h0Z"/>
        <path class="cls-1" d="m68.56,89.5c.8,2.46,4.1,3.07,5.62,1.07.48-.57.58-1.35.96-2.18.4-.88,1.24-1.43,2-1.78,2.12-1.01,4.7-1.68,6.25-3.41,1.1-1.18,1.14-2.72,1.02-4.28-.06-1.63-.19-3.31.08-4.99.27-3.25,3.48-6.92,6.92-5.53-3.38-.88-6.02,2.55-6.16,5.63-.5,3.19,1.29,7.1-1.11,9.83-1.22,1.35-2.85,2.02-4.36,2.64-1.48.65-3.27.99-3.96,2.23-.35.63-.53,1.55-1.16,2.24-1.84,2.21-5.58,1.28-6.11-1.47h0Z"/>
        <path class="cls-1" d="m68.92,89.63c-.29-2.47,1.74-4.42,2.46-6.62.78-2.33-.34-4.58.07-7.08,1.9-9.3,12.6-10.58,20.1-7.44-1.56-.35-3.11-.67-4.69-.8-5.95-.84-13.28,1.96-14.48,8.39-.29,1.47.06,3.03.04,4.69.26,3.45-3.36,5.56-3.51,8.86h0Z"/>
        <path class="cls-1" d="m94.33,130.45c-6.69-.46-6.26-5.77-6.58-10.78-.5-3.73-4.84-4.23-7.8-5.23-1.11-.42-2.23-.95-3.03-1.83.95.7,2.04,1.1,3.17,1.36,3.33.67,8.14,1.37,8.64,5.55.38,5.21-.67,9.52,5.59,10.93h0Z"/>
        <path class="cls-1" d="m94.84,130.85c-4.1,1.66-9.14,2.69-13.3.47-5.29-3.07-9.04-8.4-10.88-14.16-.42-1.45-.76-2.92-.9-4.41.37,1.45.79,2.88,1.36,4.25,2.17,5.39,5.89,10.43,10.87,13.49,3.93,2.22,8.66,1.41,12.85.36h0Z"/>
        <path class="cls-1" d="m75.14,89.13c8.37.78,17.58,2.15,25.67-.73,1.17-.38,2.3-.89,3.42-1.44-8.46,5.96-19.61,4.49-29.09,2.17h0Z"/>
        <path class="cls-1" d="m104.25,86.98c1.9,1.5,4.36-.21,6.08-1.22,4-2.57,5.41-7.35,1.5-10.7-1.54-1.42-3.26-4.46-1.21-6.18-1.59,1.94.16,4.3,1.75,5.63,4.59,3.43,3.03,9.41-1.64,11.9-1.85.95-4.78,2.5-6.49.57h0Z"/>
        <path class="cls-1" d="m104.31,86.96c.16-1.99.38-3.97.66-5.94.13-1,.34-1.94.03-2.74-.28-.83-.92-1.6-1.35-2.62-1.7-4.63,3.35-8.32,7.52-7.07-3.76-.37-8.03,2.77-6.6,6.7.32.83.98,1.63,1.32,2.71.34,1.14.03,2.22-.17,3.16-.41,1.95-.89,3.88-1.43,5.81h0Z"/>
        <path class="cls-1" d="m114.44,82.26c3.5-2.73,7.02-6.16,7.35-10.81.87-6.91-4.66-13.09-11.58-13.19-2.3-.26-4.69,1.44-6.88.21-2.11-1.2-2.91-3.58-4.84-4.86-1.78-1.28-4.65-.46-5.65,1.61.79-2.18,3.78-3.33,5.91-2.03,2.07,1.26,3.06,3.63,4.94,4.6,2.02.94,4.36-.71,6.54-.44,7.45-.06,13.5,6.8,12.32,14.19-.51,4.81-4.26,8.28-8.11,10.72h0Z"/>
        <path class="cls-1" d="m106.07,104.79c2.46-3.25,5.91-5.54,8.79-8.32,5.84-5.49,9.88-12.82,11.57-20.64,1.52-5.88.36-11.96-2.45-17.28-2.48-5.39-6.4-10.4-12.31-12.12-7.67-2.67-16.82,1.68-19.42,9.45,2.24-8.09,11.73-12.8,19.64-10.19,6.17,1.62,10.34,6.89,12.94,12.43,2.97,5.43,4.1,11.86,2.48,17.9-1.75,7.97-6.05,15.36-12.13,20.8-3.04,2.7-6.49,4.87-9.12,7.96h0Z"/>
        <path class="cls-1" d="m124.46,57.92c-1.48-4.63.31-9.54,0-14.24-.34-6.24-4.9-11.93-10.95-13.58-1.5-.47-3.09-.66-4.68-.67,1.58-.22,3.22-.13,4.8.2,6.52,1.3,11.56,7.36,11.77,14,.2,4.83-1.83,9.48-.94,14.29h0Z"/>
        <path class="cls-1" d="m112.08,46.02c-4.43-4.55.08-8.31-.71-13.25-.29-1.39-1.07-2.81-2.51-3.47,1.58.27,2.82,1.71,3.26,3.28.99,3.16-.97,6.23-1.29,9.18-.11,1.43.58,2.86,1.24,4.26h0Z"/>
        <path class="cls-1" d="m123.63,71.55c.03-1.47,1.19-2.67,1.82-3.86.63-1.16.94-2.45,1.04-3.92.7,1.33.57,3.04-.16,4.39-.75,1.35-1.87,2.12-2.7,3.39h0Z"/>
        <path class="cls-1" d="m123.52,71.27c-1-2.39-1.3-4.6-2.8-6.76,2.5,1.06,3.25,4.31,2.8,6.76h0Z"/>
        <path class="cls-1" d="m111.37,99.56c4.76-3.33,11.84,1.36,16.05-3.05,1.62-1.68.71-4.31,1.75-6.35.54-1.07,1.4-1.96,2.45-2.45-.93.67-1.65,1.6-2,2.64-.41,1.03-.34,2.13-.35,3.3.21,2.52-1.84,4.8-4.21,5.45-4.65,1.4-9.22-1.55-13.68.46h0Z"/>
        <path class="cls-1" d="m116.63,95.38c1.2-.79,2.7-1.04,3.73-1.83,1.06-.78,1.88-1.98,3.25-2.77.69-.4,1.53-.52,2.19-.6,2.07-.27,3.81-1.42,5.66-2.42-1.51,1.5-3.32,2.95-5.51,3.35-.73.12-1.32.22-1.86.54-1.11.6-2.01,1.77-3.31,2.55-1.35.81-2.81.74-4.15,1.18h0Z"/>
        <path class="cls-1" d="m111.76,108.1c-1.84-.84-3.88-.25-5.91-1.05-3.13-1.05-4.94-5.09-3.03-7.96,1.61-2.58,5.1-3.52,5.77-6.67.03,4.15-5.99,5.49-5.54,9.73.12,1.81,1.41,3.4,3.1,4.19,1.64.83,3.92.57,5.6,1.77h0Z"/>
        <path class="cls-1" d="m110.61,107.37c-2.77.47-6.12.63-8.44-1.31-2.16-2.46-2.87-5.77-.29-8.2,1.33-1.42,2.99-2.35,3.86-4.08-.5,1.89-2.15,3.21-3.27,4.59-.56.71-1.06,1.47-1.23,2.29-.35,1.59.64,3.54,1.61,4.74,2.02,1.76,5.14,1.85,7.76,1.97h0Z"/>
        <path class="cls-1" d="m108.41,107.28c-1.69.43-3.47.6-5.21.21-3.48-.76-6.69-5.37-4.05-8.54,1.2-1.33,2.45-2.33,3.16-3.99-.17.85-.53,1.66-.99,2.42-.48.75-1.1,1.38-1.55,2.04-.96,1.29-.77,2.99.03,4.34,1.65,3.07,5.41,3.68,8.61,3.52h0Z"/>
        <path class="cls-1" d="m106.43,107.78c-4.45.92-12.72-2.42-9.57-8.05.85-1.51,2.13-2.52,2.93-3.96-.62,2.32-2.83,4.03-2.69,6.46.69,3.81,5.94,5.18,9.33,5.55h0Z"/>
        <path class="cls-1" d="m105.39,107.82c-3.01,1.36-6.83.29-8.99-2.19-1.76-1.96-2.45-4.83-.36-6.86.48-.59.8-1.31,1.03-2.07,0,.8-.24,1.6-.61,2.33-1.53,1.99-.87,4.18.7,5.94,2,2.29,5.19,3.37,8.23,2.85h0Z"/>
        <path class="cls-1" d="m103.43,108.41c-5.1,2.72-13.51-4-9.45-9.29.55-.58,1.2-1.05,1.33-1.85.11.84-.56,1.53-.95,2.16-2.78,5,4.37,10.14,9.07,8.98h0Z"/>
        <path class="cls-1" d="m102.64,108.83c-2.74,1.08-6.4,1.49-8.8-.63-2.39-1.7-4.76-5.3-2.64-8.13.52-.72,1.14-1.32,1.79-1.87-3.11,3.66-1.97,6.44,1.45,9.22,2.23,1.99,5.38,1.76,8.21,1.4h0Z"/>
        <path class="cls-1" d="m101.63,109.63c-3.2.85-6.87.47-9.62-1.54-2.71-1.97-4.29-5.94-2.71-9.03-.72,3.14.82,6.37,3.3,8.22,2.57,1.89,5.86,2.39,9.03,2.34h0Z"/>
        <path class="cls-1" d="m100.6,110.18c-1.34-.2-2.46.7-3.79.79-5.5.06-12.49-5.61-9.16-11.39-1.15,3.29.68,6.71,3.44,8.49,2.03,1.2,4.46,2.59,6.92,2.14.82-.13,1.77-.38,2.59-.02h0Z"/>
        <path class="cls-1" d="m98.94,110.46c-3.8,1.74-6.72.9-9.9-1.6-1.97-1.63-4.35-3.59-4.57-6.36-.03-.9.21-1.85.83-2.48-.42.76-.51,1.63-.34,2.43.57,2.46,2.82,4.09,4.69,5.62,1.32.98,2.73,1.99,4.3,2.48,1.55.45,3.3.17,5-.09h0Z"/>
        <path class="cls-1" d="m96.02,111.57c-4.97.52-9.55-2.79-12.39-6.62-.86-1.19-1.81-2.74-1.5-4.27.1-.16.3.04.16.1.09-.05-.07-.17-.1-.06.08,1.46,1.11,2.66,2.04,3.74,3.11,3.48,7.02,6.48,11.78,7.11h0Z"/>
        <path class="cls-1" d="m94.86,111.8c-4.58,1.53-15.16-6.21-14.8-11.16.47,3.9,10.96,11.63,14.8,11.16h0Z"/>
        <path class="cls-1" d="m90.68,111.55c-4.69-.9-12.42-5.65-12.93-10.65,0,0-.13.22-.13.22.02-.06.08-.28.09-.34,1.07,2.73,3.5,4.5,5.69,6.29,2.25,1.73,4.69,3.17,7.28,4.49h0Z"/>
        <path class="cls-1" d="m87.5,110.52c-4.83-.91-9.88-4.13-11.27-9.08,2.72,4.28,6.87,6.78,11.27,9.08h0Z"/>
        <path class="cls-1" d="m82.29,108.48c-3.36-1-7.09-3.18-7.98-6.82,2.18,2.96,5.19,4.51,7.98,6.82h0Z"/>
        <path class="cls-1" d="m80.81,108.51c-2.83-.54-5.41-2.06-7.47-4.04-.66-.64-1.42-1.48-1.46-2.48.45.86,1.2,1.34,1.96,1.88,2.28,1.66,4.58,3.06,6.97,4.64h0Z"/>
        <path class="cls-1" d="m77.92,107.73c-3.46-.18-8.07-2.45-8.98-6.09,2.3,2.99,5.75,4.42,8.98,6.09h0Z"/>
        <path class="cls-1" d="m75.45,107.43c-3.32-.62-6.38-2.39-8.69-4.81-.07-.08-.19-.18-.19-.36,0-.22.33-.19.28-.05-.03-.12-.2,0-.13.04.07.12.67.37.8.46,2.64,1.5,5.4,3.02,7.93,4.72h0Z"/>
        <path class="cls-1" d="m123.82,70.52c-.48-7.3-6.71-13.43-14.01-13.56-2.4-.03-5.23.63-7.29-1.05-1.38-1.02-2.33-2.36-3.59-3.3-1.23-1.02-3-1.29-4.41-.46,1.33-1.07,3.32-.89,4.69.05,1.4.93,2.45,2.23,3.75,3.07,2.81,1.82,6.28.09,9.38.97,6.64,1.18,11.83,7.52,11.49,14.27h0Z"/>
        <path class="cls-1" d="m123.9,69.69c-.8-6.09-5.4-11.43-11.29-13.02-2.95-.84-6.39-.38-9.1-2.22-1.4-.94-2.2-2.35-3.3-3.36-1.04-1-2.79-1.7-4.09-.76,1.22-1.17,3.22-.57,4.41.39,1.25,1.01,2.13,2.35,3.4,3.08,2.68,1.56,5.96,1.07,8.94,1.9,6.16,1.65,11,7.58,11.03,13.98h0Z"/>
        <path class="cls-1" d="m124.13,69.47c-.06-6.11-4.47-11.28-9.84-13.75-3.94-2.24-9.28-1.74-12.47-5.28-.99-1.03-2.07-2.47-3.67-2.14.72-.29,1.57-.07,2.22.35,1.83,1.3,3.29,3.11,5.6,3.56,2.91.71,6.03,1.23,8.76,2.62,5.53,2.53,10.16,8.32,9.41,14.65h0Z"/>
        <path class="cls-1" d="m124.49,69.28c-.02.12-.12.15-.22.05-.25-.21-.21-.57-.14-.83,1.09-5.7-3.44-10.54-8.21-12.97-3.9-2.12-8.32-3.54-12.05-6.09-1.24-.88-2.41-1.86-3.37-3.02,1.12,1,2.33,1.88,3.63,2.6,3.91,2.27,8.26,3.44,12.26,5.63,4.93,2.47,9.68,8.03,7.88,13.89-.11.28-.17.52.02.76.05.09.17.09.19-.02h0Z"/>
        <path class="cls-1" d="m124.15,68.53c1.46-5.39-2.16-10.59-6.52-13.4-3.35-2.17-7.51-3.25-10.82-5.63-1.1-.83-2.12-1.8-2.83-2.98.89,1.04,1.94,1.9,3.1,2.57,3.53,2.12,7.57,2.92,11.1,5.2,4.53,2.87,8.3,8.87,5.97,14.24h0Z"/>
        <path class="cls-1" d="m124.63,69.5c1.81-5.43-.99-11.27-5.25-14.71-3.17-2.79-7.21-4.3-10.87-6.38-1.2-.78-2.35-1.72-3.08-2.95.91,1.1,2.07,1.91,3.32,2.52,3.85,1.81,7.99,3.16,11.27,6.05,4.42,3.56,7.27,10.08,4.61,15.48h0Z"/>
        <path class="cls-1" d="m104.28,47.14c-.88.17-1.45-.61-1.02-1.4.87.26,1.04.5,1.02,1.4h0Z"/>
        <path class="cls-1" d="m125.4,68.15c.49-5.07-1.36-10.33-4.98-13.91-2.64-2.78-6.57-3.97-9.75-6.12-1.07-.77-2.08-1.65-2.81-2.73,2.76,2.88,6.71,3.77,10.09,5.71,5.8,3.27,9.08,10.59,7.45,17.05h0Z"/>
        <path class="cls-1" d="m122.43,55.34c-1.34-1.4-2.53-2.88-4.08-4.01-2.14-1.36-4.45-2.63-6.5-4.16-.5-.43-1.01-.93-1.23-1.56.83,1.03,2.09,1.37,3.23,2,1.16.59,2.29,1.18,3.41,1.87,2.37,1.28,4.04,3.46,5.16,5.85h0Z"/>
        <path class="cls-1" d="m123.86,56.77c-1.33-3.07-2.83-6.24-5.47-8.34-2.51-2.01-6.7-3-7.76-6.5.86,1.52,2.33,2.43,3.81,3.19,5.49,2.14,8.43,5.8,9.42,11.64h0Z"/>
        <path class="cls-1" d="m124.09,55.03c-.75-1.6-1.44-3.25-2.08-4.87-.6-1.59-1.9-2.66-3.35-3.63-1.56-1.07-5.3-3.11-6.62-4.42-.63-.66-1.16-1.48-1.24-2.38.63,1.72,2.27,2.53,3.79,3.31,2.33,1.29,4.83,2.47,6.74,4.41,1.84,2.08,2.02,5.01,2.75,7.57h0Z"/>
        <path class="cls-1" d="m124.01,54.4c-.66-1.76-.64-3.7-1.04-5.42-.35-1.76-1.47-3.1-2.88-4.24-2.44-2.1-5.17-3.75-8.11-5.03-.43-.23-.72-.87-.4-1.26-.2.45.15.88.53,1.03,4.05,1.05,8,3.26,10.6,6.62,1.71,2.46.91,5.59,1.3,8.31h0Z"/>
        <path class="cls-1" d="m124.21,52.67c.26-7.07-2.27-9.22-7.67-13.05-1.43-1.22-3.4-1.37-4.74-2.7,0,0-.03-.04-.03-.04.1-.21.36-.29.54-.2-.18-.04-.37.07-.42.22v-.07c1.47,1.01,3.53.96,5.08,2.1,5.6,3.4,8.87,6.8,7.23,13.73h0Z"/>
        <path class="cls-1" d="m124.76,48.85c-1.19-1.25-1.28-3.18-1.72-4.74-.64-2.36-2.52-4.13-4.42-5.6-1.31-1.03-2.59-2-4.21-2.5-.77-.3-1.68-.64-2.13-1.4.62.59,1.44.77,2.27.92,3.77.82,8.5,4.42,9.25,8.4.34,1.72.1,3.41.96,4.91h0Z"/>
        <path class="cls-1" d="m124.38,47.74c.52-3.7-1.74-6.94-3.86-9.74-1.66-2.21-3.85-3.66-6.48-4.46-.85-.36-1.75-.79-2.31-1.55,1.47,1.19,3.38,1.08,5.15,1.85,4.44,1.96,9.28,9.01,7.49,13.89h0Z"/>
        <path class="cls-1" d="m124.68,44.82c-1.3-5.97-5.02-12.16-11.55-13.03-.87-.28-1.79-.69-2.35-1.43.72.57,1.58.83,2.46.95,6.9.06,11.46,7.11,11.44,13.51h0Z"/>
        <path class="cls-1" d="m123.49,56.85c-3.57-4.04-6.54-8.44-11.42-11,5.46,1.22,9.09,6.25,11.42,11h0Z"/>
        <path class="cls-1" d="m111.71,45.35c5.78,1.22,10.85,6.03,12.35,11.74-2.88-5.15-7.06-9.13-12.35-11.74h0Z"/>
        <path class="cls-1" d="m112.71,98.96c1.2-1.59,3.52-1.72,5.34-1.62,1.87.08,3.71.03,5.54-.23,3.26-.11,3.56-3.36,4.57-5.78.39-.87,1.02-1.74,1.91-2.11-.76.58-1.21,1.4-1.45,2.29-.57,1.83-.59,3.91-2.06,5.41-.79.79-1.88,1.05-2.83,1.19-1.91.26-3.85.27-5.74.02-1.82-.21-3.78-.42-5.28.84h0Z"/>
        <path class="cls-1" d="m114.76,96.89c2.09-.9,4.48-1.18,6.75-.93,2.3.42,3.71-1.24,4.84-3.13.76-1.25,1.61-2.68,2.97-3.42-1.11,1.05-1.61,2.45-2.28,3.8-.89,2.12-3.02,4.33-5.63,3.69-2.22-.35-4.39-.33-6.64,0h0Z"/>
        <path class="cls-1" d="m116.48,95.68c2.03-.74,4.34-.89,6.31-1.51,1.92-.72,3.15-3.11,5.3-3.58-.93.63-1.55,1.48-2.26,2.32-2.11,3.12-6.01,2.78-9.35,2.77h0Z"/>
        <path class="cls-1" d="m117.28,95.27c3.48-1.67,6.84-3.08,10.48-4.37-2.93,2.49-6.65,4.03-10.48,4.37h0Z"/>
        <path class="cls-1" d="m113.27,83.55c.52-2.84-.5-5.83-2.79-7.55-1.17-.9-2.74-2.18-2.46-3.91.21-1.65,1.56-2.73,2.9-3.45-1.07,1.01-2.09,2.19-2.12,3.51-.06,1.32,1.13,2.16,2.31,3.07,2.48,1.83,3.55,5.55,2.17,8.33h0Z"/>
        <path class="cls-1" d="m111.93,84.51c.77-3.54-1.18-6.03-3.74-8.27-2.08-2.04-2.51-5.41.55-6.75.78-.35,1.59-.58,2.41-.7-.76.34-1.52.66-2.17,1.13-3.5,2.33-.49,5.35,1.66,7.41,1.79,1.84,2.41,4.89,1.28,7.18h0Z"/>
        <path class="cls-1" d="m110.4,85.35c.76-1.66.3-3.49-.53-4.93-1.23-2.3-3.96-4-4.34-6.85-.37-3.11,2.91-5.63,5.68-4.35-2.66-.56-5.12,1.67-4.74,4.24.51,2.58,3.03,4.11,4.09,6.59.8,1.62,1,3.81-.15,5.29h0Z"/>
        <path class="cls-1" d="m109.03,86.57c.6-2.79.62-5.18-1.46-7.23,0,0-1.66-2.11-1.66-2.11-1.21-1.35-2.22-3.45-1.47-5.31.6-1.91,2.63-3.08,4.42-2.84-1.8.17-3.3,1.48-3.67,3.06-.46,1.74.38,3.16,1.52,4.48,2.85,3.7,4.42,5.15,2.34,9.95h0Z"/>
        <path class="cls-1" d="m107.78,87.34c.92-2.73.47-5.6-1.2-7.9-1.34-2-3.3-4.32-2.92-6.97.04-.35.16-.81.53-.95-.29.24-.28.62-.27.96.23,2.56,2.09,4.32,3.48,6.41,1.76,2.41,2.11,5.97.37,8.46h0Z"/>
        <path class="cls-1" d="m106.74,87.34c.85-3.23-.97-6.09-1.17-9.32,1.54,2.65,3.42,6.57,1.17,9.32h0Z"/>
        <path class="cls-1" d="m105.29,87.39c.44-2.53.58-4.62.49-7.19,1.48,2.1,1.25,5.31-.49,7.19h0Z"/>
        <path class="cls-1" d="m72.12,91.97c1.52-1.47,1.52-3.72,2.69-5.44,1.73-2.97,7.02-1.7,7.71-5.34.21-1.2-.08-2.55-.06-3.95-.03-2.75.82-5.77,3.07-7.53,1.1-.85,2.49-1.39,3.85-1.26-1.36.1-2.6.72-3.53,1.63-3.3,3.04-2.16,7.27-2.34,11.28-.43,3.28-4.42,3.4-6.74,4.39-2.49.96-2.37,4.56-4.65,6.21h0Z"/>
        <path class="cls-1" d="m71.58,91.53c1.13-2.55,1.59-5.34,3.63-7.45,1.19-1.04,2.74-1.08,3.85-1.6,1.15-.46,1.71-1.57,1.78-2.86.13-1.28-.07-2.65.12-4.1.37-2.86,2.27-5.35,4.72-6.74,1.24-.66,2.61-1.05,3.98-1.04-4.01.59-7.32,3.94-7.77,7.89-.15,1.27.06,2.64-.06,4.08-.06,1.47-.93,3.13-2.4,3.64-1.39.54-2.76.58-3.74,1.33-1.91,1.72-2.71,4.67-4.11,6.85h0Z"/>
        <path class="cls-1" d="m70.99,91.12c.79-3.77,2.57-8.02,6.44-9.57.99-.6,1.4-1.75,1.55-3,.18-4.75,1.74-7.6,6.34-9.39,1.25-.46,2.51-.81,3.79-1.1-1.21.51-2.45.95-3.59,1.55-4.17,2-5.4,4.6-5.55,9.08-.17,1.37-.75,2.94-2.05,3.66-3.85,1.43-5.54,5.18-6.94,8.77h0Z"/>
        <path class="cls-1" d="m69.96,91.18c-.2-2.76.8-5.57,2.58-7.7,1.16-1.69,3.39-2.3,4.28-4.06.24-.54.32-1.19.48-1.88.94-4.16,4.06-7.6,7.96-9.18,1.29-.49,2.66-.81,4.02-.82-1.34.24-2.64.65-3.82,1.27-3.53,1.75-6.33,5.12-7.18,8.95-.15.63-.24,1.34-.56,2.05-.6,1.41-2.03,2.05-3.14,2.88-2.69,1.98-4.36,5.16-4.62,8.49h0Z"/>
        <path class="cls-1" d="m68.95,89.64c.76-2.43,1.63-4.85,3.02-7.05.84-1.69,2.68-2.72,3.46-4.36,1.49-5.65,6.65-10.27,12.54-10.66-1.24.29-2.44.7-3.55,1.28-3.95,1.93-6.86,5.53-8.08,9.73-.81,1.84-2.72,2.74-3.74,4.44-1.48,2.03-2.52,4.37-3.65,6.62h0Z"/>
        <path class="cls-1" d="m72.28,81.02c0-.46.17-.92.36-1.34,2.55-6.09,7.83-13.37,15.33-11.83-1.84.02-3.62.43-5.21,1.19-3.25,1.56-5.59,4.41-7.6,7.35,0,0-1.52,2.27-1.52,2.27-.49.77-1.12,1.47-1.36,2.35h0Z"/>
        <path class="cls-1" d="m72.17,78.23c1.53-6.19,8.05-10.97,14.42-10.55-6.22,1.13-11.47,4.97-14.42,10.55h0Z"/>
        <path class="cls-1" d="m72.48,74.73c2.32-5.68,9.53-8.95,15.33-6.93-6.04-.45-11.68,2.1-15.33,6.93h0Z"/>
        <path class="cls-1" d="m94.63,130.89c-11.57,4.81-21.58-6.9-23.6-17.38.49,1.28,1,2.55,1.61,3.77,3.68,8.36,12.22,16.51,22,13.61h0Z"/>
        <path class="cls-1" d="m94.18,130.68c-5.61,1.81-10.31-.16-14.45-3.99-2.93-2.62-5.34-5.89-6.64-9.61-.4-1.24-.72-2.52-.84-3.81.34,1.25.74,2.47,1.29,3.63,1.55,3.49,4.02,6.51,6.85,9.05,4.12,3.8,8.08,5.67,13.79,4.74h0Z"/>
        <path class="cls-1" d="m93.46,130.39c-7.46,2.18-16.76-7.2-19.08-13.71-.39-1.14-.71-2.29-.86-3.47.72,2.26,1.75,4.38,3.07,6.3,3.52,4.83,10.42,11.73,16.87,10.88h0Z"/>
        <path class="cls-1" d="m92.57,130.42c-6.59-.23-14.71-8.57-16.92-14.52-.36-1.05-.66-2.11-.81-3.2,1.37,4.16,3.99,7.65,7.08,10.67,3.11,2.88,6.34,6.14,10.64,7.05h0Z"/>
        <path class="cls-1" d="m91.88,130.42c-5.63-2.38-9.66-7.35-13.03-12.26-1.08-1.65-2.46-3.35-2.65-5.38.59,1.94,2.08,3.32,3.28,4.92,3.7,4.67,7.39,9.4,12.41,12.73h0Z"/>
        <path class="cls-1" d="m91.2,130.06c-6.27-3.52-10.51-9.9-13.32-16.36,4.07,5.83,7.87,11.7,13.32,16.36h0Z"/>
        <path class="cls-1" d="m90.56,129.04c-2.87-.97-4.45-3.86-6.2-6.14-1.63-2.39-3.22-5.17-3.18-8.16.75,2.85,2.36,5.21,4,7.59,1.73,2.29,2.93,5.05,5.38,6.71h0Z"/>
        <path class="cls-1" d="m89.91,128.78c-3.78-3.41-6.21-8.42-6.54-13.5,1.72,4.81,3.83,9.17,6.54,13.5h0Z"/>
        <path class="cls-1" d="m89.49,127.79c-3.06-3.02-4.73-7.53-4.36-11.81,1.06,4.18,2.44,7.95,4.36,11.81h0Z"/>
        <path class="cls-1" d="m88.93,126.94c-2.01-2.69-2.74-6.36-1.91-9.61.59,3.32,1.18,6.32,1.91,9.61h0Z"/>
      </g>
      <g>
        <path class="cls-1" d="m42.67,21.43c4.69-.75,9.4-1.4,14.11-2.03,2.36-.29,5.01-.91,7.24.29,3.81,2.05,4.69,6.93,8.28,9.17,1.05.64,2.33,1.04,3.01,2.24.75,1.33-.19,2.87-1.33,3.57-1.55.86-3.18,1.43-4.02,3.11-1.32,2.46-2.83,6.74-6.4,5.97-.14-.04-.3-.09-.42-.2-.23-.14-.2-.59.13-.41.07.02.12.14.03.17.16-.11-.16-.24-.23-.16-.14.46.63.51.95.54,3.29-.09,4.12-3.83,5.39-6.23.56-1.09,1.5-2.09,2.6-2.63,1.07-.57,2.11-1.07,2.54-2,.76-1.76-1.5-2.45-2.72-3.17-3.69-2.06-4.71-7.15-8.23-9.17-1.93-1.11-4.4-.49-6.74-.33-4.72.47-9.45.92-14.19,1.27h0Z"/>
        <path class="cls-1" d="m65.35,21.08c2.81.41,5.93.95,8.75,1.46.95.18,2.08.41,2.84,1.34.73.94.74,2.07.9,2.98.19,2.27,2.25,2.39,4,3.19,2.67,1.01,4.27,4.99,1.2,6.59-2.1.99-5.32-.39-6.08,2.49-.31.94-.62,2.13-1.57,2.68-2.27,1.13-4.92,1.23-7.38.9-.31,0-.81-.31-.98.03-.02.1.29.13.2,0,.12.13-.24.16-.24,0,.13-.42.73-.15,1.04-.18,2.34.15,4.97-.17,7.02-1.28.74-.47.91-1.42,1.19-2.38.52-2.58,3.09-2.63,5.13-2.77,1.99-.06,2.95-1.82,2.02-3.49-1.16-2.34-4.54-1.87-5.91-4.09-1.18-2.59.24-4.7-3.49-5.39-2.79-.62-5.86-1.37-8.62-2.07h0Z"/>
        <path class="cls-1" d="m77.25,24.74c5.5-.06,14.27,4.98,11.3,11.43-2.57,4.11-8.07,6.02-12.68,4.74,3.9.48,7.99-.87,10.68-3.73.91-.92,1.57-1.97,1.61-3.19.09-5.08-6.49-8.56-10.92-9.25h0Z"/>
        <path class="cls-1" d="m79.51,25.14c1.75,1.91,3.63,2.93,6.18,3.38-2.44,1.13-5.82-.73-6.18-3.38h0Z"/>
        <path class="cls-1" d="m84.6,39.14c-2.42-.09-4.27.48-6.24,1.89.73-2.42,4.29-3.5,6.24-1.89h0Z"/>
        <path class="cls-1" d="m85.78,31c.88.36,1.17,1.07.78,1.93-.88-.35-1.16-1.07-.78-1.93h0Z"/>
        <path class="cls-1" d="m86.1,36.33c-.02.91-.43,1.34-1.34,1.38-.14-.92.43-1.5,1.34-1.38h0Z"/>
        <path class="cls-1" d="m19.22,24.24c6.86,2.59,12.53-4.1,19.32-3.97,5.75.23,10.44,4.07,16.21,3.98,5.72.63,10.19,4.81,15.6,6.2-2.22-.36-4.32-1.24-6.36-2.15-2.03-.93-4.03-1.93-6.14-2.55-2.15-.71-4.31-.66-6.56-.95-4.45-.65-8.31-3.47-12.78-3.62-6.5-.13-12.76,6.27-19.3,3.07h0Z"/>
        <path class="cls-1" d="m19.62,23.99c1.75,2.75,5.66,2.04,7.64,4.6,1.16,1.45,1.02,3.32-.4,4.59-.95,1.09-2.01,2.28-2.99,3.32-1.21,1.42-3.15,2.8-2.66,4.89-.95-1.98.96-3.95,2.07-5.4.89-1.13,1.91-2.35,2.84-3.45,1.04-.98,1.28-2.18.38-3.39-1.71-2.28-5.82-2.19-6.89-5.16h0Z"/>
        <path class="cls-1" d="m69.81,30.71c-12.66.31-25.3,2.34-37.31,6.37-8.54,3.08-18.92,6.05-23.03,14.95-1.29,2.87-1.45,6.12-1.36,9.28-.31-3.14-.27-6.43.9-9.47,3.89-9.3,14.47-12.52,23.17-15.71,12.1-3.95,24.9-5.92,37.63-5.43h0Z"/>
        <path class="cls-1" d="m63.05,43.09c-.8-2.46-4.1-3.07-5.62-1.07-.48.57-.58,1.35-.96,2.18-.4.88-1.24,1.43-2,1.78-2.12,1.01-4.7,1.68-6.25,3.41-1.1,1.18-1.14,2.72-1.02,4.28.06,1.63.19,3.31-.08,4.99-.27,3.25-3.48,6.92-6.92,5.53,3.38.88,6.02-2.55,6.16-5.63.5-3.19-1.29-7.1,1.11-9.83,1.22-1.35,2.85-2.02,4.36-2.64,1.48-.65,3.27-.99,3.96-2.23.35-.63.53-1.55,1.16-2.24,1.84-2.21,5.58-1.28,6.11,1.47h0Z"/>
        <path class="cls-1" d="m62.7,42.96c.29,2.47-1.74,4.42-2.46,6.62-.78,2.33.34,4.58-.07,7.08-1.9,9.3-12.6,10.58-20.1,7.44,1.56.35,3.11.67,4.69.8,5.95.84,13.28-1.96,14.48-8.39.29-1.47-.06-3.03-.04-4.69-.26-3.45,3.36-5.56,3.51-8.86h0Z"/>
        <path class="cls-1" d="m37.28,2.14c6.69.46,6.26,5.77,6.58,10.78.5,3.73,4.84,4.23,7.8,5.23,1.11.42,2.23.95,3.03,1.83-.95-.7-2.04-1.1-3.17-1.36-3.33-.67-8.14-1.37-8.64-5.55-.38-5.21.67-9.52-5.59-10.93h0Z"/>
        <path class="cls-1" d="m36.77,1.74c4.1-1.66,9.14-2.69,13.3-.47,5.29,3.07,9.04,8.4,10.88,14.16.42,1.45.76,2.92.9,4.41-.37-1.45-.79-2.88-1.36-4.25-2.17-5.39-5.89-10.43-10.87-13.49-3.93-2.22-8.66-1.41-12.85-.36h0Z"/>
        <path class="cls-1" d="m56.47,43.46c-8.37-.78-17.58-2.15-25.67.73-1.17.38-2.3.89-3.42,1.44,8.46-5.96,19.61-4.49,29.09-2.17h0Z"/>
        <path class="cls-1" d="m27.36,45.61c-1.9-1.5-4.36.21-6.08,1.22-4,2.57-5.41,7.35-1.5,10.7,1.54,1.42,3.26,4.46,1.21,6.18,1.59-1.94-.16-4.3-1.75-5.63-4.59-3.43-3.03-9.41,1.64-11.9,1.85-.95,4.78-2.5,6.49-.57h0Z"/>
        <path class="cls-1" d="m27.31,45.63c-.16,1.99-.38,3.97-.66,5.94-.13,1-.34,1.94-.03,2.74.28.83.92,1.6,1.35,2.62,1.7,4.63-3.35,8.32-7.52,7.07,3.76.37,8.03-2.77,6.6-6.7-.32-.83-.98-1.63-1.32-2.71-.34-1.14-.03-2.22.17-3.16.41-1.95.89-3.88,1.43-5.81h0Z"/>
        <path class="cls-1" d="m17.18,50.33c-3.5,2.73-7.02,6.16-7.35,10.81-.87,6.91,4.66,13.09,11.58,13.19,2.3.26,4.69-1.44,6.88-.21,2.11,1.2,2.91,3.58,4.84,4.86,1.78,1.28,4.65.46,5.65-1.61-.79,2.18-3.78,3.33-5.91,2.03-2.07-1.26-3.06-3.63-4.94-4.6-2.02-.94-4.36.71-6.54.44-7.45.06-13.5-6.8-12.32-14.19.51-4.81,4.26-8.28,8.11-10.72h0Z"/>
        <path class="cls-1" d="m25.54,27.81c-2.46,3.25-5.91,5.54-8.79,8.32-5.84,5.49-9.88,12.82-11.57,20.64-1.52,5.88-.36,11.96,2.45,17.28,2.48,5.39,6.4,10.4,12.31,12.12,7.67,2.67,16.82-1.68,19.42-9.45-2.24,8.09-11.73,12.8-19.64,10.19-6.17-1.62-10.34-6.89-12.94-12.43-2.97-5.43-4.1-11.86-2.48-17.9,1.75-7.97,6.05-15.36,12.13-20.8,3.04-2.7,6.49-4.87,9.12-7.96h0Z"/>
        <path class="cls-1" d="m7.15,74.68c1.48,4.63-.31,9.54,0,14.24.34,6.24,4.9,11.93,10.95,13.58,1.5.47,3.09.66,4.68.67-1.58.22-3.22.13-4.8-.2-6.52-1.3-11.56-7.36-11.77-14-.2-4.83,1.83-9.48.94-14.29h0Z"/>
        <path class="cls-1" d="m19.53,86.57c4.43,4.55-.08,8.31.71,13.25.29,1.39,1.07,2.81,2.51,3.47-1.58-.27-2.82-1.71-3.26-3.28-.99-3.16.97-6.23,1.29-9.18.11-1.43-.58-2.86-1.24-4.26h0Z"/>
        <path class="cls-1" d="m7.98,61.04c-.03,1.47-1.19,2.67-1.82,3.86-.63,1.16-.94,2.45-1.04,3.92-.7-1.33-.57-3.04.16-4.39.75-1.35,1.87-2.12,2.7-3.39h0Z"/>
        <path class="cls-1" d="m8.09,61.32c1,2.39,1.3,4.6,2.8,6.76-2.5-1.06-3.25-4.31-2.8-6.76h0Z"/>
        <path class="cls-1" d="m20.25,33.03c-4.76,3.33-11.84-1.36-16.05,3.05-1.62,1.68-.71,4.31-1.75,6.35-.54,1.07-1.4,1.96-2.45,2.45.93-.67,1.65-1.6,2-2.64.41-1.03.34-2.13.35-3.3-.21-2.52,1.84-4.8,4.21-5.45,4.65-1.4,9.22,1.55,13.68-.46h0Z"/>
        <path class="cls-1" d="m14.99,37.21c-1.2.79-2.7,1.04-3.73,1.83-1.06.78-1.88,1.98-3.25,2.77-.69.4-1.53.52-2.19.6-2.07.27-3.81,1.42-5.66,2.42,1.51-1.5,3.32-2.95,5.51-3.35.73-.12,1.32-.22,1.86-.54,1.11-.6,2.01-1.77,3.31-2.55,1.35-.81,2.81-.74,4.15-1.18h0Z"/>
        <path class="cls-1" d="m19.86,24.5c1.84.84,3.88.25,5.91,1.05,3.13,1.05,4.94,5.09,3.03,7.96-1.61,2.58-5.1,3.52-5.77,6.67-.03-4.15,5.99-5.5,5.54-9.73-.12-1.81-1.41-3.4-3.1-4.19-1.64-.83-3.92-.57-5.6-1.77h0Z"/>
        <path class="cls-1" d="m21,25.22c2.77-.47,6.12-.63,8.44,1.31,2.16,2.46,2.87,5.77.29,8.2-1.33,1.42-2.99,2.35-3.86,4.08.5-1.89,2.15-3.21,3.27-4.59.56-.71,1.06-1.47,1.23-2.29.35-1.59-.64-3.54-1.61-4.74-2.02-1.76-5.14-1.85-7.76-1.97h0Z"/>
        <path class="cls-1" d="m23.21,25.31c1.69-.43,3.47-.6,5.21-.21,3.48.76,6.69,5.37,4.05,8.54-1.2,1.33-2.45,2.33-3.16,3.99.17-.85.53-1.66.99-2.42.48-.75,1.1-1.38,1.55-2.04.96-1.29.77-2.99-.03-4.34-1.65-3.07-5.41-3.68-8.61-3.52h0Z"/>
        <path class="cls-1" d="m25.18,24.81c4.45-.92,12.72,2.42,9.57,8.05-.85,1.51-2.13,2.52-2.93,3.96.62-2.32,2.83-4.03,2.69-6.46-.69-3.81-5.94-5.18-9.33-5.55h0Z"/>
        <path class="cls-1" d="m26.22,24.77c3.01-1.36,6.83-.29,8.99,2.19,1.76,1.96,2.45,4.83.36,6.86-.48.59-.8,1.31-1.03,2.07,0-.8.24-1.6.61-2.33,1.53-1.99.87-4.18-.7-5.94-2-2.29-5.19-3.37-8.23-2.85h0Z"/>
        <path class="cls-1" d="m28.18,24.19c5.1-2.72,13.51,4,9.45,9.29-.55.58-1.2,1.05-1.33,1.85-.11-.84.56-1.53.95-2.16,2.78-5-4.37-10.14-9.06-8.98h0Z"/>
        <path class="cls-1" d="m28.97,23.76c2.74-1.08,6.4-1.49,8.8.63,2.39,1.7,4.76,5.3,2.64,8.13-.52.72-1.14,1.32-1.79,1.87,3.11-3.66,1.97-6.44-1.45-9.22-2.23-1.99-5.38-1.76-8.21-1.4h0Z"/>
        <path class="cls-1" d="m29.98,22.97c3.2-.85,6.87-.47,9.62,1.54,2.71,1.97,4.29,5.94,2.71,9.03.72-3.14-.82-6.37-3.3-8.22-2.57-1.89-5.86-2.39-9.03-2.34h0Z"/>
        <path class="cls-1" d="m31.01,22.42c1.34.2,2.46-.7,3.79-.79,5.5-.06,12.49,5.61,9.16,11.39,1.15-3.29-.68-6.71-3.44-8.49-2.03-1.2-4.46-2.59-6.92-2.14-.82.13-1.77.38-2.59.02h0Z"/>
        <path class="cls-1" d="m32.68,22.13c3.8-1.74,6.72-.9,9.9,1.6,1.97,1.63,4.35,3.59,4.57,6.36.03.9-.21,1.85-.83,2.48.42-.76.51-1.63.34-2.43-.57-2.46-2.82-4.09-4.69-5.62-1.32-.98-2.73-1.99-4.3-2.48-1.55-.45-3.3-.17-5,.09h0Z"/>
        <path class="cls-1" d="m35.59,21.02c4.97-.52,9.55,2.79,12.39,6.62.86,1.19,1.81,2.74,1.5,4.27-.1.16-.3-.04-.16-.1-.09.05.07.17.1.06-.08-1.46-1.11-2.66-2.04-3.74-3.11-3.48-7.02-6.48-11.78-7.11h0Z"/>
        <path class="cls-1" d="m36.75,20.79c4.58-1.53,15.16,6.21,14.8,11.16-.47-3.9-10.96-11.63-14.8-11.16h0Z"/>
        <path class="cls-1" d="m40.93,21.04c4.69.9,12.42,5.65,12.93,10.65,0,0,.13-.22.13-.22-.02.06-.08.28-.09.34-1.07-2.73-3.5-4.5-5.69-6.29-2.25-1.73-4.69-3.17-7.28-4.49h0Z"/>
        <path class="cls-1" d="m44.11,22.07c4.83.91,9.88,4.13,11.27,9.08-2.72-4.28-6.87-6.78-11.27-9.08h0Z"/>
        <path class="cls-1" d="m49.32,24.12c3.36,1,7.09,3.18,7.98,6.82-2.18-2.96-5.19-4.51-7.98-6.82h0Z"/>
        <path class="cls-1" d="m50.8,24.09c2.83.54,5.41,2.06,7.47,4.04.66.64,1.42,1.48,1.46,2.48-.45-.86-1.2-1.34-1.96-1.88-2.28-1.66-4.58-3.06-6.97-4.64h0Z"/>
        <path class="cls-1" d="m53.7,24.86c3.46.18,8.07,2.45,8.98,6.09-2.3-2.99-5.75-4.42-8.98-6.09h0Z"/>
        <path class="cls-1" d="m56.17,25.16c3.32.62,6.38,2.39,8.69,4.81.07.08.19.18.19.36,0,.22-.33.19-.28.05.03.12.2,0,.13-.04-.07-.12-.67-.37-.8-.46-2.64-1.5-5.4-3.02-7.93-4.72h0Z"/>
        <path class="cls-1" d="m7.79,62.07c.48,7.3,6.71,13.43,14.01,13.56,2.4.03,5.23-.63,7.29,1.05,1.38,1.02,2.33,2.36,3.59,3.3,1.23,1.02,3,1.29,4.41.46-1.33,1.07-3.32.89-4.69-.05-1.4-.93-2.45-2.23-3.75-3.07-2.81-1.82-6.28-.09-9.38-.97-6.64-1.18-11.83-7.52-11.49-14.27h0Z"/>
        <path class="cls-1" d="m7.71,62.9c.8,6.09,5.4,11.43,11.29,13.02,2.95.84,6.39.38,9.1,2.22,1.4.94,2.2,2.35,3.3,3.36,1.04,1,2.79,1.7,4.09.76-1.22,1.17-3.22.57-4.41-.39-1.25-1.01-2.13-2.35-3.4-3.08-2.68-1.56-5.96-1.07-8.94-1.9-6.16-1.65-11-7.58-11.03-13.98h0Z"/>
        <path class="cls-1" d="m7.48,63.13c.06,6.11,4.47,11.28,9.84,13.75,3.94,2.24,9.28,1.74,12.47,5.28.99,1.03,2.07,2.47,3.67,2.14-.72.29-1.57.07-2.22-.35-1.83-1.3-3.29-3.11-5.6-3.56-2.91-.71-6.03-1.23-8.76-2.62-5.53-2.53-10.16-8.32-9.41-14.65h0Z"/>
        <path class="cls-1" d="m7.12,63.32c.02-.12.12-.15.22-.05.25.21.21.57.14.83-1.09,5.7,3.44,10.54,8.21,12.97,3.9,2.12,8.32,3.54,12.05,6.09,1.24.88,2.41,1.86,3.37,3.02-1.12-1-2.33-1.88-3.63-2.6-3.91-2.27-8.26-3.44-12.26-5.63-4.93-2.47-9.68-8.03-7.88-13.89.11-.28.17-.52-.02-.76-.05-.09-.17-.09-.19.02h0Z"/>
        <path class="cls-1" d="m7.47,64.06c-1.46,5.39,2.16,10.59,6.52,13.4,3.35,2.17,7.51,3.25,10.82,5.63,1.1.83,2.12,1.8,2.83,2.98-.89-1.04-1.94-1.9-3.1-2.57-3.53-2.12-7.57-2.92-11.1-5.2-4.53-2.87-8.3-8.87-5.97-14.24h0Z"/>
        <path class="cls-1" d="m6.98,63.09c-1.81,5.43.99,11.27,5.26,14.71,3.17,2.79,7.21,4.3,10.87,6.38,1.2.78,2.35,1.72,3.08,2.95-.91-1.1-2.07-1.91-3.32-2.52-3.85-1.81-7.99-3.16-11.27-6.05-4.42-3.56-7.27-10.08-4.61-15.48h0Z"/>
        <path class="cls-1" d="m27.33,85.45c.88-.17,1.45.61,1.02,1.4-.87-.26-1.04-.5-1.02-1.4h0Z"/>
        <path class="cls-1" d="m6.21,64.45c-.49,5.07,1.36,10.33,4.98,13.91,2.64,2.78,6.57,3.97,9.75,6.12,1.07.77,2.08,1.65,2.81,2.73-2.76-2.88-6.71-3.77-10.09-5.71-5.8-3.27-9.08-10.59-7.45-17.05h0Z"/>
        <path class="cls-1" d="m9.19,77.26c1.34,1.4,2.53,2.88,4.08,4.01,2.14,1.36,4.45,2.63,6.5,4.16.5.43,1.01.93,1.23,1.56-.83-1.03-2.09-1.37-3.23-2-1.16-.59-2.29-1.18-3.41-1.87-2.37-1.28-4.04-3.46-5.16-5.85h0Z"/>
        <path class="cls-1" d="m7.75,75.82c1.33,3.07,2.83,6.24,5.47,8.34,2.51,2.01,6.7,3.01,7.76,6.5-.86-1.52-2.33-2.43-3.81-3.19-5.49-2.14-8.43-5.8-9.42-11.64h0Z"/>
        <path class="cls-1" d="m7.52,77.56c.75,1.6,1.44,3.25,2.08,4.87.6,1.59,1.9,2.66,3.35,3.63,1.56,1.07,5.3,3.11,6.62,4.42.63.66,1.16,1.48,1.24,2.38-.63-1.72-2.27-2.53-3.79-3.31-2.33-1.29-4.83-2.47-6.74-4.41-1.84-2.07-2.02-5.01-2.75-7.57h0Z"/>
        <path class="cls-1" d="m7.6,78.19c.66,1.76.64,3.7,1.04,5.42.35,1.76,1.47,3.1,2.88,4.24,2.44,2.11,5.17,3.75,8.11,5.03.43.23.72.87.4,1.26.2-.45-.15-.88-.53-1.03-4.05-1.05-8-3.26-10.6-6.62-1.71-2.46-.91-5.59-1.3-8.31h0Z"/>
        <path class="cls-1" d="m7.4,79.92c-.26,7.07,2.27,9.22,7.67,13.05,1.43,1.22,3.4,1.37,4.74,2.7,0,0,.03.04.03.04-.1.21-.36.29-.54.2.18.04.37-.07.42-.22v.07c-1.47-1.01-3.53-.96-5.08-2.1-5.6-3.4-8.87-6.8-7.23-13.73h0Z"/>
        <path class="cls-1" d="m6.86,83.74c1.19,1.25,1.28,3.18,1.72,4.74.64,2.36,2.52,4.13,4.42,5.6,1.31,1.03,2.59,2,4.21,2.5.77.3,1.68.64,2.13,1.4-.62-.59-1.44-.77-2.27-.92-3.77-.82-8.5-4.42-9.25-8.4-.34-1.72-.1-3.41-.96-4.91h0Z"/>
        <path class="cls-1" d="m7.23,84.85c-.52,3.7,1.74,6.94,3.86,9.74,1.66,2.21,3.85,3.66,6.48,4.46.85.36,1.75.79,2.31,1.55-1.47-1.19-3.38-1.08-5.15-1.85-4.44-1.96-9.28-9.01-7.49-13.89h0Z"/>
        <path class="cls-1" d="m6.93,87.77c1.3,5.97,5.02,12.16,11.55,13.03.87.28,1.79.69,2.35,1.43-.72-.57-1.58-.83-2.46-.95-6.9-.06-11.46-7.11-11.44-13.51h0Z"/>
        <path class="cls-1" d="m8.12,75.74c3.57,4.04,6.54,8.44,11.42,11-5.46-1.22-9.09-6.25-11.42-11h0Z"/>
        <path class="cls-1" d="m19.9,87.24c-5.78-1.22-10.85-6.03-12.35-11.74,2.88,5.15,7.06,9.13,12.35,11.74h0Z"/>
        <path class="cls-1" d="m18.91,33.63c-1.2,1.59-3.52,1.72-5.34,1.62-1.87-.08-3.71-.03-5.54.23-3.26.11-3.56,3.36-4.57,5.78-.39.87-1.02,1.74-1.91,2.11.76-.58,1.21-1.4,1.45-2.29.57-1.83.59-3.91,2.06-5.41.79-.79,1.88-1.05,2.83-1.19,1.91-.26,3.85-.27,5.74-.02,1.82.21,3.78.42,5.28-.84h0Z"/>
        <path class="cls-1" d="m16.85,35.7c-2.09.9-4.48,1.18-6.75.93-2.3-.42-3.71,1.24-4.84,3.13-.76,1.25-1.61,2.68-2.97,3.42,1.11-1.05,1.61-2.45,2.28-3.8.89-2.12,3.02-4.33,5.63-3.69,2.22.35,4.39.33,6.64,0h0Z"/>
        <path class="cls-1" d="m15.13,36.91c-2.03.74-4.34.89-6.31,1.51-1.92.72-3.15,3.11-5.3,3.58.93-.63,1.55-1.48,2.26-2.32,2.11-3.12,6.01-2.78,9.35-2.77h0Z"/>
        <path class="cls-1" d="m14.33,37.32c-3.48,1.67-6.84,3.08-10.48,4.37,2.93-2.49,6.65-4.03,10.48-4.37h0Z"/>
        <path class="cls-1" d="m18.34,49.04c-.52,2.84.5,5.83,2.79,7.55,1.17.9,2.74,2.18,2.46,3.91-.21,1.65-1.56,2.73-2.9,3.45,1.07-1.01,2.09-2.19,2.12-3.51.06-1.32-1.13-2.16-2.31-3.07-2.48-1.83-3.55-5.55-2.17-8.33h0Z"/>
        <path class="cls-1" d="m19.68,48.09c-.77,3.54,1.18,6.03,3.74,8.27,2.08,2.04,2.51,5.41-.55,6.75-.78.35-1.59.58-2.41.7.76-.34,1.52-.66,2.17-1.13,3.5-2.33.49-5.35-1.66-7.41-1.79-1.84-2.41-4.89-1.28-7.18h0Z"/>
        <path class="cls-1" d="m21.22,47.24c-.76,1.66-.3,3.49.53,4.93,1.23,2.3,3.96,4,4.34,6.85.37,3.11-2.91,5.63-5.68,4.35,2.66.56,5.12-1.67,4.74-4.24-.51-2.58-3.03-4.11-4.09-6.59-.8-1.62-1-3.81.15-5.29h0Z"/>
        <path class="cls-1" d="m22.58,46.02c-.6,2.79-.62,5.18,1.46,7.23,0,0,1.66,2.11,1.66,2.11,1.21,1.35,2.22,3.45,1.47,5.31-.6,1.91-2.63,3.08-4.42,2.84,1.8-.17,3.3-1.48,3.67-3.06.46-1.74-.38-3.16-1.52-4.48-2.85-3.7-4.42-5.15-2.34-9.95h0Z"/>
        <path class="cls-1" d="m23.84,45.25c-.92,2.73-.47,5.6,1.2,7.9,1.34,2,3.3,4.32,2.92,6.97-.04.35-.16.81-.53.95.29-.24.28-.62.27-.96-.23-2.56-2.09-4.32-3.48-6.41-1.76-2.41-2.11-5.97-.37-8.46h0Z"/>
        <path class="cls-1" d="m24.87,45.26c-.85,3.23.97,6.09,1.17,9.32-1.54-2.65-3.42-6.57-1.17-9.32h0Z"/>
        <path class="cls-1" d="m26.32,45.21c-.44,2.53-.58,4.62-.49,7.19-1.48-2.1-1.25-5.31.49-7.19h0Z"/>
        <path class="cls-1" d="m59.49,40.63c-1.52,1.47-1.52,3.72-2.69,5.44-1.73,2.97-7.02,1.7-7.71,5.34-.21,1.2.08,2.55.06,3.95.03,2.75-.82,5.77-3.07,7.53-1.1.85-2.49,1.39-3.85,1.26,1.36-.1,2.6-.72,3.53-1.63,3.3-3.04,2.16-7.27,2.34-11.28.43-3.28,4.42-3.4,6.74-4.39,2.49-.96,2.37-4.56,4.65-6.21h0Z"/>
        <path class="cls-1" d="m60.04,41.06c-1.13,2.55-1.59,5.34-3.63,7.45-1.19,1.04-2.74,1.08-3.85,1.6-1.15.46-1.71,1.57-1.78,2.86-.13,1.28.07,2.65-.12,4.1-.37,2.86-2.27,5.35-4.72,6.74-1.24.66-2.61,1.05-3.98,1.04,4.01-.59,7.32-3.94,7.77-7.89.15-1.27-.06-2.64.06-4.08.06-1.47.93-3.13,2.4-3.64,1.39-.54,2.76-.58,3.74-1.33,1.91-1.72,2.71-4.67,4.11-6.85h0Z"/>
        <path class="cls-1" d="m60.62,41.47c-.79,3.77-2.57,8.02-6.44,9.57-.99.6-1.4,1.75-1.55,3-.18,4.75-1.74,7.6-6.34,9.39-1.25.46-2.51.81-3.79,1.1,1.21-.51,2.45-.95,3.59-1.55,4.17-2,5.4-4.6,5.55-9.08.17-1.37.75-2.94,2.05-3.66,3.85-1.43,5.54-5.18,6.94-8.77h0Z"/>
        <path class="cls-1" d="m61.65,41.41c.2,2.76-.8,5.57-2.58,7.7-1.16,1.69-3.39,2.3-4.28,4.06-.24.54-.32,1.19-.48,1.88-.94,4.16-4.06,7.6-7.96,9.18-1.29.49-2.66.81-4.02.82,1.34-.24,2.64-.65,3.82-1.27,3.53-1.75,6.33-5.12,7.18-8.95.15-.63.24-1.34.56-2.05.6-1.41,2.03-2.05,3.13-2.88,2.69-1.98,4.36-5.16,4.62-8.49h0Z"/>
        <path class="cls-1" d="m62.66,42.95c-.76,2.43-1.63,4.85-3.02,7.05-.84,1.69-2.68,2.72-3.46,4.36-1.49,5.65-6.65,10.27-12.54,10.66,1.24-.29,2.44-.7,3.55-1.28,3.95-1.93,6.86-5.53,8.08-9.73.81-1.84,2.72-2.74,3.74-4.44,1.48-2.03,2.52-4.37,3.65-6.62h0Z"/>
        <path class="cls-1" d="m59.34,51.57c0,.46-.17.92-.36,1.34-2.55,6.09-7.83,13.37-15.33,11.83,1.84-.02,3.62-.43,5.21-1.19,3.25-1.56,5.59-4.41,7.6-7.35,0,0,1.52-2.27,1.52-2.27.49-.77,1.12-1.47,1.36-2.35h0Z"/>
        <path class="cls-1" d="m59.44,54.36c-1.53,6.19-8.05,10.97-14.42,10.56,6.22-1.13,11.47-4.97,14.42-10.56h0Z"/>
        <path class="cls-1" d="m59.14,57.87c-2.32,5.68-9.53,8.95-15.33,6.93,6.04.45,11.68-2.1,15.33-6.93h0Z"/>
        <path class="cls-1" d="m36.98,1.7c11.57-4.81,21.58,6.9,23.6,17.38-.49-1.28-1-2.55-1.61-3.77C55.3,6.95,46.75-1.2,36.98,1.7h0Z"/>
        <path class="cls-1" d="m37.43,1.91c5.61-1.81,10.31.16,14.45,3.99,2.93,2.62,5.34,5.89,6.64,9.61.4,1.24.72,2.52.84,3.81-.34-1.25-.74-2.47-1.29-3.63-1.55-3.49-4.02-6.51-6.85-9.05-4.12-3.8-8.08-5.67-13.79-4.74h0Z"/>
        <path class="cls-1" d="m38.16,2.21C45.61.02,54.92,9.41,57.24,15.92c.39,1.14.71,2.29.86,3.47-.72-2.26-1.75-4.38-3.07-6.3-3.52-4.83-10.42-11.73-16.87-10.88h0Z"/>
        <path class="cls-1" d="m39.04,2.17c6.59.23,14.71,8.57,16.92,14.52.36,1.05.66,2.11.81,3.2-1.37-4.16-3.99-7.65-7.08-10.67-3.11-2.88-6.34-6.14-10.64-7.05h0Z"/>
        <path class="cls-1" d="m39.73,2.17c5.63,2.38,9.66,7.35,13.03,12.26,1.08,1.65,2.46,3.35,2.65,5.38-.59-1.94-2.08-3.32-3.28-4.92-3.7-4.67-7.39-9.4-12.41-12.73h0Z"/>
        <path class="cls-1" d="m40.41,2.54c6.27,3.52,10.51,9.9,13.32,16.36-4.07-5.83-7.87-11.7-13.32-16.36h0Z"/>
        <path class="cls-1" d="m41.06,3.55c2.87.97,4.45,3.86,6.2,6.14,1.63,2.39,3.22,5.17,3.18,8.16-.75-2.85-2.36-5.21-4-7.59-1.73-2.29-2.93-5.05-5.38-6.71h0Z"/>
        <path class="cls-1" d="m41.7,3.81c3.78,3.41,6.21,8.42,6.54,13.5-1.72-4.81-3.83-9.17-6.54-13.5h0Z"/>
        <path class="cls-1" d="m42.13,4.81c3.06,3.02,4.73,7.53,4.36,11.81-1.06-4.18-2.44-7.95-4.36-11.81h0Z"/>
        <path class="cls-1" d="m42.68,5.65c2.01,2.69,2.74,6.36,1.91,9.61-.59-3.32-1.18-6.32-1.91-9.61h0Z"/>
      </g>
    </g>
  </g>
</svg>