<?xml version="1.0" encoding="UTF-8"?>
<svg id="Layer_2" data-name="Layer 2" xmlns="http://www.w3.org/2000/svg" viewBox="0 0 63.74 72.1">
  <defs>
    <style>
      .cls-1 {
        fill: #a37d2d;
        stroke-width: 0px;
      }
    </style>
  </defs>
  <g id="Layer_1-2" data-name="Layer 1">
    <g>
      <path class="cls-1" d="M17.65,26.43l2.15,2.09c-5.45,5.59-7.84,13.49-6.39,21.15C15.86,62.61,28.38,71.13,41.32,68.68s21.45-14.98,18.99-27.91c-1.4-7.37-6.05-13.53-12.77-16.9l1.34-2.68c7.56,3.79,12.8,10.72,14.38,19.02,2.76,14.56-6.83,28.65-21.39,31.42-14.56,2.76-28.65-6.83-31.42-21.39-1.64-8.62,1.05-17.52,7.19-23.8Z"/>
      <path class="cls-1" d="M7.31,8.43c6.88-1.31,13.53,3.23,14.84,10.1.85,4.45-.77,9.05-4.21,12.01l-1.95-2.28c2.63-2.26,3.86-5.77,3.22-9.17-1-5.25-6.08-8.71-11.33-7.72l-.56-2.95Z"/>
      <path class="cls-1" d="M50.88,0.16l.56,2.95c-5.25,1-8.71,6.08-7.71,11.33.69,3.63,3.33,6.52,6.89,7.52l-.82,2.89c-4.66-1.32-8.12-5.09-9.03-9.85-1.31-6.88,3.23-13.53,10.1-14.84Z"/>
      <path class="cls-1" d="M50.88,0.16c4.87-.92,9.58,2.28,10.5,7.15s-2.28,9.58-7.15,10.5c-4.87.92-9.58-2.28-10.5-7.15s2.28-9.58,7.15-10.5Zm2.79,14.71c3.24-.62,5.38-3.75,4.76-7s-3.75-5.38-7-4.76-5.38,3.75-4.76,7c.62,3.24,3.75,5.38,7,4.76Z"/>
      <path class="cls-1" d="M7.31,8.43c4.87-.92,9.58,2.28,10.5,7.15.92,4.87-2.28,9.58-7.15,10.5s-9.58-2.28-10.5-7.15,2.28-9.58,7.15-10.5Zm2.79,14.71c3.24-.62,5.38-3.75,4.76-7s-3.75-5.38-7-4.76-5.38,3.75-4.76,7c.62,3.24,3.75,5.38,7,4.76Z"/>
    </g>
  </g>
</svg>