<?xml version="1.0" encoding="UTF-8"?>
<svg id="Layer_2" data-name="Layer 2" xmlns="http://www.w3.org/2000/svg" viewBox="0 0 57.05 66.84">
  <defs>
    <style>
      .cls-1 {
        fill: #a37d2d;
        stroke-width: 0px;
      }
    </style>
  </defs>
  <g id="Layer_1-2" data-name="Layer 1">
    <g>
      <path class="cls-1" d="m36.17,66.73c-.88-.71-1.72-1.47-2.53-2.28-11.01.06-21.72-5.75-27.39-16.05C-2.01,33.41,3.47,14.5,18.46,6.24,29.11.38,41.74,1.45,51.12,7.95c1.13-.21,2.26-.36,3.39-.45C44.26-.83,29.56-2.61,17.3,4.14,1.15,13.03-4.75,33.41,4.14,49.55c6.55,11.88,19.31,18.21,32.03,17.18Z"/>
      <path class="cls-1" d="m30.08,55.77c-8.25-14.99-2.78-33.89,12.21-42.15,3.66-2.01,7.55-3.2,11.46-3.65-.84-.73-1.72-1.4-2.63-2.03-3.41.64-6.78,1.81-9.99,3.57-16.15,8.89-22.05,29.27-13.15,45.41,1.56,2.83,3.48,5.34,5.66,7.52,1.1,0,2.2-.08,3.3-.2-2.7-2.33-5.04-5.17-6.86-8.48Z"/>
      <path class="cls-1" d="m53.75,9.98c1.1-.12,2.2-.19,3.3-.2-.81-.81-1.65-1.57-2.53-2.28-1.13.09-2.27.24-3.39.45.91.63,1.79,1.3,2.63,2.03Z"/>
      <path class="cls-1" d="m36.94,64.25c-1.1.12-2.2.19-3.3.2.81.81,1.65,1.57,2.53,2.28,1.13-.09,2.27-.24,3.39-.45-.91-.63-1.79-1.3-2.63-2.03Z"/>
    </g>
  </g>
</svg>