<?xml version="1.0" encoding="UTF-8"?>
<svg id="Layer_2" data-name="Layer 2" xmlns="http://www.w3.org/2000/svg" viewBox="0 0 63.74 72.1">
  <defs>
    <style>
      .cls-1 {
        fill: #a37d2d;
        stroke-width: 0px;
      }
    </style>
  </defs>
  <g id="Layer_1-2" data-name="Layer 1">
    <g>
      <path class="cls-1" d="m46.09,45.67l-2.15-2.09c5.45-5.59,7.84-13.49,6.39-21.15C47.88,9.49,35.36.97,22.42,3.42S.97,18.4,3.42,31.33c1.4,7.37,6.05,13.53,12.77,16.9l-1.34,2.68C7.29,47.12,2.05,40.19.47,31.89-2.29,17.33,7.31,3.24,21.87.47c14.56-2.76,28.65,6.83,31.42,21.39,1.64,8.62-1.05,17.52-7.19,23.8Z"/>
      <path class="cls-1" d="m56.43,63.67c-6.88,1.31-13.53-3.23-14.84-10.1-.85-4.45.77-9.05,4.21-12.01l1.95,2.28c-2.63,2.26-3.86,5.77-3.22,9.17,1,5.25,6.08,8.71,11.33,7.72l.56,2.95Z"/>
      <path class="cls-1" d="m12.86,71.94l-.56-2.95c5.25-1,8.71-6.08,7.71-11.33-.69-3.63-3.33-6.52-6.89-7.52l.82-2.89c4.66,1.32,8.12,5.09,9.03,9.85,1.31,6.88-3.23,13.53-10.1,14.84Z"/>
      <path class="cls-1" d="m12.86,71.94c-4.87.92-9.58-2.28-10.5-7.15s2.28-9.58,7.15-10.5c4.87-.92,9.58,2.28,10.5,7.15s-2.28,9.58-7.15,10.5Zm-2.79-14.71c-3.24.62-5.38,3.75-4.76,7s3.75,5.38,7,4.76,5.38-3.75,4.76-7c-.62-3.24-3.75-5.38-7-4.76Z"/>
      <path class="cls-1" d="m56.43,63.67c-4.87.92-9.58-2.28-10.5-7.15-.92-4.87,2.28-9.58,7.15-10.5s9.58,2.28,10.5,7.15-2.28,9.58-7.15,10.5Zm-2.79-14.71c-3.24.62-5.38,3.75-4.76,7s3.75,5.38,7,4.76,5.38-3.75,4.76-7c-.62-3.24-3.75-5.38-7-4.76Z"/>
    </g>
  </g>
</svg>