<?xml version="1.0" encoding="UTF-8"?>
<svg id="Layer_2" data-name="Layer 2" xmlns="http://www.w3.org/2000/svg" viewBox="0 0 122.82 114.17">
  <defs>
    <style>
      .cls-1 {
        fill: #a37d2d;
        stroke-width: 0px;
      }
    </style>
  </defs>
  <g id="Layer_1-2" data-name="Layer 1">
    <g>
      <path class="cls-1" d="m99.25,7.84c2.25-3.88,8.74.76,11.23,2.52,2.43,1.93,5.03,4.36,5.52,7.61.13,1.05-.02,2.27-.81,3,.6-.87.59-1.96.33-2.91-.83-2.98-3.29-5.04-5.65-6.91-1.61-1.26-3.35-2.35-5.16-3.3-1.68-.93-4.04-1.83-5.46-.01h0Z"/>
      <path class="cls-1" d="m99.27,7.57c-1.39-1.55-2.84-3.67-1.84-5.84,1.6-3.31,9.65-1.11,12.2.28,5.54,3.12,13.69,10.17,13.17,17.11-.46,4.26-5.02,4.03-7.62,1.74,4.5,2.98,8.4.6,6.55-4.77-1.29-3.97-4.41-6.96-7.5-9.64-1.56-1.39-3.18-2.69-5-3.63-2.23-1.23-9.84-3.63-11.35-.86-1.05,1.91.27,4.03,1.41,5.62h0Z"/>
      <path class="cls-1" d="m100.09,9.07c2.25-1.99,6.99,1.99,8.99,3.26,2.41,1.7,5.55,4.28,5.02,7.62-.07.2-.26.41-.48.39.22-.04.31-.24.33-.43-.2-3.15-3.09-5.06-5.45-6.77-1.34-.98-2.66-1.95-4.02-2.85-1.31-.78-2.83-2.07-4.39-1.23h0Z"/>
      <path class="cls-1" d="m100.07,9.14c-7.09.15-14.12,1.02-21,2.66-4.43,1.09-9.23,2.41-12.09,6.18-2.83,3.69-3.59,8.66-2.67,13.18.41,2.31,1.22,4.54,2.21,6.68-1.19-2.04-2.12-4.26-2.69-6.58-1.15-4.66-.55-9.93,2.43-13.84,2.94-4.03,8-5.49,12.61-6.51,6.94-1.58,14.11-2.21,21.21-1.78h0Z"/>
      <path class="cls-1" d="m113.7,20.5c1.87,9.48,2.24,19.21,1.48,28.84-.5,7.94-9.54,11.82-16.57,11.63-2.43-.12-4.88-.78-6.85-2.18,2.09,1.21,4.49,1.74,6.86,1.69,6.58-.18,15.15-3.76,15.56-11.24.86-9.56.58-19.2-.49-28.74h0Z"/>
      <path class="cls-1" d="m66.59,37.79c1.38-.52,2.83.35,4.15.74,4.02,1.55,7.64,4.01,10.88,6.8,3.17,2.88,6.44,5.75,8.79,9.36.72,1.25,1.26,2.64,1.29,4.08-.26-1.4-.87-2.69-1.7-3.81-2.56-3.34-5.93-6.04-9.03-8.86-2.13-1.84-4.36-3.56-6.74-5.07-1.77-1.15-3.67-2.09-5.61-2.92-.64-.25-1.34-.5-2.03-.3h0Z"/>
      <path class="cls-1" d="m67.7,40.19c6.76,2.23,12.91,6.3,17.78,11.48,1.6,1.73,3.16,3.72,3.63,6.08-.44-1.1-1.04-2.11-1.78-3-5.43-6.13-12.4-10.77-19.62-14.56h0Z"/>
      <path class="cls-1" d="m67.32,40.11c2.15,4.93-3.5,8.19-7.75,8.21-1.51.19-3.2-.21-4.52.45-1.22.95-.1,2.68.54,3.8.55.89,1.29,1.67,2.12,2.34-.96-.49-1.81-1.22-2.52-2.06-.98-1.27-2.35-3.52-.64-4.8,1.52-.95,3.34-.51,4.95-.73,3.95,0,9.08-2.6,7.82-7.22h0Z"/>
      <path class="cls-1" d="m89.14,57.77c-1.58-.11-2.94.83-3.81,1.98-2.79,4.06,0,9.17-1.29,13.66-2.7,1.1-6.14-.11-7.4-2.7,1.54,2.09,4.52,2.99,6.87,1.98,0,0-.26.31-.26.31.28-1.44.2-2.95.06-4.47-.27-3.02-.67-6.65,1.55-9.15,1.04-1.21,2.74-1.99,4.28-1.6h0Z"/>
      <path class="cls-1" d="m54.93,49.33c10.46,3.4,18.98,11,26,19.26.95,1.24,1.81,2.61,2.2,4.12-.61-1.44-1.52-2.69-2.57-3.81-3.08-3.22-6.78-6.54-10.12-9.53-4.66-4.06-9.93-7.34-15.5-10.04h0Z"/>
      <g>
        <path class="cls-1" d="m96.49,62.11c.64,4.45-4.7,10.14-8.97,6.8-1.66-1.73-2.42-4.65-.82-6.63.79-.98,2.35-1.3,3.38-.5,1.09.77.78,2.62-.38,2.9,1.03-.52.98-2.08.09-2.5-.83-.52-1.95-.22-2.5.58-1.13,1.57-.38,4.16.9,5.41,3.75,2.71,8.15-2.3,8.3-6.06h0Z"/>
        <path class="cls-1" d="m89.49,65.05c3.78.37,4.21-4.99.42-5.11-3.29-.02-5.52,1.83-5.03,5.28.51,2.64,1.03,6.21,3.63,7.57,2.71,1,5.9-.47,8.01-2.24,3.19-2.37,3.3-8.32,7.9-8.77-4.5.93-4.17,6.8-7.38,9.34-2.3,2.11-5.79,3.67-8.92,2.55-2.12-.92-3-3.23-3.54-5.27-.89-2.88-1.34-7.32,2.18-8.6,1.95-.66,4.82-1,5.88,1.21,1.14,2.1-.9,4.64-3.16,4.05h0Z"/>
        <path class="cls-1" d="m104.28,61.74c-2.19,1.81-5.6,1.45-7.93.13-.12-.12.06-.31.13-.21-.1-.02-.08.11-.03.1.04.01.13,0,.22,0,2.58.09,5,.46,7.61-.02h0Z"/>
      </g>
      <g>
        <path class="cls-1" d="m62.47,33.51c-3.71.6-8.15,5.59-5.01,8.98,1.4,1.11,4.06,1.55,5.48.23.73-.64.89-1.79.27-2.55-.52-.83-2.08-.69-2.47.4.14-1.18,1.93-1.71,2.83-.73.92.92.8,2.51-.08,3.41-1.77,1.83-4.76,1.43-6.68,0-3.83-3.84,1.16-9.82,5.66-9.74h0Z"/>
        <path class="cls-1" d="m60.41,40.81c-.87-2.16,1.41-4.5,3.63-3.63,2.32.78,2.33,3.67,1.91,5.69-1.34,4.77-7.78,3.61-11.37,2.46-4.68-1.75-3.59-8.08-1.13-11.27,2.13-3.5,7.99-3.89,8.37-8.47.11,4.62-5.77,5.46-7.74,8.92-1.5,2.32-2.57,5.66-1.25,8.23,1.67,2.42,5.27,2.5,7.96,2.68,3.48.06,5.05-2.37,4.63-5.64-.58-3.75-5.84-2.67-5.02,1.04h0Z"/>
        <path class="cls-1" d="m61.89,25.73c-.17,2.72.54,5.16.94,7.78-.01.06.12.05.09-.04.12.06-.06.26-.19.16-1.6-2.16-2.38-5.49-.84-7.89h0Z"/>
      </g>
      <path class="cls-1" d="m64.08,46.83c7.71,3.78,14.5,9.51,19.54,16.46,0,0-2.31-2.23-2.31-2.23-5.35-5.22-11.15-9.89-17.22-14.23h0Z"/>
      <path class="cls-1" d="m74.91,67.14c1.53,3.17.04,6.97-2.1,9.5-2.06,2.62-5.03,4.51-6.91,7.19-.9,1.28-1.36,2.91-.72,4.27.59,1.36,2.11,2.33,3.59,2.09,3.77-.67,3.76-5.82-.07-6.5,4.4.38,4.52,6.26.21,7.25-1.87.43-3.79-.76-4.59-2.44-.85-1.71-.27-3.76.75-5.22,3.72-5.01,11.98-8.72,9.84-16.14h0Z"/>
      <path class="cls-1" d="m74.89,66.96c-1.72,5.14-7.16,7.62-11.11,10.82-2.01,1.48-3.96,3.33-4.22,5.93-.29,2.47.6,4.99,1.77,7.24,1.02,2.45,3.21,3.74,5.73,4.14,10.14,1.67,12.76-11.46,1.59-11.77,12.19-.33,9.13,14.53-1.74,12.67-2.73-.36-5.38-1.96-6.47-4.58-1.82-3.43-2.96-8.29-.14-11.59,4.32-4.89,11.84-6.58,14.59-12.85h0Z"/>
      <path class="cls-1" d="m69.12,60.46c-1.73,8.32-13.13,10.57-20.34,9.7-1.14-.26-2.26-.77-3.08-1.59.96.64,2.04,1.01,3.16,1.1,3.36.28,6.78-.61,10.03-1.33,4.31-1.06,8.64-3.53,10.22-7.9h0Z"/>
      <path class="cls-1" d="m69.2,60.29c1.84,1.55,3.81,2.98,5.51,4.68.45.76-.3,1.54-.65,2.07-2.31,3.25-5.66,5.71-9.44,7.04-6.78,2.44-14.66.02-19.06-5.62,4.81,4.94,12.22,7.01,18.74,4.67,3.58-1.24,6.82-3.54,9.21-6.51.3-.45.86-.85.69-1.35-1.6-1.67-3.4-3.3-5-4.98h0Z"/>
      <path class="cls-1" d="m60.69,54.45c-4.09,5.16-10.75,7.91-17.22,8.33-3.68.13-7.07-1.54-10.21-3.25-.28-.16-.58-.38-.66-.71.12.31.43.46.72.57,2.08.8,4.2,1.69,6.37,2.14,6.98,1.31,15.88-2.3,20.99-7.08h0Z"/>
      <path class="cls-1" d="m60.67,54.49c2.62,1,5.06,2.6,7.03,4.61.18.2.39.43.48.78.09.36-.03.7-.14.95-1.3,2.69-4.22,4.11-6.91,4.89-4.97,1.37-10.19,1.98-15.31,1.33-3.14-.52-5.52-2.85-8.05-4.54-1.64-1.22-3.29-2.41-4.9-3.65,3.49,2.05,6.82,4.49,10.33,6.45,3.58,1.72,7.91,1.04,11.77.68,4.1-.6,11.09-1.54,12.62-5.97-1.6-2.37-4.34-4.17-6.9-5.53h0Z"/>
      <path class="cls-1" d="m43.17,51.28c.38-2.91-3.45-3.38-4.42-.96-1.83,7.41,10.39,7.05,15.04,6.54.28-.04,1.09-.14,1.36-.18.06,0,.12-.06.15-.13.04-.05.06-.19-.04-.12.2-.12.05.32-.09.32-1.01.31-2.11.56-3.15.75-4.67.54-11.16,1.13-13.9-3.59-.6-1.19-.72-2.7-.07-3.92.62-1.24,2.07-1.99,3.4-1.7,1.34.3,2.2,1.82,1.71,3h0Z"/>
      <path class="cls-1" d="m55.19,56.54c-2.7,3.35-7.37,4.1-11.43,4.3-1.04.05-2.16.04-3.23-.34-2-.94-3.9-2.08-5.06-4.01-1.21-2.94-2.42-6.49-.56-9.4,2.17-3.83,8.89-4.84,10.89-.39.96,2-.46,4.78-2.76,4.72,2.14-.16,3.33-2.72,2.32-4.52-.85-1.84-3.01-2.61-4.93-2.36-4.31.56-6.58,4.64-5.06,8.66.51,2.01,1.05,3.79,2.91,4.93,1.63,1.35,3.32,2.07,5.45,1.94,4.03-.04,8.46-.53,11.45-3.53h0Z"/>
      <path class="cls-1" d="m32.74,50.56c.54,2.16.99,3.96,1.67,6.06,0,0-.23.12-.23.12-.09-.42-.03-.44.23-.11,0,0-.23.12-.23.12-1.62-1.53-2.28-4.11-1.45-6.2h0Z"/>
      <path class="cls-1" d="m32.72,50.49c-2.87-.61-5.65.43-8.56.36-2.93-.02-5.86-.9-8.35-2.47l.64-.73c3.34,3.98,7.45,7.38,12.58,8.56,1.67.45,3.41.64,5.16.67-3.49.42-7.12-.25-10.34-1.8-4.25-2.01-7.32-5.75-10.23-9.26,3.17,2.18,6.62,4.14,10.58,4.33,2.79.22,5.8-.62,8.53.35h0Z"/>
      <path class="cls-1" d="m20.3,39.8c1.14.86,2.9.08,3.2-1.19.36-1.28-.31-2.66-1.41-3.34-4.89-3.02-11.23,1.85-9.93,7.35.52,2.57,2.14,4.82,3.74,7.01,2.87,4.68,7.98,7.12,12.37,10.37,4.47,3.12,8.85,6.62,14.42,7.37-5.62-.31-10.31-3.77-14.85-6.73-3.41-2.32-7.07-4.34-10.1-7.2-4.35-4.75-10.39-13.02-3.47-18.31,3.09-2.53,10.61-1.55,9.47,3.56-.42,1.43-2.38,2.07-3.45,1.11h0Z"/>
      <path class="cls-1" d="m20.14,39.81c-.3,2.28,2.65,3.37,4.35,2.23,2.55-1.44,4.3-4.92,2.56-7.6-1.61-2.46-3.7-5.06-6.86-5.27-4.78-.65-10.53.7-13.52,4.67-1.29,2.58-1.81,5.88-1.51,8.72.26,1.93,1.18,3.81,2.03,5.66,2.55,5.63,6.91,10.17,12.44,12.95,3.59,2,7.18,4.04,11.21,4.98,3.74.95,7.64,1.19,11.49,1.12.12,0,.27-.02.33-.14.08-.11-.2-.25-.2-.09,0-.16.3-.05.22.1-.06.13-.22.16-.34.17-1.8.12-3.62.16-5.43.08-6.32-.05-12.23-2.47-17.64-5.54-3.71-1.87-7.22-4.44-9.67-7.85-2.41-3.42-4.59-7.17-5.42-11.31-.28-2.16.08-4.29.57-6.31,1.12-6.56,9.84-8.97,15.58-7.96,3.35.31,5.58,3.07,7.22,5.75,1.17,1.88.81,4.37-.56,6.05-1.18,1.61-3.41,3.2-5.44,2.17-.92-.47-1.65-1.52-1.4-2.57h0Z"/>
      <path class="cls-1" d="m16.33,26.29c1.32-1.25,3.23-2.19,3.76-4,.57-2.01-1.52-3.11-2.98-1.73-.77.68-.86,2.08.1,2.55,0,0,.91.39.91.39l-.91.4c-1.44.63-3.11.07-4.05-1.08-1.97-2.51-.14-6.13,2.6-7.01,7.73-2.71,13.46,7.17,6.91,12.27,5.5-5.12.53-13.79-6.56-11.39-2.19.76-3.68,3.59-2.22,5.55.67.87,1.97,1.31,2.96.87v.8c-.77-.37-1.17-1.15-1.19-1.93-.04-2.36,3.5-3.79,4.75-1.6,1.29,2.89-2.17,4.58-4.08,5.93h0Z"/>
      <path class="cls-1" d="m22.79,28.15c-2.63-.39-5.1-.58-7.72-.26,0,0-.14-.69-.14-.69.57-.03,1.19-.4,1.54-1.04,0,.74-.58,1.5-1.41,1.73l-.14-.69c2.57-.83,5.61-.59,7.87.95h0Z"/>
      <path class="cls-1" d="m43.83,69.2c3.78,3.15,7.47,6.29,12.49,7.04-5.12.75-9.85-2.97-12.49-7.04h0Z"/>
      <path class="cls-1" d="m43.9,69.31c-6.4,1.29-13.18.8-19.4-1.38-4.63-1.4-8.57-4.87-13.42-5.43-9-.72-13.6,10.03-7.19,16.26,2.21,2.21,5.15,4.12,8.36,3.9,3.17-.15,6.29-2.05,7.74-5-1.25,3.05-4.38,5.17-7.7,5.49-3.4.33-6.56-1.59-8.94-3.85-7.17-6.65-2-18.7,7.83-17.75,5.01.62,8.93,4.07,13.59,5.66,6.07,2.29,12.7,2.98,19.14,2.1h0Z"/>
      <path class="cls-1" d="m56.29,76.51c-5.99,7.51-16.41,8.03-24.18,2.99-3.84-2.15-7.01-5.41-10.48-7.97-2.38-1.37-5.59-1.26-8.17-.51-2.59.72-4.85,3.55-3.74,6.23,1.8,3.56,8.98,4.7,10.35.16-1.15,4.89-8.95,3.93-10.93.1-.7-1.47-.4-3.21.4-4.53,1.65-2.78,5.16-3.45,8.12-3.39,3.16-.18,5.8,1.88,7.94,3.9,2.21,1.9,4.48,3.73,6.96,5.23,7.51,4.94,17.4,4.72,23.71-2.21h0Z"/>
      <path class="cls-1" d="m59.83,76.64c-3.73,4.74-3.54,11.99.41,16.5,0,0-1.05-.26-1.05-.26-4.26-1.08-8.72-1.24-13.12-.88-4.38.4-8.89.8-12.74,2.86-3.68,1.96-6.8,6.14-5.87,10.45.24,1.02.79,2,1.65,2.55,1.92,1.28,4.76-.07,3.7-2.55-.49-1.23-1.86-.83-2.85-1.17.54.18,1.1.06,1.66.12,1.24.11,1.87,1.54,1.62,2.66-.38,1.93-2.94,2.35-4.41,1.4-1.05-.63-1.69-1.73-1.99-2.85-1.18-4.68,2.06-9.26,6.04-11.41,4.02-2.2,8.64-2.68,13.11-3.01,4.46-.29,9.04-.18,13.38,1.11l-.4.58c-3.38-4.75-3.05-11.79.84-16.09h0Z"/>
      <path class="cls-1" d="m59.58,76.96l-4.02,3.36c-2.61,2.32-5.56,4.67-9.22,4.83-3.46.39-6.98.62-10.43.94-1.71.19-3.35.61-4.86,1.39-5.95,3.06-10.15,10.1-8.96,16.83.57,3.3,2.49,6.51,5.5,8,2.2,1.09,5.18.83,6.84-1.09.99-1.24,2.08-2.88,1.88-4.53-.59-2.8-3.99-3.04-6.38-2.84.87-.09,1.74-.18,2.62-.13,5.04.45,5.08,4.55,2.3,7.87-3.28,3.85-9.37,1.76-11.66-2.13-6.36-9.46,1.67-23.39,12.61-24.23,3.51-.31,6.97-.39,10.46-.71,1.72-.16,3.41-.5,4.89-1.38,1.49-.85,2.83-1.99,4.23-3.03l4.18-3.16h0Z"/>
      <path class="cls-1" d="m60.75,94.78c1.85.96,3.26,1.48,5.29,1.97-1.85,1.01-4.55,0-5.29-1.97h0Z"/>
      <path class="cls-1" d="m60.44,94.69c-5.08,1.14-10.22-1.06-15.29-.9-5.05.1-10.08,1.67-14.19,4.6,0,0-.51-.82-.51-.82,5.38-2.91,11.82-3.76,17.79-2.49,3.02.6,5.7,2.11,8.61,2.59,2.91.53,5.98.15,8.75-1-2.68,1.37-5.8,1.9-8.83,1.51-3.06-.41-5.79-1.84-8.7-2.31-5.8-1.15-11.95-.21-17.17,2.55,0,0-.51-.82-.51-.82,4.31-2.98,9.53-4.64,14.75-4.53,5.2,0,10.09,2.38,15.29,1.63h0Z"/>
      <path class="cls-1" d="m37.56,105.33c.42.19.55.94.75,1.35.47,1.01,0,2.29-.57,3.13,0,0-.77,1.34-.77,1.34l-.75-.55c1.22-1.63,4.1-2.91,5.23-.5.46,1.07-.06,2.35-1.06,2.78-.79.35-1.92.15-2.33-.63-.04-.11-.03-.29.11-.31-.2.16.06.39.22.47,1.31.78,2.94-.58,2.27-1.93-.31-.59-1.1-.93-1.73-.66-.73.27-1.45.78-1.99,1.39l-.75-.55c.44-.71,1.31-1.81,1.64-2.51.26-.63.15-1.45,0-2.14-.09-.23-.03-.55-.26-.69h0Z"/>
      <path class="cls-1" d="m37.97,105.54c1.41-.6,3.02.18,4.22.94.61.36,1.32.89,1.67,1.68.6,1.58.39,3.13-.37,4.64-1.31,2.04-5.49,1.88-5.44-.91.29,1.47,1.93,1.93,3.18,1.46,1.43-.41,1.83-1.53,1.94-2.92.08-.66.05-1.33-.17-1.89-.2-.57-.69-.97-1.25-1.42-1.11-.84-2.3-1.74-3.77-1.57h0Z"/>
      <path class="cls-1" d="m23.3,92.59c-1.42,2.59-2.71,5.16-2.78,8.11-1.43-2.71.3-6.59,2.78-8.11h0Z"/>
      <path class="cls-1" d="m23.44,92.69c-2.51.23-3.04,2.8-4.94,4.08-2.6,1.52-5.73-1.51-3.88-4.03.76-1.02,2.27-1.29,3.3-.57.2.08.44.49.6.44.1-.06-.07-.13-.07-.03-.02-.15.25-.07.12.08-.08.11-.25.05-.32,0-.42-.3-.95-.45-1.45-.4-2.18.16-2.46,3.13-.48,3.8.55.2,1.2.14,1.74-.13.54-.23.94-.81,1.46-1.35.95-1.07,2.4-2.18,3.92-1.89h0Z"/>
      <path class="cls-1" d="m18.54,92.91c-1.35-4-7.17.07-6.44,2.98,1,3.34,4.92,5.19,8.31,4.72-3.54,1.34-8.25-.72-9.29-4.52-.54-2.95,2.89-6,5.73-5.3.93.31,1.74,1.15,1.69,2.11h0Z"/>
      <path class="cls-1" d="m26.18,76c2.46,2.14,5.99,3.6,8.93,4.9,0,0-4.1-.92-4.1-.92-1.79-.09-4.96.7-5.1,2.89-.08.93,1.06,1.78,2,1.42.98-.31,1.6-2.08.38-2.56.31,0,.61.22.77.5.52.92.05,2.13-.89,2.62-1.34.72-3.18-.37-3.18-1.97.05-3,3.81-4.07,6.23-3.73,0,0-.29.8-.29.8-1.84-.98-3.48-2.34-4.74-3.96h0Z"/>
      <path class="cls-1" d="m26.02,75.89c-1.41,1.46-3.2,2.73-3.51,4.66-1.02,3.9,3.7,7.49,7.01,5.12,1.64-1.2,1.34-4.15-1.08-3.86.49-.16,1.05-.16,1.55.08,1.65.86,1.32,3.3.04,4.37-2.72,2.37-7.2.62-8.22-2.63-1.17-3.71,1.32-6,4.21-7.74h0Z"/>
      <path class="cls-1" d="m60.77,52.58c-1.4.54-2.96.48-3.05,2.21-.89-.59-.34-2.02.52-2.41.85-.4,1.77-.27,2.53.21h0Z"/>
      <path class="cls-1" d="m78.79,67.11c1.49,1.29-.24,4.07-2.08,3.26,1.26-.74,1.94-1.8,2.08-3.26h0Z"/>
      <path class="cls-1" d="m74.88,68.05c.38,3.7-1.74,7.26-4.79,9.28-.71.51-1.15,1.24-1.78,1.95-.63.73-1.42,1.26-2.05,1.83-2.61,2.22-2.85,6.49-.5,8.98.52.61,1.25.87,2.12,1.03.84.15,1.71.22,2.42-.07.7-.26,1.22-1.05,1.73-1.74,1.04-1.41.56-3.44-.72-4.56-.65-.59-1.46-1-2.33-1.25.89.14,1.77.48,2.5,1.05,2.17,1.65,2.06,4.32.29,6.25-.86,1.28-2.71,1.47-4.04,1.19-3.09-.29-4.72-3.73-4.59-6.54.12-1.93,1.03-3.79,2.5-5.05,1.78-1.19,2.43-2.43,3.96-3.64,3.09-1.86,5.21-5.02,5.29-8.7h0Z"/>
      <path class="cls-1" d="m74.42,68.25c-.06.99-.13,1.98-.4,2.95-.52,1.98-2.11,3.43-3.5,4.81-2.01,2.05-4.26,4.27-6.3,6.25-1.26,1.26-1.47,3.41-.67,4.96.88,1.54,1.94,3.42,3.48,4.38,1.51,1,3.57.3,5.07-.71,3.99-3.06.12-7.16-3.61-7.89,4.36.41,8.32,4.93,4.08,8.5-1.64,1.29-4.08,2.05-5.99.89-1.84-1.14-2.84-2.91-3.92-4.72-.78-1.46-.63-3.19-.05-4.71.21-.53.61-.99.97-1.33,1.44-1.37,2.86-2.74,4.33-4.07,1.25-1.17,3.15-2.81,4.31-4.03,1.44-1.4,1.94-3.35,2.21-5.28h0Z"/>
      <path class="cls-1" d="m74.06,69.29c-.81,6.36-8.9,8.55-11.55,13.74-.77,1.73-.16,3.78.69,5.52,1.55,3.52,5.9,5.98,9.54,4.22.83-.41,1.3-1.26,1.67-2.2.38-.95.77-1.88.47-2.79-.62-1.78-1.89-3.93-4.03-3.93,2.22-.23,3.72,1.98,4.5,3.79.41,1.04,0,2.19-.35,3.17-.33,1.01-.89,2.11-1.88,2.65-6.24,3.32-13.73-4.56-11.44-10.76,2.04-3.87,6.13-5.52,9.13-8.39,1.53-1.3,2.88-2.95,3.26-4.99h0Z"/>
      <path class="cls-1" d="m73.7,69.77c-2.2,5.78-8.97,7.6-11.69,12.94-.93,1.6-1.53,3.43-.24,5.01,1.36,1.91,2.84,3.96,4.61,5.52,1.17.61,2.76.86,4.05,1.03,1.82.18,3.75-.9,4.8-2.31.58-1.72.5-3.9-.51-5.58.61.78.97,1.75,1.11,2.74.12,1.03.18,2.02-.15,3.04-.53.99-1.39,1.49-2.27,2.1-1.78,1.15-4.09.8-6.01.29-.99-.14-2.07-.85-2.69-1.64-1.33-1.47-2.64-2.97-3.78-4.63-.62-.84-1.04-2.04-.85-3.11.63-3.05,2.74-5.54,5.05-7.49.98-.8,2.06-1.41,3.1-2.06,2.04-1.69,4.27-3.41,5.45-5.85h0Z"/>
      <path class="cls-1" d="m73.12,70.54c-1.35,1.82-3.46,3.62-5.18,5.12-2.01,1.3-3.8,2.89-5.35,4.7-2.26,2.53-3.05,5.23-.98,8.17,1.75,2.49,3.52,5.55,6.74,6.16,1.47.2,3.3.86,4.62-.11-.55.64-1.48.74-2.27.73-2.49.11-5.07-.55-6.81-2.44-2.69-2.87-6.25-7.11-3.49-11.11,3.02-5,8.84-7.06,12.73-11.21h0Z"/>
      <path class="cls-1" d="m69.75,73.31c-1.34,2.53-4.21,3.69-6.36,5.3-2.09,1.68-3.5,4.19-3.22,6.86.06,1.36.06,2.59.95,3.7,1.03,1.34,2.02,2.79,3.1,4.09.2.27.45.4.75.57,1.83.89,3.84,1.64,5.92,1.35-2.05.61-4.27.03-6.2-.78-1.91-1.06-2.91-3.1-4.35-4.68-.97-1.1-1.14-2.8-1.17-4.2-.28-2.93,1.36-5.88,3.75-7.52,2.37-1.57,5.06-2.35,6.82-4.69h0Z"/>
      <path class="cls-1" d="m70,61.47c-.82,2.12-1.76,4.28-3.47,5.96-1.71,1.72-4.08,2.49-6.32,2.97-3.36.63-6.92,1.29-10.32.41-1.12-.33-2.2-.83-3.07-1.57,2,1.13,4.29,1.38,6.51,1.22,4.25-.58,9.21-.85,12.67-3.59,1.71-1.45,2.82-3.49,3.99-5.4h0Z"/>
      <path class="cls-1" d="m70.76,62.18c-.86,6.49-7.98,9.36-13.75,9.84-2.37.35-5.02.31-7.16-.88-1.07-.54-2.14-1.05-3.2-1.62,1.14.36,2.26.79,3.38,1.17,2.23.98,4.51.77,6.85.39,5.61-.67,12.14-2.94,13.87-8.91h0Z"/>
      <path class="cls-1" d="m71.83,63.11c-.22,4.75-6.62,7.88-10.62,9.09-5.3,1.72-9.45.99-14-2.19,1.12.46,2.21.98,3.35,1.36,3.36,1.44,6.93.91,10.37-.13,3.91-1.22,9.97-3.71,10.9-8.13h0Z"/>
      <path class="cls-1" d="m72.75,63.92c-.05,7.17-17.29,12.88-22.09,8.29-.9-.87-1.68-1.84-2.84-2.34,1.25.28,2.19,1.26,3.15,1.97.94.8,2,1.18,3.24,1.14,5.76.1,16.99-2.66,18.53-9.05h0Z"/>
      <path class="cls-1" d="m73.4,64.79c.5,2.22-1.59,3.99-3.16,5.18-3.41,2.53-7.62,3.96-11.85,4.1-2.12.07-4.23-.21-6.23-.83,2.08.23,4.14.24,6.18.05,4.07-.43,8-1.77,11.46-3.96,1.61-1.1,3.65-2.34,3.61-4.54h0Z"/>
      <path class="cls-1" d="m61.12,95.26c-4.34,1.56-9.03,0-13.37-.58-3.29-.57-6.6-.16-9.77.82-1.08.28-2.15.64-3.23.94,4-2.06,8.6-3.59,13.15-2.74,4.45.63,8.69,2.36,13.23,1.57h0Z"/>
      <path class="cls-1" d="m61.57,95.62c-3.12,2.74-7.67,1.1-11.06-.08-3.51-1.23-7.29-1.44-11.04-.75,1.76-.72,3.69-1.12,5.63-1.13,5.67-.5,10.98,4.82,16.47,1.96h0Z"/>
      <path class="cls-1" d="m62.23,96.42c-4.27,3.46-10.28,1.28-14.18-1.72,4.63,1.69,9.35,3.78,14.18,1.72h0Z"/>
      <path class="cls-1" d="m62.68,96.57c-.2,1.17-1.61,1.77-2.59,1.1.91-.77,1.41-.98,2.59-1.1h0Z"/>
      <path class="cls-1" d="m38.43,106.46c1.88-.38,4.04.78,4.79,2.57.72,1.25.76,3.15-.49,4.11-1,.75-2.17.71-3.2.58,1.01-.26,2.07-.52,2.68-1.17.6-.62.65-1.58.39-2.46-.58-1.91-2.17-3.25-4.17-3.64h0Z"/>
      <path class="cls-1" d="m38.32,107.21c2.04-.04,4.16,1.27,4.75,3.33.38,1.06.07,2.57-1.09,2.99-1.08.49-2.14.15-3.02-.21,1.77.07,3.91-.34,3.15-2.5-.51-1.78-2.11-2.89-3.79-3.61h0Z"/>
      <path class="cls-1" d="m38.22,108.13c2.15-.93,5.86,3.27,3.88,5.07-1.34.97-3.11.48-4.38-.24.95.12,1.87.13,2.73-.01,1.54-.23,1.45-1.3.72-2.4-.67-1.15-1.49-2.26-2.95-2.42h0Z"/>
      <path class="cls-1" d="m61.39,54.99c-.72,2.32-2.81,3.93-4.93,4.92-5.64,2.91-12.77,5.14-18.78,1.98-.52-.27-1.03-.61-1.4-1.08.91.74,2.06,1.05,3.17,1.34,5.72,1.41,11.45-.72,16.69-2.93,2.17-.84,4.13-2.12,5.25-4.23h0Z"/>
      <path class="cls-1" d="m62.46,55.73c-.58,2.35-3.12,3.42-4.98,4.6-4.94,2.89-10.99,4.91-16.68,3.16-1.1-.37-2.17-.84-3.12-1.5,6.42,2.91,13.49.64,19.44-2.34,1.94-1.05,4.37-1.76,5.34-3.92h0Z"/>
      <path class="cls-1" d="m63.75,56.46c-4.43,5.96-12.35,8.92-19.64,7.83,0,0-1.67-.31-1.67-.31l-1.63-.48c-.53-.2-1.05-.41-1.57-.62.94.22,2.31.5,3.28.62,7.67.98,15.65-1.64,21.22-7.03h0Z"/>
      <path class="cls-1" d="m64.95,57.4c-5.09,6.62-14.56,9.39-22.44,6.68-1.11-.42-2.2-.97-3.03-1.81,1.46.99,3.15,1.41,4.86,1.67,7.42,1.16,15.15-1.4,20.61-6.54h0Z"/>
      <path class="cls-1" d="m66,58.32c-3.59,6.36-17,8.39-23.48,6.18-1.15-.41-2.27-.9-3.29-1.56,4.45,1.91,9.34,1.87,14.02,1.03,4.55-.93,9.67-1.85,12.75-5.65h0Z"/>
      <path class="cls-1" d="m66.46,59.1c-4.86,7.59-15.44,7.62-23.32,5.83-1.19-.41-2.12-1.2-3.27-1.57,1.22.15,2.27.88,3.4,1.09,7.89.94,17.5,1.15,23.19-5.36h0Z"/>
      <path class="cls-1" d="m66.99,59.61c.67,1.55-2.87,3.2-3.94,3.95-7.46,4.17-17.21,4.21-24.51-.32l1.81.72c7.23,2.61,15.43,2.26,22.42-.96,1-.5,2.44-1.26,3.37-1.86.48-.35,1.08-.87.85-1.53h0Z"/>
      <path class="cls-1" d="m43.41,51.05c.99-1.01.33-2.73-.94-3.1-2.48-.93-5.1,1.56-5.01,4.01.04,2.6,2.26,4.6,4.79,4.96,3.94.72,8.11,1.3,12,0-3.75,1.89-8.15,1.55-12.18.94-2.93-.35-5.61-2.81-5.56-5.9-.02-3.01,3.26-5.76,6.14-4.45,1.36.54,2,2.61.74,3.55h0Z"/>
      <path class="cls-1" d="m43.35,50.91c.82,0,1.37-.77,1.46-1.47.1-.73-.36-1.41-.95-1.81-2.49-1.73-6.23.19-6.9,2.96-.36,1.38-.1,2.91.64,4.14,1.56,2.72,4.97,3.13,7.87,3.36,3.07.23,6.3.54,9.13-.95-2.62,1.88-6.09,1.78-9.17,1.71-5.23.17-10.68-2.4-9.38-8.53.89-3.3,5.29-5.28,8.11-3.09.64.53,1.12,1.39.91,2.24-.16.8-.9,1.55-1.72,1.42h0Z"/>
      <path class="cls-1" d="m44.22,50.62c1.71-.33,1.92-2.76.6-3.66-4.22-2.9-9.87,1.89-8.2,6.63,2.31,6.03,11.59,6.55,16.62,3.79-5.19,3.66-15.04,3.16-17.58-3.5-.51-1.69-.35-3.58.5-5.14,1.65-3.07,6.2-4.52,8.99-2.15,1.38,1.11,1,3.9-.92,4.03h0Z"/>
      <path class="cls-1" d="m45.47,46.56c-2.69-2.82-7.45-1.11-9.55,1.56-.5.98-.43,2.38-.48,3.48.09,4.78,6.21,8.19,10.52,8.44-5.66.51-12.72-4.08-11.41-10.38,0-1.37.86-2.81,2.07-3.45,2.53-1.83,6.84-2.59,8.85.34h0Z"/>
      <path class="cls-1" d="m36.26,56.17c2.31,1.57,4.33,2.86,6.72,4.3-2.78-.07-5.49-1.82-6.72-4.3h0Z"/>
      <path class="cls-1" d="m32.36,51.36c-2.73.46-5.59.7-8.36.63-2.9-.34-5.3-1.97-7.62-3.57,2.58.86,5.03,2.3,7.72,2.58,2.7.1,5.53.04,8.26.37h0Z"/>
      <path class="cls-1" d="m32.62,52.44c-6.33-.14-10.35,2.07-15.25-3.72,2.26,1.39,4.47,2.93,7.19,3.03,2.63.22,5.51-.31,8.06.69h0Z"/>
      <path class="cls-1" d="m32.64,53.19c-1.28.59-2.82.14-4.14,0-1.34-.13-2.76.15-4.13-.07-2.81-.39-5.52-1.95-7.06-4.34,2.07,1.77,4.53,2.99,7.2,3.35,1.36.24,2.73-.01,4.12.3,1.41.29,2.61.97,4.01.77h0Z"/>
      <path class="cls-1" d="m32.64,54.02c-5.03,1.25-10.84-.37-14.49-4.06,4.54,2.52,9.31,3.86,14.49,4.06h0Z"/>
      <path class="cls-1" d="m32.88,54.72c-.05.35-.5.42-.78.44-4.49.42-9.57-.45-12.72-3.92,2.14,1.16,4.29,2.07,6.58,2.58,1.65.39,3.57.65,5.26.91l.89.15c.27.04.61.12.77-.16h0Z"/>
      <path class="cls-1" d="m33.34,55.7c-4.74,1.78-10-.69-13.57-3.8,4.43,1.92,8.61,4.12,13.57,3.8h0Z"/>
      <path class="cls-1" d="m22,27.75c.28-2.11,2.5-3.7,1.81-5.95-.52-2.49-3.07-4.21-5.41-4.94-.59-.21-2.06.83-2.7,1.1-.32.19-1.1.52-1.34.72-.98,1.73.48,4.26,2.34,4.87-1.68-.25-3.09-1.83-3.27-3.54-.04-.65-.09-1.28.37-1.86.27-.29.54-.4.76-.55l.71-.41c.58-.3,1.61-1.01,2.25-1.22.93-.34,1.95.2,2.71.56,1.01.51,1.99,1.15,2.79,2.01,1.62,1.66,2.22,4.56.72,6.47-.75.85-1.35,1.68-1.75,2.74h0Z"/>
      <path class="cls-1" d="m21.55,27.38c-.54-1.8,1.05-3.53,1.3-5.18.14-.81-.15-1.51-.71-2.17-1.07-1.43-2.34-2.34-4.18-1.9-.83.16-1.76.37-2.36.81-1.35,1.07-.78,3.4.64,4.29-1.84-.68-2.75-3.42-1.14-4.89.79-.68,1.72-.89,2.68-1.14.93-.2,2.01-.24,2.98.25.95.52,1.53,1.28,2.12,2.01.61.77,1.02,1.91.72,2.9-.44,1.89-2.14,3.05-2.06,5.03h0Z"/>
      <path class="cls-1" d="m20.49,27.15c.25-1.85.69-3.71,1.08-5.51.04-.33,0-.51-.17-.79-.73-1.36-1.51-2.04-3.14-1.84-2.22-.07-3.59,2.48-2.26,4.42-2.13-1.86-.53-5.33,2.19-5.36.83-.06,1.74-.09,2.49.4.77.54,1.16,1.25,1.54,1.94.47.76.13,1.77-.15,2.51-.47,1.43-1,2.84-1.6,4.24h0Z"/>
      <path class="cls-1" d="m18.99,27.1c.75-.85.69-2.03,1.02-3.06.24-1.08.69-2.16.51-3-.11-.82-1.07-1.36-1.97-1.23-.91.14-1.73.97-2.09,2.02-.05-1.11.63-2.39,1.92-2.78,2.34-.6,3.77,1.58,2.95,3.66-.62,1.42-.95,3.58-2.34,4.4h0Z"/>
      <path class="cls-1" d="m17.62,26.84c.83-1.36.63-3.74,2.55-4.11-.87,1.34-.65,3.69-2.55,4.11h0Z"/>
      <path class="cls-1" d="m58,90.72c-3.98-.82-7.97-.66-11.93-.17-3.88.69-8.14.51-11.52,2.82.7-.74,1.56-1.32,2.48-1.79,2.83-1.22,5.9-1.55,8.92-2.02,4.01-.48,8.28-.43,12.05,1.16h0Z"/>
      <path class="cls-1" d="m57.21,89.2c-7.16-.7-14.83-.75-21.18,3.08-.91.51-1.75,1.13-2.57,1.79.67-.82,1.46-1.53,2.3-2.2,6.08-4.59,14.38-4.68,21.45-2.68h0Z"/>
      <path class="cls-1" d="m57.32,87.58c-7.31-1.31-14.52,1.22-20.98,4.46,0,0-2.84,1.39-2.84,1.39,6.63-4.98,15.57-8.8,23.82-5.84h0Z"/>
      <path class="cls-1" d="m56.88,85.68c-4.37.13-8.84.44-13.08,1.51-2,.56-3.71,2.09-5.53,3.32l-2.73,1.9c-.93.61-1.84,1.24-2.8,1.82.81-.76,1.66-1.47,2.5-2.21,1.54-1.25,3.6-3.06,5.2-4.2,2.73-2.12,6.47-2.29,9.76-2.49,2.24-.09,4.48,0,6.68.35h0Z"/>
      <path class="cls-1" d="m56.56,84.42c-9.32-.83-18.82,3.44-24.35,10.97-.16.22-.61.56-.78.21.19.29.55-.09.65-.29,4.61-8.42,15.13-13.15,24.48-10.89h0Z"/>
      <path class="cls-1" d="m56.91,83.14c-1.9.71-3.88.69-5.81.29-.1,0-.23,0-.27.14-.09-.14.05-.33.18-.41,1.89-.65,3.96-.62,5.9-.03h0Z"/>
      <path class="cls-1" d="m57.01,81.97c-1.59.63-2.92.82-4.62.67,1.23-1.17,3.11-1.43,4.62-.67h0Z"/>
      <path class="cls-1" d="m57.22,80.89c-.91.67-1.49.79-2.59.55.47-1.02,1.75-1.29,2.59-.55h0Z"/>
      <path class="cls-1" d="m57.79,79.58c-1.03.64-1.79.75-2.96.42.69-.99,2.02-1.17,2.96-.42h0Z"/>
      <path class="cls-1" d="m41.99,85.14c-1.9,1.54-4.15,2.58-5.8,4.39-1.58,1.61-2.84,3.57-4.1,5.45-.16.24-.47.07-.32-.08-.06.06.03.14.08.13.13-.02.21-.47.25-.56,1.56-4.85,5.09-7.85,9.88-9.33h0Z"/>
      <path class="cls-1" d="m38.56,85.44c-1.93,2.55-4.56,4.43-5.81,7.45-.25.51-.79,1.69-1.05,2.18-.13.24-.33.5-.6.58.4-.37.35-.95.5-1.47.59-3.98,3.66-6.77,6.96-8.74h0Z"/>
      <path class="cls-1" d="m32.16,103.82c3.33,1.69,1.32,7.13-2.28,6.5-1.87-.61-3.23-2.08-4.08-3.84-1.49-3.73.62-7.47,3.19-10.01.84-.78,1.74-1.88,2.99-1.85-1.21.21-1.88,1.29-2.62,2.18-2.13,2.49-3.95,6.12-2.63,9.3.73,1.57,2.83,4.18,4.8,3.22,2.12-.93,2.63-4.07.64-5.5h0Z"/>
      <path class="cls-1" d="m31.86,93.95c-5.12,1.64-8.46,8.04-5.75,12.93,1.1,2.14,3.89,4.17,6.17,2.54,1.07-.7,2-1.82,2.03-3.12.08-1.23-1.12-2.63-2.54-2.33.66-.28,1.46-.07,2.01.4,2.61,2.23-.35,6.33-3.19,6.53-2.33.07-4.33-1.62-5.38-3.55-2.96-5.24.88-12.43,6.63-13.41h0Z"/>
      <path class="cls-1" d="m32.18,93.15c-4.64.68-8.37,4.77-8.43,9.47-.12,1.52.14,2.93,1.02,4.19.81,1.22,1.97,2.39,3.04,3.41,1.03.98,2.64,1.04,4.03.64,3.18-.79,4.22-5.21,1.04-6.77,1.58.41,2.52,2.21,2.36,3.85-.32,2.63-3.16,4.23-5.64,3.99-1.76-.06-3.01-1.51-4.12-2.68-6.1-5.58-1.12-15.99,6.7-16.11h0Z"/>
      <path class="cls-1" d="m32.42,92.31c-3.3.15-6.28,2.77-8.47,5.02-3.48,5.55.21,14.66,7.35,14.29,3.43-.04,6.28-3.85,3.9-6.87,1.31,1.18,1.46,3.31.62,4.89-1.92,3.32-6.68,3.46-9.62,1.49-4.61-2.84-5.95-9.9-2.85-14.29,2.38-2.24,5.65-4.8,9.07-4.54h0Z"/>
      <path class="cls-1" d="m32.98,90.93c-2.59,1.28-5.66,2.03-8.01,3.63-4.82,3.88-3.29,11.12.64,15.14,1.83,2.11,4.63,4.26,7.52,2.93-5.29,3.09-11.93-5.57-12.16-10.46-.27-3.09.94-6.41,3.55-8.23,2.66-1.58,5.59-2.05,8.47-3.01h0Z"/>
      <path class="cls-1" d="m33.55,90.08c-3.76,1.05-7.05,3.12-10.55,4.91,1.94-2.3,4.68-3.87,7.56-4.66.95-.23,1.99-.53,2.99-.24h0Z"/>
      <path class="cls-1" d="m34.37,89.31c-3.77.94-7.12,2.78-10.68,4.28,2.8-2.69,6.71-4.73,10.68-4.28h0Z"/>
      <path class="cls-1" d="m35.06,88.4c-2.06.64-4.33.03-6.24,1.02-.59.33-1.23.86-2.01.97.59-.49.95-1.08,1.55-1.61,1.89-1.53,4.55-.87,6.7-.38h0Z"/>
      <path class="cls-1" d="m35.4,87.43c.26.07.61.23.86.33-2.25.22-4.26.32-6.54.2,1.76-1.19,4.12-1.28,6.02-.42,0,0-.11.25-.11.25-.08-.11-.16-.23-.23-.36h0Z"/>
      <path class="cls-1" d="m36.68,86.62c-1.89.67-3.57.91-5.57.77,1.59-1.19,3.71-1.48,5.57-.77h0Z"/>
      <path class="cls-1" d="m18.41,92.52c-2.72-1.22-6,.68-3.6,3.38,1.4,1.35,3.71,1.88,5.14.27.38-.35.85-.72,1.31-.96.06-.04.11-.11.08-.16-.02-.05-.18-.08-.17.02-.04-.11.14-.15.22-.08.1.11.03.24-.03.32-1.01.85-1.46,2.19-2.9,2.58-2.32.58-5.19-1-5.41-3.49-.09-2.91,3.48-3.46,5.34-1.89h0Z"/>
      <path class="cls-1" d="m18.14,91.91c-6.03-1.47-5.96,4.92-1.2,6.38,1.15.32,2.43-.14,3.52-.57.15-.04.24-.28.04-.36.23,0,.23.37.04.48-.16.13-.31.2-.47.31-.96.62-2.08,1.11-3.28.9-6.17-1.1-5.47-10.36,1.35-7.15h0Z"/>
      <path class="cls-1" d="m15.29,91.32c-1.96,1.84-3.28,3.59-1.38,6.05.62,1.11,1.31,1.75,2.62,1.86,1.09.15,2.16.33,3.25.15.14-.02.32-.06.34-.23.04.18-.16.31-.3.37-.45.2-.93.32-1.41.4-1.37.09-2.71.32-3.99-.46-.62-.43-1.02-1.03-1.36-1.57-2.06-2.84-.59-5.26,2.23-6.58h0Z"/>
      <path class="cls-1" d="m14.15,91.97c-.83.92-1.4,2.02-1.49,3.13-.11,1.13.52,2,1.32,2.96.71,1.03,1.59,1.4,2.79,1.61,1.21.21,2.37.52,3.59.24-1.09.69-2.49.61-3.69.53-2.13.06-3.66-1.59-4.55-3.39-.89-1.9.35-4.2,2.03-5.08h0Z"/>
      <path class="cls-1" d="m28.76,78.47c-1.09,1.06-2.6,1.93-3.01,3.4-.17.61-.05,1.37.36,1.85.4.5,1.24.55,2.08.56-.79.41-1.81.64-2.6.02-.81-.65-1.04-1.74-.8-2.69.56-1.84,2.32-2.66,3.98-3.14h0Z"/>
      <path class="cls-1" d="m27.84,77.56c-.94,1.12-2.01,2.18-2.32,3.6-.35,1.35.22,2.79,1.63,3.3-1.83.35-3.11-1.93-2.6-3.53.4-1.65,1.78-2.82,3.3-3.36h0Z"/>
      <path class="cls-1" d="m27.04,76.98c-2.19,2.15-2.81,5.45-.5,7.64-3.71-1.17-2.91-6.68.5-7.64h0Z"/>
      <path class="cls-1" d="m26.36,76.22c-.12.93-1.05,1.49-1.36,2.1-.75,1.99.14,4.96,2.25,5.98-2.87,0-4.44-4.19-2.88-6.43.67-.78,1.51-.92,2-1.65h0Z"/>
      <path class="cls-1" d="m24.04,77.47c-.33,3.44.16,5.59,3.69,6.77-4.03.56-5.78-3.67-3.69-6.77h0Z"/>
      <path class="cls-1" d="m22.75,79.5c.31,1.1.48,2.26,1.32,3.01.73.7,1.89.99,3.04,1.53-2.95.71-5.58-1.5-4.36-4.53h0Z"/>
      <path class="cls-1" d="m22.32,81.78c.77,1.96,2.74,2.72,4.7,2.86.3.02.59.11.88,0-1.97,1.76-6.22-.02-5.58-2.87h0Z"/>
      <path class="cls-1" d="m22.85,84.26c2.17.87,4.38.99,6.25-.45-.75,2.67-4.99,2.69-6.25.45h0Z"/>
      <path class="cls-1" d="m29.04,81.89c2.3,3.25-1.67,4.5-4.32,4.46-.38-.02-.86-.2-.97-.58.31.22.63.17.94.09,1.32-.63,3.49-.71,4.24-2.01.24-.5.15-1.23.11-1.96h0Z"/>
      <path class="cls-1" d="m29.46,82.31c2.47,1.95-1.76,5.78-3.94,4.31.64-.04,1.15-.24,1.62-.51,1.25-.87,2.97-2.04,2.32-3.8h0Z"/>
      <path class="cls-1" d="m29.64,82.33c1.63.68,1.4,3.74-.6,3.52.95-1.11.72-2.06.6-3.52h0Z"/>
      <path class="cls-1" d="m44.48,70.36c-8.89,4.14-18.06-3.34-27.14-1.47-1.28.24-2.5.7-3.66,1.35,1.03-.84,2.26-1.42,3.54-1.82,9.2-2.7,18.1,4.8,27.26,1.95h0Z"/>
      <path class="cls-1" d="m45.37,71.06c-4.47,3.53-10.58,1.51-15.49.29-4.46-1.11-9.01-2.06-13.62-1.72-.64.07-1.37.02-1.82.54.37-.6,1.17-.68,1.79-.8,4.62-.89,9.39-.09,13.89,1.01,4.98,1.23,10.42,3.45,15.25.68h0Z"/>
      <path class="cls-1" d="m46.13,72.25c-8.32,5.26-17.99-.37-26.34-2.66-1.24-.32-2.52-.46-3.81-.27,1.25-.41,2.61-.38,3.91-.21,8.61,1.53,17.56,7.13,26.24,3.14h0Z"/>
      <path class="cls-1" d="m47.25,72.91c-7.02,6.07-16.85,1.77-24.14-1.53-1.1-.5-2.22-.93-3.35-1.37,1.19.22,2.35.57,3.52.91,7.59,2.52,16.41,6.81,23.97,1.99h0Z"/>
      <path class="cls-1" d="m48.39,73.98c-3.6,3.17-8.92,3.84-13.54,3.1-3.58-.55-6.79-2.34-9.62-4.5-.94-.69-1.92-1.32-2.98-1.84,1.14.31,2.2.87,3.24,1.43,6.61,4.44,15.82,6.05,22.91,1.81h0Z"/>
      <path class="cls-1" d="m49.63,74.27c-3.09,4.15-9.03,5.19-13.92,4.71-5.19-.53-9.43-4.01-12.85-7.68,1.01.75,1.98,1.54,3,2.26,4.81,3.95,11.2,5.55,17.26,4.01,2.4-.56,4.79-1.47,6.51-3.31h0Z"/>
      <path class="cls-1" d="m50.86,75.38c-1.23,1.66-3.24,2.53-5.08,3.28-2.81,1.14-5.97,2-9.05,1.46-3.09-.5-5.46-2.72-8.36-3.66,3.93.6,7.27,3.47,11.39,2.78,1.94-.17,3.85-.71,5.75-1.31,1.89-.64,3.84-1.17,5.34-2.55h0Z"/>
      <path class="cls-1" d="m52.74,76.02c-5,5.32-16.73,8.07-21.7,1.42,5.72,5.29,15.94,2.6,21.7-1.42h0Z"/>
      <path class="cls-1" d="m54.23,76.36c-4.82,5.27-13.89,8.08-20.02,3.36,6.79,3.27,14.18.72,20.02-3.36h0Z"/>
      <path class="cls-1" d="m22.15,66.93c-3.17.95-6.23,1.19-8.9,3.3,1.58-3.14,5.74-3.81,8.9-3.3h0Z"/>
      <path class="cls-1" d="m20.2,66.04c-.84.11-1.51.53-2.29.84-2.06.85-4.32,1.77-5.27,3.93-.04.05-.08.3-.18.23.07,0,.05-.05.04-.1-.19-3.41,4.86-5.5,7.69-4.9h0Z"/>
      <path class="cls-1" d="m17.94,65.03c-1.93,2.27-5.25,3.13-6.04,6.27-.74-3.46,3.38-5.31,6.04-6.27h0Z"/>
      <path class="cls-1" d="m16.6,64.22c-2.37,1.78-5.78,3.66-5.15,6.98.03,0,.09-.05.04-.09.07.02.05.12,0,.16-.21.13-.34-.2-.4-.33-1.37-3.46,2.45-6.27,5.51-6.72h0Z"/>
      <path class="cls-1" d="m14.93,63.3c-2.2,1.55-3.73,3.61-4.3,6.17-.15.79-.22,1.68.36,2.34l-.12.03c.05-.05.05-.2-.06-.27.16.01.26.23.19.41-.98-.42-1.25-1.66-1.19-2.63.19-2.8,2.36-5.53,5.12-6.06h0Z"/>
      <path class="cls-1" d="m13.3,62.35c-1.79,2.8-4.52,6.09-2.82,9.46-3.21-2.73-.09-7.8,2.82-9.46h0Z"/>
      <path class="cls-1" d="m10.62,62.19c-1.32,2.41-1.8,4.94-1.28,7.56.2.83.37,1.73,1.21,2.17-.48.02-.94-.31-1.25-.68-1.98-2.71-1.34-7.04,1.33-9.05h0Z"/>
      <path class="cls-1" d="m7.32,62.49c.11,3.39.25,7.02,2.84,9.42.05.03.18-.1.08-.18.13.03.12.27-.05.33-3.63-1.22-4.22-6.47-2.87-9.57h0Z"/>
      <path class="cls-1" d="m5.08,63.64c.25,2.74,1.9,4.88,3.61,6.91.61.65,1.12,1.39,2.02,1.65-.47.1-.97-.06-1.4-.28-2.68-1.64-5.26-5-4.23-8.28h0Z"/>
      <path class="cls-1" d="m3.09,65.21c.12.86.66,1.44,1.2,2.04,1.63,1.9,3.34,3.37,5.81,4.24-2.65.32-5.14-1.55-6.43-3.76-.46-.7-.9-1.66-.58-2.52h0Z"/>
      <path class="cls-1" d="m2.13,66.86l-.23.24.02-.11c1.27,1.1,2.38,2.29,3.64,3.22,1.26.93,2.65,1.62,4.32,1.87-3.53,1.05-6.76-2.14-8.12-5.08.03,0,.33-.13.37-.14h0Z"/>
      <path class="cls-1" d="m1.11,68.36c2.58,2.22,5.38,3.43,8.77,3.79-3.24,1.17-7.4-.63-8.77-3.79h0Z"/>
      <path class="cls-1" d="m.5,69.87c2.98,1.41,5.77,2.22,9.04,2.63-3.13,1.04-6.96-.08-9.04-2.63H.5Z"/>
      <path class="cls-1" d="m.6,71.94c3.13.75,6.3,1.31,9.49.41-2.51,2.26-7.03,1.66-9.49-.41h0Z"/>
      <path class="cls-1" d="m.77,73.91c2.26-.46,4.44.3,6.64-.42,0,0,2.2-.63,2.2-.63-1.15,1.12-2.61,1.94-4.29,1.97-1.61-.11-3.05-.39-4.55-.92h0Z"/>
      <path class="cls-1" d="m1.49,75.9c2.94-.5,5.29-2.34,8.3-2.68-1.19.95-2.51,1.61-3.85,2.2-1.35.56-3.01,1.08-4.45.48h0Z"/>
      <path class="cls-1" d="m9.29,73.38c-.9,2.75-4.21,4.58-7.02,3.88,2.75-.81,4.87-1.97,7.02-3.88h0Z"/>
      <path class="cls-1" d="m8.78,74.11c-.07-.09.13-.22.23-.06.1.31-.14.54-.23.82-1.11,2.15-3.42,3.78-5.88,3.82,1.17-.76,2.24-1.43,3.26-2.22.88-.66,1.78-1.48,2.6-2.23.06-.05.1-.09.11-.13.06-.02-.1-.09-.09,0h0Z"/>
      <path class="cls-1" d="m8.64,74.34c.28,2.5-1.76,5.12-4.25,5.44,1.84-1.68,3.07-3.25,4.25-5.44h0Z"/>
      <path class="cls-1" d="m8.68,74.82c1.15,1.51-.15,6.42-2.41,6.05.57-.27.8-.73,1.01-1.21.55-1.59,1.21-3.1,1.4-4.84h0Z"/>
      <path class="cls-1" d="m9.03,76.71c.91,1.72.23,4.97-2.15,4.87,1.59-1.28,1.5-3.02,2.15-4.87h0Z"/>
      <path class="cls-1" d="m9.98,78.01c.82,1.16.49,3.05-.75,3.82-.41.28-1.1.34-1.43-.05.48-.04.71-.29.94-.55.71-.97.88-1.96,1.24-3.21h0Z"/>
      <path class="cls-1" d="m9.9,78.25c1.93.84,1.77,4.19-.59,4.06,1.28-1.19,1.01-2.41.59-4.06h0Z"/>
      <path class="cls-1" d="m11.2,79.18c1.1.64.96,2.39,0,3.09-.3.31-1.18.37-1.11-.24.15.13.31.06.37,0,.55-.91.7-1.65.75-2.84h0Z"/>
      <path class="cls-1" d="m12.46,79.84c1.48.91-.02,3.43-1.52,2.57.92-.69,1.36-1.43,1.52-2.57h0Z"/>
      <path class="cls-1" d="m13.39,80.31c.95.83-.06,2.6-1.26,2.19.51-1.05.61-1.22,1.26-2.19h0Z"/>
      <path class="cls-1" d="m14.5,80.88c.8.79-.39,2.19-1.3,1.51.52-.9.49-.86,1.3-1.51h0Z"/>
      <path class="cls-1" d="m15.56,80.51c.54.96-.49,2.15-1.52,1.74.46-.98.61-1.15,1.52-1.74h0Z"/>
      <path class="cls-1" d="m16.01,80.85c.33,1.2-1.16,2.32-2.21,1.65.86-.86,1.15-1.07,2.21-1.65h0Z"/>
      <path class="cls-1" d="m5.34,39.36c.9,3.67,3.39,6.56,5.89,9.28,2.53,2.75,5.02,5.48,8.02,7.64,3.69,2.74,7.79,5.12,11.72,7.5,2.46,1.32,5.05,2.35,7.74,3.1-3.68-.61-7.3-1.94-10.51-3.87-4.91-2.71-9.87-5.6-13.82-9.66-3.63-4.14-8.16-8.31-9.05-13.99h0Z"/>
      <path class="cls-1" d="m4.66,41.74c5.42,9.21,13.78,16.31,23.07,21.45,3.06,1.78,6.36,3.13,9.93,3.56-1.79-.02-3.57-.32-5.31-.81-11.7-4.24-22.37-12.81-27.69-24.2h0Z"/>
      <path class="cls-1" d="m5.85,46.17c6.63,8.55,15.35,15.49,25.39,19.58,1.42.56,2.95.93,4.5.67-1.5.49-3.16.22-4.66-.2-10.41-3.41-19.6-10.65-25.24-20.04h0Z"/>
      <path class="cls-1" d="m8.81,51.47c2.67,3.23,5.9,5.49,9.43,7.67,3.47,2.06,6.42,5.28,10.5,6.07-4.24,0-7.6-3.2-11.06-5.24-3.48-2.16-6.89-4.83-8.88-8.5h0Z"/>
      <path class="cls-1" d="m5.15,38.21c.73.55.84,1.09.38,1.88-.85-.37-1.01-1.21-.38-1.88h0Z"/>
      <path class="cls-1" d="m5.5,36.91c5.4,12.97,16.58,22.6,29.13,28.44,0,0,1.27.59,1.27.59.29.09.64.44.93.26.06-.07-.02-.27-.14-.2.11-.09.23.11.17.22-.08.12-.24.11-.35.08-13.89-4.61-26.59-15.1-31.01-29.39h0Z"/>
      <path class="cls-1" d="m7.55,38.21c4.54,11.4,14.44,19.55,24.84,25.52,1.49.9,3.02,1.73,4.53,2.59-1.61-.66-3.19-1.41-4.76-2.16-10.83-5.33-21.22-13.94-24.6-25.95h0Z"/>
      <path class="cls-1" d="m9.89,39.64c2.11,5.36,5.02,10.07,9.12,14.14-4.98-2.92-8.4-8.45-9.12-14.14h0Z"/>
      <path class="cls-1" d="m5.15,36.63c2.65.3,5.11,2.1,6.19,4.53-2.19-1.55-4.05-2.92-6.19-4.53h0Z"/>
      <path class="cls-1" d="m5.57,35.33c2.67.82,4.95,2.87,6.03,5.45-2.21-1.75-4.07-3.43-6.03-5.45h0Z"/>
      <path class="cls-1" d="m5.76,34.23c2.8.96,5.05,3.54,5.6,6.45-1.86-2.32-3.56-4.29-5.6-6.45h0Z"/>
      <path class="cls-1" d="m6.86,32.96c2.88,1.52,4.86,3.94,4.42,7.36-.61-1.34-1-2.7-1.8-3.9-.71-1.28-1.97-2.11-2.62-3.45h0Z"/>
      <path class="cls-1" d="m7.9,31.78c1.59.74,2.23,2.56,2.91,4.05.6,1.55,1.04,3.35.52,4.98-.29-1.64-.83-3.09-1.45-4.61-.66-1.49-.96-3.09-1.98-4.42h0Z"/>
      <path class="cls-1" d="m9.39,31.13c1.67,2.45,2.84,5.69,1.97,8.63-.05.11-.12.41-.27.41-.04.03-.17,0-.11-.07,0,.1.15-.06.12-.09-.12-3.06-1.27-5.83-1.7-8.88h0Z"/>
      <path class="cls-1" d="m10.55,30.23c.59.71.75,1.66,1.03,2.52.69,2.6,1.05,5.48.03,8.06-.19-3.6-.72-7.02-1.06-10.58h0Z"/>
      <path class="cls-1" d="m10.97,30.87c4.53-2.23,10.75-2.63,14.48,1.41,1.8,1.94,2.75,5.1,1.22,7.49-1.5,2.52-5.54,2.61-6.23-.49.92,2.6,4.46,2.37,5.57.09,2.2-4.77-3.17-9.18-7.68-9.4-2.47-.26-4.97.24-7.36.91h0Z"/>
      <path class="cls-1" d="m11.39,31.72c2.96-1.7,6.92-1.64,10.23-1.03,3.43,1.13,6.29,5.4,4.09,8.79-1.25,2.23-4.98,2.36-5.95-.11,1.2,1.98,4.33,1.73,5.3-.28,1.64-2.98-.9-6.44-3.74-7.49-3.13-.66-6.81-1.01-9.93.13h0Z"/>
      <path class="cls-1" d="m11.07,32.92c2.95-.83,6.09-2.37,9.19-1.34,1.5.58,3.24.98,4.21,2.39.84,1.45,1.23,3.17.84,4.82-.93,2.35-3.86,2.25-5.69,1.26.99.23,2.03.42,2.97.18,2.4-.6,2.25-2.54,1.65-4.45-.47-2.09-2.54-2.6-4.28-3.29-2.89-1.07-5.94.23-8.9.44h0Z"/>
      <path class="cls-1" d="m11.71,33.91c2.92-1.71,6.19-1.78,9.35-.71.78.24,1.62.68,2.2,1.34,1.01,1.32,2.09,2.87,1.61,4.61-.3.77-1.2,1.47-2.01,1.11.81.1,1.43-.6,1.54-1.26.13-.68-.15-1.38-.52-2.02-.75-1.29-1.61-2.46-3.12-2.84-3.02-1.06-5.95-1.15-9.04-.25h0Z"/>
      <path class="cls-1" d="m11.58,34.69c3.3-1.16,9.4-3.08,11.68.74.46.91,1.23,1.91.92,2.99-.12.35-.43.66-.78.67.32-.13.48-.44.52-.74.04-.3-.06-.59-.21-.86-.64-1-1.37-2.27-2.44-2.81-3.06-1.09-6.41-.15-9.69,0h0Z"/>
      <path class="cls-1" d="m11.84,35.61c.88-1.3,2.46-1.91,3.99-1.53-1.24.98-2.41,1.42-3.99,1.53h0Z"/>
      <path class="cls-1" d="m11.94,36.85c.74-1.98,2.81-3.39,4.93-3.34-1.68,1.3-3.09,2.25-4.93,3.34h0Z"/>
      <path class="cls-1" d="m68.71,40.84c1.08,2.04.45,4.83-1.3,6.35-.57.49-1.62.87-2.23.28,2.45.15,3.51-4.7,3.53-6.63h0Z"/>
      <path class="cls-1" d="m70.15,41.41c1.44,1.91.04,4.47-1.35,5.99-.45.53-1.23,1.17-1.97.91.71-.2.99-.8,1.34-1.36.98-1.77,2.22-3.35,1.98-5.53h0Z"/>
      <path class="cls-1" d="m71.83,42.33c1.36,2.71-.98,6.51-4.02,6.51,2.44-1.54,3.74-3.64,4.02-6.51h0Z"/>
      <path class="cls-1" d="m73.37,43.05c.21,0,.38.22.44.42.48,2.21-.98,4.55-2.96,5.5-.72.36-1.53.54-2.32.46,2.55-1.15,4.44-3.22,5-5.92.01-.17,0-.35-.17-.47h0Z"/>
      <path class="cls-1" d="m74.93,44.29c.63,1.41-.17,3-.74,4.31-.64,1.25-2.3,2.73-3.71,2.27.15.05.13.03,0,.06,1.2-.64,2.22-1.54,2.84-2.81.55-1.23,1.45-2.45,1.62-3.84h0Z"/>
      <path class="cls-1" d="m76.62,44.84c.66,3.02-1.53,6.5-4.54,7.21,2.27-2.04,3.68-4.28,4.54-7.21h0Z"/>
      <path class="cls-1" d="m77.76,46.12c.54,2.61-1.33,7.06-4.41,6.93,2.55-1.42,3.36-4.32,4.41-6.93h0Z"/>
      <path class="cls-1" d="m79.61,47.15c.24,2.73-1.34,5.53-3.67,6.94-.44.27-.99.38-1.5.29.37-.28.82-.71.39-.01,0,0-.1-.19-.1-.19,2.43-1.56,3.73-4.4,4.89-7.03h0Z"/>
      <path class="cls-1" d="m81.4,48.79c.04,2.99-1.89,6.94-5.32,6.79,2.89-1.28,3.94-4.23,5.32-6.79h0Z"/>
      <path class="cls-1" d="m82.89,49.68c-.2,3.23-2.33,6.31-5.21,7.75,0,0-.03-.17-.03-.17.06.05.23.04.3-.09,0,.25-.27.34-.52.25,2.21-2.41,3.9-4.85,5.46-7.73h0Z"/>
      <path class="cls-1" d="m84.12,51.2c.26,3.41-2.68,6.76-6.06,7.07.24-.18.57-.46.87-.42-.15.07-.27.19-.35.32l-.12-.19c2.67-1.63,4.48-3.86,5.66-6.77h0Z"/>
      <path class="cls-1" d="m85.47,52.6c.18,2.82-1.9,5.63-4.56,6.53-.4.16-1,.32-1.46,0,.4-.24.75-.48.3.07,0,0-.04-.19-.04-.19,2.67-1.03,4.6-3.79,5.75-6.41h0Z"/>
      <path class="cls-1" d="m86.58,54.01c-.14,3.03-2.95,5.8-5.98,5.94.05-.05.18-.19.23-.25l-.04.21-.07-.08c2.52-1.5,4.33-3.31,5.86-5.82h0Z"/>
      <path class="cls-1" d="m87.63,55.69c-.44,2.8-3.04,5.41-5.89,5.63-.06-.01-.13-.14-.06-.2.03-.04.15-.05.13.02-.01-.06-.06,0-.07.02,2.31-1.38,4.17-3.3,5.89-5.48h0Z"/>
      <path class="cls-1" d="m70.72,14.83c5.01.55,9.5,3.17,13.79,5.62,4.32,2.48,8.57,5.14,12.49,8.29,5.78,4.84,10.65,10.69,14.42,17.2,1.18,2.21,2.1,4.63,2.18,7.13-.31-2.48-1.31-4.79-2.61-6.89-3.99-6.22-8.91-11.98-14.62-16.67-3.8-3.16-8.03-5.79-12.25-8.41-4.21-2.6-8.47-5.31-13.4-6.28h0Z"/>
      <path class="cls-1" d="m68.1,16.44c12.61,2.66,23.89,9.81,32.68,19.12,1.8,1.8,3.63,3.7,4.91,5.96,2.53,4.46,4.92,8.95,7.28,13.48-1.36-2.16-2.67-4.35-4-6.53-2.59-4.38-4.96-8.85-8.83-12.27-8.86-9.14-19.75-16.21-32.04-19.77h0Z"/>
    </g>
  </g>
</svg>