<?xml version="1.0" encoding="UTF-8"?>
<svg id="Layer_2" data-name="Layer 2" xmlns="http://www.w3.org/2000/svg" viewBox="0 0 132.84 98.06">
  <defs>
    <style>
      .cls-1 {
        fill: #a37d2d;
        stroke-width: 0px;
      }
    </style>
  </defs>
  <g id="Layer_1-2" data-name="Layer 1">
    <g>
      <path class="cls-1" d="m48.13,37.3c1.12,3.22-.09,6.83.58,10.04.27,1.68,1.24,2.83,2.35,4.1,1.17,1.33,1.84,3.13,1.77,4.84-.52-2.75-2.58-4.15-4.22-6.17-2.6-3.95-.22-8.56-.49-12.81h0Z"/>
      <path class="cls-1" d="m48.71,49.69c.88,3.32.32,7.24,2.64,9.98,1.04,1.36,2.41,2.52,3.59,3.94,1.17,1.38,2.17,3.15,2.1,4.99-.39-1.78-1.55-3.15-2.77-4.38-5.92-5.07-5.93-6.96-5.56-14.53h0Z"/>
      <path class="cls-1" d="m59.83,73.63c1.42,2.22,2.67,6.49,5.93,5.91.1,0,.57,0,.67,0,3.25.65,4.59-3.59,6.07-5.77-.54,1.56-.83,3.15-1.71,4.59-.93,1.52-2.69,2.75-4.58,2.31.44.04-.4,0-.4.01-1.27.43-3.64-.87-4.39-2.44-.84-1.46-1.1-3.06-1.6-4.63h0Z"/>
      <path class="cls-1" d="m85.23,35.76c-.17.02.03-.33.15-.04.05.25-.04.83-.04,1.09-.48,4.28,1.27,8.77-.59,12.89-1.49,2.54-4.3,3.77-4.86,6.91-.01-.96.23-1.92.62-2.83.72-1.76,2.51-2.9,3.25-4.56,1.55-3.93-.02-8.41,1.28-12.46,0,0,.18-.69.18-.69.02-.14.16-.36.01-.41-.03,0-.08.12,0,.11h0Z"/>
      <path class="cls-1" d="m84.18,50.11c.2,7.6.13,9.46-5.9,14.39-1.25,1.21-2.44,2.54-2.87,4.32-.03-1.85,1.02-3.59,2.22-4.94,1.21-1.4,2.61-2.52,3.68-3.86,2.38-2.68,1.91-6.61,2.88-9.91h0Z"/>
      <path class="cls-1" d="m74.45,55.61c-1.24,4.27.72,8.43,1.22,12.66.31,2.84-1.67,5.88-4.34,6.91-1.48.64-3.48-.86-4.66-.3-.97.2-1.64-.29-2.46-.07-1.32.43-3.03.71-4.25-.24-1.84-1.4-3.26-3.44-3.22-5.81.2-2.23,1.15-4.07,1.21-6.28.19-2.09-.06-4.21-.64-6.26.83,1.97,1.21,4.12,1.21,6.29.08,2.09-.79,4.26-.88,6.27.1,2.19,1.94,4.9,4.15,5.32.98.1,2.08-.6,3.12-.49.62.05,1.1.19,1.49.15l-.16.04c1.14-.53,2.42.07,3.46.32.9.24,1.75-.06,2.52-.67,4.07-3.14,2.13-7.17,1.63-11.45-.21-2.13-.28-4.4.59-6.4h0Z"/>
      <path class="cls-1" d="m60.05,65.34c.2.84.3,1.66.58,2.34.6,1.5,2.39,1.91,3.31,3.29.53.71.89,1.54.97,2.4-.53-.68-1.06-1.27-1.64-1.79-2.44-1.82-4.45-2.69-3.22-6.24h0Z"/>
      <path class="cls-1" d="m66.88,73.23c0-3.53,5.05-4.36,4.89-7.93.53.7.5,1.75.17,2.58-1,2.47-3.81,3.14-5.06,5.36h0Z"/>
      <path class="cls-1" d="m60.32,65.15c2.38.09,4.99,1.7,5.5,4.12-.03.26-.3.08-.17.02-1.48-1.32-3.62-2.62-5.34-4.14h0Z"/>
      <path class="cls-1" d="m65.76,69.36c.14-.65.63-1.17,1.05-1.59,1.32-1.29,3.07-2.45,5.03-2.21-1.76,1.22-4.2,2.83-6.08,3.8h0Z"/>
      <path class="cls-1" d="m60.26,64.8c-.09-1.7,1.75-3.16,3.45-2.8.69.21.88.66,1.3.98-.55.13-1.12-.16-1.42-.08-1.27.25-2.35.99-3.34,1.9h0Z"/>
      <path class="cls-1" d="m71.91,65.2c-1.02-.95-1.76-1.52-2.91-1.97-.35-.1-.69-.22-1.16-.04.09-.54.72-.85,1.23-.86,1.52-.09,3.07,1.31,2.83,2.87h0Z"/>
      <path class="cls-1" d="m60.65,67.58c1.31-1.04,3.78.23,3.41,1.94-1.25-.91-2.15-1.22-3.41-1.94h0Z"/>
      <path class="cls-1" d="m67.91,69.73c-.13-1.63,1.84-3.18,3.35-2.52.11.07.21.27.1.36-.12-.17-.3,0-.39.06-1.09.76-1.86,1.32-3.07,2.11h0Z"/>
      <path class="cls-1" d="m76.59,51.08c2.11-1.69,2.49-5.31,5.53-6.04,1.01-.21,1.84.02,2.74-.22-.69.69-1.77.77-2.48,1.09-2.38,1.06-3.01,4.64-5.79,5.17h0Z"/>
      <path class="cls-1" d="m78.76,49.33c1.79.59,3.15.06,3.48-1.85.07-.55.16-1.14-.03-1.76.31.15.52.47.66.78,1.35,2.78-2.13,5.63-4.12,2.83h0Z"/>
      <path class="cls-1" d="m77.34,49.56c.32-.65.16-1.31.42-2.07.21-.74.63-1.41,1.16-1.96.98-.97,3-2.01,4.14-.79-.72-.18-1.28.13-1.83.44-1.1.66-1.99,1.55-2.64,2.66-.35.55-.58,1.42-1.25,1.73h0Z"/>
      <path class="cls-1" d="m74.38,52.24c.75-2.83.28-5.97,2.1-8.52,1.62-2.58,5.09-4,7.98-2.98-4.56-.09-7.73,3.25-8.59,7.4-.34,1.35-.6,2.9-1.49,4.1h0Z"/>
      <path class="cls-1" d="m48.16,44.81c1.83-.64,3.84.52,5.07,1.83,1.31,1.26,1.9,3.03,3.27,4.18-.47,0-.92-.26-1.3-.54-2.36-1.89-3.84-4.89-7.04-5.46h0Z"/>
      <path class="cls-1" d="m49.32,44.15c1.04-1.07,2.93-.85,3.99.14,1.24.98.67,2.54,1.78,3.49-.75.09-1.36-.67-1.63-1.25-.73-1.73-2.29-2.54-4.14-2.37h0Z"/>
      <path class="cls-1" d="m50.39,45.52c.08,2.09,1.08,4.19,3.28,3.52.11-.07.33-.12.24-.21.1-.05.15.13.09.22-.6,1.34-2.55,1.24-3.48.24-.96-1.06-.96-2.7-.13-3.77h0Z"/>
      <path class="cls-1" d="m48.29,42.35c1.09-1.33,3.26-2.23,5.01-1.5,2.17,1.33,3.54,3.75,4.18,6.15.39,1.4.26,2.77.58,4.11-.78-1.19-.93-2.64-1.44-3.84-.72-1.84-1.76-3.53-3.12-4.96-.44-.48-.84-.74-1.45-.82-1.23-.15-2.57.15-3.76.86h0Z"/>
      <path class="cls-1" d="m84.98,42.2c1.78-.76,2.86-2.33,4.18-3.71,3.76-4.15,9.54-8,15.35-6.24-5.86-.35-10.63,3.17-14.72,6.89-1.39,1.23-2.89,2.76-4.81,3.06h0Z"/>
      <path class="cls-1" d="m85.38,43.75c1.73-1.03,3.98-.42,5.83-.73,2.82-.46,5.19-2.41,7.34-4.23,2.22-1.89,4.55-3.77,5.64-6.59-.54,4.61-8.23,11.49-12.88,11.72-2.13.17-3.98-.76-5.93-.16h0Z"/>
      <path class="cls-1" d="m89.82,33.03c3.58-3.82,10.18-4.42,14.5-1.47.09.04.48.4.58.32.07.01-.09-.14-.09-.04-.04-.11.23-.08.16.09-.16.24-.6-.05-.8-.09-4.73-1.68-9.89-1.22-14.36,1.18h0Z"/>
      <path class="cls-1" d="m27.86,31.74c1.98.88,3.32,2.76,4.54,4.43,2.31,3.44,5.93,5.72,10.08,5.97,1.03.08,2.16.12,3.21.58,1,.46,1.93,1.39,1.91,2.5-.66-2.26-3.18-2.23-5.15-2.18-3.28.08-6.61-1.35-8.86-3.75-2.22-2.33-3.12-5.59-5.72-7.55h0Z"/>
      <path class="cls-1" d="m27.84,31.65c7.78-1.12,11.02.46,15.97,6.32,1.27,1.17,2.73,2.62,4.47,2.85.07-.03.04-.26-.1-.21.13-.08.27.14.16.27-.11.12-.28.12-.4.1-1.79-.24-3.4-1.2-4.74-2.35-1.57-1.29-2.84-2.86-4.32-4.04-3.05-2.5-7.22-2.58-11.03-2.95h0Z"/>
      <path class="cls-1" d="m27.96,31.76c3.17-2.33,7.38-2.07,11.08-1.53,1.22.26,2.65.62,3.41,1.7-.53-.36-1.11-.51-1.71-.61-1.2-.26-4.25-.22-5.51-.28-2.49-.12-4.85.04-7.28.72h0Z"/>
      <path class="cls-1" d="m61.93,22.85c1.92-1.66,5.3.62,4.46,3.02-1.11-1.9-2.28-2.69-4.46-3.02h0Z"/>
      <path class="cls-1" d="m65.88,24.16c.54-2.08,4-2.99,5.19-1.02.05.12.19.28.08.41-1.6-.94-3.66-.11-5.27.6h0Z"/>
      <path class="cls-1" d="m48.19,48.63c.02-.46.05-.56.07-.58.02.02.04.12.05.58-.02.46-.05.56-.07.58-.02-.02-.04-.12-.05-.58,0,0,.01.46,0,0Z"/>
      <path class="cls-1" d="m48.21,48.62c.47.96.26,2.14-.05,3.12-.96,2.97-2.62,6.11-5.65,7.4l.04-.83c1.01.7,2.66.66,3.77-.35-.71,1.36-2.71,1.99-4.26,1.15l-.74-.4c3-1.36,4.7-4.39,6.14-7.26.44-.89.85-1.8.74-2.84h0Z"/>
      <path class="cls-1" d="m44.08,59.1c-.3,1.3-.65,2.58-.42,3.74.24,1.18.83,2.39,1.4,3.46.66,1.78,2.65,2.91,3.34,4.78.25.65.35,1.39.13,2.03-.19-2.1-2.01-3.13-3.33-4.52-1.32-1.57-2.21-3.59-2.43-5.64-.08-1.48.59-2.75,1.31-3.84h0Z"/>
      <path class="cls-1" d="m46.09,60.31c-.45,3.6,3.02,5.3,4.42,8.3.83,1.51.37,3.36.66,4.9.31,1.46,1.17,2.87,2.49,3.85-1.54-.58-2.84-1.94-3.36-3.62-.54-1.58-.05-3.19-.84-4.64-1.25-2.59-4.88-5.47-3.37-8.79h0Z"/>
      <path class="cls-1" d="m48.65,73.11c.13-1.55.52-2.47,1.55-3.63.59,1.43-.12,3.07-1.55,3.63h0Z"/>
      <path class="cls-1" d="m57.62,81.91c-3.88-1.78-4.71-5.44-3.89-9.32.17-1.14.41-2.24-.01-3.37.87.9.94,2.31.91,3.46-.03,2.24-.26,4.54.88,6.51.54.95,1.36,1.8,2.1,2.73h0Z"/>
      <path class="cls-1" d="m57.39,76.09c-.1,4.11,1.61,7.74,4.45,10.64,1.32,1.5,2.77,3.11,3.46,5.17.69,2.06.49,4.16.21,6.16-.17-2.02-.31-4.07-1.06-5.84-1.17-2.7-3.76-4.65-5.41-7.15-1.74-2.59-2.4-5.97-1.65-8.97h0Z"/>
      <path class="cls-1" d="m73.34,75.99c1.6,2.64,1.33,6.35-.55,8.86-1.97,2.26-4.05,4.21-4.91,7.19-.62,1.84-1,3.8-1.25,5.79-.2-2-.13-4.06.38-6.05.57-3.06,2.84-5.46,4.92-7.61,1.8-2.27,2.3-5.35,1.42-8.19h0Z"/>
      <path class="cls-1" d="m76.94,71.48c3.1,3.01,1.31,7.41-1.46,9.92-.82.87-1.63,1.68-2.38,2.64.32-1.18.99-2.25,1.68-3.22,2.21-2.68,3.86-5.95,2.16-9.34h0Z"/>
      <path class="cls-1" d="m80.55,69.14c-.17.18.14.35.27.54,1.51,1.88,1.21,4.83-.49,6.51-1.04,1.04-2.45,1.51-3.02,2.96-.15-1.03.57-2.02,1.25-2.7,2.07-1.75,2.81-4.45,1.85-6.97-.03-.11-.04-.35.13-.34h0Z"/>
      <path class="cls-1" d="m84.6,55.72c4.4,1.27,5.22,7.08,3.26,10.7-1.24,2.9-3.83,4.74-5.43,7.3-.46.84-.67,1.85-.41,2.83-.52-.9-.45-2.06-.12-3.06,1.19-2.8,3.75-4.81,4.9-7.57,1.76-3.38,1.43-8.19-2.21-10.2h0Z"/>
      <path class="cls-1" d="m80.58,75.22c1,.44,1.02.46,1.31,1.52-.98.53-1.98-.63-1.31-1.52h0Z"/>
      <path class="cls-1" d="m84.25,51.66c1.58,1.58,2.8,3.57,4.99,4.14,0,0,1.01.26,1.01.26-.98.9-2.41,1.67-3.69,1.2.95-.26,1.73-.72,2.28-1.34l.26.85c-2.65-.26-4.29-2.77-4.84-5.12h0Z"/>
      <g>
        <path class="cls-1" d="m79.16,31.67c.47-3.22-3.71-3.41-5.67-4.75-.58-.35-1.15-.72-1.62-1.23-.97-1.05-.88-2.59-.74-3.92.1-.65.37-1.44,1.09-1.74,5.02-8.92,14.49-16.77,25.09-18.6,3.96-.75,8.13-.7,12.11-.09,6.6,1.63,12.54,5.61,16.74,10.95,6.85,8.7,7.59,20.46,5.96,31.01-1.22,7.9-3.65,16.27-9.62,21.99-4.52,4.37-11.17,5.78-17.25,4.8-3.52-.9-5.84-4.09-7.16-7.27-1.65-3.82-1.4-8.23-.28-12.14.71-2.68,2.17-5.03,3.55-7.32,1.43-2.28,3.12-4.55,5.54-6.01,1.23-.73,2.98-1.61,4.29-.38.7.59.57,1.8.07,2.42-3.8,5.87-8.6,18.54-.38,22.7,5.03,2.6,10.35-1.19,13.28-5.27,6.51-8.64,7.63-19.95,7.58-30.47.09,5.34-.05,10.72-1.06,15.99-1.58,7.68-4.89,16.17-12.09,20.21-5.16,2.87-11.96-.44-12.83-6.29-.53-2.74-.02-5.52.71-8.1.92-3.18,2.01-6.53,3.99-9.28.34-.53.38-.91.05-1.23-.86-.78-2.2.02-3.09.54-2.19,1.33-3.81,3.47-5.19,5.7-3.56,5.38-5.72,12.33-3.13,18.51,1.17,2.83,3.28,5.76,6.34,6.59,3.21.44,6.57.37,9.66-.64,5.04-1.56,8.89-5.56,11.32-10.14,2.48-4.64,3.84-9.84,4.64-15.07,1.62-10.32.98-21.74-5.67-30.25-3.99-5.15-9.77-9.13-16.11-10.75-3.88-.63-7.96-.72-11.83-.02-10.58,1.81-19.61,9.15-25.11,18.16-.59.22-.86.89-.96,1.53-.94,4.29,2.66,5.32,5.85,6.68,1.17.54,2.33,1.8,1.95,3.18h0Z"/>
        <path class="cls-1" d="m79.32,31.9c1.38-1.44,3.17.3,3.83,1.61.73,1.4,2.08,2.4,3.65,1.76,1.44-.48,2.36-1.83,3.29-3.11.95-1.3,1.97-2.56,3.07-3.74,4.33-4.93,11.71-8.78,17.48-3.67,6.69,7.11,7.05,19.07,3.27,27.65-1.2,2.86-3.9,5.94-7.31,5.3,3.38.35,5.75-2.65,6.79-5.52,3.27-8.24,2.81-19.94-3.52-26.56-5.28-4.74-11.9-.96-16.07,3.42-2.7,2.15-5.11,8.52-9.35,6.54-1.47-.91-1.64-2.8-2.98-3.76-.61-.43-1.59-.54-2.15.08h0Z"/>
        <path class="cls-1" d="m79.18,31.67c1.22-2.85,3.14-5.33,4.85-7.89,3.56-5.06,7.44-10.1,12.71-13.53,8.6-5.75,18.52-5.36,26,2.01,4.69,4,8.5,9.48,9.17,15.74-1.13-6.14-4.94-11.26-9.74-15.1-7.48-6.87-16.43-7.14-24.86-1.77-5.14,3.32-9.13,8.14-12.82,12.98-1.87,2.45-3.85,4.83-5.31,7.55h0Z"/>
        <path class="cls-1" d="m72.23,20.31c-.55,2.24.73,4.72,2.94,5.37,1.56.51,3.72.68,4.72,2.32.32.52.48,1.18.27,1.74.08-.59-.14-1.15-.5-1.58-1.15-1.44-2.99-1.36-4.67-1.93-2.4-.68-3.81-3.68-2.75-5.92h0Z"/>
        <path class="cls-1" d="m73.11,18.94c-.47,2.3.72,4.74,2.87,5.65,1.44.68,3.97.29,4.81,2.12.25.58.32,1.18.35,1.78-.16-.57-.29-1.16-.6-1.64-1.06-1.63-3.13-.92-4.79-1.72-2.32-.96-3.61-3.86-2.64-6.18h0Z"/>
        <path class="cls-1" d="m74.04,17.34c.11,2.21.73,5.03,2.72,6.2,1.49.77,3.84.52,5.01,2.08.37.51.58,1.2.36,1.78.09-.61-.18-1.19-.58-1.6-1.35-1.37-3.35-.86-5.06-1.74-2.22-1.29-2.78-4.37-2.45-6.72h0Z"/>
        <path class="cls-1" d="m75.08,16.1c.06,2.2.5,4.85,2.63,5.9,1.49.72,3.61.38,5.04,1.49.47.38.87,1.01.68,1.6.04-.61-.38-1.09-.85-1.37-1.58-.93-3.41-.38-5.13-1.2-2.36-1.17-2.79-4.11-2.38-6.42h0Z"/>
        <path class="cls-1" d="m76.01,14.96c1.29,5.02.63,5.35,6,6.65,1.09.37,2.22,1.19,2.41,2.38-.43-1.09-1.49-1.67-2.54-1.95-5.24-.88-5.53-1.98-5.87-7.07h0Z"/>
        <path class="cls-1" d="m77.14,13.91c.06,1.56.46,3.33,1.48,4.52,1.72,1.32,4.19,1.36,6,2.59.46.36.81.95.67,1.51,0-.57-.38-1.03-.83-1.28-1.97-1-4.52-.93-6.24-2.45-1.08-1.34-1.36-3.25-1.09-4.9h0Z"/>
        <path class="cls-1" d="m78.18,12.63c.32,1.97.56,4.66,2.58,5.56,1.49.72,3.3.7,4.71,1.64.44.38.76.99.58,1.55.04-.57-.31-1.05-.75-1.32-1.47-.72-3.27-.6-4.78-1.34-2.24-.99-2.47-3.95-2.33-6.08h0Z"/>
        <path class="cls-1" d="m79.23,11.47c.62,1.96-.11,5.08,2.3,5.87,1.51.53,3.77.06,4.97,1.51.39.47.62,1.12.42,1.69.07-.59-.21-1.13-.62-1.5-1.37-1.25-3.23-.55-4.95-1.16-2.71-.85-1.97-4.23-2.11-6.42h0Z"/>
        <path class="cls-1" d="m80.52,10.35c-.21,2.01-.3,4.76,1.92,5.59,1.45.59,3.49.31,4.79,1.48.43.39.76.94.77,1.51-.14-.55-.49-.99-.94-1.29-1.45-.99-3.18-.5-4.83-1.16-2.48-.91-2.43-4.06-1.71-6.13h0Z"/>
        <path class="cls-1" d="m81.97,8.93c-.91,4.34-.26,6.17,4.37,6.77,1.08.3,2.35.97,2.53,2.18,0,0,.02.11.02.11-.04-.05-.2-.25-.25-.3,0,0,.22.18.22.18-1.12-2.23-3.97-1.45-5.99-2.52-2.31-1.35-1.8-4.39-.91-6.41h0Z"/>
        <path class="cls-1" d="m83.42,8.03c-1.1,6.75.88,4.78,5.65,7.35.45.33.8.93.62,1.48.04-.55-.34-1.01-.78-1.24-4.92-1.81-7.69-1.2-5.49-7.59h0Z"/>
        <path class="cls-1" d="m85.23,6.79c-.83,3.53-.32,5.99,3.62,6.7.52.12,1.05.27,1.51.59.44.33.79.83.78,1.36-.13-.51-.5-.9-.94-1.12-1.44-.63-3.15-.39-4.45-1.52-1.91-1.47-1.37-4.14-.53-6.02h0Z"/>
        <path class="cls-1" d="m86.97,5.61c-.04,1.84-.98,4.25.7,5.57,1.14.96,2.85.98,4.18,1.69.47.27.78.98.41,1.41.23-.49-.12-1-.55-1.16-5.25-1.1-6.52-2.02-4.74-7.5h0Z"/>
        <path class="cls-1" d="m88.74,5.09c-.45,3.06-.25,5.39,3.2,6.17.44.17.92.38,1.23.79.29.4.42.98.13,1.38.16-.45-.04-.9-.35-1.19-1.08-.88-2.7-.57-3.78-1.69-1.5-1.47-1.1-3.73-.44-5.46h0Z"/>
        <path class="cls-1" d="m90.56,3.89c-.01.92-.08,1.84-.16,2.75-.07.91-.27,1.85.35,2.35.53.45,1.7.88,2.35,1.23.74.37,2.09.91,1.71,1.99,0,0-.03.08-.03.08-.08-.11-.12-.26-.08-.39-.03.21.19.29.03.29.1-1.02-1.09-1.22-1.83-1.53,0,0-1.27-.52-1.27-.52-.89-.29-1.98-1.07-1.86-2.15.12-1.42.46-2.72.79-4.09h0Z"/>
        <path class="cls-1" d="m92.02,3.33c.25,1.53-.48,3.78.77,4.86.61.46,1.59.48,2.42,1.03.87.57,1.07,1.81.52,2.57-.08.12-.35-.18-.2-.36-.06.14.06.28.17.28l-.05.03c.34-.8,0-1.77-.69-2.12-.69-.41-1.65-.37-2.5-.97-1.56-1.33-.6-3.62-.43-5.33h0Z"/>
        <path class="cls-1" d="m93.6,2.92c-.36,1.45-.81,3.37.58,4.34.9.69,2.54.8,3.16,1.98.19.36.11,1.12-.42,1.06.22-.02.31-.24.33-.41-.25-1.52-2.34-1.27-3.41-2.16-1.64-1.15-1.1-3.39-.24-4.81h0Z"/>
        <path class="cls-1" d="m94.97,2.67c.05,1.06-.5,2.41.25,3.28,1.3.84,2.95,1.68,3.41,3.33.13.46-.41,1.01-.79.73.42.11.68-.37.52-.67-1.86-3.28-5.32-1.64-3.39-6.67h0Z"/>
        <path class="cls-1" d="m96.11,2.16c-.17,1.04-.23,2.23.18,3.17.14.25.4.41.73.54,1.33.4,2.69,1.66,2.72,3.15-.12.24-.27-.1-.14-.05-.09-.02.05.17.05.03-.45-1.3-1.55-2.17-2.86-2.59-.35-.15-.78-.39-.99-.82-.43-1.14-.21-2.39.3-3.43h0Z"/>
        <path class="cls-1" d="m97.71,1.81c-1.64,3.54,3.3,3.5,2.96,6.54-.02.17-.16.43-.36.36.19-.01.22-.23.21-.38-.09-1.27-1.27-1.88-2.2-2.62-1.4-1.01-1.76-2.53-.61-3.9h0Z"/>
        <path class="cls-1" d="m99.29,1.55c-.12.64-.25,1.29-.07,1.84.4,1.21,1.69,1.87,2.21,3.08.29.6.38,1.43-.07,1.96.39-1.34-.71-2.27-1.55-3.16-.44-.48-.9-1.05-1.02-1.78-.12-.73.16-1.39.5-1.94h0Z"/>
        <path class="cls-1" d="m100.73,1.58c-.3,1.87,1.4,2.99,2.06,4.59.22.55.31,1.32-.16,1.76.41-1.18-.63-2.05-1.23-2.95-.68-.9-1.34-2.31-.66-3.39h0Z"/>
        <path class="cls-1" d="m102.55,1.23c-1.25,2.19,1.96,3.7,1.6,5.89-.41-1.78-3.74-3.98-1.6-5.89h0Z"/>
        <path class="cls-1" d="m103.95,1.49c-.16.98-.18,1.87.38,2.7.47.81,1.26,1.78.99,2.8-.2-1-.96-1.6-1.49-2.5-.6-.88-.51-2.15.12-3h0Z"/>
        <path class="cls-1" d="m105.58,1.6c-.84.68-.47,1.75.1,2.48.56.76,1.42,1.87.91,2.88.02-1.66-2-2.39-1.93-4.11.02-.56.36-1.18.92-1.26h0Z"/>
        <path class="cls-1" d="m107.22,1.7c-1.76,1.29.39,3.1.55,4.64.02.12-.02.32-.17.33.17-.17-.05-.4-.16-.59-.38-.62-.86-1.12-1.17-1.83-.48-.86-.22-2.47.95-2.55h0Z"/>
        <path class="cls-1" d="m108.84,1.94c-.97.2-.95,1.31-.5,2,.42.74,1.22,1.72.81,2.66-.08-1-.84-1.53-1.31-2.38-.62-.87-.24-2.57,1-2.28h0Z"/>
        <path class="cls-1" d="m110.39,2.21c-1.21,1.03-.22,1.98.15,3.13.11.43.06.99-.33,1.25.31-.86-.34-1.41-.71-2.15-.5-.77-.1-2.11.88-2.23h0Z"/>
        <path class="cls-1" d="m112.22,2.79c-1.74.51-.08,1.96-.11,3.09.02.47-.38,1.09-.9.95.4-.12.54-.55.45-.92-.2-.79-1-1.58-.67-2.53.16-.51.75-.74,1.22-.59h0Z"/>
        <path class="cls-1" d="m113.38,3.37c-.34.16-.52.46-.61.75-.19,1.02.02,2.05-.03,3.13-.71-1.02-1.19-3.85.63-3.88h0Z"/>
        <path class="cls-1" d="m113.73,7.32c-.63-1.08-.26-3.23,1.3-3.12-1.15.76-1,1.9-1.3,3.12h0Z"/>
        <path class="cls-1" d="m114.72,7.69c-.76-1.17.4-3.03,1.78-2.86-1.05.73-1.6,1.59-1.78,2.86h0Z"/>
        <path class="cls-1" d="m115.52,8.05c-.43-1.22.9-2.68,2.16-2.36-1.05.6-1.66,1.25-2.16,2.36h0Z"/>
        <path class="cls-1" d="m116.5,8.3c.16-1.2,1.52-2.12,2.7-1.81-1.06.56-1.78,1.04-2.7,1.81h0Z"/>
        <path class="cls-1" d="m117.56,9.03c.33-1.15,1.6-1.97,2.78-1.79-1.02.64-1.78,1.13-2.78,1.79h0Z"/>
        <path class="cls-1" d="m118.69,9.37c.37-.98,1.42-1.63,2.46-1.52-.81.67-1.5,1.09-2.46,1.52h0Z"/>
        <path class="cls-1" d="m119.38,10.2c.8-.61,1.7-1.41,2.78-1.04-.97.44-1.66,1.17-2.78,1.04h0Z"/>
        <path class="cls-1" d="m120.44,10.92c.7-.75,1.77-1,2.75-.79.08.03.21.09.22.24-.03.15-.22.15-.21.05-.47.07-1.92.49-2.76.5h0Z"/>
        <path class="cls-1" d="m121.82,11.63c.71-.69,1.84-.83,2.69-.31-.95.29-1.7.38-2.69.31h0Z"/>
        <path class="cls-1" d="m122.4,12.61c.85-.62,1.9-.81,2.92-.5-.94.49-1.87.64-2.92.5h0Z"/>
        <path class="cls-1" d="m123.32,13.17c.91-.36,1.75-.39,2.69-.11-.83.51-1.82.54-2.69.11h0Z"/>
        <path class="cls-1" d="m124.01,14.15c.74-.46,1.53-.52,2.33-.19-.74.46-1.53.52-2.33.19h0Z"/>
        <path class="cls-1" d="m125.05,14.95c.61-.47,1.29-.55,1.99-.23-.61.47-1.29.54-1.99.23h0Z"/>
        <path class="cls-1" d="m125.85,15.74c.43-.48.96-.58,1.53-.28-.43.48-.96.58-1.53.28h0Z"/>
        <path class="cls-1" d="m126.66,16.81c.38-.48.87-.58,1.42-.29-.38.48-.87.58-1.42.29h0Z"/>
        <path class="cls-1" d="m127.48,17.55c.37-.45.99-.42,1.29.08-.52.28-.81.26-1.29-.08h0Z"/>
        <path class="cls-1" d="m128.05,18.6c.27-.39.56-.39.82,0-.27.39-.56.39-.82,0h0Z"/>
        <path class="cls-1" d="m128.85,19.66c.23-.39.48-.39.7,0-.23.39-.48.39-.7,0h0Z"/>
        <path class="cls-1" d="m131.73,34.19c.49.22.61.59.34,1.05-.49-.22-.61-.59-.34-1.05h0Z"/>
        <path class="cls-1" d="m131.47,35.59c.7.34,1.01,1.16.7,1.88-.5-.6-.68-1.1-.7-1.88h0Z"/>
        <path class="cls-1" d="m131.28,37.25c.65.54.84,1.44.47,2.2-.43-.73-.56-1.36-.47-2.2h0Z"/>
        <path class="cls-1" d="m130.99,39.07c.88.37,1.27,1.57.76,2.37-.34-.89-.52-1.46-.76-2.37h0Z"/>
        <path class="cls-1" d="m130.83,40.49c.72.56,1.02,1.48.77,2.35-.54-.74-.76-1.44-.77-2.35h0Z"/>
        <path class="cls-1" d="m130.69,41.9c.78.48,1.13,1.49.8,2.35-.48-.79-.69-1.43-.8-2.35h0Z"/>
        <path class="cls-1" d="m130.54,43.08c.72.48.98,1.44.6,2.22-.43-.76-.59-1.35-.6-2.22h0Z"/>
        <path class="cls-1" d="m130.08,44.46c.79.73,1.07,1.92.69,2.93-.43-1-.62-1.84-.69-2.93h0Z"/>
        <path class="cls-1" d="m129.75,46.31c.75.62,1.02,1.7.65,2.6-.44-.88-.62-1.62-.65-2.6h0Z"/>
        <path class="cls-1" d="m129.09,47.74c.86.56,1.16,1.81.64,2.69-.31-.98-.47-1.68-.64-2.69h0Z"/>
        <path class="cls-1" d="m128.95,48.66c.52,1,.65,2.06.38,3.15-.52-1-.64-2.06-.38-3.15h0Z"/>
        <path class="cls-1" d="m131.83,32.31c.48.44.57.98.27,1.56-.48-.44-.57-.98-.27-1.56h0Z"/>
        <path class="cls-1" d="m110.03,37.21c.45.68.44,1.33,1.23,1.61-.95.67-1.74-.83-1.23-1.61h0Z"/>
        <path class="cls-1" d="m109.23,36.95c.48.94.46,1.8,1.51,2.26-1.25.5-1.99-1.31-1.51-2.26h0Z"/>
        <path class="cls-1" d="m108.38,37.24c.14,1.18.54,2.67,1.9,2.71-1.48.97-2.77-1.56-1.9-2.71h0Z"/>
        <path class="cls-1" d="m107.63,37.74c-.66.79.83,3.46,1.96,3.13-1.17.85-2.55-.92-2.48-2.06.02-.37.04-1.03.52-1.07h0Z"/>
        <path class="cls-1" d="m106.2,38.7c.69,1.49,1.13,2.85,2.78,3.23,0,0-.06-.1-.06-.1.03.02.13.07.15.08-1.86.78-3.12-1.65-2.88-3.2h0Z"/>
        <path class="cls-1" d="m105.43,39.37c-.09.39.31.86.44,1.21.54,1.13,1.25,2.31,2.7,2.29-1.43.77-2.87-.81-3.11-2.14-.06-.39-.34-1.03-.02-1.37h0Z"/>
        <path class="cls-1" d="m104.35,40.43c.75,1.65,1.86,4.03,4,3.09-.7.94-2.24.65-2.95-.16-.78-.82-1.01-1.92-1.06-2.93h0Z"/>
        <path class="cls-1" d="m103.29,41.54c.82.64,1.07,1.87,1.89,2.45.69.51,1.69.57,2.54.7.12.04.31,0,.16-.06.07-.08.17.1.06.15-1.02.26-2.17.32-3.1-.32-.99-.74-1.03-1.92-1.55-2.92h0Z"/>
        <path class="cls-1" d="m102.37,42.88c.77.78,1.25,1.93,2.2,2.47.91.51,2.05.61,3.13.16-.84.86-2.34.97-3.42.34-1.1-.65-1.47-1.86-1.91-2.97h0Z"/>
        <path class="cls-1" d="m101.47,44.24c1.53,1.52,3.43,2.3,5.58,2.3-2.02.89-4.77-.25-5.58-2.3h0Z"/>
        <path class="cls-1" d="m100.77,45.55c1.17,1.53,3.04,1.71,4.79,1.88.52.05,1.04.15,1.51-.11.08-.02.05-.12,0-.04-.04-.03.05-.1.09-.03-.19.59-1.1.59-1.61.63-1.79.14-4.18-.38-4.78-2.32h0Z"/>
        <path class="cls-1" d="m100.2,46.79c-.08.03-.03.13.02.18.13.2.29.39.47.55,1.13,1.14,2.8,1.42,4.34,1.52.62.04,1.23-.13,1.77-.53-1.53,2.03-5.97.86-6.66-1.5-.03-.06-.05-.23.06-.22h0Z"/>
        <path class="cls-1" d="m99.2,48.16c1.97,1.63,4.32,2.37,6.87,2.2-2.37,1.04-5.55.02-6.87-2.2h0Z"/>
        <path class="cls-1" d="m98.6,49.79c2.21,1.92,4.95,2.09,7.51,1.56,0,0-.31-.04-.31-.04.13-.03.41-.08.54-.11-2.34,1.75-6.18,1.06-7.74-1.41h0Z"/>
        <path class="cls-1" d="m98.17,51.71c2.33,1.47,5.11,1.81,7.71.89l.03.1-.35-.04c.14-.03.45-.09.59-.11-2.31,1.78-6.09,1.41-7.97-.84h0Z"/>
        <path class="cls-1" d="m97.72,53.41c1.17.86,2.59.82,3.98.85,1.41.01,2.79.1,4.11-.43l.02.09-.31-.06c.1-.01.38-.04.47-.05-1.79,1.46-6.82,1.56-8.28-.4h0Z"/>
        <path class="cls-1" d="m97.47,54.71c1.17.5,2.97.63,4.23.83,1.4.19,2.84.21,4.1-.59-1.81,2.11-6.31,1.18-8.33-.24h0Z"/>
        <path class="cls-1" d="m97.58,55.85c1.35.58,2.77.63,4.21.7,1.55.09,3.05.11,4.5-.53-.13.11-.4.34-.53.45l.22-.33.07.09c-.61.43-1.32.7-2.06.84-2.16.14-4.61.18-6.4-1.22h0Z"/>
        <path class="cls-1" d="m97.5,57.12c2.82,1.11,5.81,1.08,8.66.18-2.53,1.7-6.22,1.69-8.66-.18h0Z"/>
        <path class="cls-1" d="m97.41,58.59c1.5.76,2.88,1.01,4.52.53,1.57-.3,3.13-.55,4.67-1.02l.04.11c-.15.04-.31.07-.46.1.14-.07.28-.15.42-.22l.04.11c-1.42.81-3.03,1.21-4.61,1.48-.77.12-1.63.34-2.48.1-.83-.22-1.51-.69-2.14-1.19h0Z"/>
        <path class="cls-1" d="m97.76,60.05c3.07,1.42,6.3.11,9.18-1.11.2-.11-.04-.14.01-.06-.06-.04.06-.12.11-.04.03.07-.03.13-.07.17-2.55,1.88-6.49,3.25-9.23,1.04h0Z"/>
        <path class="cls-1" d="m98.09,61.68c3.24.58,6.44,0,9.27-1.68-2.3,2.37-6.28,3.09-9.27,1.68h0Z"/>
        <path class="cls-1" d="m98.56,63.27c.27-.42.87-.1,1.25-.09,2.56.35,5-.84,7.34-1.73.4-.15.78-.34,1.09-.65-.47.79-1.38,1.11-2.11,1.53-1.55.81-3.28,1.46-5.07,1.35-.45-.03-.89-.1-1.32-.22-.42-.1-.83-.47-1.19-.18h0Z"/>
        <path class="cls-1" d="m99.69,64.53c2.59.39,5-.51,7.25-1.7.75-.37,1.52-.77,1.9-1.56-.15.9-.97,1.51-1.68,1.95-2.14,1.44-4.99,2.35-7.47,1.31h0Z"/>
        <path class="cls-1" d="m100.36,66.07c2.76.35,5.12-1.1,7.35-2.5.76-.47,1.53-.91,2.12-1.6-.4.83-1.17,1.43-1.87,1.97-2.08,1.63-4.94,3.15-7.61,2.13h0Z"/>
        <path class="cls-1" d="m101.51,67.5c3.7-.74,7.03-2.45,9.76-5.05-.05.24-.21.51-.47.5.17-.04.28-.18.3-.32l.1.05c-2.2,2.99-5.97,4.9-9.69,4.83h0Z"/>
        <path class="cls-1" d="m103.28,68.78c3.14-1.54,5.93-3.42,8.55-5.73-2,2.85-5.15,4.96-8.55,5.73h0Z"/>
        <path class="cls-1" d="m104.58,69.34c2.87-1.92,5.9-3.44,8.21-6.06-1.65,3.12-5.02,4.89-8.21,6.06h0Z"/>
        <path class="cls-1" d="m105.92,69.74c3.07-1.39,5.61-3.45,7.61-6.16-1.27,3.12-4.3,5.57-7.61,6.16h0Z"/>
        <path class="cls-1" d="m114.36,63.24c1.48,2.33-3.56,5.45-5.34,6.27-.13.06-.26.14-.44.06-.06-.03.02.08,0,.04,1.15-.75,2.45-1.86,3.53-2.77,1.01-.99,2.73-1.94,2.25-3.59h0Z"/>
        <path class="cls-1" d="m115.45,63.46c.02-.11.18-.09.26-.04.25.17.28.52.33.8.08,2-1.79,3.24-3.04,4.51-.48.4-.96,1.01-1.66.97-.07.01-.2.04-.15.14-.09-.23.27-.27.39-.31.47-.23.74-.73,1.1-1.11.87-1.1,2.1-2.01,2.78-3.22.24-.5.47-1.19.19-1.7-.05-.06-.15-.12-.2-.03h0Z"/>
        <path class="cls-1" d="m116.64,63.13c1.43.59.91,2.59.17,3.53-.73,1.08-1.75,1.98-2.95,2.46.95-.86,1.79-1.75,2.47-2.78.66-.95,1.33-2.25.31-3.21h0Z"/>
        <path class="cls-1" d="m117.59,62.96c1.98.28,1.07,3.27.07,4.22-.38.4-.83.73-1.34.92.76-.76,1.33-1.59,1.66-2.53.28-.86.65-2.1-.39-2.61h0Z"/>
        <path class="cls-1" d="m118.41,62.53c2.29.66,1.21,4.51-.55,5.28,1-1.39,2.09-3.99.55-5.28h0Z"/>
        <path class="cls-1" d="m119.12,62.06c1.94.43,2.05,3.74.52,4.72.46-.8.49-1.64.45-2.48-.07-.83-.22-1.68-.97-2.23h0Z"/>
        <path class="cls-1" d="m120.37,61.43c-.01-.09-.06,0,.02.04l.23.21c1.08,1.01,1.6,3.11.24,4.09.69-1.48.03-2.88-.6-4.22-.02-.05-.05-.14,0-.21.11-.09.18.09.1.08h0Z"/>
        <path class="cls-1" d="m121.01,60.83c1.44.73,2.19,3.23.9,4.4.45-1.5-.13-3.05-.9-4.4h0Z"/>
        <path class="cls-1" d="m121.65,60.21c1.4.69,2.01,2.71,1.22,4.06-.07-1.53-.43-2.74-1.22-4.06h0Z"/>
        <path class="cls-1" d="m122.5,59.72c1.2.54,1.88,2.15,1.39,3.39-.1.17-.27.36-.47.35.15-.12.19-.27.2-.43-.03-1.21-.49-2.24-1.12-3.3h0Z"/>
        <path class="cls-1" d="m123.09,58.48c1.44.41,2.15,2.47,1.26,3.68,0-1.43-.38-2.55-1.26-3.68h0Z"/>
        <path class="cls-1" d="m123.69,57.96c1.54.21,2.3,2.45,1.2,3.55.19-1.42-.18-2.54-1.2-3.55h0Z"/>
        <path class="cls-1" d="m124.15,57.61c1.29.13,2.09,1.94,1.3,2.98-.13-1.22-.49-2.06-1.3-2.98h0Z"/>
        <path class="cls-1" d="m124.4,56.88c1.31.37,2.49,2.31,1.29,3.42.3-1.43-.54-2.29-1.29-3.42h0Z"/>
        <path class="cls-1" d="m125.14,56c.88.74,2.38,2.6.92,3.46.61-1.25-.79-2.2-.92-3.46h0Z"/>
        <path class="cls-1" d="m125.72,55.23c1.16.31,2.19,2.34,1.25,3.28.06-1.2-.63-2.23-1.25-3.28h0Z"/>
        <path class="cls-1" d="m126.07,54.5c1.17.44,1.8,2.02,1.23,3.14-.3-1.2-.63-2.05-1.23-3.14h0Z"/>
        <path class="cls-1" d="m126.67,53.68c1.13.43,1.7,1.97,1.12,3.03-.29-1.16-.58-1.97-1.12-3.03h0Z"/>
        <path class="cls-1" d="m127.09,52.89c1.02.49,1.62,1.71,1.37,2.82-.57-.98-.95-1.76-1.37-2.82h0Z"/>
        <path class="cls-1" d="m127.55,51.89c.99.6,1.83,2.01,1.13,3.12-.17-1.22-.78-1.95-1.13-3.12h0Z"/>
        <path class="cls-1" d="m127.71,51.26c.65.55,2.25,2.54,1,3.1.17-.26.12-.52.02-.73-.43-.71-.9-1.49-1.02-2.37h0Z"/>
        <path class="cls-1" d="m128.08,50.31c.83.72,1.22,1.83,1.01,2.91-.59-.94-.89-1.82-1.01-2.91h0Z"/>
      </g>
      <g>
        <path class="cls-1" d="m53.74,31.37c-.46-3.22,3.76-3.42,5.72-4.73.57-.34,1.15-.7,1.59-1.19.93-.99.85-2.49.72-3.75-.09-.63-.34-1.31-.92-1.55C55.57,11.01,46.71,3.46,36.18,1.4c-3.85-.79-7.93-.8-11.83-.26-6.37,1.47-12.25,5.32-16.36,10.37C1.15,19.86.23,31.25,1.61,41.61c.68,5.25,1.91,10.48,4.29,15.18,3.42,7.28,10.62,12.09,18.77,11.43,5.39.21,8.76-5.54,9.53-10.28.77-5.25-.99-10.42-3.78-14.89-1.64-2.76-3.68-5.54-6.72-6.64-.56-.17-1.07-.11-1.42.21-.33.31-.3.69.02,1.23,1.91,2.8,2.92,6.17,3.77,9.37.67,2.6,1.12,5.39.52,8.11-1,5.82-7.89,8.98-12.97,5.98-7.1-4.21-10.2-12.78-11.61-20.49-.88-5.3-.9-10.68-.68-16.01-.3,10.51.55,21.84,6.85,30.64,2.83,4.15,8.05,8.07,13.15,5.58,8.3-3.95,3.82-16.75.16-22.7-.49-.64-.59-1.85.12-2.42,1.34-1.21,3.06-.27,4.28.48,2.38,1.52,4.03,3.83,5.4,6.14,1.32,2.32,2.72,4.7,3.37,7.4,1.03,3.93,1.17,8.35-.57,12.13-1.39,3.15-3.79,6.28-7.33,7.1-6.1.83-12.72-.73-17.14-5.21C3.79,58.1,1.57,49.68.53,41.75-.85,31.17.17,19.43,7.22,10.89,11.55,5.65,17.59,1.81,24.22.34c3.99-.52,8.16-.47,12.1.37,10.55,2.08,19.84,10.16,24.64,19.19.72.32.97,1.11,1.05,1.76.11,1.33.16,2.88-.83,3.9-.48.5-1.06.85-1.65,1.19-1.98,1.29-6.19,1.39-5.79,4.62h0Z"/>
        <path class="cls-1" d="m53.58,31.6c-.55-.63-1.53-.54-2.15-.13-1.37.92-1.58,2.81-3.07,3.68-4.27,1.88-6.54-4.55-9.19-6.76-4.06-4.48-10.59-8.42-15.98-3.8-6.49,6.48-7.23,18.15-4.15,26.47.97,2.89,3.27,5.95,6.65,5.68-3.42.56-6.05-2.58-7.18-5.47-3.58-8.66-2.94-20.62,3.92-27.56,5.89-4.97,13.18-.95,17.39,4.08,1.08,1.21,2.06,2.49,2.98,3.81.89,1.3,1.79,2.67,3.21,3.19,1.55.68,2.94-.29,3.69-1.67.68-1.29,2.53-3,3.87-1.52h0Z"/>
        <path class="cls-1" d="m53.72,31.36c-1.39-2.76-3.32-5.18-5.13-7.67-3.57-4.93-7.45-9.84-12.5-13.28-8.3-5.57-17.26-5.51-24.9,1.18C6.3,15.31,2.36,20.33,1.09,26.45c.82-6.25,4.76-11.63,9.55-15.52C21.42.79,35.03,5.46,43.55,15.88c3.84,4.84,7.55,9.88,10.17,15.48h0Z"/>
        <path class="cls-1" d="m60.94,20.17c1.01,2.27-.48,5.23-2.89,5.85-1.69.53-3.54.41-4.72,1.82-.37.42-.6.97-.54,1.57-.2-.57-.03-1.22.31-1.74,1.03-1.61,3.2-1.73,4.77-2.2,2.23-.6,3.56-3.05,3.06-5.3h0Z"/>
        <path class="cls-1" d="m60.09,18.79c.92,2.34-.44,5.21-2.78,6.12-1.68.76-3.73,0-4.83,1.61-.32.47-.47,1.06-.64,1.63.05-.59.13-1.19.39-1.77.88-1.82,3.4-1.35,4.85-2.01,2.17-.86,3.42-3.26,3-5.58h0Z"/>
        <path class="cls-1" d="m59.2,17.16c.27,2.36-.37,5.42-2.61,6.66-1.73.84-3.72.28-5.1,1.62-.41.4-.69.98-.62,1.59-.21-.59.02-1.27.4-1.78,1.2-1.52,3.55-1.22,5.06-1.96,2.01-1.13,2.7-3.92,2.86-6.14h0Z"/>
        <path class="cls-1" d="m58.19,15.9c.35,2.32-.15,5.25-2.53,6.37-1.74.78-3.55.18-5.15,1.07-.47.27-.91.75-.88,1.35-.17-.6.24-1.22.72-1.59,1.46-1.07,3.56-.68,5.07-1.37,2.15-1,2.66-3.64,2.77-5.84h0Z"/>
        <path class="cls-1" d="m57.28,14.74c-.46,5.09-.78,6.18-6.04,6.93-1.05.25-2.13.81-2.59,1.89.22-1.18,1.36-1.98,2.46-2.32,5.41-1.17,4.76-1.53,6.16-6.5h0Z"/>
        <path class="cls-1" d="m56.18,13.66c.23,1.65-.1,3.56-1.2,4.87-1.75,1.48-4.3,1.34-6.3,2.3-.46.24-.84.69-.86,1.26-.12-.57.24-1.15.71-1.5,1.85-1.19,4.31-1.17,6.06-2.44,1.05-1.17,1.49-2.92,1.59-4.49h0Z"/>
        <path class="cls-1" d="m55.17,12.36c.09,2.14-.22,5.09-2.48,6.03-1.53.7-3.33.54-4.81,1.23-.44.26-.81.74-.78,1.3-.16-.56.17-1.17.62-1.53,1.43-.91,3.24-.84,4.75-1.53,2.04-.85,2.34-3.53,2.71-5.49h0Z"/>
        <path class="cls-1" d="m54.15,11.18c-.19,2.18.46,5.58-2.26,6.37-1.74.57-3.58-.18-4.98,1.04-.42.36-.71.89-.66,1.48-.19-.57.06-1.22.46-1.68,1.24-1.43,3.49-.9,5.01-1.39,2.42-.74,1.77-3.87,2.43-5.82h0Z"/>
        <path class="cls-1" d="m52.89,10.02c.67,2.09.64,5.24-1.85,6.09-1.66.62-3.39.1-4.86,1.05-.46.28-.82.72-.97,1.26.02-.57.36-1.11.8-1.49,1.34-1.14,3.36-.81,4.83-1.37,2.24-.78,2.21-3.53,2.06-5.55h0Z"/>
        <path class="cls-1" d="m51.47,8.57c.85,2.04,1.28,5.09-1.06,6.39-2.04,1.03-4.88.18-6.05,2.38,0,0,.23-.18.23-.18-.04.05-.22.25-.25.3,0,0,.02-.11.02-.11.21-1.21,1.5-1.85,2.58-2.12,4.64-.48,5.34-2.31,4.53-6.66h0Z"/>
        <path class="cls-1" d="m50.04,7.63c2.05,6.44-.73,5.76-5.67,7.45-.45.22-.83.67-.81,1.22-.17-.55.2-1.14.66-1.46,4.82-2.44,6.77-.47,5.82-7.21h0Z"/>
        <path class="cls-1" d="m48.27,6.35c.79,1.9,1.27,4.59-.67,6.01-1.32,1.1-3.03.82-4.48,1.41-.44.21-.82.59-.96,1.1.01-.54.37-1.03.82-1.34.46-.31,1-.45,1.52-.56,3.96-.61,4.53-3.07,3.78-6.61h0Z"/>
        <path class="cls-1" d="m46.55,5.13c1.65,5.54.35,6.41-4.92,7.39-.43.15-.79.65-.58,1.14-.36-.44-.03-1.14.44-1.4,1.35-.68,3.06-.66,4.22-1.59,1.71-1.28.83-3.71.83-5.55h0Z"/>
        <path class="cls-1" d="m44.79,4.56c.62,1.74.97,4.02-.57,5.45-1.11,1.1-2.72.74-3.82,1.6-.31.28-.52.73-.38,1.18-.28-.4-.13-.98.16-1.37.33-.41.81-.61,1.25-.77,3.47-.7,3.73-3.03,3.35-6.09h0Z"/>
        <path class="cls-1" d="m43,3.33c.3,1.38.61,2.69.7,4.11.08,1.09-1.02,1.83-1.91,2.11,0,0-1.28.49-1.28.49-.75.3-1.94.47-1.86,1.49-.15,0,.06-.08.04-.29.04.13,0,.28-.09.39,0,0-.03-.08-.03-.08-.35-1.09,1.01-1.59,1.76-1.95.66-.33,1.84-.73,2.38-1.17.63-.48.46-1.43.41-2.34-.06-.91-.11-1.83-.1-2.75h0Z"/>
        <path class="cls-1" d="m41.56,2.73c.13,1.71,1.03,4.03-.56,5.31-.87.58-1.83.52-2.52.91-.71.33-1.06,1.29-.74,2.1l-.05-.03c.1,0,.23-.14.17-.28.14.18-.13.47-.21.35-.53-.77-.29-2.01.58-2.56.84-.53,1.82-.52,2.44-.97,1.28-1.06.6-3.32.89-4.84h0Z"/>
        <path class="cls-1" d="m39.99,2.29c.82,1.44,1.3,3.7-.36,4.8-1.09.87-3.18.56-3.46,2.08.01.18.1.4.32.42-.53.04-.59-.72-.39-1.07.65-1.17,2.28-1.24,3.2-1.9,1.42-.94,1.01-2.87.68-4.32h0Z"/>
        <path class="cls-1" d="m38.63,2c1.81,5.08-1.61,3.35-3.55,6.59-.17.29.08.78.5.68-.39.27-.91-.29-.78-.75.51-1.63,2.17-2.43,3.49-3.24.77-.85.25-2.22.33-3.28h0Z"/>
        <path class="cls-1" d="m37.5,1.46c.61,1.28.93,3.68-.79,4.23-1.33.39-2.45,1.23-2.92,2.52,0,.03.01.07.04.05.02-.01.08-.09.01-.08.13-.05-.02.29-.14.05.06-1.48,1.45-2.71,2.79-3.08.33-.12.6-.28.75-.52.43-.93.4-2.12.26-3.17h0Z"/>
        <path class="cls-1" d="m35.91,1.08c1.12,1.4.72,2.9-.7,3.89-.94.72-2.14,1.3-2.26,2.57-.01.15.01.37.2.38-.21.06-.34-.2-.35-.37-.27-3.04,4.66-2.89,3.11-6.46h0Z"/>
        <path class="cls-1" d="m34.34.78c.33.56.59,1.22.46,1.95-.13.72-.61,1.29-1.06,1.76-.86.88-1.99,1.78-1.63,3.13-.44-.54-.33-1.36-.03-1.96.55-1.2,1.85-1.83,2.28-3.03.19-.55.08-1.2-.03-1.84h0Z"/>
        <path class="cls-1" d="m32.89.78c.65,1.1-.04,2.49-.74,3.38-.63.89-1.68,1.73-1.3,2.92-.46-.45-.35-1.22-.12-1.77.69-1.58,2.42-2.66,2.17-4.54h0Z"/>
        <path class="cls-1" d="m31.08.38c2.09,1.96-1.28,4.07-1.74,5.85-.31-2.19,2.94-3.63,1.74-5.85h0Z"/>
        <path class="cls-1" d="m29.67.61c.61.86.66,2.13.04,3-.55.89-1.32,1.47-1.55,2.47-.25-1.03.57-1.97,1.06-2.77.58-.83.59-1.71.45-2.69h0Z"/>
        <path class="cls-1" d="m28.05.68c.55.09.88.72.89,1.28.03,1.71-2.01,2.39-2.02,4.06-.48-1.02.4-2.11.98-2.86.58-.72.98-1.78.16-2.48h0Z"/>
        <path class="cls-1" d="m26.4.74c1.17.12,1.38,1.73.89,2.57-.32.7-.82,1.18-1.21,1.8-.11.19-.34.41-.17.58-.15,0-.18-.21-.16-.33.2-1.53,2.39-3.3.66-4.63h0Z"/>
        <path class="cls-1" d="m24.78.94c1.25-.26,1.59,1.45.95,2.3-.49.84-1.26,1.34-1.37,2.34-.39-.94.43-1.91.87-2.64.47-.68.51-1.78-.45-2.01h0Z"/>
        <path class="cls-1" d="m23.22,1.18c.98.14,1.35,1.49.83,2.25-.38.74-1.05,1.27-.76,2.13-.38-.26-.41-.83-.3-1.26.4-1.14,1.41-2.07.23-3.13h0Z"/>
        <path class="cls-1" d="m21.37,1.71c1.28-.3,1.53,1.22.99,2.05-.27.56-.69,1.02-.49,1.61.06.18.19.34.4.4-.52.12-.91-.5-.88-.97,0-1.12,1.69-2.54-.03-3.09h0Z"/>
        <path class="cls-1" d="m20.2,2.26c1.82.08,1.28,2.89.54,3.89-.02-1.08.21-2.11.05-3.13-.08-.29-.25-.59-.59-.76h0Z"/>
        <path class="cls-1" d="m19.76,6.21c-.27-1.23-.09-2.36-1.23-3.15,1.57-.07,1.88,2.09,1.23,3.15h0Z"/>
        <path class="cls-1" d="m18.76,6.55c-.16-1.27-.68-2.15-1.71-2.9,1.39-.14,2.5,1.75,1.71,2.9h0Z"/>
        <path class="cls-1" d="m17.95,6.89c-.47-1.12-1.06-1.79-2.1-2.41,1.26-.29,2.55,1.2,2.1,2.41h0Z"/>
        <path class="cls-1" d="m16.97,7.12c-.9-.8-1.61-1.29-2.65-1.88,1.18-.28,2.52.67,2.65,1.88h0Z"/>
        <path class="cls-1" d="m15.89,7.82c-.99-.68-1.74-1.19-2.74-1.85,1.19-.16,2.44.69,2.74,1.85h0Z"/>
        <path class="cls-1" d="m14.75,8.14c-.95-.45-1.63-.88-2.43-1.57,1.05-.09,2.08.58,2.43,1.57h0Z"/>
        <path class="cls-1" d="m14.04,8.94c-1.12.1-1.8-.65-2.76-1.1,1.1-.34,1.97.48,2.76,1.1h0Z"/>
        <path class="cls-1" d="m12.97,9.64c-.83-.02-2.28-.48-2.74-.56,0,.1-.19.1-.21-.05,0-.16.14-.21.22-.24.99-.18,2.05.09,2.73.85h0Z"/>
        <path class="cls-1" d="m11.57,10.32c-1,.04-1.74-.06-2.68-.38.86-.5,1.99-.33,2.68.38h0Z"/>
        <path class="cls-1" d="m10.96,11.29c-1.05.12-1.97-.06-2.9-.57,1.02-.28,2.07-.08,2.9.57h0Z"/>
        <path class="cls-1" d="m10.03,11.82c-.88.41-1.86.35-2.68-.17.94-.26,1.78-.21,2.68.17h0Z"/>
        <path class="cls-1" d="m9.32,12.79c-.81.31-1.6.23-2.33-.24.81-.32,1.6-.23,2.33.24h0Z"/>
        <path class="cls-1" d="m8.26,13.57c-.71.3-1.38.21-1.98-.28.71-.3,1.38-.21,1.98.28h0Z"/>
        <path class="cls-1" d="m7.44,14.33c-.58.28-1.11.18-1.53-.32.58-.28,1.11-.17,1.53.32h0Z"/>
        <path class="cls-1" d="m6.61,15.38c-.55.28-1.04.17-1.41-.32.55-.28,1.04-.17,1.41.32h0Z"/>
        <path class="cls-1" d="m5.77,16.11c-.49.33-.78.34-1.3.05.32-.49.94-.51,1.3-.05h0Z"/>
        <path class="cls-1" d="m5.18,17.14c-.27.39-.56.39-.82,0,.27-.39.56-.39.82,0h0Z"/>
        <path class="cls-1" d="m4.35,18.18c-.23.39-.48.39-.7,0,.23-.39.48-.39.7,0h0Z"/>
        <path class="cls-1" d="m1.12,32.64c.25.47.12.84-.37,1.05-.25-.47-.12-.84.37-1.05h0Z"/>
        <path class="cls-1" d="m1.35,34.05c-.04.78-.23,1.27-.75,1.86-.29-.72.04-1.53.75-1.86h0Z"/>
        <path class="cls-1" d="m1.5,35.71c.07.85-.07,1.47-.52,2.19-.36-.77-.14-1.66.52-2.19h0Z"/>
        <path class="cls-1" d="m1.75,37.53c-.26.91-.45,1.48-.81,2.36-.49-.82-.07-2.01.81-2.36h0Z"/>
        <path class="cls-1" d="m1.87,38.96c-.03.92-.27,1.61-.82,2.33-.23-.88.09-1.79.82-2.33h0Z"/>
        <path class="cls-1" d="m1.98,40.37c-.13.92-.35,1.55-.85,2.33-.31-.87.06-1.87.85-2.33h0Z"/>
        <path class="cls-1" d="m2.1,41.55c-.03.87-.2,1.46-.65,2.2-.36-.78-.08-1.74.65-2.2h0Z"/>
        <path class="cls-1" d="m2.54,42.95c-.09,1.08-.3,1.92-.76,2.91-.36-1.02-.05-2.2.76-2.91h0Z"/>
        <path class="cls-1" d="m2.82,44.8c-.06.98-.25,1.71-.71,2.58-.35-.91-.06-1.98.71-2.58h0Z"/>
        <path class="cls-1" d="m3.45,46.24c-.19,1.01-.37,1.7-.7,2.67-.5-.89-.17-2.14.7-2.67h0Z"/>
        <path class="cls-1" d="m3.56,47.17c.24,1.1.09,2.16-.45,3.14-.24-1.1-.09-2.16.45-3.14h0Z"/>
        <path class="cls-1" d="m1.07,30.76c.28.58.18,1.12-.31,1.55-.29-.58-.18-1.12.31-1.55h0Z"/>
        <path class="cls-1" d="m22.75,36.17c.49.79-.33,2.27-1.27,1.58.8-.26.8-.91,1.27-1.58h0Z"/>
        <path class="cls-1" d="m23.55,35.93c.46.97-.32,2.76-1.56,2.22,1.06-.43,1.06-1.3,1.56-2.22h0Z"/>
        <path class="cls-1" d="m24.4,36.24c.84,1.17-.52,3.67-1.97,2.66,1.36,0,1.8-1.49,1.97-2.66h0Z"/>
        <path class="cls-1" d="m25.13,36.76c.48.05.48.71.49,1.08.04,1.15-1.38,2.89-2.53,2,1.12.36,2.68-2.27,2.03-3.08h0Z"/>
        <path class="cls-1" d="m26.54,37.76c.21,1.56-1.11,3.96-2.95,3.13.03-.01.13-.06.16-.08,0,0-.06.1-.06.1,1.66-.33,2.13-1.68,2.86-3.16h0Z"/>
        <path class="cls-1" d="m27.29,38.44c.31.34,0,.98-.06,1.37-.27,1.32-1.76,2.87-3.17,2.06,1.44.05,2.19-1.11,2.75-2.23.14-.35.55-.81.47-1.2h0Z"/>
        <path class="cls-1" d="m28.35,39.52c-.07,1.01-.33,2.1-1.13,2.91-.72.79-2.27,1.04-2.95.09,2.12.99,3.29-1.36,4.08-2.99h0Z"/>
        <path class="cls-1" d="m29.39,40.67c-.54.98-.61,2.17-1.62,2.88-.94.61-2.09.53-3.1.25-.11-.05,0-.23.06-.15-.15.06.04.1.16.06.85-.11,1.85-.15,2.55-.64.84-.56,1.11-1.78,1.95-2.4h0Z"/>
        <path class="cls-1" d="m30.28,42.03c-.47,1.09-.87,2.3-1.98,2.92-1.1.6-2.6.46-3.41-.42,1.07.47,2.22.4,3.13-.09.97-.51,1.47-1.65,2.26-2.41h0Z"/>
        <path class="cls-1" d="m31.14,43.41c-.86,2.03-3.64,3.11-5.64,2.17,2.16.05,4.07-.68,5.64-2.17h0Z"/>
        <path class="cls-1" d="m31.8,44.73c-.65,1.93-3.05,2.38-4.84,2.21-.51-.06-1.42-.07-1.6-.67.04-.07.13,0,.09.03-.03-.08-.07.02,0,.04.46.27.98.18,1.5.15,1.76-.12,3.63-.26,4.84-1.76h0Z"/>
        <path class="cls-1" d="m32.34,45.98c.11,0,.08.16.05.22-.75,2.35-5.22,3.41-6.7,1.35.53.41,1.14.59,1.76.57,1.55-.06,3.22-.3,4.38-1.41.12-.13.66-.6.5-.72h0Z"/>
        <path class="cls-1" d="m33.32,47.38c-1.37,2.19-4.58,3.14-6.92,2.04,2.55.23,4.91-.46,6.92-2.04h0Z"/>
        <path class="cls-1" d="m33.88,49.02c-1.61,2.44-5.48,3.04-7.77,1.23.13.03.41.09.54.12l-.31.03c2.54.6,5.3.49,7.55-1.38h0Z"/>
        <path class="cls-1" d="m34.26,50.95c-1.93,2.2-5.72,2.48-7.99.65.14.03.45.1.59.13l-.36.03.03-.1c2.57.98,5.36.71,7.73-.71h0Z"/>
        <path class="cls-1" d="m34.67,52.66c-1.5,1.92-6.54,1.71-8.29.21.1.01.37.05.47.07l-.31.05.02-.09c1.3.56,2.69.5,4.1.52,1.39,0,2.81.07,4-.76h0Z"/>
        <path class="cls-1" d="m34.89,53.97c-1.18.92-2.74,1.09-4.18,1.31-1.43.17-3.2-.05-4.15-1.26,1.24.82,2.68.84,4.08.68,1.26-.17,3.05-.25,4.24-.73h0Z"/>
        <path class="cls-1" d="m34.75,55.1c-1.83,1.36-4.28,1.26-6.43,1.07-.74-.17-1.45-.45-2.04-.89l.07-.09.21.34c-.12-.11-.4-.35-.52-.47,1.43.68,2.94.69,4.49.64,1.44-.03,2.86-.05,4.23-.6h0Z"/>
        <path class="cls-1" d="m34.8,56.37c-2.48,1.81-6.17,1.73-8.66-.03,2.83.97,5.81,1.07,8.66.03h0Z"/>
        <path class="cls-1" d="m34.86,57.84c-.64.48-1.34.94-2.17,1.14-.86.23-1.71-.02-2.48-.15-1.57-.31-3.18-.75-4.57-1.59l.05-.11c.14.07.28.15.42.23-.15-.04-.31-.07-.46-.11l.05-.11c2.23.61,4.64,1.35,6.92,1.43.75-.1,1.49-.43,2.25-.72h0Z"/>
        <path class="cls-1" d="m34.47,59.3c-2.79,2.15-6.7.68-9.21-1.26-.04-.04-.09-.1-.06-.17.05-.08.17,0,.11.04.05-.08-.18-.06.01.06,2.85,1.29,6.05,2.68,9.15,1.33h0Z"/>
        <path class="cls-1" d="m34.1,60.92c-3.02,1.34-6.98.53-9.22-1.9,2.79,1.74,5.97,2.4,9.22,1.9h0Z"/>
        <path class="cls-1" d="m33.59,62.5c-.35-.3-.77.07-1.19.16-.43.11-.87.17-1.32.19-1.78.07-3.51-.63-5.03-1.47-.72-.44-1.62-.78-2.07-1.58.3.32.68.52,1.07.68,2.32.95,4.73,2.2,7.3,1.91.39,0,.99-.31,1.25.12h0Z"/>
        <path class="cls-1" d="m32.43,63.73c-2.5.99-5.33,0-7.44-1.48-.7-.46-1.51-1.09-1.64-1.99.36.8,1.13,1.22,1.86,1.61,2.23,1.24,4.61,2.19,7.21,1.87h0Z"/>
        <path class="cls-1" d="m31.73,65.25c-2.7.96-5.51-.63-7.55-2.31-.69-.56-1.45-1.17-1.82-2.01.58.7,1.33,1.16,2.09,1.65,2.2,1.44,4.53,2.95,7.29,2.67h0Z"/>
        <path class="cls-1" d="m30.54,66.65c-3.72-.02-7.44-2.01-9.57-5.05,0,0,.1-.05.1-.05.02.14.13.29.29.33-.26.01-.42-.27-.46-.51,2.67,2.66,5.96,4.45,9.64,5.28h0Z"/>
        <path class="cls-1" d="m28.75,67.89c-3.38-.85-6.48-3.03-8.41-5.93,2.56,2.37,5.31,4.32,8.41,5.93h0Z"/>
        <path class="cls-1" d="m27.43,68.42c-3.16-1.25-6.49-3.1-8.06-6.26,2.25,2.68,5.24,4.27,8.06,6.26h0Z"/>
        <path class="cls-1" d="m26.09,68.79c-3.3-.67-6.27-3.19-7.46-6.34,1.94,2.76,4.43,4.87,7.46,6.34h0Z"/>
        <path class="cls-1" d="m17.8,62.1c-.52,1.64,1.18,2.63,2.16,3.65,1.06.94,2.33,2.08,3.46,2.85-.02.04.07-.06,0-.04-.18.08-.31,0-.44-.07-1.76-.86-6.73-4.1-5.19-6.4h0Z"/>
        <path class="cls-1" d="m16.71,62.29c-.05-.09-.15-.03-.2.02-.29.51-.08,1.2.15,1.7.66,1.23,1.86,2.17,2.71,3.29.36.39.61.9,1.08,1.14.11.04.47.1.38.32.05-.1-.07-.13-.15-.15-.7.02-1.16-.59-1.63-1.01-1.22-1.29-3.06-2.58-2.93-4.58.06-.28.1-.62.35-.79.07-.05.24-.07.26.05h0Z"/>
        <path class="cls-1" d="m15.52,61.92c-1.04.93-.4,2.25.24,3.21.65,1.04,1.47,1.95,2.4,2.84-1.19-.5-2.19-1.43-2.89-2.53-.72-.96-1.19-2.97.25-3.52h0Z"/>
        <path class="cls-1" d="m14.58,61.74c-1.05.48-.71,1.73-.45,2.6.31.95.85,1.79,1.6,2.57-.51-.19-.95-.54-1.32-.95-.97-.97-1.81-3.98.17-4.21h0Z"/>
        <path class="cls-1" d="m13.76,61.29c-1.58,1.25-.55,3.88.42,5.29-1.73-.81-2.73-4.69-.42-5.29h0Z"/>
        <path class="cls-1" d="m13.07,60.8c-.76.54-.93,1.39-1.02,2.21-.06.85-.06,1.69.39,2.49-1.51-1.02-1.31-4.32.63-4.7h0Z"/>
        <path class="cls-1" d="m11.83,60.14c-.08,0,0-.17.1-.08.06.07.02.16,0,.21-.66,1.32-1.36,2.7-.7,4.2-1.33-1.01-.76-3.1.34-4.08,0,0,.24-.21.24-.21.08-.05.04-.14.03-.04h0Z"/>
        <path class="cls-1" d="m11.21,59.52c-.8,1.32-1.42,2.87-1,4.37-1.26-1.2-.45-3.68,1-4.37h0Z"/>
        <path class="cls-1" d="m10.58,58.89c-.81,1.3-1.2,2.5-1.31,4.03-.76-1.36-.1-3.37,1.31-4.03h0Z"/>
        <path class="cls-1" d="m9.74,58.38c-.65,1.05-1.14,2.07-1.2,3.28,0,.16.04.31.19.44-.2,0-.37-.18-.46-.36-.46-1.25.26-2.84,1.47-3.35h0Z"/>
        <path class="cls-1" d="m9.19,57.12c-.91,1.11-1.32,2.22-1.35,3.65-.86-1.23-.1-3.27,1.35-3.65h0Z"/>
        <path class="cls-1" d="m8.59,56.6c-1.04.98-1.45,2.09-1.29,3.52-1.07-1.13-.26-3.35,1.29-3.52h0Z"/>
        <path class="cls-1" d="m8.14,56.23c-.83.9-1.21,1.73-1.37,2.95-.76-1.06.08-2.84,1.37-2.95h0Z"/>
        <path class="cls-1" d="m7.91,55.49c-.78,1.1-1.63,1.95-1.37,3.38-1.17-1.13.05-3.05,1.37-3.38h0Z"/>
        <path class="cls-1" d="m7.2,54.6c-.16,1.25-1.59,2.17-1,3.44-1.44-.89.1-2.71,1-3.44h0Z"/>
        <path class="cls-1" d="m6.63,53.82c-.64,1.04-1.36,2.05-1.32,3.25-.92-.96.16-2.97,1.32-3.25h0Z"/>
        <path class="cls-1" d="m6.31,53.08c-.62,1.07-.98,1.92-1.31,3.11-.54-1.13.12-2.7,1.31-3.11h0Z"/>
        <path class="cls-1" d="m5.72,52.25c-.56,1.05-.88,1.85-1.19,3.01-.55-1.07.05-2.6,1.19-3.01h0Z"/>
        <path class="cls-1" d="m5.32,51.44c-.45,1.04-.84,1.81-1.44,2.78-.22-1.11.41-2.32,1.44-2.78h0Z"/>
        <path class="cls-1" d="m4.89,50.44c-.38,1.15-1.01,1.87-1.21,3.09-.67-1.12.2-2.51,1.21-3.09h0Z"/>
        <path class="cls-1" d="m4.74,49.8c-.14.88-.63,1.64-1.07,2.34-.1.2-.16.46,0,.73-1.24-.59.41-2.53,1.07-3.07h0Z"/>
        <path class="cls-1" d="m4.39,48.84c-.15,1.09-.48,1.96-1.08,2.89-.18-1.08.24-2.19,1.08-2.89h0Z"/>
      </g>
    </g>
  </g>
</svg>