<?xml version="1.0" encoding="UTF-8"?>
<svg id="Layer_2" data-name="Layer 2" xmlns="http://www.w3.org/2000/svg" viewBox="0 0 96.99 113.78">
  <defs>
    <style>
      .cls-1 {
        fill: #a37d2d;
        stroke-width: 0px;
      }
    </style>
  </defs>
  <g id="Layer_1-2" data-name="Layer 1">
    <g>
      <path class="cls-1" d="m32.12,30.84c-1.07,2.63-1.8,5.16-2.07,7.95-.05.39-.08.85-.32,1.21-.69-3.2-.21-6.9,2.39-9.16h0Z"/>
      <path class="cls-1" d="m29.66,39.69c-.34,4.76.13,9.63,3.55,13.14,1.05,1.17,2.22,2.45,2.67,4.03-.82-1.4-2.07-2.37-3.24-3.48-3.88-3.26-4.52-9.16-2.99-13.69h0Z"/>
      <path class="cls-1" d="m32.43,40.65c2.07-2.17,5.79-4.24,8.41-1.69,1.07.9.77,2.47,1.13,3.52.2.48.56.94.9,1.49,1.4,2.33.51,5.09-.28,7.4-.72,2.18-1.39,4.82.2,6.78-2.97-2.79-.54-7.15-.19-10.48.34-2-.64-3.18-1.53-4.83-.29-.68-.24-1.4-.29-1.92-.04-1.05-.88-1.86-1.91-2.24-2.28-.85-4.56.73-6.44,1.96h0Z"/>
      <path class="cls-1" d="m33.87,39.66c.85-.15,1.16,1.05,1.59,1.51,1.01,1.23,2.82,2.13,4.37,1.41.33-.14.74-.34,1.14-.26-.36.15-.59.41-.87.67-1.59,1.52-4.43.43-5.31-1.4-.43-.65-.18-1.58-.93-1.93h0Z"/>
      <path class="cls-1" d="m34.87,40.22c1.27-1.79,4.19-1.95,5.77-.47.22.22.42.54.39.85-.38-.46-.91-.51-1.43-.66-1.62-.36-3.05-.22-4.73.28h0Z"/>
      <path class="cls-1" d="m37.26,39.46c.6,1.05,1.75,1.23,2.67.45.21.87-.76,1.61-1.62,1.45-.86-.13-1.53-1.15-1.05-1.9h0Z"/>
      <path class="cls-1" d="m55.07,57.49c2.12-3.24-.59-6.64-1.01-9.99-.27-3.05,1.03-6.03,2.66-8.52,1.27-1.67,3.78-1.11,5.23-.15,1,.62,1.94,1.29,3.08,1.57-1.19-.06-2.26-.69-3.31-1.14-2.26-1.14-4.2-.89-5.1,1.7-.87,2.05-1.85,4.19-1.62,6.44.34,3.21,2.75,7.26.07,10.09h0Z"/>
      <path class="cls-1" d="m55.39,42.18c-.88-2.27,1.42-4.59,3.55-5.06,1.83-.25,3.18,1.01,4.91.96.53,0,1.08-.16,1.49-.54-.33.46-.91.7-1.47.78-1.64.24-3.3-.94-4.85-.71-1.95.48-4.06,2.35-3.62,4.56h0Z"/>
      <path class="cls-1" d="m56.12,41.89c.72.04,1.39.3,2,.39,2.01.32,3.46-1.25,5.04-2.28-1.33,3.08-4.4,4.4-7.04,1.89h0Z"/>
      <path class="cls-1" d="m56.16,41.21c.76-2.79,4.55-2.56,6.23-.76-2.38-.29-4.23-.93-6.23.76h0Z"/>
      <path class="cls-1" d="m57.39,40.48c.94.1,1.54-.12,2.19-.8.43.58-.01,1.39-.65,1.62-.63.23-1.49-.11-1.54-.82h0Z"/>
      <path class="cls-1" d="m42.85,58.19c.01-1.3,1.68-1.84,2.77-1.58,1.17.2,2.15.72,3.06.62.94-.05,1.93-.6,3.13-.74,1.15-.22,2.59.41,2.81,1.64-.63-.94-1.66-1.16-2.68-.87-.97.24-1.93.86-3.2.97-2.18.21-4.45-2.42-5.9-.04h0Z"/>
      <path class="cls-1" d="m42.75,58.09c-.18-1.38,1.14-2.57,2.43-2.78,1.21-.34,2.61.3,3.72.24,1.06-.06,2.29-.87,3.78-.53,1.41.36,2.35,1.8,2.11,3.07-.2-1.25-1.23-2.16-2.27-2.31-1.05-.15-2.11.59-3.53.76-1.39.08-2.39-.61-3.69-.46-1.1.07-2.26.75-2.55,2.01h0Z"/>
      <path class="cls-1" d="m42.75,58.19c.55.8,1.52.61,2.36.97,2.21.8,3.95,3.41,3.23,5.76-.17.46-.5.89-.94,1.03,1.46-2.05-.79-5.05-2.61-6.08-.67-.41-1.94-.7-2.03-1.68h0Z"/>
      <path class="cls-1" d="m49.7,66.06c-1.55-1.24-1.05-4.14.14-5.51,1.45-1.19,2.97-1.34,4.57-1.98.18-.1.37-.23.39-.48.1.23-.04.52-.21.7-1.12,1.02-2.99,1.56-4.03,2.47-.89,1.1-1.6,3.37-.84,4.8h0Z"/>
      <path class="cls-1" d="m45.35,57.03c1.41.23,2.8,1.88,2.11,3.3-.78-1.24-1.61-1.96-2.11-3.3h0Z"/>
      <path class="cls-1" d="m51.77,57.03c-.65,1.26-.97,1.84-1.69,3.07-.82-1.22.23-3.1,1.69-3.07h0Z"/>
      <path class="cls-1" d="m36.75,67.09c-4.1-4.13-1.41-11.6,2.16-15.21-2.35,4.62-4.85,10.31-2.16,15.21h0Z"/>
      <path class="cls-1" d="m36.68,66.88c.39.91,1.54,1.1,2.39,1.31,1.97.39,3.62-.57,5.41-1.31.93-.38,1.87-.73,2.86-.98-.8.63-1.65,1.17-2.51,1.68-1.7,1.06-3.9,2.13-5.95,1.37-.91-.35-2.2-.95-2.2-2.06h0Z"/>
      <path class="cls-1" d="m49.68,65.97c1.85,1.46,4.22,1.8,6.49,2.03,2.32.36,4.23-.92,4.74-3.17.47-2.1.4-4.59.05-6.72-.42-2.17-2.35-3.9-2.98-6.2,1.03,2.16,3.04,3.62,3.72,6,.57,2.39.66,4.75.17,7.17-.65,2.7-3.1,4.3-5.79,3.67-2.28-.4-4.8-.98-6.4-2.79h0Z"/>
      <path class="cls-1" d="m63.72,29.62c1.45,1.44,2.65,2.93,3.75,4.67,1.16,1.77.96,4.06.44,6-.29-1.9-.21-3.89-1.31-5.51-.99-1.64-2.13-3.34-2.88-5.16h0Z"/>
      <path class="cls-1" d="m60.94,56.45c4.63-3.24,6.7-8.43,7-13.87.1-.78.18-1.54.04-2.32.36.72.39,1.56.45,2.34.56,5.55-2.09,11.76-7.49,13.86h0Z"/>
      <path class="cls-1" d="m40,68.86c.11,1.41-.66,2.75-.58,4.05.04,1.31.73,2.53,1.68,3.41,1.95,1.72,4.86,2.39,7.39,2.55,2.54-.06,5.23-1.51,7.25-2.98,1.56-1.24,2.4-3.36,1.55-5.26-.22-.63-.47-1.41-.11-2.05-.26.68.08,1.34.35,1.95,1.18,1.94.34,4.49-1.28,5.93-2.24,1.83-4.82,3.27-7.78,3.4-1.49-.05-2.84-.39-4.2-.82-2.7-.8-5.45-3.09-5.34-6.15.11-1.49.95-2.65,1.07-4.05h0Z"/>
      <path class="cls-1" d="m39.82,70.49c1.17-.98,2.43-1.96,4.04-2.34,1.56-.37,3.06.08,4.6-.15,3.17-.61,6.12,1.02,8.9,2.33-1.51-.31-3-.69-4.46-1.12-1.49-.47-2.82-.42-4.36-.22-1.5.21-3.08-.26-4.55-.08-1.42.2-2.8.91-4.18,1.57h0Z"/>
      <path class="cls-1" d="m55.02,42.51c-.65-2.43-3.44-6.07-.43-7.98-2.35,2.34.51,5.32.43,7.98h0Z"/>
      <path class="cls-1" d="m55.22,39.91c-1.03-1.22-1.71-3.68-.26-4.82-.78,1.54-.11,3.23.26,4.82h0Z"/>
      <path class="cls-1" d="m55.69,39.47c-.8-1.41-1.02-3.6.36-4.74-.74,1.56-.46,3.08-.36,4.74h0Z"/>
      <path class="cls-1" d="m56.16,38.76c-.7-1.31-.24-3.17.99-4.01-.65,1.32-.96,2.54-.99,4.01h0Z"/>
      <path class="cls-1" d="m57.04,37.85c-.29-.97.17-2.11,1.05-2.61-.34.96-.63,1.68-1.05,2.61h0Z"/>
      <path class="cls-1" d="m57.91,37.29c.02-.9.7-1.73,1.58-1.92-.48.77-.92,1.3-1.58,1.92h0Z"/>
      <path class="cls-1" d="m59.07,37.09c.14-.86.84-1.56,1.71-1.68-.5.72-.98,1.19-1.71,1.68h0Z"/>
      <path class="cls-1" d="m60.07,36.99c.08-.65.6-1.13,1.26-1.16-.28.6-.63.92-1.26,1.16h0Z"/>
      <path class="cls-1" d="m60.88,37.22c.02-.65.68-1.15,1.31-.99-.41.52-.71.74-1.31.99h0Z"/>
      <path class="cls-1" d="m61.4,37.69c-.19-.83.47-1.32,1.21-.9-.13.83-.38,1.01-1.21.9h0Z"/>
      <path class="cls-1" d="m62.08,37.85c-.04-.48.34-.81.81-.67-.13.47-.33.63-.81.67h0Z"/>
      <path class="cls-1" d="m62.77,37.91c.08-.44.27-.55.69-.4-.02.41-.32.58-.69.4h0Z"/>
      <path class="cls-1" d="m31.49,38.07c.4.52,1.14.32,1.66.12,1.73-.7,3.54-1.57,5.48-1.11,2.57.36,4.58,3.53,3.03,5.83,1.07-2.33-.74-4.96-3.13-5.34-1.8-.44-3.58.33-5.3.85-.56.15-1.42.27-1.74-.35h0Z"/>
      <path class="cls-1" d="m42.24,40.97c.78-.86.78-2.21.87-3.33.15-1.22-.24-2.27-.83-3.34.93.84,1.47,2.09,1.33,3.36-.09,1.15-.28,2.67-1.37,3.31h0Z"/>
      <path class="cls-1" d="m42.06,40.34c.49-1.85.2-3.76-.84-5.33-.05-.08-.19-.3-.16-.16-.1-.02,0-.15.11-.06,1.66,1.22,2.11,3.88.9,5.54h0Z"/>
      <path class="cls-1" d="m41.67,39.46c-.28-1.29-.61-2.52-1.22-3.68-.09-.2-.31-.71-.37-.92-.01-.11-.13-.23-.07-.13-.08.05-.08-.15.06-.07,1.19,1.26,2,3.05,1.61,4.8h0Z"/>
      <path class="cls-1" d="m40.63,37.91s.07.1.09.15h-.1c-.17-1.05-1.02-1.9-1.1-3.03.69.81,1.77,2.15,1.11,3.22,0-.11,0-.24,0-.35h0Z"/>
      <path class="cls-1" d="m39.77,37.74c-.02-.22-.27-.41-.38-.58-.37-.47-.67-.99-.93-1.53-.05-.1-.1-.3-.1-.2-.04.01-.07-.07,0-.1.11-.02.21.1.29.14.49.39.88.91,1.07,1.5.05.22.22.57.05.76h0Z"/>
      <path class="cls-1" d="m38.87,37.28c-.44-.67-1.16-.91-1.44-1.72.72.23,1.71.87,1.44,1.72h0Z"/>
      <path class="cls-1" d="m37.95,37.07c-.42-.28-.57-.34-.93-.61-.11-.09-.25-.26-.2-.43.3.13.49.04.78.23.26.17.44.5.35.82h0Z"/>
      <path class="cls-1" d="m36.93,37.03c-.54-.07-.9-.37-1.11-.85,0,0,.16-.07.16-.07-.09.17-.12.17-.19,0,0,0-.07-.13-.07-.13.59.12,1.08.44,1.22,1.06h0Z"/>
      <path class="cls-1" d="m36.17,37.16s-.06-.05-.09-.04c-.35,0-.7-.27-.78-.69.48-.06.75.16.97.53.04.07-.01.27-.1.19h0Z"/>
      <path class="cls-1" d="m35.67,37.42c-.47.14-.71.02-.88-.44.41-.18.77,0,.88.44h0Z"/>
      <path class="cls-1" d="m34.9,37.57c-.36.18-.57.05-.57-.35.36-.18.56-.05.57.35h0Z"/>
      <path class="cls-1" d="m25.31,72.42c1.64-2.49,4.12-4.23,6.68-5.73,2.73-1.37,5.78-1.66,8.69-1.48-2.87.61-5.74,1.09-8.24,2.38-2.45,1.4-4.99,2.94-7.14,4.84h0Z"/>
      <path class="cls-1" d="m24.63,70.57c3.19-5.48,10.44-9.24,16.65-6.79-6.46-.9-12.25,2.26-16.65,6.79h0Z"/>
      <path class="cls-1" d="m21.73,66.01c2.39-2.66,5.94-3.94,9.26-5,3.42-1.2,7.12-.72,10.56.15-2.61-.05-5.24-.21-7.8.14-4.15,1.13-8.42,2.26-12.03,4.72h0Z"/>
      <path class="cls-1" d="m33.15,59.62c1.73-2.52,5.32-1.65,7.64-.52-2.65.32-5.09-.74-7.64.52h0Z"/>
      <path class="cls-1" d="m42.64,63.71c.2.21.26.33.28.41l-.12-.64c-.17-.15-.37-.1-.46-.04-.27.14-.14.76.19.58.07-.04.12-.2-.02-.26-.1-.11,0-.28.13-.31.47-.14.61.62.24.82-.44.33-.93-.34-1.27-.58.39-.05.56-.2,1.02.02h0Z"/>
      <path class="cls-1" d="m43.74,63.9c-.12-.61.96,0,.31.3-.16.1-.46-.04-.31-.26.16-.21-.12-.35-.28-.26-.63.25.44.8.28.22h0Z"/>
      <path class="cls-1" d="m44.82,64.11c0-.39.02-.48.03-.5,0,.01.02.1.03.5,0,.4-.02.49-.03.5,0-.02-.02-.11-.03-.5,0,0,0,.39,0,0Z"/>
      <path class="cls-1" d="m42.71,61.51c.04.23.29.18.35.09.28-.37-.53-.71-.61-.25-.02.11.12.32.31.19.21-.1.34.17.3.3-.14.54-1.06.16-.77-.32.06-.13.34-.22.42,0h0Z"/>
      <path class="cls-1" d="m43.85,61.71c.53-.03.06-.79-.14-.3-.04.1.01.3.23.3.22.02.26.24.2.35-.23.52-.86-.22-.3-.35h0Z"/>
      <path class="cls-1" d="m41.95,65.37c-.16-.36-.18-.45-.17-.48.03,0,.08.07.28.42.16.36.18.45.17.48-.03,0-.09-.08-.28-.42,0,0,.2.34,0,0Z"/>
      <path class="cls-1" d="m43.39,65.43c0-.39.02-.48.03-.5,0,.01.02.1.03.5,0,.4-.02.49-.03.5,0-.02-.02-.11-.03-.5,0,0,0,.39,0,0Z"/>
      <path class="cls-1" d="m56.99,65.59c4.92-2.25,10.57,1.19,13.25,5.32-3.85-3.13-8.06-6.04-13.25-5.32h0Z"/>
      <path class="cls-1" d="m56.25,63.66c5.07-1.93,11.59.32,14.38,4.98-3.95-3.64-9.02-5.4-14.38-4.98h0Z"/>
      <path class="cls-1" d="m55.65,61.41c3.22-1.59,7.06-1.13,10.45-.38,2.54.76,5.21,1.17,7.53,2.51.75.51,1.4,1.1,2.01,1.74-.75-.46-1.46-.97-2.25-1.31-2.38-.95-5.05-1.24-7.51-1.96-3.37-.76-6.8-1.41-10.23-.6h0Z"/>
      <path class="cls-1" d="m56.07,59.55c2.02-1.52,6.37-2.61,7.89.05-2.52-1.37-5.18-.18-7.89-.05h0Z"/>
      <path class="cls-1" d="m52.16,63.71c0,.39-.02.48-.03.5,0-.01-.02-.1-.03-.5,0-.4.02-.49.03-.5,0,.02.02.11.03.5,0,0,0-.39,0,0Z"/>
      <path class="cls-1" d="m53.25,62.05c.29-.27.36-.32.38-.32,0,.02-.05.09-.32.38-.29.27-.36.32-.38.32,0-.02.06-.09.32-.38,0,0-.27.29,0,0Z"/>
      <path class="cls-1" d="m54.4,61.82c0,.39-.02.48-.03.5,0-.01-.02-.1-.03-.5,0-.4.02-.49.03-.5,0,.02.02.11.03.5,0,0,0-.39,0,0Z"/>
      <path class="cls-1" d="m55.2,65.38c0-.39.02-.48.03-.5,0,.01.02.1.03.5,0,.4-.02.49-.03.5,0-.02-.02-.11-.03-.5,0,0,0,.39,0,0Z"/>
      <path class="cls-1" d="m26.58,30.52c.09.73-.22,1.46-.59,2.07-1.11,1.89-2.45,3.97-4.91,4.25-3.09.38-3.93-2.95-2.69-5.26,2.19-3.64,6.93-2.23,10.33-2.84,2.74-.51,5.32-1.98,7.22-4.14-1.6,2.45-4.21,4.2-7.06,4.89-3.74.93-9.81-.77-10.08,4.4-.11,1.45.86,2.25,2.22,2.19,2.08-.06,3.56-2.05,4.75-3.63.41-.57.79-1.2.81-1.93h0Z"/>
      <path class="cls-1" d="m32.61,29.86c1.8-.4,3.88.82,4.4,2.59-1.18-1.38-2.62-2.23-4.4-2.59h0Z"/>
      <path class="cls-1" d="m33.82,28.65c1.8.17,3.41,1.84,3.51,3.65-.82-1.59-1.95-2.77-3.51-3.65h0Z"/>
      <path class="cls-1" d="m34.84,27.69c.43-.25.95.07,1.31.33,1.1.82,1.71,2.38,1.32,3.7-.19-1.33-.69-2.46-1.57-3.42-.29-.3-.59-.63-1.05-.61h0Z"/>
      <path class="cls-1" d="m36.05,26.66c1.27.12,2.2,1.71,1.67,2.88-.26-1.19-.76-2.07-1.67-2.88h0Z"/>
      <path class="cls-1" d="m36.74,25.8c.99-.27,2.68,1.06,2.11,2.13-.11-.57-.44-.89-.84-1.21-.43-.3-.76-.73-1.28-.92h0Z"/>
      <path class="cls-1" d="m37.55,25.31c1.06-.17,1.94.72,2.46,1.53.17.27.39.75.08,1,.05-.17,0-.3-.09-.42-.74-.79-1.44-1.65-2.45-2.11h0Z"/>
      <path class="cls-1" d="m38.27,24.58c1.62-.09,3.01,1,3.59,2.47-1.15-1.04-2.17-1.88-3.59-2.47h0Z"/>
      <path class="cls-1" d="m39.9,24.47c.93-.13,2.63,1.02,2.01,2.04-.15-.9-1.32-1.45-2.01-2.04h0Z"/>
      <path class="cls-1" d="m41.04,24.32c.79-.38,1.69.9,1.66,1.63-.35-.28-.6-.56-.86-.85-.28-.27-.41-.64-.8-.79h0Z"/>
      <path class="cls-1" d="m41.84,23.96c.82-.28,1.76.62,1.51,1.45-.51-.64-.85-.97-1.51-1.45h0Z"/>
      <path class="cls-1" d="m42.65,23.79c.76-.11,1.52.55,1.51,1.32-.63-.44-.98-.75-1.51-1.32h0Z"/>
      <path class="cls-1" d="m63.8,29.49c-2.02.38-3.67,1.69-4.55,3.45,0,0-.18-.51-.18-.51-.19-.59.2-1.08.52-1.48.86-1.08,2-2.25,3.46-2.29-.91.23-1.64.82-2.24,1.5-.39.58-1.39,1.42-1.28,2.1,0,0-.45-.04-.45-.04.96-1.67,2.85-2.78,4.71-2.73h0Z"/>
      <path class="cls-1" d="m62.48,28.15c-1.09.75-2.07,1.36-3.23,1.99.67-1.13,1.92-1.9,3.23-1.99h0Z"/>
      <path class="cls-1" d="m62.31,27.58c-1.24.61-2.19,1.27-3.18,2.23.36-1.34,1.8-2.34,3.18-2.23h0Z"/>
      <path class="cls-1" d="m58.12,29.02c.63-1.38,2.29-2.28,3.79-2.04-1.44.49-2.59,1.11-3.79,2.04h0Z"/>
      <path class="cls-1" d="m57.86,28.03c.26-1.21,1.83-1.99,2.95-1.44-1.18.23-2.05.65-2.95,1.44h0Z"/>
      <path class="cls-1" d="m57.09,27.53c.36-1.33,1.94-2.24,3.27-1.89-1.3.4-2.28.96-3.27,1.89h0Z"/>
      <path class="cls-1" d="m56.71,26.86c.15-1.26,1.61-1.87,2.74-1.82-.98.67-1.93.92-2.74,1.82h0Z"/>
      <path class="cls-1" d="m55.93,26.72c.06-1.06,1.08-1.99,2.14-1.95-.83.65-1.41,1.18-2.14,1.95h0Z"/>
      <path class="cls-1" d="m54.75,26.62c.13-.87.81-2.29,1.89-1.9-.92.36-1.1,1.37-1.89,1.9h0Z"/>
      <path class="cls-1" d="m53.65,25.98c.11-.92,1.03-1.67,1.96-1.59-.7.61-1.22,1.02-1.96,1.59h0Z"/>
      <path class="cls-1" d="m52.66,25.98c-.14-.84.56-1.7,1.41-1.74-.5.68-.85,1.11-1.41,1.74h0Z"/>
      <path class="cls-1" d="m51.98,25.58c-.15-.64.46-1.28,1.1-1.15-.36.55-.57.77-1.1,1.15h0Z"/>
      <path class="cls-1" d="m18.27,34.66c-2.16-4.81.82-10.56,5.41-12.66,3.43-1.53,7.47-2.16,11.03-.74,1.21.43,2.18,1.3,2.97,2.23-.94-.77-1.91-1.51-3.12-1.77-2.34-.76-4.71-.54-7.08.04-5.92.97-10.88,6.76-9.21,12.9h0Z"/>
      <path class="cls-1" d="m20.44,24.9c-1.05-3.98,1.05-7.84,5.11-8.86,3.72-.96,7.66.32,10.86,2.14,2.16,1.23,4.11,2.74,5.92,4.38-1.04-.65-2.05-1.33-3.11-1.95-3.04-1.86-6.43-3.49-9.97-3.85-5.28-.63-9.37,2.64-8.82,8.14h0Z"/>
      <path class="cls-1" d="m17.58,31.39c-2.26-.37-4.15-1.92-5.61-3.64-1.37-1.95-1.27-4.4-1.33-6.69.1-2.99,2.6-5.38,4.94-6.94,1.59-.76,3.29-.99,4.99-1.37,6.76-1.5,13.94.42,19.25,4.81,1.73,1.4,3.46,3.12,4,5.35-.76-2.14-2.49-3.69-4.3-4.95-5.36-3.97-12.22-5.74-18.77-4.22-2.06.47-4.42.59-6.01,2.12-1.55,1.47-3.22,3.01-3.33,5.27-.04,2.06-.2,4.55.96,6.35,1.28,1.73,3.07,3.36,5.21,3.92h0Z"/>
      <path class="cls-1" d="m11.09,23.06c-.94-4.61,5.19-6.35,8.75-5.94,1.31.06,2.58.23,3.89.23-1.26.39-2.6.49-3.89.56-3.42.18-8.44.95-8.76,5.16h0Z"/>
      <path class="cls-1" d="m24.18,5.78c-.23.01-.18-.35-.19-.5,1.15,3.91,4.45,6.12,7.71,8.29-3.73-.76-7.8-3.81-7.71-7.97,0,0,.1,0,.1,0-.03.05,0,.15.08.18h0Z"/>
      <path class="cls-1" d="m24.11,5.6c3.01,2.62,6.96,2.35,10.6,3.26,2.5.71,4.84,1.81,6.84,3.51,1.85,1.95,2.71,4.34,3.59,6.79.33,1.23.5,2.54.23,3.78.04-1.26-.23-2.49-.7-3.63-.95-2.14-2.11-4.61-3.76-6.24-2.87-2.31-6.44-3.52-10.09-4.13-2.48-.42-5.03-1.41-6.72-3.34h0Z"/>
      <path class="cls-1" d="m28.16,4.38c1.4,1.56,2.45,2.79,3.74,4.43-2.04-.41-3.68-2.35-3.74-4.43h0Z"/>
      <path class="cls-1" d="m28.35,4.21c1.93,1.29,4.38,1.21,6.54,1.96,3.33.92,6.73,2.66,8.79,5.58,1.36,1.88,2.68,3.98,2.86,6.35.1,1.16.1,2.32.03,3.47-.29-2.27-.52-4.61-1.7-6.48-.6-.92-1.27-1.88-1.95-2.76-2.04-2.73-5.1-4.26-8.27-5.42-2.07-.9-4.62-1.05-6.3-2.69h0Z"/>
      <path class="cls-1" d="m31.99,5.49c4.58-2.79,10.25,2.19,11.6,6.52-.68-1.02-1.48-1.9-2.34-2.72-2.48-2.39-5.56-4.79-9.26-3.8h0Z"/>
      <path class="cls-1" d="m30.81,2.41c.13-.19.42-.15.6-.14,2.9.3,6.24,1.47,7.52,4.31-2.32-1.9-4.99-2.73-7.6-4.05-.17-.08-.33-.22-.52-.13h0Z"/>
      <path class="cls-1" d="m30.91,2.28c4.34-2.25,10-.97,13.16,2.73,2.42,2.8,3.24,6.45,3.46,10.01.05,1.18.08,2.35.03,3.52-.19-1.16-.31-2.32-.52-3.47-.95-8.63-6.99-15.39-16.13-12.79h0Z"/>
      <path class="cls-1" d="m45.98,9.13c-1.16-3.3,1.47-6.14,2.45-9.13.39,3.34-2.2,5.88-2.45,9.13h0Z"/>
      <path class="cls-1" d="m48.44.11c.78,1.62,1.29,3.28,2.31,4.54.58.71,1.2,1.49,1.34,2.41.2.92.15,1.83,0,2.71-.26-.86-.44-1.72-.75-2.48-.23-.71-.92-1.47-1.39-2.02-1.14-1.48-1.51-3.34-1.52-5.15h0Z"/>
      <path class="cls-1" d="m50.32,18.41c-.68-3.34.75-6.7,1.93-9.75,1.08-2.94,2.77-6.95,6.4-7.23-3.35,1.13-4.33,4.6-5.47,7.59-1.21,3.09-2.73,6.01-2.86,9.38h0Z"/>
      <path class="cls-1" d="m58.52,1.67c-.5.92-1.06,1.78-1.41,2.69l-.61-.41c1.09-1.46,2.83-2.41,4.63-2.6,1.78-.16,3.57.26,5.09,1.15-.86-.14-1.69-.26-2.53-.3-2.43-.2-4.89.46-6.64,2.24,0,0-2,1.98-2,1.98.89-1.55,2.01-3.7,3.46-4.75h0Z"/>
      <path class="cls-1" d="m50.78,21.63c-1.13-8.13,4.93-15.51,12.11-18.56,1.07-.38,2.2-.61,3.32-.55-1.1.16-2.16.48-3.12,1-6.63,3.7-12.1,10.24-12.3,18.11h0Z"/>
      <path class="cls-1" d="m59.57,5.53c1.75-1.37,4.54-1.45,6.38-.21-1.14.08-2.14.11-3.19.14l-3.19.07h0Z"/>
      <path class="cls-1" d="m62.86,26.28c3.21,3.42,8.07,2.68,12.33,3.02,3,.09,5.01,3.84,3.35,6.28.64-1.68-.04-3.54-1.25-4.55-1.21-1.05-3.06-.78-4.81-.85-3.43-.02-7.73-.63-9.62-3.9h0Z"/>
      <path class="cls-1" d="m70.5,29.74c.48,1.94,1.54,3.99,2.9,5.33,1,.79,2.89,1.05,4.22,1.04.43-.06.92-.39.96-.94.2.55-.25,1.19-.82,1.41-.58.23-1.17.2-1.7.2-1.06,0-2.3-.13-3.3-.93-1.62-1.64-2.52-3.87-2.26-6.1h0Z"/>
      <path class="cls-1" d="m58.76,22.51c2.18-1.54,4.72-2.59,7.4-3.09,7.04-1.41,14.09,4.67,13.56,11.87-.08,1.35-.38,2.69-.94,3.91.34-1.29.53-2.6.45-3.91-.05-6.64-6.42-12.02-12.96-11.11-2.61.31-5.14,1.16-7.51,2.33h0Z"/>
      <path class="cls-1" d="m58.11,21.36c2.51-2,4.96-4.36,8.12-5.31,7.12-2.11,10.65.89,11.02,8.09-.22-1.05-.5-2.08-.92-3.05-.39-.97-.86-1.93-1.46-2.75-2.46-3.3-8.1-1.82-11.26-.24-1.88,1-3.62,2.25-5.5,3.26h0Z"/>
      <path class="cls-1" d="m75.15,17.72c2.78-.82,6.39-1.33,8.76.89,2.45,2.17,2.65,6.16.72,8.68-1.19,1.7-3.12,2.63-5.04,3.19,1.74-.92,3.43-2.01,4.39-3.62,2.1-3.17.72-7.91-3.06-8.92-1.8-.53-3.81-.37-5.77-.22h0Z"/>
      <path class="cls-1" d="m55.33,21.98c3.5-9.85,15.38-12.06,24.35-8.96,6.16,1.46,9.41,8.48,5.15,13.6,3.48-5.19.46-11.36-5.42-12.73-8.87-2.78-19.74-1.05-24.08,8.09h0Z"/>
      <path class="cls-1" d="m53.48,21.49c.71-5.92,5.31-11.17,11.04-12.81,2.23-.68,4.61-.67,6.66-1.73,1.26-.61,2.17-1.65,2.66-2.92.69,1.49.96,3.23.47,4.79-.38,1.3-1.15,2.49-2.23,3.25.95-.91,1.58-2.1,1.81-3.35.24-1.24.13-2.55-.4-3.67h.64c-2.25,4.8-8.66,3.35-12.46,5.89-4.04,2.2-7.05,6.08-8.2,10.56h0Z"/>
      <path class="cls-1" d="m52.07,21.48c-.17-2.25,1.13-4.29,2.03-6.26,1.39-3.01,3.56-5.86,6.45-7.62.94-.6,1.86-1.2,2.91-1.7,2.1-.86,4.26-.89,5.77-2.69,0,0,.53-.58.53-.58.1,2.12-.57,4.3-2.03,5.85,1.01-1.49,1.5-3.29,1.42-5.07,0,0,.52.19.52.19-.72.9-1.67,1.62-2.74,2.08-2.23.66-3.99,1.39-5.84,2.75-2.8,1.73-4.78,4.24-6.41,7.11-.87,1.67-2.56,3.98-2.62,5.95h0Z"/>
      <path class="cls-1" d="m4.94,34.09c2.99,3.89,5.92,3.69,10.31,2.6,1.27-.29,2.54-.6,3.65-1.38-.84,1.08-2.17,1.71-3.44,2.13-4.28,1.61-8.6,1.42-10.52-3.36h0Z"/>
      <path class="cls-1" d="m4.78,34.07c3.19,1.03,5.89-1.12,8.55-2.58,1.12-.64,2.51-1,3.8-.6-.24,0-.75.01-.98.02,0,0,.35-.14.35-.14v.13c-1.04.14-1.89.7-2.74,1.29-2.42,1.8-6.12,4.07-8.98,1.88h0Z"/>
      <path class="cls-1" d="m4.36,29.82c.25.55.65.87,1.04,1.27,1.19,1.2,2.14,2.33,3.78,3.02-2.13.66-5.09-2.2-4.82-4.29h0Z"/>
      <path class="cls-1" d="m4.55,29.84c.16-.13.41-.03.57,0,.18.05.26.03.41-.03.92-.41,1.81-.96,2.57-1.62,1.01-.75,1.84-2.31,3.3-2.32.05,0,.12,0,.17.07.06.09-.08.15-.09.08-1.09.42-1.65,2.15-2.74,2.94-.89.74-1.96,1.24-3.12,1.33-.21.02-.5-.06-.63-.2-.15-.11-.25-.27-.44-.25h0Z"/>
      <path class="cls-1" d="m6.38,49.03c-2.37-2.86-1.55-8.48,1.63-10.43.49-.24.97-.47,1.48-.66-.76.78-1.73,1.33-2.14,2.19-1.39,2.73-1.98,5.93-.97,8.91h0Z"/>
      <path class="cls-1" d="m6.41,49.01c.06-4.93,6.34-7.73,10.14-9.65,2.13-1.03,4.5-1.74,6.44-3.06,1.66-1.18,2.94-2.95,3.6-4.89.1-.27.19-.58.04-.85.35.53,0,1.22-.11,1.78-.83,3.04-3.42,5.31-6.26,6.44,0,0-3.29,1.49-3.29,1.49-3.75,1.93-9.76,4.12-10.55,8.74h0Z"/>
      <path class="cls-1" d="m6.79,61.13c-3.62-2.84-4.3-9.49-1.07-12.65,0,0-.17.26-.17.26l.07-.3.09.05c-.85,2.11-1.23,4.29-1.05,6.45.18,2.16.94,4.24,2.12,6.2h0Z"/>
      <path class="cls-1" d="m0,69.45c4.93-.8,6.18-6.37,6.56-10.61.33-4.51,1.24-9.83,5.5-12.38,4-2.59,8.78-3.08,12.46-5.63,1.83-1.25,3.3-3.03,4.25-5.06.99-2.02,1.44-4.31,1.3-6.59.37,2.26.02,4.64-.85,6.79-3.09,7.73-10.75,7.62-16.61,11.32-1.87,1.18-3.28,2.92-3.99,5.02-2,5.73-.56,16.04-8.61,17.13h0Z"/>
      <path class="cls-1" d="m.01,69.37c1.73.34,3.03,1.16,4.63,1.7.16.08.49.1.57.3.02.19-.22.15-.17.06-1.65.6-3.98-.55-5.03-2.07H.01Z"/>
      <path class="cls-1" d="m9.4,61.76c1.95-5.08,4.39-10.32,8.93-13.62,3.42-2.34,6.82-4.38,9.08-7.87.81-1.08,1.5-2.25,2.2-3.42-1.01,2.53-2.37,4.96-4.24,7.02-1.85,2.12-4.33,3.48-6.45,5.07-4.42,3.17-6.92,8.16-9.53,12.82h0Z"/>
      <path class="cls-1" d="m9.26,62.11c.97-3.33,3.71-6.06,6.98-7.2,3.15-1.11,6.89-.36,9.64-2.33.9-.6,1.68-1.38,2.3-2.28.64-.89,1.08-1.93,1.36-3.02-.11,2.31-1.38,4.5-3.2,5.93-1.82,1.52-4.33,1.81-6.58,2.02-4.49.22-8.51,2.82-10.49,6.88h0Z"/>
      <path class="cls-1" d="m5.69,69.29c.23,1.51-.2,3.16.2,4.6,1.06,2.32,1.99,4.86,4.14,6.42-2.75-.75-4.11-3.67-5.04-6.14-.38-1.69.31-3.27.7-4.89h0Z"/>
      <path class="cls-1" d="m19.98,55.18c-2.21,2.93-4.73,5.67-6.77,8.7-5.8,8.49-5.49,17.77,4.51,22.54,1.58.89,3.49,1.42,4.74,2.82-1.41-1.23-3.26-1.61-4.95-2.38-10.82-4.44-11.38-14.81-4.93-23.42,2.23-3,4.86-5.59,7.4-8.26h0Z"/>
      <path class="cls-1" d="m9.22,74.03c.7-2.71,1.59-5.56,3.87-7.41,2.01-1.59,5.42-2.39,7.76-3.3,3.79-1.35,7.78-3.26,9.42-7.13.56-1.24.77-2.63.59-4.01.81,2.77-.41,5.81-2.38,7.82-2,2.1-4.68,3.32-7.3,4.27-2.2.82-5.73,1.66-7.63,2.97-2.24,1.59-3.28,4.34-4.34,6.8h0Z"/>
      <path class="cls-1" d="m9.47,61.6c-1.3,4.59-3,9.16-.66,13.72-3.71-3.8-1.98-9.84.66-13.72h0Z"/>
      <path class="cls-1" d="m23.09,75.81c-1.26,3.13-1.61,6.7-1.33,10.02.33,3.37,2.95,5.85,5.42,8.1,2.47,2.45,6.01,3.66,7.79,6.85.91,1.57.73,4.38-1.5,4.59-1.53.11-4.34-.31-3.97-2.36-.15.88.63,1.58,1.42,1.76,1.39.33,3.7.47,3.9-1.38.19-2.58-2.15-4.25-4.13-5.59-1.43-.94-2.87-1.98-4.17-3.13-2.55-2.32-5.34-5.1-5.52-8.77-.13-3.47.42-7.05,2.09-10.1h0Z"/>
      <path class="cls-1" d="m29.38,102.97c-.42,3.56,5.41,7.97,8.32,4.98.96-.92,1.66-2.18,1.91-3.6.14,1.44-.34,2.98-1.34,4.14-2.18,2.7-6.37,1.16-7.98-1.34-.86-1.13-1.58-2.8-.91-4.17h0Z"/>
      <path class="cls-1" d="m32.24,73.24c-2.33,2.78-3.5,6.46-3.17,10.06.34,3.61,2.38,6.77,4.11,9.89,2.72,4.75,5.83,9.27,9.23,13.57,1.08,1.47,2.16,3.1,2.35,4.96-.41-1.81-1.53-3.29-2.73-4.65-3.67-4.11-6.98-8.58-9.72-13.37-1.75-3.24-3.85-6.53-4-10.34-.17-3.73,1.23-7.54,3.94-10.11h0Z"/>
      <path class="cls-1" d="m35.56,75.29c-1.4,6.71-.35,13.85,3.09,19.76,2.53,4.38,6.68,8.14,8.17,13.18.48,1.68.68,3.48.32,5.18.14-1.73-.17-3.44-.78-5.02-1.82-4.93-5.95-8.27-8.57-12.84-3.5-6.06-4.42-13.61-2.23-20.26h0Z"/>
      <path class="cls-1" d="m41.52,79.44c-2.91,4.26-1.08,11.03,1.48,15.08,2.13,3.33,5.29,6.52,5.97,10.66.21,1.37.16,2.81-.37,4.07.31-1.33.25-2.69-.11-3.97-1.02-4.02-4.13-6.76-6.34-10.23-2.68-4.13-4.3-11.68-.64-15.62h0Z"/>
      <path class="cls-1" d="m54.86,80.05c3.54,4.39,2.55,10.76.32,15.52-2.05,4.76-5.52,8.84-6.56,13.98-.02.13,0,.38.18.37-.39,0-.22-.65-.23-.88.55-5.05,3.75-9.34,5.7-13.88,2.18-4.7,3.37-10.39.59-15.11h0Z"/>
      <path class="cls-1" d="m50.56,113.78c.35-3.59,2.18-6.87,4.21-9.78,2.8-4.35,7.31-8.04,7.97-13.34.18-3.45-.42-7.04-1.47-10.35-.51-1.69-1.21-3.32-1.99-4.93.98,1.49,1.78,3.1,2.45,4.76,1.28,3.38,2.08,6.93,1.96,10.58-.08,1.88-.87,3.67-1.81,5.2-3.74,6.05-9.72,10.68-11.31,17.85h0Z"/>
      <path class="cls-1" d="m58.46,99.89c.1,1.27-.48,2.55-.31,3.81.28,2.85,2.56,3.66,5.14,2.9,1.24-.28,2.48-.58,3.51-1.42-.74,1.12-2.06,1.76-3.3,2.17-3.01,1.29-6.18-.15-6.13-3.63-.02-1.4.78-2.53,1.09-3.84h0Z"/>
      <path class="cls-1" d="m67.02,105.14c-2.84.5-5.75-1.16-3.93-4.25,2.06-3.55,5.87-5.79,8.16-8.95,3.47-4.56,2.21-10.88.05-15.78-.15-.33-.58-1.34-.73-1.67,0,0-.12-.28-.12-.28-.01-.1-.17-.12-.21-.02.02-.11.22-.11.25,0l.16.26c.19.31.72,1.25.9,1.59,2.79,4.93,4.19,11.62.52,16.48-2.02,2.72-4.78,4.53-6.95,6.85-.93,1.08-2.32,2.4-2,3.91.46,1.59,2.45,1.85,3.91,1.86h0Z"/>
      <path class="cls-1" d="m85.74,25.38c.89,1.15,1.91,2.4,3.01,3.29.98.75,2.39.79,3.61.96.17.02.4.08.45-.12.07.25-.27.36-.44.4-.58.16-1.16.27-1.77.28-2.59.17-4.47-2.48-4.86-4.8h0Z"/>
      <path class="cls-1" d="m85.62,33.99c3.33.56,6.46-1.56,7.2-4.85.85,3.84-4.03,7.06-7.2,4.85h0Z"/>
      <path class="cls-1" d="m79.74,32.14c4.16-1.63,8.14,4.6,12.2,2.03,0-.05-.05-.12-.12-.09.06-.06.16,0,.2.08.04.09-.01.18-.06.25-.71.77-1.8,1.1-2.84,1.09-3.56.08-5.87-3.43-9.37-3.35h0Z"/>
      <path class="cls-1" d="m87.29,38.94c1.75-1.55,3.14-3.17,4.71-4.88-.09,2.09-2.58,4.81-4.71,4.88h0Z"/>
      <path class="cls-1" d="m66.86,34.07c1.11,3.09,2.94,6.02,5.64,7.77,2.69,1.78,6.1,1.88,9.29,3.1,4.76,1.78,8.74,5.97,9.51,11.09.24,1.67.18,3.38-.3,4.97.26-1.64.2-3.3-.18-4.88-1.04-4.79-4.89-8.56-9.39-10.25-3.04-1.2-6.62-1.35-9.37-3.4-2.76-2-4.47-5.14-5.2-8.4h0Z"/>
      <path class="cls-1" d="m76.87,36.83c4.2,4.87,11.07,6.89,14.37,12.61,1.57,3.63.8,7.77.14,11.5.07-1.27.14-2.54.11-3.81-.04-2.42.04-5.09-1.09-7.26-3.31-5.37-10.13-7.64-13.52-13.04h0Z"/>
      <path class="cls-1" d="m78.7,35.79c4.5.34,9.1,2.66,11.77,6.42,1.51,2.44,1.25,5.48.77,8.12-.13-2.64-.08-5.39-1.56-7.61-2.69-3.47-6.74-5.64-10.98-6.93h0Z"/>
      <path class="cls-1" d="m66.99,49.58c1.68,3.94,6.27,3.99,9.98,4.13,2.99.11,6.2.98,8.25,3.3.65.78,1.17,1.68,1.38,2.65-1.76-3.66-5.92-4.83-9.69-4.95-3.65-.06-9.05-.74-9.92-5.13h0Z"/>
      <path class="cls-1" d="m75.53,43.64c2.4.97,4.95,2.26,6.36,4.58,1.88,3.93,3.08,8.03,4.87,12.04-2.6-3.47-3.99-7.64-5.68-11.56-1.25-2.23-3.47-3.58-5.55-5.06h0Z"/>
      <path class="cls-1" d="m66.51,56.41c1.58,7.25,10.23,5.5,15.8,7.09,4.5,1.44,8.95,5.52,8.75,10.53-.15,1.61-.9,3.22-2.23,4.1,1.18-1.06,1.75-2.62,1.74-4.12-.12-4.61-4.45-8.23-8.55-9.54-2.91-.88-6.13-.72-9.24-1.58-3.02-.74-6.25-3.1-6.27-6.46h0Z"/>
      <path class="cls-1" d="m77.2,54.32c5.55,6.08,17.91,10.93,14.1,21.15-.55,1.2-1.41,2.27-2.54,2.91.49-.42.92-.89,1.28-1.4,2.47-3.83.95-8.74-1.96-11.91-3.27-3.84-8.08-6.44-10.88-10.75h0Z"/>
      <path class="cls-1" d="m90.36,53.21c-1.38,6.38-.6,14.53,6.26,17.16-7.77-1.28-9.2-11.07-6.26-17.16h0Z"/>
      <path class="cls-1" d="m91.61,69.8c1.85.46,3.58,1.36,5.38.65-.91,2.08-4.54,1.05-5.38-.65h0Z"/>
      <path class="cls-1" d="m71.37,93.01c1.35-1.84,3.36-3.11,5.04-4.61,4.71-3.68,4.29-10.13,2.42-15.21-.35-1.07-.83-2.1-1.33-3.13.69.91,1.27,1.91,1.78,2.94,1.91,4.15,2.92,9.49.08,13.47-2.02,2.93-5.47,4.16-8,6.54h0Z"/>
      <path class="cls-1" d="m79.63,86.24c7.51-3.54,8.31-8.89,5.83-16.26-.6-2.15-1.24-4.26-2.73-5.97.87.71,1.58,1.62,2.15,2.61,3.93,7.97,4.99,16.55-5.25,19.62h0Z"/>
    </g>
  </g>
</svg>