<?xml version="1.0" encoding="UTF-8"?>
<svg id="Layer_2" data-name="Layer 2" xmlns="http://www.w3.org/2000/svg" viewBox="0 0 115.08 129.59">
  <defs>
    <style>
      .cls-1 {
        fill: #a37d2d;
        stroke-width: 0px;
      }
    </style>
  </defs>
  <g id="Layer_1-2" data-name="Layer 1">
    <g>
      <path class="cls-1" d="m69.44,93.43c-2.16-4.46-2.52-10.31.77-14.37,3.2-3.97,8.4-5.4,11.93-8.88,1.71-1.65,3.24-3.68,4-5.92.36-1.11.44-2.31-.02-3.32-.91-2.09-4.17-2.73-5.24-.39-.52.99-.36,2.35.62,2.97,1.38,1.07,4.15.08,3.45-1.91-.23-.52-1.08-.77-1.51-.27.39-.53,1.31-.39,1.64.2.33.59.17,1.34-.22,1.86-2.2,2.43-6.01-.06-4.55-3.12,1.21-2.93,5.41-2.4,6.59.3.6,1.27.49,2.72.11,3.96-.82,2.47-2.36,4.56-4.18,6.37-3.74,3.55-8.84,4.95-12.02,8.64-3.27,3.77-3.07,9.41-1.36,13.88h0Z"/>
      <path class="cls-1" d="m71.4,97.74c3.86.65,7.39,3.23,9.26,6.68.65,1.11,1.28,2.26,2.25,2.93.94.71,2.27.55,3.62,1.15,1.32.62,1.97,1.96,2.63,3.12.63,1.14,1.26,2.35,1.53,3.71,1.22,5.49-4.14,11.5-9.8,9.85-4.53-1.13-5.54-8.07-.36-8.98,2.04-.44,4.42,1.77,3.28,3.77-.35.57-.98.98-1.64.93.66,0,1.23-.45,1.51-1,.93-1.84-1.31-3.71-3.07-3.21-4.44.95-3.33,6.74.52,7.67,5.02,1.39,9.62-4.01,8.63-8.84-.21-1.19-.78-2.33-1.39-3.46-.62-1.13-1.19-2.3-2.21-2.78-1-.5-2.5-.39-3.69-1.31-1.15-.87-1.74-2.13-2.35-3.25-1.75-3.44-4.94-6.02-8.72-6.99h0Z"/>
      <path class="cls-1" d="m79.93,116.57c-4.52,2.72-4.29,9.58.46,11.88,4.87,2.52,13.98-2.54,16.58-6.85,2.95-4.44-.77-9.56.92-14.31.64-1.69,2.08-2.76,2.88-4.02.75-1.12,1.05-2.94-.32-3.66-1.25-.64-2.99-.22-4.71-.72-3.45-1.14-4.88-4.74-5.99-7.84-1.03-2.81.02-5.78,3.25-6.18,2.39-.46,7.91.75,6.26-3.42-.92-2.28-3.68-3.88-3.19-6.67.39-1.89,2.46-2.4,3.63-3.46,2.59-2.93-2.94-5.17-2.64-8.27.1-1.81,1.38-3.04,1.99-4.59,2.13-4.15.22-10.56-5-10.8-3.23-.12-6.17,1.74-8.88,3.33-2.9,1.57-5.03,4.3-5.02,7.7.04,1.1-.55,4.22,1.12,4.26-1.71-.05-1.17-3.09-1.25-4.27-.1-3.45,2.03-6.33,4.94-8,3.84-2.6,9.79-5.74,13.62-1.46,2.39,2.55,2.5,6.47,1.16,9.55-.6,1.58-1.83,2.88-1.86,4.31.08,2.5,3.02,3.77,3.34,6.31.41,1.98-1.62,3.21-3,4-4.42,3.04,3.78,6.53,2.06,10.45-1.69,3.33-6.77.68-9.07,2.87-1.07.94-1,2.6-.54,4.06.97,2.77,2.33,6.26,5.32,7.23,2.26.57,6.14-.29,6.31,3.2.1,2.7-2.81,4.29-3.62,6.41-1.11,3.04.29,6.33.25,9.52.1,3.45-2.12,6.51-4.82,8.43-3.93,2.57-9.23,5.49-13.89,3.21-4.85-2.54-4.97-9.5-.29-12.21h0Z"/>
      <path class="cls-1" d="m71.87,97.56c1.96-1.22,4.47-.14,6.04,1.27,1.62,1.51,2.73,3.43,4.33,4.76,1.59,1.32,3.67,1.97,5.57,3.14,3.81,2.46,5.68,7.28,5.25,11.72-.66,4.83-5.69,6.8-9.72,8.09-2.01.58-4.59.99-6.24-.6,1.78,1.38,4.15.84,6.09.14,3.71-1.4,8.4-3.36,8.97-7.75.32-3.94-1.46-8.59-4.84-10.82-1.73-1.13-3.9-1.78-5.59-3.33-2.88-2.71-5.1-8.43-9.87-6.6h0Z"/>
      <path class="cls-1" d="m71.59,97.52c2.87-1.76,7.05-1.02,9.18,1.64,1.4,1.63,2.39,3.66,4.41,4.54.95.45,2.01.73,3.06,1.16,2.14.88,3.9,2.56,5.01,4.55,1.87,3.46,3.06,9.83.27,13.03-2.46,2.29-5.27,4.03-8.17,5.68-.87.41-2.15,1.47-3.03.59.94.77,2.05-.38,2.9-.82,2.68-1.8,5.48-3.68,7.74-5.96,2.35-3.01,1.2-8.87-.57-12.02-1.56-3.16-4.47-4.26-7.57-5.43-2.15-.93-3.19-3.2-4.53-4.91-1.97-2.6-5.72-3.46-8.69-2.04h0Z"/>
      <path class="cls-1" d="m72.05,97.68c2.54-1.29,5.94-2.25,8.61-.72,1.71,1.11,1.94,3.47,3.49,4.57.71.5,1.63.73,2.57.95,6.6,1.1,9.56,7.27,10.11,13.36.5,3.82-.78,8.56-4.65,10.1,3.57-1.9,4.51-6.3,3.89-10.01-.76-5.73-3.35-11.4-9.56-12.57-.94-.24-1.97-.49-2.86-1.13-1.73-1.21-1.78-3.57-3.35-4.76-2.43-1.49-5.7-.77-8.25.2h0Z"/>
      <path class="cls-1" d="m71.79,97.67c2.62-3.05,7.63-3.38,10.81-1,1.22.89,2,2.35,3.33,2.94,1.39.54,3.01.07,4.51.66,1.68.61,2.14,2.48,2.9,3.8.75,1.31,2.35,1.88,3.19,3.22.88,1.38.89,3.01,1.05,4.56.06.36.03.81.28,1.01.12.09.35.08.41-.07.08-.14-.28-.32-.33-.1.02-.23.45-.14.4.12-.07.24-.37.29-.56.18-.35-.21-.37-.75-.46-1.1-.31-1.44-.45-3.03-1.31-4.24-.9-1.23-2.58-1.7-3.41-3.11-.8-1.2-1.13-2.82-2.52-3.35-1.4-.49-3.05-.03-4.54-.67-1.54-.67-2.28-2.18-3.49-3.15-2.92-2.34-7.48-2.18-10.27.32h0Z"/>
      <path class="cls-1" d="m71.89,97.48c1.14-2.59,4.03-4.18,6.85-4.08,2.93-.03,5.06,2.37,7.38,3.66,1.12.66,2.37.82,3.75.99,1.39.17,2.96.65,3.89,1.77.98,1.08,1.53,2.36,2.26,3.48.7,1.12,1.65,2.19,3.01,2.48-1.42-.06-2.57-1.13-3.41-2.19-.84-1.11-1.47-2.34-2.41-3.23-1.79-1.96-4.94-.88-7.58-2.43-2.37-1.32-4.15-3.57-6.94-3.77-2.63-.25-5.36,1.06-6.8,3.32h0Z"/>
      <path class="cls-1" d="m71.36,96.94c1.1-4.82,6.82-7.6,11.35-5.66,2.96,1.02,4.53,4.4,7.61,4.82,4.47,0,5.96,4.7,9.27,6.68.42.17,1.16.56,1.58.4.21-.11-.08-.41-.17-.21.08-.25.48.12.22.27-.45.27-1.27-.08-1.74-.22-2.88-1.2-4.27-4.48-7.13-5.6-1.38-.47-3.22-.26-4.51-1.2-1.97-1.19-3.38-3.26-5.49-4.06-4.22-1.88-9.35.4-11,4.78h0Z"/>
      <path class="cls-1" d="m97.51,98.87c1.51.83,2.46,1.27,4.06,1.89-1.51.9-3.78-.16-4.06-1.89h0Z"/>
      <path class="cls-1" d="m71.63,97.19c-1.07-4.57,4.08-7.33,7.92-7.9,2.12-.34,4.25.52,6.01,1.58,1.76.99,3.4,2.15,5.42,2.51-2.06.03-4-.96-5.78-1.82-1.79-.88-3.64-1.59-5.51-1.28-3.58.57-8.3,2.61-8.06,6.91h0Z"/>
      <path class="cls-1" d="m69.62,93.26c-3.28-6.12,3.11-12.62,7.03-16.83,4.34-4.25,11.35-7.19,12.22-13.82.21-2.01-.96-4.05-2.79-4.98-1.81-.97-4.24-.64-5.86.76,1.48-1.57,4.01-2.11,6.08-1.2,2.05.91,3.48,3.15,3.35,5.46-.28,4.59-4.04,7.86-7.37,10.48-3.53,2.49-6.62,5.25-9.26,8.67-2.67,3.1-5.28,7.32-3.39,11.46h0Z"/>
      <path class="cls-1" d="m69.59,93.7c-.15-6.88,4.18-12.95,9.02-17.46,3.22-3.03,7-5.53,9.44-9.23,2.37-3.45,3.11-8.75-.21-11.82-1.56-1.46-3.96-2.14-6.08-1.35,2.04-1.01,4.62-.46,6.4.98,3.73,3.15,3.2,8.98.65,12.69-2.43,3.86-6.29,6.43-9.59,9.4-4.82,4.42-9.19,10-9.64,16.8h0Z"/>
      <path class="cls-1" d="m69.82,93.7c-.1-2.38,1.18-4.56,2.44-6.49,2.65-3.85,5.34-7.77,9.01-10.76,1.75-1.52,3.99-2.67,6.03-3.64,1.95-1,2.98-3.15,4.03-5.2,2.37-4.12,2.57-8.89-.48-12.71-1.35-1.85-3.2-3.34-5.3-4.35,2.19.8,4.16,2.24,5.68,4.05,4.56,5.46,2.59,11.13-.79,16.54-1.92,3.15-6.04,3.57-8.6,6.02-3.59,2.9-6.42,6.65-9.19,10.33-1.39,1.83-2.71,3.84-2.84,6.21h0Z"/>
      <path class="cls-1" d="m70.39,94.44c-.39-2.47.98-4.81,2.41-6.72,1.5-1.92,3.11-3.73,4.83-5.47,3.36-3.49,7.37-6.37,11.33-9.1,1.89-1.32,2.8-3.63,3.9-5.76,2.01-4.18,3.55-9.26,1.09-13.57-1.11-2.11-2.83-3.86-4.49-5.61,1.81,1.59,3.61,3.27,4.91,5.37,2.75,4.36,1.39,9.88-.7,14.2-1.08,2.2-2.05,4.65-4.11,6.16-4.05,2.69-7.91,5.49-11.41,8.86-1.75,1.64-3.42,3.39-4.98,5.22-1.53,1.8-2.95,3.95-2.79,6.42h0Z"/>
      <path class="cls-1" d="m70.48,94.41c1.12-7.81,9.18-11.38,14.81-15.63,3.78-2.96,7.15-6.68,9.38-10.93,1.09-2.13,1.45-4.54,1.81-6.96.25-2.1.89-5.19.94-7.27.09-2.39-1.23-4.77-3.32-6.06,2.21,1.09,3.75,3.51,3.81,6.05.04,2.16-.49,5.2-.67,7.37-.2,5.02-2.61,9.75-5.94,13.45-3.22,3.8-7.45,6.58-11.64,9.14-4.05,2.57-8.12,5.92-9.19,10.83h0Z"/>
      <path class="cls-1" d="m70.8,94.4c.78-7.56,9.83-9.13,14.67-13.25,2.61-2.1,4.74-4.75,6.81-7.45l3.09-4.08c1.07-1.33,2.14-2.67,3.33-3.9-1.02,1.37-2,2.76-2.94,4.19l-2.87,4.24c-1.93,2.82-4.09,5.56-6.8,7.77-5.06,4.33-13.65,5.11-15.3,12.47h0Z"/>
      <path class="cls-1" d="m70.96,94.17c2.61-6.34,10.55-7.2,15.18-11.57,2.49-2,4.58-4.41,6.44-7.05.97-1.3,1.98-2.62,3.3-3.65,1.31-.99,2.92-1.72,4.56-1.61-3.36.28-5.53,3.07-7.23,5.7-1.72,2.76-3.9,5.31-6.44,7.38-2.52,2.09-5.49,3.63-8.47,4.91-2.89,1.31-5.83,2.96-7.35,5.88h0Z"/>
      <path class="cls-1" d="m70.97,94.78c2.56-5.16,8.97-6.51,13.71-8.82,2.45-1.14,4.75-2.64,6.24-4.88.76-1.11,1.37-2.39,2.31-3.47.94-1.03,2.29-1.91,3.71-1.73-3.02.25-4.05,3.32-5.37,5.61-.73,1.22-1.7,2.33-2.83,3.19-5.4,4.31-13.62,4.21-17.77,10.1h0Z"/>
      <path class="cls-1" d="m71.52,93.11c1.91-1.8,4.28-3.13,6.83-3.9,2.56-.83,5.3-.7,7.5-1.79,1.11-.51,1.93-1.41,2.73-2.44,1.55-2.14,3.87-3.87,6.46-4.55,1.29-.33,2.63-.46,3.93-.31-1.31.07-2.59.3-3.79.78-2.45.87-4.38,2.54-5.87,4.66-.77,1.04-1.75,2.14-3.04,2.75-2.57,1.21-5.29,1-7.74,1.64-2.52.59-4.89,1.7-7.03,3.16h0Z"/>
      <path class="cls-1" d="m79.67,89.42c3.43-1.39,7.88-1.32,10.54,1.55-1.72-.58-3.29-1.38-5.1-1.39-1.62-.04-3.82-.17-5.44-.16h0Z"/>
      <path class="cls-1" d="m83.99,88.72c3.24-.43,5.45-2.29,7.54-4.51,1.3-1.24,3.33-.88,4.63.14.17.15.54.25.49.53-.07.12-.25,0-.17-.06-.05.08.13.07.1.03,0-.05-.05-.09-.11-.11-2.64-1.07-3.68-.82-5.55,1.48-1.74,1.85-4.42,2.92-6.92,2.5h0Z"/>
      <path class="cls-1" d="m69.29,97.02c.82-1.8,5.99,8.05,6.41,8.99,4.4,7.74-.45,15.68-7.23,19.96-3.27,2.27-7.42,2.79-11.28,2.92-5.22.18-10.61-1.19-14.79-4.43-8.84-6.5-10.87-20.07-2.04-27.47,4.25-3.33,9.88-3.21,14.98-3.49,2.58-.05,5.16.02,7.73.21,2.18-.04,4.6,1.02,6.61-.08.12-.09.26-.21.24-.37,0-.16-.34-.19-.31,0-.03-.19.32-.19.33,0,.03.18-.11.31-.24.41-1.98,1.21-4.47.23-6.65.32-5.11-.2-10.29-.02-15.34.76-2.5.43-4.96,1.25-6.88,2.86-8.24,7.15-6.3,19.93,2.16,26.08,6.02,4.71,14.49,5.26,21.65,3.24,8.19-3.13,15.4-11.89,10.7-20.74-1.3-2.93-2.89-5.74-4.69-8.39-.27-.38-.51-.86-1.01-.96-.15-.04-.34.03-.37.21h0Z"/>
      <path class="cls-1" d="m71.31,97.51l-.2-2.66.2.06c-2.54,3.54-6.98,4.99-11.05,5.91-2.96.76-6.28.91-8.78,2.72-2.27,1.83-2.69,5.61-.87,7.87,1.13,1.5,3.44,2.27,4.9.79,2.73-3.07,3.58-7.61,3.15-11.65,1.08,3.75-.46,14.12-5.88,13.22-4.85-1.08-5.65-8.19-1.92-11,4.5-2.91,10.41-2.23,15.21-4.45,1.99-.85,3.89-2.05,5.24-3.79,0,0,0,.3,0,.3l-.02,2.67h0Z"/>
      <path class="cls-1" d="m43.7,68.02c-3.5,7.22-1.8,17.58,5.4,21.84,1.02.56,2.19.85,3.39.85-1.19.23-2.45.04-3.6-.4-8-3.69-10.08-15.33-5.19-22.28h0Z"/>
      <path class="cls-1" d="m40.88,75.63c-3.33,6-5.73,13.52-.03,18.84-7.01-4.34-4.68-13.65.03-18.84h0Z"/>
      <path class="cls-1" d="m45.9,45.1c-2.38,1.55-3.42,4.75-2.25,7.34.15.37.17.94-.16,1.26-.35.34-.57.39-.61.51-.15.19-.05.69.21,1.12,3.05,4.03,8.18,6.77,9.98,11.76-2.62-4.68-7.72-6.96-10.82-11.27-.35-.63-.63-1.45-.15-2.15.27-.38.67-.51.71-.59.05-.03.07-.11,0-.37-1.12-2.8.27-6.45,3.08-7.61h0Z"/>
      <path class="cls-1" d="m71.4,42.02c2.5.3,4.5,2.67,4.56,5.21.09,1-.42,2.35.6,2.85,1.49.46,1.74,2.35,1.27,3.62-1.36,3.53-3.88,6.36-7.03,8.32-.98.55-2.09,1.44-1.72,2.7-.63-1.21.52-2.44,1.44-3.1.96-.71,1.84-1.49,2.63-2.37,1.36-1.58,4.92-5.91,3.59-7.93-.38-.36-1.2-.58-1.45-1.21-.45-.92-.14-2.01-.1-2.88.1-2.29-1.56-4.53-3.79-5.2h0Z"/>
      <path class="cls-1" d="m51.8,64.98c-.17,5.88,3.18,10,8.63,5.6.32-.24.54-.52,1-.62.56-.08.93.15,1.21.27,1.53.77,3.45,1.47,5,.56,1-.53,1.3-1.81,1.42-3.04.15-1.21.08-2.53-.74-3.54,1.72,1.52,1.73,5.89-.27,7.22-1.19.84-2.75.8-4.01.41-.79-.17-1.71-.81-2.43-.92-5.87,5.11-11.06,1.39-9.82-5.96h0Z"/>
      <path class="cls-1" d="m57.62,64.75c-.65,1.14-.97,2.79.2,3.53.76.46,2.39.42,3.1,1.34.28.32.45.8.31,1.18-.69-1.72-2.48-.79-3.91-1.65-1.72-1.04-1.21-3.56.31-4.39h0Z"/>
      <path class="cls-1" d="m61.32,70.49c-.51-1.6,1.77-2.2,2.42-3.19.8-.99.81-2.39-.23-3.29,1.74.24,2.1,2.73,1.02,3.9-.8,1.28-2.76,1.07-3.21,2.58h0Z"/>
      <path class="cls-1" d="m55.78,72.85c.6.1,1.06.59,1.46.97,1.17,1.19,3.01,1.12,4.55,1.25,2.24.08,4.22-1.18,4.99-3.34-.16,4.36-5.21,5.1-8.5,3.63-1.28-.42-1.49-1.84-2.49-2.51h0Z"/>
      <path class="cls-1" d="m53.17,71.33c-.49,2.42,1.18,4.16,3.44,4.64,1.07.32,2.29.56,3.35,1.27,1.01.66,1.85,1.98,1.44,3.19-.27-2.61-2.97-2.93-5.07-3.5-2.5-.53-4.62-3.09-3.16-5.6h0Z"/>
      <path class="cls-1" d="m68.39,70.61c.55.2.91.81.99,1.41.2,1.88-1.52,3.24-2.68,4.39-1.04,1.15-3.07,1.68-3.49,3.17-.15.5-.2,1.13-.55,1.6.2-.85-.13-1.74.27-2.59,1.16-2.19,7.84-5.12,5.45-7.98h0Z"/>
      <path class="cls-1" d="m72.43,60.63c4.13,2.3,4.06,7.76,1.3,11.14-2.5,3.31-5.87,5.87-8.81,8.72-.96.94-1.82,1.98-2.34,3.21-.55,1.2-.75,2.61-.35,3.93-1.27-2.65.29-5.7,2.13-7.67,4.53-5.11,15.9-12.23,8.06-19.33h0Z"/>
      <path class="cls-1" d="m74.12,58.59c2.87.21,3.84,3.89,3.01,6.23-.23.82-.57,1.58-1,2.3.26-3.08,1.06-6.67-2.01-8.53h0Z"/>
      <path class="cls-1" d="m76.95,55.77c4.23,5.68,2.55,13.85-2.8,18.2-3.69,3.36-8.16,5.69-10.76,10-.87,1.37-1.42,2.94-1.57,4.59-.16-3.4,1.84-6.51,4.13-8.87,2.33-2.44,5.14-4.25,7.53-6.46,5.17-4.15,6.84-11.67,3.48-17.46h0Z"/>
      <path class="cls-1" d="m47.91,61.28c-1.38,4.46-.04,9.62,3.32,12.81,2.41,2.42,6.65,3.12,8.65,6.22.66,1.03,1.05,2.32.76,3.5.05-1.2-.42-2.33-1.16-3.21-2.32-2.88-6.25-3.11-8.94-5.78-3.56-3.39-4.83-9.1-2.63-13.54h0Z"/>
      <path class="cls-1" d="m46.8,59.69c-2.9,5.45-1.07,12.75,4.27,15.93,2.07,1.32,4.69,1.75,6.67,3.34.98.81,1.82,1.93,1.92,3.21-.33-1.22-1.2-2.16-2.21-2.81-2.08-1.4-4.69-1.6-6.87-2.92-1.12-.66-2.12-1.51-2.98-2.48-3.47-3.86-3.87-10.07-.8-14.26h0Z"/>
      <path class="cls-1" d="m43.99,56.84c-2.54,5.76-.84,12.67,3.41,17.16,2.06,2.31,4.65,3.99,7.46,5.42,1.38.76,2.79,1.59,3.92,2.76,1.09,1.17,1.95,2.68,1.93,4.29-.21-1.58-1.12-2.93-2.27-3.94-2.35-2.11-5.55-2.86-8.13-4.71-1.33-.9-2.56-1.96-3.65-3.15-4.39-4.64-6.03-12.18-2.67-17.83h0Z"/>
      <path class="cls-1" d="m73.01,42.5c.27-2.66,3.47-3.71,5.75-3.77,1.73-.16,3.51.13,4.96-.84.44-.32.8-.79.92-1.38.11.61-.16,1.26-.59,1.74-1.32,1.41-3.53,1.33-5.23,1.48-2.25.11-4.73.54-5.81,2.77h0Z"/>
      <path class="cls-1" d="m75.22,45.2c1.4-.67,2.32-1.85,2.65-3.23,1.54.68,3.27-.38,4.44-1.42,1.15-1.06,1.99-2.47,2.43-4.1.33,3.37-3.12,7.53-6.74,6.45,0,0,.55-.25.55-.25-.6,1.4-1.92,2.41-3.33,2.54h0Z"/>
      <path class="cls-1" d="m75.67,49.59c.11-2.15,2.86-2.69,4.24-3.62,1.48-1.03,2.3-2.78,2.33-4.62.82,1.9-.07,4.29-1.77,5.45-1.66,1.15-3.78.91-4.81,2.8h0Z"/>
      <path class="cls-1" d="m75.62,46.5c.06-1.13,1.69-.89,2.35-1.1.78-.23,1.37-.7,1.9-1.4.28,1.34-1.13,2.57-2.43,2.44-.67-.03-1.19-.41-1.82.05h0Z"/>
      <path class="cls-1" d="m35.64,43.32c.2,1.84.32,4.18,2.26,4.89.92.36,2.11.54,2.92,1.24.88.7,1.45,1.61,1.93,2.55-.8-.69-1.53-1.42-2.37-1.9-.81-.5-1.77-.55-2.85-.96-2.33-.84-2.57-3.81-1.89-5.82h0Z"/>
      <path class="cls-1" d="m38.41,46.73c.69.61,1.59,1.15,2.43,1.14.67-.11,1.82-1.01,2.74-.64.13.08.02.26-.06.19.07-.02.01-.1,0-.06-1.02.43-1.38,1.28-2.6,1.5-1.28,0-2.35-.94-2.5-2.14h0Z"/>
      <path class="cls-1" d="m31.56,39.29c1.58,1.7,3.25,3.82,5.74,3.66.31,0,.74.02,1.12.2,1.6,1.06,2.64,2.7,4.2,3.81.24.16.52.29.83.18-.25.22-.65.18-.95.07-1.72-.68-3.03-2.14-4.48-3.17-.19-.09-.4-.1-.7-.09-2.77.16-4.78-2.36-5.74-4.66h0Z"/>
      <path class="cls-1" d="m31.8,39.08c1.24.56,2.48,1.16,3.72,1.33,1.23.21,2.43-.38,3.95-.42,2.88-.03,5.71,2.23,6.01,5.1-.53-1.27-1.43-2.26-2.47-2.98-1.06-.7-2.29-1.13-3.52-1.11-1.3,0-2.75.58-4.1.19-1.43-.35-2.55-1.22-3.58-2.09h0Z"/>
      <path class="cls-1" d="m67.11,63.3c-3.36-4.92-1.84-12.23,3.02-15.61,1.12-.7,2.77-2.03,4.11-1.05.39.33.59.95.27,1.35.21-.45-.09-.92-.43-1.14-1.26-.59-2.5.77-3.46,1.45-4.32,3.61-5.65,9.73-3.5,15h0Z"/>
      <path class="cls-1" d="m44.06,50.78c.11-2.3,3.13-2.74,4.87-2,3.96,1.35,5.94,5.68,6.18,9.58.16,1.91.12,4.06-.99,5.71.74-1.82.49-3.75.22-5.61-.54-3.62-2.17-7.42-5.68-8.95-1.59-.74-4.04-.79-4.6,1.27h0Z"/>
      <path class="cls-1" d="m45.28,52.4c.5.85,1.32,1.34,2.15,1.47.84.17,1.51-.27,2.57-.6,2.1-.63,4.58,1.16,4.33,3.35-.32-.93-.93-1.65-1.67-2.07-1.27-.74-2.47-.34-3.78.12-1.55.46-3.46-.7-3.6-2.28h0Z"/>
      <path class="cls-1" d="m46.16,51.43c1.61,1.76,4-.07,5.93,1.07,1.08.76,2.03,2.02,1.82,3.38-.24-.82-.81-1.36-1.39-1.9-1.61-1.95-5.46.34-6.37-2.55h0Z"/>
      <path class="cls-1" d="m73.25,51.05c.46,2.73-1.88,2.45-3.76,2.53-1.54.16-3.33.48-3.79,2.22-.44-2.01,2.05-3.14,3.7-3.22,1.8-.19,3.3.83,3.85-1.54h0Z"/>
      <path class="cls-1" d="m66.43,53.66c.19-1.59,1.57-3.02,3.18-3.19,1.49-.27,2.89-.03,4.11-1.05-.23.76-1,1.29-1.73,1.55-1.38.52-2.86.31-4.04,1.16-.54.39-1.02.94-1.52,1.52h0Z"/>
      <path class="cls-1" d="m60.62,53.59c-.13-3.21,3.01-5.34,5.44-6.76,2.42-1.45,5.2-3.72,8.25-2.99-3.09.12-5.2,2.33-7.73,3.84-2.47,1.48-5.24,2.89-5.96,5.91h0Z"/>
      <path class="cls-1" d="m45.62,45.38c1.82-1.36,3.87.62,5.46,1.38,1.14.47,2.65.49,3.73,1.29,1.71,1.16,2.67,3.1,3.33,4.96-.78-1.06-1.54-2.12-2.41-3.02-1.36-1.63-3.21-1.65-5.05-2.38-1.69-.84-2.97-2.94-5.05-2.23h0Z"/>
      <path class="cls-1" d="m57.58,38.55c.64-.88,1.97-.85,2.68-.12.15.13-.01.13.07.26.03,0,.01-.07,0-.04-.04-.05.07-.1.12-.05.17.29-.3.28-.37.29-.93.06-1.52.02-2.49-.33h0Z"/>
      <path class="cls-1" d="m45.63,45.22c-.12-2.38,3.27-3.15,5.1-2.47.88.36,1.09,1.25,1.71,1.79.27.24.61.42,1,.54-.4.1-.84.04-1.25-.12-.74-.26-1.14-1.12-1.82-1.33-1.62-.29-3.97-.16-4.74,1.59h0Z"/>
      <path class="cls-1" d="m65.72,44.1c-.13-.12-.06-.35.03-.48.97-1.49,2.87-1.73,4.48-1.92.59-.06,1.28-.05,1.82.29-.61.08-1.11.28-1.65.47-1.32.52-2.78.58-4.06,1.17-.24.14-.59.18-.61.47h0Z"/>
      <g>
        <path class="cls-1" d="m60.41,41.53c-.92-7.67,3.44-14.8,7.22-21.14,6.11-9.48,15.13-18.24,26.68-20.05,5.58-.84,12.01-.33,16.44,3.52,4.71,4.1,5.14,10.22,3.36,15.86.76-3.63,1.28-7.57-.46-11C110.48,1.47,101.51.03,94.46,1.24c-11.27,1.91-19.99,10.37-26.19,19.57-3.89,6.22-8.35,13.08-7.86,20.72h0Z"/>
        <path class="cls-1" d="m71.71,41.96c-.93-5.96-.71-12.34,2.01-17.86,5.85-10.69,18.3-17.76,30.51-16.87,7.25.26,10.68,6.13,9.7,12.86.32-4.37-1.14-9.44-5.46-11.22-7.07-2.29-15.06-.17-21.39,3.33-11.86,6.85-16.75,16.1-15.37,29.76h0Z"/>
        <path class="cls-1" d="m60.36,39.49c.79-.77,2.03-.72,3.06-.86,2.13-.12,4.45-.17,6.33,1.07.93.63,1.62,1.45,2.24,2.31l-.06.05-.09-.2.16.15c-.44-.02-1.9-1.36-2.65-1.62-1.8-.88-3.93-.82-5.91-1-.89,0-2.22-.29-3.06.09h0Z"/>
        <path class="cls-1" d="m60.75,36.34c1.52-1.46,3.85-1.43,5.78-.97,1.88.37,4.19,1.24,4.88,3.23-1.38-1.47-3.2-1.86-5.08-2.25-1.88-.47-3.68-.7-5.57,0h0Z"/>
        <path class="cls-1" d="m61.77,32.39c2.71-1.8,8.52.07,9.88,2.98-1.42-1.18-3.02-1.76-4.71-2.26-1.71-.48-3.36-1.05-5.17-.73h0Z"/>
        <path class="cls-1" d="m63.55,28.62c2.81-1.51,6.91.15,7.88,3.2-2.26-2.14-4.76-3.16-7.88-3.2h0Z"/>
        <path class="cls-1" d="m65.02,25.75c-.1-.03-.12-.2,0-.28,2.64-.62,6.39.5,7.09,3.43-1.85-2.02-4.34-2.51-6.81-3.25-.09-.03-.15-.06-.21-.05-.05-.01-.13.08-.06.15h0Z"/>
        <path class="cls-1" d="m67.07,22.26c.45-.53,1.31-.5,1.92-.35,1.84.5,3.77,1.45,4.59,3.3,0,0-.23.15-.23.15-.17-.5-.11-.53.24-.14,0,0-.23.15-.23.15-.94-.81-1.94-1.36-3.01-1.92-.92-.39-2.22-1.45-3.28-1.19h0Z"/>
        <path class="cls-1" d="m68.77,19.32c2.19-.83,5.05.66,6.25,2.49,0,0-.12.02-.12.02.04,0,.09-.11.01-.17.09,0,.2.14.12.29l-.02.05c-.63-.17-1.13-.62-1.63-.8-1.52-.63-2.98-1.46-4.62-1.86h0Z"/>
        <path class="cls-1" d="m70.65,16.76c1.87-1.01,4.09-.1,5.32,1.46.44.48.94,1.1,1.03,1.82-.04-.05-.13-.15-.17-.2l.13.03-.06.05c-.89-.79-1.97-1.46-2.92-2.14-1.02-.72-2.1-.8-3.32-1.02h0Z"/>
        <path class="cls-1" d="m73.14,13.96c2.35-.78,5.22.9,5.78,3.31.05.24-.21.19-.12.09-1.44-1.53-3.45-2.75-5.66-3.4h0Z"/>
        <path class="cls-1" d="m75.52,11.15c2.44.02,4.89,1.84,5.22,4.33-1.56-1.75-3.31-2.98-5.22-4.33h0Z"/>
        <path class="cls-1" d="m77.89,8.98c1.36-.08,2.6.6,3.7,1.3,1.06.69,2.42,1.58,2.57,2.98,0,0-.14,0-.14,0,.04-.03.05-.13-.01-.18.09.01.17.11.15.24l-.02.17-.12-.17c-.63-.93-2.06-1.59-2.97-2.19-1.07-.74-2.02-1.47-3.16-2.14h0Z"/>
        <path class="cls-1" d="m80.58,6.76c2.96-.97,5.5,2.41,5.74,5.04,0,0-.16.03-.16.03l.09-.3c.05.17.15.55.19.73-1.6-2.27-2.97-4.93-5.87-5.5h0Z"/>
        <path class="cls-1" d="m83.66,4.85c2.95.17,4.2,3.59,4.53,6.07,0,0-.13.01-.13.01l.11-.21c.01.11.04.34.05.44-1.7-2.16-2.16-4.75-4.56-6.32h0Z"/>
        <path class="cls-1" d="m86.54,3.35c3.1.85,4.64,3.37,4.03,6.55-.01.05-.04.24-.14.17-.02-.02-.01-.08.02-.06-.33-1.09-.74-2.69-1.3-3.65-.57-1.31-1.76-1.87-2.61-3.01h0Z"/>
        <path class="cls-1" d="m89.3,1.93c2.99.55,4.87,3.93,4.74,6.8,0,0-.31-.06-.31-.06.12-.13.18-.37.09-.6.39.27.22.81.06,1.19-.93-2.85-2.14-5.45-4.57-7.33h0Z"/>
        <path class="cls-1" d="m93.59.88c2.49,1.21,3.5,4.68,2.5,7.17-.48-2.62-1.08-4.93-2.5-7.17h0Z"/>
        <path class="cls-1" d="m96.82.55c2.46.89,3,5.17,1.6,7.09-.09.04-.06-.09-.01-.08-.02.01-.01.03,0,.05.01.02,0-.01-.02,0,.1-.6,0-1.18-.07-1.79-.2-1.89-.3-3.63-1.49-5.27h0Z"/>
        <path class="cls-1" d="m99.56.63c2.57.91,2.9,4.87,1.53,6.86.06-.32.02-.61-.02-.92-.17-2.08-.17-4.2-1.5-5.94h0Z"/>
        <path class="cls-1" d="m102.22.71c1.25.5,1.78,1.94,2.19,3.12.42,1.29.54,2.85-.15,4.11-.06-.19-.13-.47.07-.58-.05.1,0,.21.04.26l-.18.02c-.08-1.25-.4-2.35-.74-3.52-.33-1.04-.59-2.49-1.24-3.4h0Z"/>
        <path class="cls-1" d="m104.87,1.34c2.39.71,2.7,4.64,1.31,6.39-.1-2.28,0-4.49-1.31-6.39h0Z"/>
        <path class="cls-1" d="m108.32,2.53c1.41,1.6,1.21,4.41-.42,5.79.32-2.1.44-3.67.42-5.79h0Z"/>
        <path class="cls-1" d="m111.18,4.77c1.07,1.38.12,3.84-1.47,4.21.04.02,0,.08-.04.08-.19-.01-.04-.26-.01-.31.72-1.33,1.12-2.44,1.52-3.98h0Z"/>
        <path class="cls-1" d="m113.19,7.15c.74,1.38-.28,3.28-1.78,3.55,0,0-.15-.21-.15-.21.09-.02.18-.03.28-.05-.04.09-.08.18-.12.25l-.15-.21c.8-1.22,1.23-2.02,1.92-3.33h0Z"/>
        <path class="cls-1" d="m114.3,9.98c1.02.83-.51,2.35-1.53,2.45.05-.64.32-1.07.65-1.46.34-.41.67-.46.88-1h0Z"/>
        <path class="cls-1" d="m114.84,11.97c.64.91-.31,2.22-1.38,1.88.39-1.02.53-1.2,1.38-1.88h0Z"/>
        <path class="cls-1" d="m114.87,14.07c.45.88-.09,1.8-1.08,1.84-.04-.99.2-1.39,1.08-1.84h0Z"/>
      </g>
      <g>
        <path class="cls-1" d="m57.66,41.7c-.41-7.65-5.64-13.94-10.24-19.65-7.23-8.4-16.89-15.79-28.31-16.36C11.97,5.31,3.23,7.78.93,15.37c-1.33,3.61-.35,7.46.83,10.98C-.65,20.96-.96,14.83,3.24,10.2c3.94-4.34,10.27-5.6,15.91-5.43,11.69.44,21.67,8.08,28.85,16.77,4.5,5.86,9.67,12.43,9.65,20.15h0Z"/>
        <path class="cls-1" d="m46.49,43.44c-.24-13.74-6.17-22.33-18.76-27.75-6.7-2.74-14.88-3.9-21.63-.8-4.08,2.27-4.93,7.48-4.1,11.78C-1.98,10.17,17.57,10.3,28.12,14.77c12.71,5.57,19.03,14.64,18.37,28.67h0Z"/>
        <path class="cls-1" d="m57.47,39.66c-.87-.28-2.17.17-3.05.27-1.95.41-4.07.6-5.75,1.68-.73.36-2,1.85-2.44,1.93,0,0,.14-.17.14-.17l-.07.21-.07-.05c.51-.93,1.1-1.83,1.95-2.56,1.72-1.45,4.02-1.67,6.16-1.81,1.04.02,2.26-.17,3.14.5h0Z"/>
        <path class="cls-1" d="m56.71,36.58c-1.96-.47-3.72-.02-5.53.66-1.82.61-3.59,1.21-4.78,2.83.45-2.05,2.64-3.19,4.46-3.78,1.86-.69,4.17-.98,5.85.29h0Z"/>
        <path class="cls-1" d="m55.24,32.77c-1.83-.11-3.4.65-5.05,1.33-1.62.69-3.14,1.46-4.42,2.8,1-3.05,6.56-5.59,9.46-4.12h0Z"/>
        <path class="cls-1" d="m53.03,29.23c-3.09.4-5.45,1.71-7.45,4.1.6-3.14,4.47-5.27,7.45-4.1h0Z"/>
        <path class="cls-1" d="m51.23,26.56c.06-.08-.04-.16-.08-.14-.06,0-.12.03-.2.07-2.36,1.03-4.78,1.8-6.38,4.03.34-2.93,3.68-4.35,6.32-4.3.26-.04.56.16.34.34h0Z"/>
        <path class="cls-1" d="m48.78,23.34c-1.08-.13-2.25,1.08-3.12,1.57-1,.68-1.93,1.34-2.76,2.26l-.24-.12c.1-.13.2-.26.32-.39-.02.17-.04.34-.07.5l-.24-.12c.6-1.93,2.4-3.1,4.17-3.82.59-.23,1.44-.36,1.95.12h0Z"/>
        <path class="cls-1" d="m46.75,20.61c-1.58.59-2.94,1.59-4.37,2.39-.47.24-.92.75-1.52.99,0,0-.03-.04-.03-.04-.09-.14,0-.28.09-.3-.06.07,0,.18.03.17h-.12c.98-1.96,3.64-3.77,5.92-3.21h0Z"/>
        <path class="cls-1" d="m44.58,18.3c-1.19.36-2.26.57-3.18,1.41-.86.79-1.86,1.58-2.65,2.47,0,0-.06-.05-.06-.05l.13-.05c-.04.05-.11.16-.15.22,0-.73.42-1.39.8-1.93,1.04-1.69,3.14-2.86,5.11-2.07h0Z"/>
        <path class="cls-1" d="m41.78,15.81c-2.12.9-3.98,2.35-5.22,4.04.1.09-.16.17-.13-.08.28-2.45,2.93-4.46,5.35-3.96h0Z"/>
        <path class="cls-1" d="m39.09,13.3c-1.74,1.56-3.33,2.99-4.67,4.91.03-2.51,2.25-4.6,4.67-4.91h0Z"/>
        <path class="cls-1" d="m36.48,11.42c-1.06.8-1.91,1.64-2.89,2.5-.84.71-2.17,1.52-2.69,2.52,0,0-.1.18-.1.18l-.04-.16c-.03-.12.04-.23.13-.25-.06.07-.03.16,0,.19l-.14.02c-.01-1.41,1.23-2.45,2.21-3.26,1.01-.83,2.16-1.65,3.52-1.73h0Z"/>
        <path class="cls-1" d="m33.54,9.54c-2.8.91-3.86,3.71-5.18,6.15.03-.18.08-.56.11-.74,0,0,.12.28.12.28h-.16c-.07-2.65,2.06-6.31,5.11-5.69h0Z"/>
        <path class="cls-1" d="m30.26,8c-2.19,1.84-2.34,4.47-3.78,6.81,0-.11,0-.34,0-.45l.13.19h-.13c.04-2.51.88-6.05,3.79-6.56h0Z"/>
        <path class="cls-1" d="m27.23,6.84c-.72,1.23-1.84,1.93-2.24,3.29-.44,1.02-.66,2.67-.86,3.78.03-.02.04.03.03.06-.1.08-.14-.11-.16-.16-.98-3.08.26-5.77,3.24-6.98h0Z"/>
        <path class="cls-1" d="m24.32,5.76c-2.19,2.16-3.09,4.88-3.68,7.82-.2-.37-.43-.87-.08-1.19-.07.24.02.47.16.59l-.3.09c-.47-2.84,1-6.41,3.91-7.31h0Z"/>
        <path class="cls-1" d="m19.94,5.22c-1.15,2.38-1.47,4.75-1.64,7.41-1.28-2.35-.68-5.92,1.64-7.41h0Z"/>
        <path class="cls-1" d="m16.69,5.27c-.99,1.77-.88,3.51-.86,5.41,0,.61-.04,1.2.14,1.78-.03,0-.03.02-.02,0,0-.01,0-.04-.01-.04.05-.01.09.11,0,.08-1.62-1.75-1.59-6.06.76-7.23h0Z"/>
        <path class="cls-1" d="m13.97,5.67c-1.12,1.88-.87,3.99-.8,6.07,0,.32,0,.6.09.92-1.6-1.82-1.73-5.78.71-6.99h0Z"/>
        <path class="cls-1" d="m11.35,6.06c-.53.98-.63,2.46-.83,3.53-.2,1.2-.38,2.33-.32,3.58h-.18c.05-.05.07-.17.01-.26.21.08.18.38.14.57-.83-1.17-.9-2.73-.63-4.06.27-1.21.62-2.7,1.81-3.35h0Z"/>
        <path class="cls-1" d="m8.79,7c-1.08,2.04-.72,4.22-.55,6.5-1.58-1.57-1.74-5.51.55-6.5h0Z"/>
        <path class="cls-1" d="m5.5,8.58c.23,2.11.53,3.66,1.1,5.7-1.78-1.18-2.31-3.95-1.1-5.7h0Z"/>
        <path class="cls-1" d="m2.93,11.15c.58,1.48,1.11,2.54,1.98,3.78.04.05.21.28.02.31-.04,0-.09-.05-.05-.07-1.62-.19-2.85-2.52-1.95-4.01h0Z"/>
        <path class="cls-1" d="m1.21,13.75c.84,1.22,1.36,1.97,2.3,3.08,0,0-.12.23-.12.23-.18-.22-.15-.27.13-.22,0,0-.12.23-.12.23-1.52-.1-2.76-1.86-2.19-3.32h0Z"/>
        <path class="cls-1" d="m.44,16.69c.27.51.61.52.99.89.37.34.69.74.81,1.37-1.02.02-2.72-1.31-1.8-2.26H.44Z"/>
        <path class="cls-1" d="m.14,18.72c.92.58,1.08.74,1.59,1.71-1.02.46-2.12-.73-1.59-1.71H.14Z"/>
        <path class="cls-1" d="m.35,20.81c.93.35,1.21.71,1.29,1.7-.98.08-1.63-.77-1.29-1.7H.35Z"/>
      </g>
      <path class="cls-1" d="m67.54,94.39c1.31.49,2.06.48,3.32.13-.28,1.71-3.17,1.6-3.32-.13h0Z"/>
      <path class="cls-1" d="m65.73,94.19c.74.48,1.29,1.16,2.12,1.29.36.08.84.07,1.3.16.4,0,1.06.37,1.32.2-.02.32-.45.37-.63.44-.23.06-.46.11-.7.14-1.69.41-3.19-.44-3.42-2.23h0Z"/>
      <path class="cls-1" d="m62.95,94.04c1.12.7,1.92.55,3.29.61-.63,1.45-3.43,1.14-3.29-.61h0Z"/>
      <path class="cls-1" d="m61.88,93.82c.17.52.6.79.94,1.16.38.35.66.27,1.16.36,1.03.16,1.88.34,2.9-.03-.75,1.35-2.61,1.21-3.9.83-.67-.26-.91-.85-1.12-1.44-.08-.28-.12-.61.02-.87h0Z"/>
      <path class="cls-1" d="m66.71,95.58c.77.83,1.04.99,1.87,1.52-.99,1.06-2.72-.34-1.87-1.52h0Z"/>
      <path class="cls-1" d="m65.74,95.8c.34.84.62,1.94,1.26,2.59-1.38.66-2.45-1.8-1.26-2.59h0Z"/>
      <path class="cls-1" d="m63.69,95.88c.94.82,1.1.91,2.25,1.41-.85,1.23-2.98-.11-2.25-1.41h0Z"/>
      <path class="cls-1" d="m62.67,95.44c-.85.63-.02,1.96.55,2.41.81.61,1.93.52,2.97.67-1.62,1.17-4.32.67-4.51-1.6-.12-.59.26-1.58.99-1.47h0Z"/>
      <path class="cls-1" d="m59.97,93.77c.33.47.44.99.83,1.29.28.19,1.03.77,1.37.85-.21.35-.72.33-1,.3-1.24-.02-1.95-1.43-1.2-2.44h0Z"/>
      <path class="cls-1" d="m58.5,93.96c.59,1.24,1.19,1.82,2.32,2.3.37.19.67.43,1.11.48-.52.52-1.38.26-2.02.14-1.15-.35-1.98-1.81-1.42-2.92h0Z"/>
      <path class="cls-1" d="m62.84,98.26c-.03.93,0,.87-.72,1.45-.8-.53-.18-1.76.72-1.45h0Z"/>
      <path class="cls-1" d="m61.82,96.75c-.12,1.28-.86,2.33-1.14,3.59.02-.03.08,0,.04.07-.06.05-.11.01-.14,0-1.09-1.2-.06-3.07,1.23-3.65h0Z"/>
      <path class="cls-1" d="m59.34,96.12c.42.87.59,1.21.99,1.92.13.22.3.52.28.86-1.31-.16-2.3-1.72-1.27-2.79h0Z"/>
      <path class="cls-1" d="m58.37,94.85c-.5,1.48.32,2.8,1.01,4.03.16.35.64.55,1.14.81-2.33.87-4.25-3.64-2.15-4.84h0Z"/>
      <path class="cls-1" d="m58.54,98.95c.35.75.41,1.01.3,1.69-.01.06-.03.07-.08.09-.11.03,0,.13,0,.06.1-.02.09.23-.1.21-.92-.23-1.11-1.68-.13-2.04h0Z"/>
      <path class="cls-1" d="m58.15,97.81c-.47,1.32-.62,1.88-.93,3.25-1.21-.88-.56-3.14.93-3.25h0Z"/>
      <path class="cls-1" d="m56.12,93.81c.97.66,1.23.91,1.88,1.89-1.12.47-2.35-.78-1.88-1.89h0Z"/>
      <path class="cls-1" d="m54.7,93.89c.13.87.63,1.28,1.29,1.75.48.31,1.2.94,1.76,1.07.15.01.31.24.18.33-.03-.13-.13-.09-.19-.06-1.53.62-4.32-1.49-3.04-3.09h0Z"/>
      <path class="cls-1" d="m55.73,96.35c.25.52.24,1.03.56,1.42.36.45.49.87.92,1.31-.69.32-1.37-.27-1.77-.77-.43-.64-.24-1.46.29-1.95h0Z"/>
      <path class="cls-1" d="m54.8,95.58c-.05,2.03.1,3.83,2.32,4.41-2.63,1.19-4.14-2.7-2.32-4.41h0Z"/>
      <path class="cls-1" d="m55.37,99.53c.25.85.29,1.04.09,1.85,0,0-.26-.09-.26-.09-.02.07.1.09.14,0,.14.02.17.27,0,.39,0,0-.22-.13-.22-.13-.78-.46-.68-1.78.25-2.02h0Z"/>
      <path class="cls-1" d="m54.42,98.08c-.15,1.38-.29,2.35-.45,3.64-.04.17-.22.04-.12,0-1.1-.84-.8-3.1.57-3.65h0Z"/>
      <path class="cls-1" d="m51.99,94.04c.03.17.18.16.3.21.93.43,1.49,1.08,2.45,1.49-1.06.96-2.68-.25-2.88-1.43-.02-.1.03-.25.13-.27h0Z"/>
      <path class="cls-1" d="m50.23,94.32c-.13.04,0,.08.07.16l.26.23c.83.68,1.25,1.55,2.41,1.69.45.09.91.22,1.36.44-.73.27-1.38.42-2.16.33-.81-.12-1.39-.9-1.74-1.54-.2-.39-.37-.8-.4-1.25.01-.11.16-.15.19-.07h0Z"/>
      <path class="cls-1" d="m51.9,96.57c.67,1.16.9,1.44,1.91,2.33-1.31.78-2.93-1.2-1.91-2.33h0Z"/>
      <path class="cls-1" d="m51.15,96.1c.18,1.87,1,3.04,2.55,3.94-2.11.69-4.04-2.3-2.55-3.94h0Z"/>
      <path class="cls-1" d="m46.4,94.74c.23.34,1.19.5,1.64.86.17.11.19.09.35.09l1.16.07c.38.01.75.02,1.21-.1-.5,1.01-1.91,1.18-2.9.94-.55-.28-.87-.71-1.26-1.16-.13-.17-.32-.46-.2-.7h0Z"/>
      <path class="cls-1" d="m44.75,95.12c.52.94,1.88,1.42,2.87,1.49.84.09,1.83.21,2.68.31,0,0,.46.05.46.05.15,0,.32.08.39-.06.04.21-.23.28-.35.34-.44.19-.92.3-1.4.35-1.27.11-2.74.15-3.76-.75-.5-.39-1.06-1.05-.89-1.72h0Z"/>
      <path class="cls-1" d="m49,97.14c.29.5.72.6,1.14.89.42.21.73.6,1.26.44.06.4-.44.66-.78.67-.95.1-2.32-1.09-1.61-2h0Z"/>
      <path class="cls-1" d="m47.65,96.99c-.02.21.29.44.4.61.38.48.9,1.17,1.42,1.4.78.31,1.85.58,2.73.53-.34.48-1.01.56-1.5.62-.53.06-1.12.02-1.69-.26-.97-.52-1.34-1.49-1.47-2.48-.02-.13-.02-.33.1-.42h0Z"/>
      <path class="cls-1" d="m52.29,99.82c.15.63.34,1.01.46,1.61.04.18.09.37.18.66-.29.08-.58-.01-.8-.18-.68-.49-.72-1.79.16-2.08h0Z"/>
      <path class="cls-1" d="m50.66,99.91c.34.45.24,1.04.37,1.48.1.46.24.79.52,1.27-.69.2-1.35-.39-1.5-1.05-.14-.72.18-1.18.6-1.7h0Z"/>
      <path class="cls-1" d="m41.39,96.54s.02.07.06.09c.7.16,1.44.26,2.15.22.74-.04,1.45-.15,2.28-.44l.1.13c-.27.03-.22.06-.09-.14,0,0,.1.13.1.13-.68,1.26-2.49,1.64-3.74,1-.32-.15-.6-.38-.81-.66-.05-.05-.22-.29-.05-.34h0Z"/>
      <path class="cls-1" d="m39.96,97.78c2.49,1.83,5.33.83,7.77-.44-.39.66-.97,1.18-1.61,1.58-1.87,1.29-5.15,1.17-6.16-1.14h0Z"/>
      <path class="cls-1" d="m45.72,98.69l2.85.39c-.52,1.27-2.69.97-2.85-.39h0Z"/>
      <path class="cls-1" d="m44.06,99.26c1.92,1.35,4.03,1.55,6.04.44-1.08,2.5-5.27,2.12-6.04-.44h0Z"/>
      <path class="cls-1" d="m47.97,100.95c.58.62,1.33.44,2.04.77.25.08.48.18.82.27-.39.58-1.19.61-1.79.48-.61-.09-1.49-.84-1.07-1.52h0Z"/>
      <path class="cls-1" d="m46.45,101.05c-.02.24.16.34.3.52l.42.5c.71.94,1.79,1.14,2.78,1.71.11.04.2.19.19.06.03-.01.07.04.06.08-.02.06-.07.08-.1.09-.91.16-1.8.13-2.64-.36-.68-.44-1.02-1.14-1.14-1.88-.02-.2-.11-.58.14-.73h0Z"/>
      <path class="cls-1" d="m37.91,100.27c1.62-.14,2.48-.37,3.97-1.02-.29,1.71-2.89,2.37-3.97,1.02h0Z"/>
      <path class="cls-1" d="m36.74,102.48c1.47.07,2.71-.3,3.95-.85,1.24-.6,2.54-1.05,3.43-2.18-.43,2.67-5.16,4.62-7.38,3.03h0Z"/>
      <path class="cls-1" d="m42.62,101.21c1.47.56,2.46-.08,4.03-.16-.72,1.43-3.48,2.01-4.03.16h0Z"/>
      <path class="cls-1" d="m41.29,102.11c1.56,1.25,3.98.8,5.79.28-.94,1.5-3.19,1.9-4.72,1.07-.5-.24-1.09-.73-1.07-1.36h0Z"/>
      <path class="cls-1" d="m45.55,103.27c1.11,1.1,2.2,1.29,3.59,1.46.19.02.37.05.57-.07-.07.51-.71.67-1.13.78-1.35.35-3.17-.62-3.04-2.16h0Z"/>
      <path class="cls-1" d="m44.82,103.66c.57.84.79,1.68,1.74,2.08.55.3,1.38.44,2.02.56.25.03.53.2.62-.04.06.04.05.16,0,.23-.87.61-2.11.58-3.09.14-1.13-.48-1.54-1.85-1.3-2.97h0Z"/>
      <path class="cls-1" d="m35.54,105.78c-.06-.08-.12-.15-.17-.23.83-.29,1.46-.39,2-1.09.53-.64,1.12-1.11,1.65-1.8.2.92-.36,1.77-.89,2.45-.28.34-.74.71-1.27.79-.51.08-.95-.04-1.36-.21l.09-.11c-.01.07-.03.14-.04.21h0Z"/>
      <path class="cls-1" d="m35.12,107.39c2.63-.73,4.54-2.66,5.33-5.17.36.67.09,1.5-.15,2.13-.66,2.07-3.05,3.71-5.18,3.05h0Z"/>
      <path class="cls-1" d="m39.92,104.28c1.31-.35,1.77-.51,3.02-1.01.05,1.46-2.18,2.21-3.02,1.01h0Z"/>
      <path class="cls-1" d="m39.12,105.75c2.52.21,4.41-.58,6.03-2.51-.14,2.73-4,4.33-6.03,2.51h0Z"/>
      <path class="cls-1" d="m42.72,105.99c1.36.04,1.87.02,3.23-.09-.41,1.41-2.74,1.46-3.23.09h0Z"/>
      <path class="cls-1" d="m40.51,106.21c1.98,1.9,4.73,1.96,6.76.24,0,0,.08.07.08.07-.23.12-.18.12-.08-.08,0,0,.08.07.08.07-.25.66-.76,1.24-1.39,1.62-1.88,1.26-4.92.25-5.46-1.93h0Z"/>
      <path class="cls-1" d="m37.74,106.67c1.36.26,1.89.31,3.27.35-.58,1.38-2.98,1.12-3.27-.35h0Z"/>
      <path class="cls-1" d="m35.84,107.56c1.11.51,2.07,1.08,3.28,1.08,1.1.03,2.2-.23,3.28-.86l.09.1c-.27.1-.22.11-.08-.1l.09.1c-.31.57-.83,1.05-1.44,1.35-1.85.97-4.28.18-5.22-1.66h0Z"/>
      <path class="cls-1" d="m35.16,110.17c.7-.31,2.12-.9,2.83-1.17.07,1.38-1.91,2.19-2.83,1.17h0Z"/>
      <path class="cls-1" d="m35.23,112.3c.27.56.75.27,1.18.08,1.34-.68,2.5-1.63,2.97-3.14.74,1.76-1.05,3.63-2.74,3.88-.52.16-1.66-.06-1.4-.83h0Z"/>
      <path class="cls-1" d="m38.79,111.23c1.55-.58,2.72-1.05,3.15-2.67,1.26,1.85-1.55,3.79-3.15,2.67h0Z"/>
      <path class="cls-1" d="m37.99,112.24c2.42,0,4.87-1.57,5.51-4.07.76,2.17-1.39,4.33-3.49,4.49-.67.06-1.53.11-2.02-.43h0Z"/>
      <path class="cls-1" d="m46.52,107.4c1.09.46,1.45.74,2.54.83-.5,1.45-2.84.57-2.54-.83h0Z"/>
      <path class="cls-1" d="m44.75,108.23c.28.38.65.44,1.03.6,1.17.44,2.14,1,3.42,1.04-.03.14-.02.05-.05-.03.02.01.13.05.15.07-1.09,1.1-2.91.49-3.91-.41-.33-.27-.77-.75-.63-1.26h0Z"/>
      <path class="cls-1" d="m42.96,110.52c1.43-.27,2.09-.42,3.49-.8-.31,1.5-2.57,2.01-3.49.8h0Z"/>
      <path class="cls-1" d="m40.79,112.33c0,.17.25.1.4.14,2.55.23,4.82-.63,6.71-2.46-.72,2.83-4.61,4.23-7.03,2.58-.08-.05-.19-.19-.09-.26h0Z"/>
      <path class="cls-1" d="m38.03,112.3c1.79,1.09,1.25,4.59-1.07,4.52,1.3-1.29,1.34-2.72,1.07-4.52h0Z"/>
      <path class="cls-1" d="m40.76,111.86c.6,1.24.79,2.71.15,4.01-.57,1.2-1.86,2.53-3.29,2.16,1.71-.72,2.55-2.55,2.91-4.26.16-.63.02-1.27.22-1.91h0Z"/>
      <path class="cls-1" d="m40.45,115.43c.6-.32.95-.61,1.45-1,.48-.4.88-.52,1.07-1.19,1.18,1.25-1.36,3.15-2.52,2.19h0Z"/>
      <path class="cls-1" d="m39.68,116.74c2.55-.12,4.86-1.59,4.6-4.29,2.01,2.85-1.95,5.9-4.6,4.29h0Z"/>
      <path class="cls-1" d="m46.88,111.5c1.22-.15,1.74.08,2.79-.41.17,1.57-2.33,1.74-2.79.41h0Z"/>
      <path class="cls-1" d="m45.96,112.32c1.28.06,2.3.51,3.56.17.21-.04.75-.13.95-.15.09-.02.29-.01.23-.02-.02-.05.09-.04.08.03-.53.76-1.43,1.21-2.37,1.27-.98.03-1.84-.58-2.45-1.3h0Z"/>
      <path class="cls-1" d="m44.45,113.86c.43-.39,1.03-.15,1.46-.32.34-.07.77-.32,1.43-.44-.06,1.02-1.31,1.83-2.2,1.26-.27-.15-.4-.33-.68-.51h0Z"/>
      <path class="cls-1" d="m43.88,115.2c.98.09,2,.33,2.83-.13.71-.51,1.61-1.22,2.11-2.04,0,0,.1.06.1.06l-.17.05c.04-.06.13-.2.17-.26.2,1.29-.68,2.34-1.72,3.07-1.16.6-2.49.13-3.31-.74h0Z"/>
      <path class="cls-1" d="m38.9,120.19c.49-.81.73-2.18,1.06-3.4-.09-.07.06-.15.13-.08,1,1.04.4,3.47-1.18,3.47h0Z"/>
      <path class="cls-1" d="m39.99,121.58c1.36-1.2,1.56-3.02,1.61-4.81,0,0,.11.06.11.06,0-.04-.12,0-.11.1-.08-.05-.09-.24.08-.3l.04-.02c.69.82.84,2.02.49,3.05-.32.91-1.12,2.1-2.23,1.91h0Z"/>
      <path class="cls-1" d="m42.12,118.97c.79-.46,1.18-1.17,1.56-1.93.16-.48.07-1.05.29-1.6.39.55.73,1.13.63,1.83-.21,1.03-1.38,2.2-2.48,1.7h0Z"/>
      <path class="cls-1" d="m41.53,120.52c1.34,0,2.81-.39,3.66-1.34.66-.99,1.15-2.57.47-3.75.73.34,1.03,1.28,1.02,2.05.19,2.76-2.88,4.35-5.15,3.05h0Z"/>
      <path class="cls-1" d="m42.47,120.63c1.62.39,1.37,2.97-.28,3.11,0,0,.15-.14.15-.14.13-.12.08-.12.15.03,0,0-.13-.07-.13-.07.27-1.23.28-1.66.1-2.93h0Z"/>
      <path class="cls-1" d="m44.27,120.34c1.53.48,1.62,2.67.96,3.89-.34.67-1.04,1.01-1.73,1.15,0,0,.41-.35.41-.35.27-.25.32-.21.22.14,0,0-.18-.17-.18-.17.5-.72.61-1.46.68-2.26.05-.86.1-1.58-.35-2.39h0Z"/>
      <path class="cls-1" d="m45.88,119.28c.99-.15,1.39,1.25,1.08,1.98-.25.73-.78,1.55-1.63,1.61.19-.37.28-.67.38-.98.21-.86.82-1.79.16-2.61h0Z"/>
      <path class="cls-1" d="m46.51,117.5c3.99,1.54,2.42,8.19-1.94,7.19,3.52-.68,4.29-4.74,1.94-7.19h0Z"/>
      <path class="cls-1" d="m46.76,124.04c1.4-.13,2.19,1.84,1.41,2.87-.13.06-.17-.12-.09-.1-.01.05.07,0-.01-.01-.03,0-.04,0-.07-.04-.55-.95-.71-1.65-1.24-2.71h0Z"/>
      <path class="cls-1" d="m48.16,122.63c1.89.32,3.08,3.43,1.69,4.84-.12.14-.23.01-.15-.02.09-.25.02-.87-.05-1.2-.35-1.28-.71-2.51-1.49-3.63h0Z"/>
      <path class="cls-1" d="m47.39,118.07c.36-.21.43-.49.56-.78.33-.94.65-1.77.42-2.81,1.31.51,1.1,2.41.22,3.25-.27.3-.81.58-1.2.34h0Z"/>
      <path class="cls-1" d="m48.01,119.81c.38.01.57-.28.81-.53.68-.71,1.27-1.51,1.45-2.47.27-1.23.02-2.55-.37-3.94l.1.02c-.05.01-.11.09-.1.17-.07-.08-.04-.24.05-.32,1.64,1.62,1.99,4.72.08,6.29-.52.38-1.38,1.13-2.03.77h0Z"/>
      <path class="cls-1" d="m48.61,122.87c.81-1.17.96-2.36,1.17-3.84,1.17.97.76,3.07-.54,3.74-.17.08-.42.21-.63.1h0Z"/>
      <path class="cls-1" d="m50.51,117.92c2.47,1.37,1.66,5.71-1.14,6.1,1.68-1.67,2.15-3.86,1.14-6.1h0Z"/>
      <path class="cls-1" d="m50.13,125.75c-.06.04-.04.02-.04-.03.96-.51,2.07.45,2.21,1.4.06.26.09.97-.34.92.11-.25-.24-.39-.36-.6-.27-.32-.63-.79-.91-1.09-.11-.17-.61-.51-.59-.62,0,0,.04.03.04.03h0Z"/>
      <path class="cls-1" d="m49.61,124.07c.16-.3.6-.23.85-.17,1.97.39,3.82,2.35,3.38,4.44-.12-.05-.23-.18-.18-.29.03.07.11.1.15.09l-.1.09c-.78-1.71-2.01-2.81-3.45-3.89-.2-.15-.38-.34-.65-.26h0Z"/>
      <path class="cls-1" d="m51.13,122.48c.73-.05,1.29.26,1.68.94.2.72.07,1.22-.26,1.84-.23-.27-.36-.53-.46-.79-.17-.83-.59-1.19-.95-1.98h0Z"/>
      <path class="cls-1" d="m51.57,120.72c.6.04,1.28.2,1.74.8.42.59.55,1.14.75,1.72.29,1.05.46,2.64-.52,3.4-.11.02-.22-.05-.22-.13.14.1.19-.05.19-.16.11-.98-.14-1.89-.41-2.83-.3-1.21-.44-2.01-1.53-2.79h0Z"/>
      <path class="cls-1" d="m50.77,114.92c.68-.82.88-1.05,1.56-1.76.89.91-.55,2.53-1.56,1.76h0Z"/>
      <path class="cls-1" d="m50.93,116.58c1.32-.88,2.74-1.75,3.04-3.41,1.32,1.72-1.27,4.07-3.04,3.41h0Z"/>
      <path class="cls-1" d="m51.26,119.14c1.05-.66,1.54-2.02,1.63-3.21,1.51.94.08,4.03-1.63,3.21h0Z"/>
      <path class="cls-1" d="m51.84,121.09c1.4-1.34,2.24-2.78,2.48-4.6.05-.57.08-1.16-.3-1.71.68.22,1.02,1.03,1.08,1.7.24,2.03-1.19,4.29-3.26,4.61h0Z"/>
      <path class="cls-1" d="m53.63,122.8c.55-.52.4-1.18.61-1.81.16-.56.16-.99-.04-1.52-.04-.09-.04-.22-.03-.17-.01.03-.09,0-.03-.07.12-.07.4.14.53.21.57.35.71,1.23.55,1.79-.19.7-.68,1.84-1.59,1.58h0Z"/>
      <path class="cls-1" d="m53.81,124.14c1.57-.76,1.92-2.9,2.21-4.47-.03-.95-.85-1.83-1.35-2.68.71.32,1.32.83,1.8,1.45.62.57.53,1.7.34,2.45-.23,1.33-1.39,3.47-2.99,3.25h0Z"/>
      <path class="cls-1" d="m54.88,116.32c.84-1.08,1.48-2.64,1.04-3.92,0,.04-.1,0-.04-.07,2.04.49.87,4.16-1,3.99h0Z"/>
      <path class="cls-1" d="m55.52,117.89c1.39-1.52,3.1-5.26,1.49-6.95,3,.93,1.07,6.49-1.49,6.95h0Z"/>
      <path class="cls-1" d="m56.62,119.87c-.02.17.05.28-.12.08.44-.51.6-1.37.84-1.97.25-.71.4-1.2-.04-1.92.21.04.44.09.63.25,1.2,1.08-.03,3.94-1.63,3.82.09-.08.22-.18.31-.25h0Z"/>
      <path class="cls-1" d="m56.31,121.52c2.27-.66,3.92-2.95,3.06-5.27-.19-.55-.5-1.07-.91-1.49-.15-.11-.3-.39-.46-.24,0-.14.2-.14.3-.11,4.03,1.6,2.18,7.7-2,7.11h0Z"/>
      <path class="cls-1" d="m53.96,125.92s0,.05-.03.05c-.19-.02-.04-.24.11-.23,1.31-.29,2.61,1.36,1.86,2.53-.67-.91-1.06-1.38-1.76-2.1-.05-.07-.18-.12-.17-.23-.03-.1-.04.01-.01-.02h0Z"/>
      <path class="cls-1" d="m54.42,123.96c-.02-.18.23-.25.37-.23.44.06.81.16,1.21.35,1.43.56,1.93,2.29,1.64,3.67-.04.19-.09.43-.19.59,0,.02-.07-.04-.06.04,0-.02-.02-.05-.05-.06.05-.03.19.02.11.1-.06.06-.14-.03-.15-.07-.47-1.56-.5-2.6-1.72-3.62,0,0-.58-.49-.58-.49-.21-.15-.36-.43-.58-.28h0Z"/>
      <path class="cls-1" d="m56.02,124.66c1.02-1.1,1.04-1.89,1.38-3.3,0,0,.19-.01.19-.01-.1.18-.13.17-.19-.02,0,0-.14-.43-.14-.43l.33.42c1.04,1.15.17,3.69-1.57,3.35h0Z"/>
      <path class="cls-1" d="m57.08,125.63c.65-.77,1.41-1.32,1.55-2.32.08-.91.32-2.01.1-2.95.54.27.72.96.82,1.45.11.52.17,1.09.06,1.69-.19,1.23-1.38,2.02-2.53,2.13h0Z"/>
      <path class="cls-1" d="m58.22,124.82c1.57-.08,2.7,2.3,1.51,3.4-.05.03-.09.06-.17.08-.1.03-.17-.13-.09-.13,0,.06.05.02.03,0,0-.02,0-.06,0-.1-.1-1.2-.64-2.2-1.29-3.24h0Z"/>
      <path class="cls-1" d="m59.23,123.07c2.04.28,3.38,2.32,3.19,4.31-.03.28-.16.71-.5.71.19-.21.08-.44,0-.66-.45-1.12-.93-2.25-1.68-3.19-.3-.42-.75-.71-1.02-1.17h0Z"/>
      <path class="cls-1" d="m57.98,108.47c.89-.08,1.14,1.12,1.24,1.75.04.32.09.83-.21,1.25-.28.39-.66.53-1.05.57.33-.73.45-.92.27-1.69-.15-.7.14-1.25-.25-1.89h0Z"/>
      <path class="cls-1" d="m58.59,106.59c.84.17,1.44.96,1.8,1.68.39.76.75,1.56.72,2.45-.03,1.64-1.22,3.76-3.07,3.51,2.22-.97,2.41-3.63,1.63-5.66-.23-.72-.46-1.43-1.08-1.97h0Z"/>
      <path class="cls-1" d="m59.72,115.82c.22-.52.11-.9.19-1.41.05-.5.13-.78-.07-1.33,1.54-.06,1.31,2.85-.12,2.74h0Z"/>
      <path class="cls-1" d="m60.17,117.44c1.75-2.01,2.87-4.55.45-6.67,1.54.21,2.6,1.92,2.37,3.45-.23,1.52-1.42,2.73-2.82,3.23h0Z"/>
      <path class="cls-1" d="m59.19,122.79c.67-.53.73-1.1,1.02-1.84.29-.61.3-1.18-.24-1.76,2.41-.06,1.1,4.11-.78,3.61h0Z"/>
      <path class="cls-1" d="m60.3,117.39c3.4.85,4.01,5.93.3,6.72,2.45-2,1.68-4.8-.3-6.72h0Z"/>
      <path class="cls-1" d="m61.84,125.94c.26-.54.15-.9.18-1.43,0-.54.06-.89-.14-1.47,1.52.02,1.5,2.99-.04,2.9h0Z"/>
      <path class="cls-1" d="m62.62,127.65c.99-.82,1.21-2.26,1.42-3.4.12-.87-.39-1.73-.83-2.51-.18-.29-.26-.62-.6-.71.16-.09.39-.03.55.07,1.06.7,2.03,1.87,1.88,3.23-.24,1.37-.9,3.11-2.42,3.31h0Z"/>
      <path class="cls-1" d="m61.99,118.67c.04-.91-.03-1.11-.18-1.83-.05-.22-.12-.47-.13-.79.64.1,1.1.53,1.23,1.18.1.62-.25,1.36-.92,1.44h0Z"/>
      <path class="cls-1" d="m62.58,114.83c2.7.69,3.12,5.35.5,6.44-.08.02-.23.02-.25-.08.15.07.22-.13.31-.24,1.17-1.86.87-4.45-.56-6.12h0Z"/>
      <path class="cls-1" d="m58.86,105.04c1.22-.31,2.33,1.33,1.65,2.43-.15.27-.59.75-.92.57-.06-.06-.03-.17.03-.16-.02.04.04.06.05.04.23-1.14.02-1.85-.82-2.87h0Z"/>
      <path class="cls-1" d="m58.93,103.05c1.43.4,2.79,1.36,3.29,2.84.55,1.43-.12,3.47-1.69,3.84,2.17-2.37.25-4.93-1.59-6.68h0Z"/>
      <path class="cls-1" d="m61.56,108.73c1.36.32,1.28,2.62-.07,2.87-.09-.07-.09-.19-.04-.24.04.06.12.05.13.02l-.13.03c.13-1.12.15-1.51.12-2.67h0Z"/>
      <path class="cls-1" d="m62.03,107.87c2.32.66,2.93,4.36.33,5.16,1.17-1.76.76-3.38-.33-5.16h0Z"/>
      <path class="cls-1" d="m63.42,112.02c1.52-.03,1.89,2.13,1.02,3.1-.22.31-.64.72-1.11.6.3-.3.3-.61.41-.95.25-.98.33-1.87-.33-2.74h0Z"/>
      <path class="cls-1" d="m63.59,109.82c1.51.49,2.82,1.86,3.08,3.6.25,1.66-.8,3.67-2.54,3.85,2.65-2,1.6-5.38-.54-7.46h0Z"/>
      <path class="cls-1" d="m64.21,125.64c.74-.91,2.37-.16,2.16.99-1.08-.28-1.24-.36-2.16-.99h0Z"/>
      <path class="cls-1" d="m64.58,123.84c1.13-1.25,3.69-.07,3.62,1.58-.01.04-.03.11-.12.09-.05-.03-.03-.1,0-.08-1.01-.68-2.21-1.39-3.5-1.58h0Z"/>
      <path class="cls-1" d="m63.89,120.34c1.45-.29,1.85,2.23.36,2.39.05-.94-.03-1.51-.36-2.39h0Z"/>
      <path class="cls-1" d="m64.61,118.34c1.71-.05,2.73,1.87,2.51,3.43-.17.98-1.01,1.67-1.85,2.02.51-.98,1.14-1.72.85-2.83-.14-1.06-.6-1.93-1.5-2.61h0Z"/>
      <path class="cls-1" d="m65.47,116.5c1.42-.12,1.71,2.28.3,2.5-.01-1.21-.02-1.32-.3-2.5h0Z"/>
      <path class="cls-1" d="m66.19,114.31c.63-.02,1.07.68,1.3,1.18.8,1.47.84,4.08-1.06,4.7.94-1.4.61-2.92.32-4.46-.11-.53-.12-1.02-.56-1.42h0Z"/>
      <path class="cls-1" d="m66.68,122.45c1.03-.57,2,.47,1.53,1.48-.93,1.3-.6-.1-.89-.59-.13-.55-.38-.39-.64-.89h0Z"/>
      <path class="cls-1" d="m66.64,121.05c2.12-.96,4.43,1.87,3.16,3.8-.11.17-.44.14-.41-.04.28.09.14-.18.13-.42-.25-1.64-1.2-2.74-2.88-3.34h0Z"/>
      <path class="cls-1" d="m67.43,119.04c.96-.32,1.86.69,1.5,1.59-.06.24-.24.62-.57.66-.02-.29-.28-.8-.36-1.18-.11-.35-.39-.64-.56-1.07h0Z"/>
      <path class="cls-1" d="m67.24,116.36c1.51-.34,3.03,1.15,3.36,2.54.3,1.37.44,3.27-.88,4.13.32-.66.31-1.29.26-1.94-.16-1.89-.81-4.01-2.74-4.74h0Z"/>
      <path class="cls-1" d="m70.53,121.72c.44-.86,1.79-.4,2.01.39-.03.03-.15.06-.13.12,0,.03.03.11.09.09.02-.02-.02-.07-.03-.03-.05-.01-.02-.1.05-.12.11-.02.17.14.13.21-.03.15-.27.18-.39.13-.74-.08-1.08-.43-1.73-.79h0Z"/>
      <path class="cls-1" d="m70.39,120.32c.75-.9,2.16-.32,2.71.52.09.14.17.36.06.51-.25-.19-.46-.08-.73-.18-.79-.18-1.27-.54-2.04-.85h0Z"/>
      <path class="cls-1" d="m58.9,100.75c1.59-.55,2.3,1.89.99,2.68-.11.06-.5.3-.52.06,0-.03.05-.07.07-.04-.02,0,0,.03,0,.03.02,0,0-.04,0-.04.21-.98.33-1.95-.55-2.7h0Z"/>
      <path class="cls-1" d="m60.63,100.5c1.94.23,1.85,3.09.12,3.53.26-.89.41-1.73.28-2.59-.03-.21-.34-.53-.39-.94h0Z"/>
      <path class="cls-1" d="m61.63,105.4c.23-.18.12-.36.09-.43-.1-.18-.12-.69-.07-.91,0-.14.05-.3-.08-.56.58-.3,1.07.5,1.05.97,0,.2,0,.44-.16.74-.14.32-.64.48-.83.19h0Z"/>
      <path class="cls-1" d="m61.95,107.22c.26-.14.34-.37.43-.6.22-.66.5-1.49.47-2.15.02-1.05-.6-1.69-1.42-2.35,2.19-.12,3.06,2.46,1.9,4.08-.31.44-.74,1.15-1.37,1.02h0Z"/>
      <path class="cls-1" d="m62.25,102.32c.22-.82.23-1.29.04-2.12,1.49-.21,1.44,2.38-.04,2.12h0Z"/>
      <path class="cls-1" d="m63.16,103.05c-.16-.34.3-.61.33-.89.11-.42.2-1.13.32-1.54.04-.22.09-.47-.11-.79,1.3-.03,1.13,2.14.41,2.79-.34.37-.71.19-.95.42h0Z"/>
      <path class="cls-1" d="m63.34,104.85c.66-1.01.82-1.52.42-2.56.77-.1,1.3.79,1.15,1.5-.15.76-.91,1.29-1.57,1.06h0Z"/>
      <path class="cls-1" d="m62.9,106.33c2.29-.56,2.85-2.75,1.82-4.57-.15-.28-.21-.59-.5-.73.17-.05.36.03.5.13,1.01.71,1.71,1.92,1.43,3.2-.26,1.42-1.89,2.54-3.25,1.97h0Z"/>
      <path class="cls-1" d="m62.99,108.84c.34-.24.24-.74.3-1.06.05-.37.1-.71.22-1.31.59.23.83.87.77,1.43-.01.53-.71,1.45-1.29.95h0Z"/>
      <path class="cls-1" d="m64.21,110.27c.05-.29.4-.41.51-.54.79-1.23.54-2.81.16-4.19,1.65.79,1.89,3.93.03,4.64-.3.06-.48-.04-.71.09h0Z"/>
      <path class="cls-1" d="m65.3,109.77c1.21-.16,1.34,1.92.11,1.72,0-.81-.22-.59-.11-1.72h0Z"/>
      <path class="cls-1" d="m66.3,113.38c.73-1.36,1.48-3,.52-4.39-.3-.44-.73-.88-1.03-1.43.86.36,1.79.8,2.24,1.7.68,1.53-.23,3.51-1.73,4.12h0Z"/>
      <path class="cls-1" d="m66.84,114.79c.22-1.17.22-1.25.22-2.44,1.39.15,1.17,2.54-.22,2.44h0Z"/>
      <path class="cls-1" d="m67.46,116.34c.61-.69.61-1.75.78-2.55.1-.85-.46-1.67-.69-2.55.95.5,1.8,1.5,1.68,2.64-.18.98-.65,2.39-1.78,2.46h0Z"/>
      <path class="cls-1" d="m65.81,104.11c1.78,0,1.58,3.01-.18,2.77.54-.95.6-1.76.18-2.77h0Z"/>
      <path class="cls-1" d="m65.35,101.91c2.01.42,3.38,2.88,2.79,4.86-.39.82-1.12,1.01-1.79,1.46.05-.11.16-.35.21-.47l.05.28-.14-.07c.22-.47.83-1.01.89-1.47.03-1.76-.73-3.25-2-4.6h0Z"/>
      <path class="cls-1" d="m65.48,99.01c1.56.54,1.38,2.93-.41,2.84.18-.52.49-.85.49-1.32.05-.33-.11-.84-.08-1.52h0Z"/>
      <path class="cls-1" d="m66.99,98.43c.61.65,1.23,1.51.91,2.43-.42.88-.96,1.31-1.76,1.78.06-.44.19-.82.36-1.18.22-.53.51-.81.53-1.28-.03-.54-.16-1.14-.04-1.74h0Z"/>
      <path class="cls-1" d="m68.6,114.89c.7-.13,1.36.28,1.61.96.27.69-.3,1.76-1.08,1.49.55-1-.01-1.42-.52-2.45h0Z"/>
      <path class="cls-1" d="m68.83,113.73c2.85-1.08,4.19,4.17,1.28,4.75.37-.45.58-.91.67-1.37.18-1.4-.44-3-1.95-3.38h0Z"/>
      <path class="cls-1" d="m70.91,117.93c1.52-.69,1.99,2.55.42,2.46.21-.56,0-.77-.04-1.31-.05-.49.02-.72-.38-1.15h0Z"/>
      <path class="cls-1" d="m71.46,116.52c2.2-.7,3.48,2.68,2.16,4.28-.36-1.76-.51-3.42-2.16-4.28h0Z"/>
      <path class="cls-1" d="m73.65,118.21c-.12-1.1,1.59-1.47,1.93-.42-.94.43-.9.42-1.93.42h0Z"/>
      <path class="cls-1" d="m72.49,116.78c.33-1.5,2.73-1.88,3.63-.72.02.03,0,.12-.05.13-.03,0-.09-.02-.06-.05-1.13.21-2.36.28-3.52.64h0Z"/>
      <path class="cls-1" d="m71.05,114.86c.45-.43,1.21-.41,1.71.1.49.48.43,1.56-.33,1.67-.05-.96-.56-1.12-1.38-1.77h0Z"/>
      <path class="cls-1" d="m69.93,113.62c1.52-1.73,4.79,0,4.16,2.23-.9-1.56-2.37-2.33-4.16-2.23h0Z"/>
      <path class="cls-1" d="m68.21,111.95c.86-.8,2.41-.03,2.28,1.14-1.11-.29-1.38-.43-2.28-1.14h0Z"/>
      <path class="cls-1" d="m67.8,110.02c1.98-.82,4.47,1.1,4.26,3.21-.11.03-.23-.02-.26-.1.07.03.14,0,.16-.04l-.05.1c-1.14-1.59-2.27-2.44-4.1-3.16h0Z"/>
      <path class="cls-1" d="m67.55,107.15c1.03.19,1.55,1.38,1.14,2.32-.14.39-.76.62-.98.28.26-.11.28-.3.23-.51-.15-.74-.25-1.2-.39-2.1h0Z"/>
      <path class="cls-1" d="m67.81,105.49c2.48-.05,3.72,3.22,1.97,4.91-.07.09-.26.01-.19-.07.1.11.05-.09.09-.2.32-1.86-.39-3.47-1.87-4.64h0Z"/>
      <path class="cls-1" d="m73.8,114.63c.53-.95,2.81-1.15,2.99.08-.33-.07-.51.01-.73.05-.76.18-1.42.13-2.26-.12h0Z"/>
      <path class="cls-1" d="m73.2,113.88c.23-1.6,2.59-2.24,3.68-1.1.05.04.23.23.06.29-.04,0-.08-.05-.05-.07-1.27.1-2.41.26-3.7.88h0Z"/>
      <path class="cls-1" d="m71.69,112.32c.17-.62,1.08-.42,1.43-.15.32.25.73.62.74,1.07-.05.16-.24.15-.25.06.07,0,.02-.13-.03-.07-.18.23-.81-.11-1.02-.23-.4-.23-.42-.55-.88-.68h0Z"/>
      <path class="cls-1" d="m69.88,110.49c1.7-1.8,5.19.26,5.19,2.53-.05-.08-.15-.24-.2-.32,0,0,.16.04.16.04l-.09.07c-1.43-1.38-3.04-2.53-5.05-2.33h0Z"/>
      <path class="cls-1" d="m70.14,108.04c.63-.18,1.26.02,1.62.61.28.63.23,1.07-.02,1.67-.26-.19-.43-.4-.56-.63-.31-.71-.64-.98-1.05-1.66h0Z"/>
      <path class="cls-1" d="m68.95,106.11c.23-.25.63-.28.96-.24.99.17,1.85.52,2.63,1.19,1.01.84,1.21,2.3.77,3.49-.01.04-.03.1-.1.13-.09.03-.11-.1-.06-.09.05.12-.03-.14-.06-.27-.1-.4-.21-.9-.35-1.27-.4-1.06-1.32-1.63-2.25-2.24-.53-.29-.93-.74-1.56-.69h0Z"/>
      <path class="cls-1" d="m67.35,103.6c.24-.32.74-.18,1.05-.06,1.02.43,1.5,1.92.75,2.77,0,0-.17.19-.17.19l-.06-.13c-.13-.25-.08-.3.18-.21,0,0-.22.06-.22.06-.22-1.02-.55-1.66-1.19-2.39-.1-.1-.17-.22-.35-.24h0Z"/>
      <path class="cls-1" d="m67.08,101.76c.51-.33,1.19-.09,1.71.08,1.83.46,2.86,3.09,1.45,4.51-.01-.04-.06-.18-.08-.22,0,0,.14.08.14.08h-.09c.09-1.01-.13-1.95-.71-2.74-.47-.59-1.64-1.51-2.41-1.71h0Z"/>
      <path class="cls-1" d="m67.6,99.46c.17-1.02.51-1.18.86-2.05,0,0,.12.1.12.1.04-.05-.05-.1-.11-.04-.06-.07-.02-.22.14-.26l.12.1c.86.8-.06,2.25-1.14,2.16h0Z"/>
      <path class="cls-1" d="m67.44,100.85c1.44-1.03,1.89-2.38,2.2-3.95,0,0,.17-.01.17-.01-.29.28-.19.03-.16-.22.55.31.49.96.52,1.49.07,1.42-1.26,3.01-2.74,2.69h0Z"/>
      <path class="cls-1" d="m68.69,102.08c-.15-1-.16-.98.25-1.91,1.02.29.8,1.89-.25,1.91h0Z"/>
      <path class="cls-1" d="m69.55,102.39c.49-.82.38-1.47.19-2.34-.07-.29-.11-.61-.08-1,.64.37,1.11.93,1.22,1.7.12.77-.48,1.73-1.32,1.65h0Z"/>
      <path class="cls-1" d="m70.52,104.26c.78-.14,1.91-.03,2.15.88.19.72.15,1.9-.77,2.03.16-.37.09-.63.03-.89-.07-.23-.17-.66-.23-.85-.03-.12-.03-.12-.08-.19-.33-.31-.78-.52-1.11-.97h0Z"/>
      <path class="cls-1" d="m69.7,102.46c3.16-.54,5.27,2.76,3.69,5.48-.1.15-.3.33-.49.25.32-.15.22-.52.25-.84,0-.33-.01-.65-.05-.96-.1-2.04-1.61-3.21-3.41-3.93h0Z"/>
      <path class="cls-1" d="m73.44,109.54c1.34-.65,2.07,1.8.6,2-.06-.84-.19-1.27-.6-2h0Z"/>
      <path class="cls-1" d="m73.25,108.13c.48-.38,1.2-.12,1.69.13,1.6.81,2.16,3.31.77,4.55.23-2-.56-4.04-2.46-4.68h0Z"/>
      <path class="cls-1" d="m75.84,109.85c-.35-.31-.12-.82.23-.97.35-.16.89.02.87.49-.3.16-.3.3-.47.43-.21.04-.32-.05-.63.06h0Z"/>
      <path class="cls-1" d="m75.15,108.89c-.46-.58-.18-1.41.51-1.58.23-.06.51-.01.67.21-.17.2-.21.35-.27.46-.21.43-.3.57-.91.91h0Z"/>
      <path class="cls-1" d="m73.35,106.21c.84-1.14,2.66.36,2.38,1.54-.01.05-.04.17-.16.17-.16-.05-.06-.18-.02-.13-.04,0,.09.05,0-.02-.05-.01-.07.02-.09,0-.09-.03-.35-.28-.45-.35-.58-.42-.93-1-1.65-1.22h0Z"/>
      <path class="cls-1" d="m72.93,104.11c.45-1.05,2.08-.58,2.07.5-.08.17-.23.07-.21.01.06.01.04-.12-.03-.03l.02.08c-.92-.11-.98-.16-1.86-.56h0Z"/>
      <path class="cls-1" d="m70.39,100.95c.53-.12.97.08,1.24.54.27.47.06,1.33-.58,1.27-.05-.73-.52-.84-.66-1.8h0Z"/>
      <path class="cls-1" d="m69.73,99.03c-.07-.03-.13-.12-.14-.22,0,0,.07-.02.07-.02,2.5-.29,4.71,3.21,3.02,5.23.08-2.25-1.19-4.06-3.03-5.1.13-.12,0,0,.07.1h0Z"/>
      <path class="cls-1" d="m73,102.99c-.54-.69.72-.92.47-.09-.17.19-.24.33-.16.44.03-.14-.08-.25-.31-.36h0Z"/>
      <path class="cls-1" d="m70.39,97.96c.9-.46,1.29,1.21.28,1.19-.15-.3-.28-.34-.38-.54,0-.23.1-.32.1-.65h0Z"/>
    </g>
  </g>
</svg>