<?xml version="1.0" encoding="UTF-8"?>
<svg id="Layer_2" data-name="Layer 2" xmlns="http://www.w3.org/2000/svg" viewBox="0 0 120.45 130.54">
  <defs>
    <style>
      .cls-1 {
        fill: #a37d2d;
        stroke-width: 0px;
      }
    </style>
  </defs>
  <g id="Layer_1-2" data-name="Layer 1">
    <g>
      <path class="cls-1" d="m55.98,16.38c.6-.69-.18-1.44-.78-1.8-1.56-.91-1.4-3.13-.52-4.48,1.23-1.95,3.52-3.13,3.95-5.5.37-1.2-.25-2.31.14-3.57.24-.65.87-1.09,1.69-1.02.79,2.88,1.52,5.82,2.96,8.44.64,1.36,1.72,2.28,2.33,3.69.73,1.73-1.03,3.01-2.55,3.19,0,0,.09-.09.09-.09-.1.29.13.64.2,1.02.1.36-.44.94-.7.54.11.19.34.09.44-.05.29-.31.05-.64-.09-.97-.09-.19-.15-.44-.08-.68,1.26-.28,2.8-1.32,2.13-2.75-.62-1.21-1.85-2.25-2.51-3.49-1.52-2.56-2.33-5.43-3.09-8.22l.49.37c-.48.09-.55.77-.47,1.3.28,1.61-.14,3.45-1.18,4.76-.96,1.27-2.36,2.09-3.25,3.36-.8,1.17-1.15,2.98.15,3.94.29.25.63.51.8.9.16.36.16.87-.18,1.11h0Z"/>
      <path class="cls-1" d="m56.13,16.13c0,.71.66.6,1.19.56,1.84-.11,3.58-.16,5.45.17-.92.75-7.77,1.47-6.64-.73h0Z"/>
      <path class="cls-1" d="m56.39,15.57c2.48.12,4.54-.4,7.02-.21-2.08,1.19-4.96,1.7-7.02.21h0Z"/>
      <path class="cls-1" d="m59.4,9.6c-1.97.73-.95,3.92,1.1,3.29,1.98-.71,1.09-3.6-1.16-3.15,2.89-1.54,4.54,3.08,1.43,4.11-1.25.38-2.76-.39-3.02-1.69-.32-1.09.4-2.7,1.65-2.57h0Z"/>
      <path class="cls-1" d="m56.62,17.28c.97.53.58,2.13-.53,2.15-.01-1.07.03-1.21.53-2.15h0Z"/>
      <path class="cls-1" d="m62.9,17.16c.52.98.59,1.41.35,2.5-1.04-.4-1.23-1.82-.35-2.5h0Z"/>
      <path class="cls-1" d="m56.22,19.57c-1.08.26-.94,1.68.12,1.69,1.99-.15,4.25-.3,6.24-.09.45-.01.88-.17,1.11-.52.24-.3.1-.96-.45-1.07.58-.15,1.15.6.9,1.26-.47,1.29-2.07,1.17-3.11,1.18-1.65-.06-3.16.23-4.83,0-1.57-.26-1.64-2.55.02-2.46h0Z"/>
      <path class="cls-1" d="m57.61,19.65c1.28-.69,2.6-.7,3.88-.01-1.27.69-2.59.69-3.88.01h0Z"/>
      <path class="cls-1" d="m53.05,31.71c-.83-4.86,3.48-8.04,8.05-7.73,1.54,0,2.66,1.35,3.71,2.32,1.27,1.47,1.83,3.47,1.54,5.29-.1-1.84-.9-3.54-2.11-4.76-.96-.71-1.89-1.84-3.16-1.87-4.19-.2-7.92,2.3-8.03,6.75h0Z"/>
      <path class="cls-1" d="m51.64,32.49c-2.28-5.21,1.72-7.25,4.52-10.77-.23,1.03-.82,1.96-1.44,2.78-1.19,1.58-2.66,2.97-2.96,4.97-.15.95-.1,1.98-.12,3.02h0Z"/>
      <path class="cls-1" d="m63.48,21.34c.66,2.07,2.5,3.08,3.83,4.89,1.28,1.8,1.64,4.32.66,6.31.16-2.12-.34-4.13-1.47-5.73-1.14-1.6-3.18-3.25-3.02-5.47h0Z"/>
      <path class="cls-1" d="m56.01,26.01c-.47,2.07-.83,4.63.58,6.25.92.83,2.19,1.35,3.42,1.35,1.64.05,3.24-1.07,3.72-2.65.33-1.62-.14-3.62-.63-5.24.53.76.8,1.68,1.07,2.56.23.87.55,1.83.32,2.86-.21,1.01-.83,1.89-1.62,2.51-2.06,1.61-5.15,1.03-6.89-.78-1.63-1.89-.93-4.91.03-6.88h0Z"/>
      <path class="cls-1" d="m51.5,35.29c-1.42-1.2.43-3.09,1.83-3.35,1.58-.26,2.76,1.18,3.94,1.73.77.39,1.62.67,2.55.85-1.83.59-3.88-.5-5.3-1.4-1.14-.8-3.85.64-3.01,2.17h0Z"/>
      <path class="cls-1" d="m51.86,35.58c1.18,1.66,3.11,1.56,4.79.89,1.79-.6,3.64.23,5.42-.32,1.61-.57,3.67-.24,5.15-1.03,1.66-1.07.47-2.79-1.23-2.53-1.09.14-2.09.89-3.18,1.47-1.13.62-2.44.68-3.64.57,1.2-.12,2.4-.28,3.4-1,1-.62,1.95-1.51,3.3-1.8,1.4-.37,3.25.62,3.1,2.28-.24,1.66-1.9,2.36-3.13,2.47-1.92.03-3.58.69-5.5.66-1.24-.08-2.32-.47-3.54-.16-.58.12-1.19.3-1.84.33-1.31.04-2.58-.72-3.11-1.83h0Z"/>
      <path class="cls-1" d="m56.02,37.04c1.69.02,1.63,2.9-.06,2.85.42-1.02.44-1.82.06-2.85h0Z"/>
      <path class="cls-1" d="m63.6,36.96l.51,3.13c-1.4-.26-1.75-2.44-.51-3.13h0Z"/>
      <path class="cls-1" d="m53.9,42.85c-.45-.47-.31-1.3.12-1.81,1.43-1.41,3.69-.76,5.43-.8,1.18.08,2.35.13,3.51.08.6-.08,1.47.01,1.9.54.47.49.64,1.24.39,1.8.03-.61-.28-1.14-.71-1.43-.44-.32-.87-.26-1.48-.13-1.22.22-2.46.21-3.66.15-1.64.03-6.01-1.22-5.49,1.61h0Z"/>
      <path class="cls-1" d="m54.01,42.88c2.83.8,5.74-.13,8.64.06.93-.08,1.98.34,2.82-.18-.58.88-1.86.75-2.78.96-2.85.22-6.22,1.06-8.69-.84h0Z"/>
      <g>
        <path class="cls-1" d="m66.61,22.75c-.09-.31.29-.67.68-.53.37.13.56.58.45.97-.72,1.86-3.51.73-2.79-1.16.37-.79,1.12-1.12,1.85-1.2,3.79-.13,3.21,5.66-.43,4.5,2.66.18,3.07-3.52.5-3.5-.44.01-.9.28-1.06.59-.39.88,1,1.42,1.46.62.29-.51-.5-.95-.68-.28h0Z"/>
        <path class="cls-1" d="m68,25.36c1.96.68,3.71.86,5.57.04,1.71-.58,3.64-1.39,4.48-3.03.52-1.05.7-2.45-.13-3.53.56.38.92,1.04,1.06,1.73.58,3.95-3.92,5.79-7.15,6.12-1.48.09-2.73-.63-3.83-1.34h0Z"/>
        <path class="cls-1" d="m69.47,22.8c3.09.24,7.29-.39,8.19-3.88.08.44.1.89.01,1.36-.98,3.2-5.59,4.13-8.2,2.52h0Z"/>
        <path class="cls-1" d="m67.7,27.08c3.58.66,7.3-.13,10.24-2.19,2.12-1.41,5.75-5.39,1.32-6.31-.43-.11-.9-.23-1.3.03.72-.63,1.9-.22,2.75-.01,3.44,1.71-.21,5.77-2.2,7.11-3.1,2.15-7.3,2.85-10.82,1.37h0Z"/>
        <path class="cls-1" d="m68.67,30.82c3.18-.26,6.16-.71,9.15-1.69.92-.29,2.32-.87,3.14-.02-1.05-.42-1.91.34-2.85.75-2.9,1.38-6.34,1.83-9.44.96h0Z"/>
        <path class="cls-1" d="m78.51,25.6c1.66-.08,3.02,1.93,2.31,3.44-.83-1.39-1.33-2.15-2.31-3.44h0Z"/>
        <path class="cls-1" d="m80.89,28.92c.64-.13,1.35-.32,1.86-.68.04-.06.02-.06.05-.21.17-1.84-.66-3.57-2.04-4.83,2.14.41,3.45,2.94,2.89,5-.25,1.14-1.94,1.03-2.77.72h0Z"/>
        <path class="cls-1" d="m68.4,28.99c4.07.31,7.94.08,11.44-2.22-2.5,3.47-7.78,3.98-11.44,2.22h0Z"/>
        <path class="cls-1" d="m81.09,22.77c3.43-.62,8.12-1.86,10.46,1.68.79,1.19,1.47,2.4,2.66,3.19.56.4,1.24.63,1.97.65-.71.21-1.5.07-2.2-.22-1.39-.6-2.34-1.92-3.19-3.07-2.23-3.08-6.41-1.82-9.69-2.24h0Z"/>
        <path class="cls-1" d="m81.94,20.57c3-.47,6.21-.92,9.14.17,2.05,1.33,2.73,3.78,3.68,5.85.28.66.7,1.28,1.4,1.6-.78-.09-1.39-.73-1.83-1.35-1.18-1.74-1.97-4.04-3.72-5.22-2.69-.96-5.81-.75-8.67-1.05h0Z"/>
        <path class="cls-1" d="m82.69,25.1c2.97-1.09,7-1.32,9.32,1.21-3.09-1.27-6.06-.88-9.32-1.21h0Z"/>
        <path class="cls-1" d="m83.58,27.03c2.76-1.46,7.79-2.24,9.78.79-2.97-1.79-6.45-.84-9.78-.79h0Z"/>
        <path class="cls-1" d="m91.59,21.19c3.03,1.21,7.48,1.4,9.48-1.52.67-1.04-.47-2.67-1.47-1.57-.18.22-.22.54-.02.81.18.25.54.45.9.33-.31.23-.8.14-1.09-.15-.75-.68-.07-1.92.89-1.99,1.56-.14,2.3,1.8,1.67,2.98-2.05,3.58-7.43,3.39-10.34,1.12h0Z"/>
        <path class="cls-1" d="m93.13,23.92c.23-.22.6-.2.88-.2.85.02,1.8.07,2.64.05,2.14-.01,4.59-.69,5.51-2.75.38-.96.36-2.21-.46-3.1.55.27.96.81,1.16,1.42,1.08,4.58-4.59,6.04-8.02,4.89-.42-.07-1.34-.49-1.71-.31h0Z"/>
        <path class="cls-1" d="m100.35,20.97c-3.66-.44-4.59-4.18-1.53-6.25,2.75-1.51,6.11.08,7.83,2.44,1.39,2.3,1.36,6.3-.47,8.34-1.05,1.09-2.44,1.59-3.76,1.99-1.32.35-2.76.69-4.12.33,1.38.12,2.7-.3,3.97-.8,1.26-.47,2.53-1.06,3.34-2.03,1.41-1.84,1.39-5.34.22-7.28-1.35-1.95-4.34-3.42-6.62-2.32-1.07.56-1.87,1.85-1.66,3.09.21,1.35,1.6,2.09,2.81,2.5h0Z"/>
        <path class="cls-1" d="m96.29,30.92c-.68-.7-.69-1.45,0-2.15.69.7.69,1.45,0,2.15h0Z"/>
        <path class="cls-1" d="m96.09,27c2.03.23,2.53,3.55.65,4.36.43-1.75.28-2.81-.65-4.36h0Z"/>
        <path class="cls-1" d="m95.77,27.19c.23-.72,1.25-.82,1.87-.48,1.55.81,2.09,4.9-.07,5.11.99-.88.48-2.03.27-3.13-.19-1.05-.91-2.11-2.07-1.51h0Z"/>
        <path class="cls-1" d="m95.21,28.74c.43.92.02,2.18.78,2.83.22.1.57.22.88-.11.14.54-.55.94-1.04.87-1.7-.3-1.4-2.55-.62-3.6h0Z"/>
      </g>
      <g>
        <path class="cls-1" d="m52.87,22.8c-.18-.67-.97-.22-.68.28.47.8,1.86.25,1.46-.63-.15-.31-.62-.57-1.06-.58-2.57,0-2.13,3.7.53,3.5-3.63,1.18-4.25-4.6-.46-4.5,1.82.06,2.88,2.36.96,3.22-.74.26-1.64-.08-1.88-.85-.11-.39.08-.84.45-.97.39-.15.78.22.69.53h0Z"/>
        <path class="cls-1" d="m51.5,25.42c-1.09.72-2.34,1.44-3.82,1.36-3.23-.3-7.75-2.11-7.19-6.06.13-.69.49-1.36,1.05-1.74-.82,1.09-.64,2.48-.11,3.53.85,1.63,2.79,2.42,4.5,2.99,1.86.81,3.62.61,5.57-.09h0Z"/>
        <path class="cls-1" d="m50,22.87c-2.6,1.63-7.22.74-8.22-2.46-.09-.47-.08-.92,0-1.36.93,3.48,5.13,4.07,8.22,3.82h0Z"/>
        <path class="cls-1" d="m51.81,27.14c-3.51,1.51-7.71.84-10.83-1.29-2-1.32-5.67-5.36-2.25-7.09.85-.21,2.03-.63,2.75,0-.4-.26-.87-.13-1.3-.02-4.42.96-.76,4.91,1.37,6.3,2.96,2.04,6.69,2.8,10.26,2.11h0Z"/>
        <path class="cls-1" d="m50.87,30.89c-3.09.89-6.54.46-9.45-.89-.94-.4-1.81-1.15-2.86-.72.36-.43,1.03-.5,1.57-.42,3.56,1.03,6.97,1.84,10.73,2.04h0Z"/>
        <path class="cls-1" d="m40.99,25.74c-.97,1.3-1.47,2.06-2.29,3.45-.72-1.5.63-3.53,2.29-3.45h0Z"/>
        <path class="cls-1" d="m38.63,29.07c-.84.33-2.5.44-2.78-.7-.57-2.05.72-4.59,2.86-5.02-1.37,1.27-2.18,3-2,4.84.03.15,0,.15.05.21.52.36,1.22.54,1.87.66h0Z"/>
        <path class="cls-1" d="m51.12,29.05c-3.64,1.79-8.93,1.31-11.46-2.14,3.52,2.27,7.39,2.47,11.46,2.14h0Z"/>
        <path class="cls-1" d="m38.39,22.93c-3.27.44-7.46-.78-9.67,2.31-.84,1.16-1.78,2.48-3.17,3.09-.7.29-1.49.44-2.2.23.73-.02,1.4-.26,1.96-.66,1.18-.8,1.85-2.02,2.63-3.21,2.32-3.56,7-2.35,10.45-1.76h0Z"/>
        <path class="cls-1" d="m37.52,20.73c-2.85.32-5.98.14-8.66,1.11-1.74,1.19-2.52,3.5-3.68,5.24-.43.62-1.04,1.27-1.82,1.37.7-.32,1.11-.94,1.39-1.61.93-2.08,1.59-4.53,3.63-5.88,2.92-1.11,6.13-.68,9.14-.24h0Z"/>
        <path class="cls-1" d="m36.81,25.27c-3.25.35-6.23-.01-9.31,1.28,2.3-2.55,6.33-2.35,9.31-1.28h0Z"/>
        <path class="cls-1" d="m35.93,27.2c-3.33-.03-6.81-.95-9.77.86,1.96-3.04,7-2.3,9.77-.86h0Z"/>
        <path class="cls-1" d="m27.87,21.42c-2.9,2.29-8.28,2.52-10.35-1.04-.64-1.18.08-3.12,1.64-3,.95.06,1.65,1.31.9,1.99-.29.29-.78.38-1.09.16.36.12.71-.08.89-.34.19-.26.15-.58-.03-.81-1.01-1.09-2.14.54-1.46,1.58,2.03,2.91,6.47,2.68,9.5,1.45h0Z"/>
        <path class="cls-1" d="m26.35,24.16c-.36-.18-1.29.25-1.7.32-3.41,1.17-9.1-.26-8.05-4.84.2-.61.61-1.16,1.15-1.43-.82.9-.83,2.15-.44,3.11.93,2.05,3.38,2.71,5.52,2.71.83.01,1.79-.05,2.64-.07.28,0,.66-.03.89.19h0Z"/>
        <path class="cls-1" d="m19.11,21.27c1.21-.42,2.6-1.17,2.79-2.52.2-1.24-.61-2.53-1.69-3.08-2.29-1.08-5.26.41-6.6,2.37-1.16,1.95-1.16,5.45.27,7.28.82.97,2.09,1.55,3.35,2.01,1.27.49,2.59.9,3.97.77-1.36.36-2.8.04-4.12-.3-1.32-.39-2.71-.88-3.77-1.96-1.85-2.03-1.91-6.03-.54-8.34,1.7-2.37,5.05-3.98,7.81-2.49,3.07,2.05,2.18,5.8-1.48,6.26h0Z"/>
        <path class="cls-1" d="m23.25,31.18c-.68-.7-.69-1.45,0-2.15.69.7.69,1.45,0,2.15h0Z"/>
        <path class="cls-1" d="m23.42,27.27c-.92,1.55-1.07,2.61-.62,4.36-1.89-.8-1.41-4.12.62-4.36h0Z"/>
        <path class="cls-1" d="m23.74,27.45c-1.16-.59-1.88.48-2.06,1.52-.2,1.1-.7,2.25.29,3.12-2.16-.2-1.65-4.29-.1-5.11.61-.35,1.63-.25,1.87.47h0Z"/>
        <path class="cls-1" d="m24.31,29c.79,1.04,1.11,3.29-.59,3.6-.5.07-1.19-.33-1.05-.87.31.33.66.2.88.1.76-.66.34-1.92.76-2.84h0Z"/>
      </g>
      <g>
        <path class="cls-1" d="m95.44,32.11c.18.98,1.28,1.96,2,.96.18-.29.27-.72.38-1.2.29.39.46.88.36,1.45-.61,2.31-3.92.76-2.74-1.21h0Z"/>
        <path class="cls-1" d="m95.08,31.76c-.72,1.07-.34,2.4.75,2.79.47.15,1.66.18,2.06-.06.21-.12.36-.46.48-.85.21-.77.44-1.62-.11-2.34.9.4.99,1.65.87,2.5-.05.45-.17,1-.66,1.43-.53.41-1.11.39-1.53.41-.44,0-.96,0-1.47-.22-1.53-.61-1.8-2.93-.4-3.67h0Z"/>
        <path class="cls-1" d="m96.91,33.05c.17,1.18.2,2.14.26,3.35,0,0-.07-.09-.07-.09-.12.03.1.16.19,0,.06.07.04.22-.04.3-.07.12-.39.19-.5-.02-.9-.95-.91-2.7.16-3.54h0Z"/>
        <path class="cls-1" d="m96.2,35.55c-.44,1.02-.46,3.34.97,3.2,1.46-.28,1.29-2.24.57-3.35,1.13.62,1.77,2.38.89,3.56-.62.88-2.03,1.11-2.83.29-.92-1.08-.61-2.85.4-3.7h0Z"/>
        <path class="cls-1" d="m96.85,37.05c.08.35.18.66.31.66.06.02.11,0,.04-.04-.07-.02-.11.05-.09-.01.11-.31.44-1.01.17-1.39.4-.11.75.37.81.72.08.38.09.69-.1,1.13-.28.61-1.22.66-1.49,0-.22-.53.08-.88.34-1.08h0Z"/>
        <path class="cls-1" d="m96.13,39.22c.3,1.14.33,1.42.29,2.59-1.2-.24-1.4-2.09-.29-2.59h0Z"/>
        <path class="cls-1" d="m95.58,38.5c-.4.8-.24,1.43-.05,2.24.27.74.04,1.62.94,1.92-1.02.68-1.76-.91-1.91-1.69-.25-.85-.03-2.28,1.02-2.48h0Z"/>
        <path class="cls-1" d="m96.71,39.32c1.04,1.7.46,4.21-1.22,5.29.49-1.93.81-3.34,1.22-5.29h0Z"/>
        <path class="cls-1" d="m97.36,39.96c1.06,1.79.57,4.75-1.6,5.46,1.12-1.87,1.16-3.37,1.6-5.46h0Z"/>
        <path class="cls-1" d="m97.74,40.16c.95,1.09,1.31,2.25,1.11,3.69-1.09-.94-1.49-2.3-1.11-3.69h0Z"/>
        <path class="cls-1" d="m98.03,39.44c2.09.19,2.21,3.41.8,4.52-.09-1.6.23-3.18-.8-4.52h0Z"/>
        <path class="cls-1" d="m95.61,43.67c-.01,1.14.09,1.82.3,2.78.03.03.05.13.13.06.08.25-.38.23-.53.11-1.09-.58-1.13-2.51.09-2.95h0Z"/>
        <path class="cls-1" d="m96.43,45.24c.9.92.52,2.6-.69,3.03.01-1.28.15-1.87.69-3.03h0Z"/>
        <path class="cls-1" d="m97.08,44.38c1.48,1.17,1.07,3.97-.69,4.66.56-1.72.74-2.85.69-4.66h0Z"/>
        <path class="cls-1" d="m96.1,48.79c.37,1.46.04,2.47.37,3.88-1.57-.57-1.43-2.87-.37-3.88h0Z"/>
        <path class="cls-1" d="m96.88,49.22c1.46.65,1.09,3.24-.5,3.45.43-1.38.52-2,.5-3.45h0Z"/>
        <path class="cls-1" d="m95.16,48.67c-.21.81-.05,1.81-.02,2.61.01.39.1.67.3,1,.2.31.49.6.94.84-.48.19-1.07.05-1.5-.3-1.16-.85-.92-3.45.29-4.15h0Z"/>
        <path class="cls-1" d="m97.06,48.54c2.54,0,2.08,4.78-.35,4.67,1.02-.94,1.2-2.29,1.01-3.57-.08-.39-.24-.78-.66-1.11h0Z"/>
        <path class="cls-1" d="m96.56,51.21c.91.79.89,2.21-.06,2.96-.42-1.14-.4-1.84.06-2.96h0Z"/>
        <path class="cls-1" d="m96.17,54.23c.14,1.16-.06,1.77.46,2.68.02.04.05.13.14.11-.04.22-.36.15-.52.12-1.31-.38-1.24-2.41-.08-2.91h0Z"/>
        <path class="cls-1" d="m96.96,54.27c1.15.63.94,2.57-.32,2.93,0-1.27.06-1.7.32-2.93h0Z"/>
        <path class="cls-1" d="m96.16,53.46c-.5.64-1.07,1.65-.94,2.45.16.53.5,1.76,1.15,1.75.62,0,1.09-.74,1.21-1.66.16-.91.29-1.85-.45-2.59.48.16.86.61,1.04,1.12.46,1.52.23,3.98-1.8,4.13-1.36-.04-1.81-1.54-1.94-2.67-.03-1.07.84-2.08,1.71-2.53h0Z"/>
        <path class="cls-1" d="m96.62,56.13c-.6,1.64-.24,3.28-.5,4.97-.06.6-.27,1.05.04,1.6-.62-.2-.76-1.05-.82-1.6-.18-1.67-.32-3.92,1.28-4.97h0Z"/>
        <path class="cls-1" d="m96.54,56.26c-.15-.72.96-.52.77.09-.04.14-.19.28-.41.23-.16-.14-.3-.12-.36-.09-.17.09.06.29.13.11.03-.07.03-.2-.14-.35h0Z"/>
        <path class="cls-1" d="m96.58,58.43c.07,1.52.65,2.99-.2,4.37-.13.21-.43.07-.29-.07-.01.06.07.05.07.03-.02-.02-.02-.04-.03-.06-.25-1.36-.75-3.19.45-4.26h0Z"/>
        <path class="cls-1" d="m96.73,59.26c1.64.59,1.23,3.54-.43,3.79.45-1.32.67-2.33.43-3.79h0Z"/>
        <path class="cls-1" d="m95.54,61.49c.09,1.1.2,1.76.59,2.66.11.24.2.49.47.61l-.08.1c.09-.22.13-.22.21,0,0,0,.01.03.01.03-.2.19-.52.21-.77.11-1.3-.56-1.59-2.68-.44-3.51h0Z"/>
        <path class="cls-1" d="m96.95,62.47c1.04.54.88,2.17-.09,2.68-.11.07-.4.19-.51,0,.15-.07.1-.19.12-.31.09-.6.33-1.76.47-2.37h0Z"/>
        <path class="cls-1" d="m95.7,60.56c-.69.87-.64,1.76-.56,2.79.01,1.1.24,1.78,1.34,2.16-2.79.97-3.21-4.5-.77-4.95h0Z"/>
        <path class="cls-1" d="m97.31,61.71c1.45.69,1.58,2.98.31,3.94-.43.37-1.21.38-1.49-.07,1.64-.02,1.57-2.72,1.18-3.87h0Z"/>
        <path class="cls-1" d="m96.34,64.09c-.27,1.2-.31,2.32.22,3.4-.05-.09-.33-.16-.43-.08-.13.09-.04.04-.03.02.33-.39.22-1.03.45-1.64.33.69.83,1.86-.05,2.45-.22.15-.65-.03-.74-.23-.84-1.21-.65-3.07.58-3.92h0Z"/>
        <path class="cls-1" d="m96.41,63.95c.35-.45,1,.02.76.47-.06.13-.2.25-.42.24-.17-.14-.28-.17-.36-.19-.08-.01-.1-.01-.12-.02.07-.14.14-.22.14-.5h0Z"/>
        <path class="cls-1" d="m95.83,67.12c-.48.63-.23,1.74.4,1.98.28.06.36,0,.46-.34.07-.44.24-.86-.17-1.24.98-.01,1.26,1.68.57,2.31-.99.85-2.36-.35-2.23-1.37.02-.6.37-1.26.96-1.33h0Z"/>
        <path class="cls-1" d="m96.13,68.02c.08.34.21.46.41.5-.12-.1-.44-.05-.49.1,0,0,.01-.01.01-.01.16-.21.24-.32.25-.71.57-.05.86.69.63,1.16-.2.5-.82.53-1.12.1-.29-.37-.18-1.06.31-1.13h0Z"/>
        <path class="cls-1" d="m96.73,67.02c.31-.12.6.2.8.39,1.21,1.11.77,4.16-1.28,3.76-.73-.23-.95-1.32-.44-1.75.02,1.09.9,1.37,1.31.31.24-.59.2-1.42-.01-2.07-.1-.24-.12-.54-.38-.65h0Z"/>
        <path class="cls-1" d="m96.34,69.67c.29.37.49.32.31.12-.19-.12-.26.11-.13.08.08-.03.16-.16.26-.39.42,0,.67.46.47.86-.54.98-1.96-.11-.91-.67h0Z"/>
        <path class="cls-1" d="m96.4,70.81c-.11.85-.11,1.54.09,2.32.03.13.06.11,0,.05-.08-.1-.39-.1-.47.02-.14.14-.09.17-.08.1.18-.6.43-1.75.57-2.38.29.44.43.95.46,1.46,0,.53.07,1.13-.32,1.58-.18.2-.64.17-.8-.01-.74-.9-.32-2.5.55-3.14h0Z"/>
        <path class="cls-1" d="m96.54,73.46c1.09,0,1.28,1.61.41,2.17-.1.06-.23.17-.51.19-.3,0-.5-.16-.59-.26-.48-.52-.43-1.5.21-1.8-.02.41.1.69.23.9.08.1.15.19.23.23.03.02,0-.04-.12-.04-.1.01-.07.01-.03-.02.41-.31.49-.81.17-1.36h0Z"/>
        <path class="cls-1" d="m95.89,72.98c-.47.53-.32,1.2-.2,1.78.13.71,1.05.89,1.34.26.2-.53.28-1.14.13-1.69-.08-.28-.22-.58-.56-.69.82-.2,1.34.86,1.4,1.54.31,1.52-1.13,2.88-2.51,1.87-.93-.72-.73-2.75.4-3.08h0Z"/>
        <path class="cls-1" d="m96.33,74.72c-.04,1,.06,1.82.36,2.58l-.67-.28c-.11.06-.09.1-.06.01.07-.35.15-.79.25-1.15.04-.33.62-1.31.07-1.13.03-.17.29-.23.46-.11.18.14.22.35.24.51.06.74.05,1.36-.05,2.09-.03.17-.12.49-.49.67l-.49.24c-.5-1.12-.51-2.58.39-3.44h0Z"/>
        <path class="cls-1" d="m96.3,77.02c.75.02,1.1,1.1.65,1.71-.66,1.01-2-.03-1.79-.95.07-.54.55-.9.97-.84-.25.33-.26.65-.19.84.07.19.25.36.33.38-.28.08.04,0,.09-.24.08-.22.13-.53-.07-.9h0Z"/>
        <path class="cls-1" d="m96.02,76.57c-1.05.31-.97,2.18.04,2.21.86.07,1.32-1.24.81-1.9-.07-.11-.29-.2-.32-.39.12.12.29.07.48.16.56.26.8.91.76,1.51,0,1.45-2.09,2.23-2.96.99-.78-.91-.09-2.9,1.2-2.58h0Z"/>
        <path class="cls-1" d="m96.47,78.22c.62,1.03.17,1.71.11,2.75-1.2-.35-.91-2.06-.11-2.75h0Z"/>
        <path class="cls-1" d="m96.3,78.28c-.08-.04-.13.06-.09.08.19.65.16,1.43.14,2.08,0,.19-.03.41.13.55-.02.04.05.04.04.02.07,0,.02.12-.05.13-.34.15-.72-.18-.86-.45-.42-.85-.3-1.92.41-2.53.13-.08.3.02.28.12h0Z"/>
        <path class="cls-1" d="m96.35,80.02c.59-.66,1.57.24,1.31.99-.1.39-.47.73-.89.73-.44.04-.81-.41-.63-.71.41.22.51-.05.55-.27.09-.29.03-.49-.34-.73h0Z"/>
        <path class="cls-1" d="m95.84,80.34c-.1.75.28,1.41.88,1.27.44-.18.95-.73.7-1.25-.13-.33-.65-.83-.98-.4-.1-.37.41-.59.73-.54.76.08,1.32.82,1.23,1.6-.14,1.14-1.71,2.07-2.59,1.14-.58-.58-.41-1.45.04-1.82h0Z"/>
        <path class="cls-1" d="m96.61,81.2c-.14,1.32-.73,1.94-.64,3.2-1.5-.57-.71-2.93.64-3.2h0Z"/>
        <path class="cls-1" d="m96.42,81.56c.05-.03.11-.06.16-.08l.06.04c.33.28-.06.63-.01.86,0,.76-.28,1.52-.3,2.31-.26-.14-.53-.21-.12-.39,0,0-.14.23-.14.23-.72-.62-.6-1.71-.17-2.47.14-.31.44-.3.6-.43,0,0,.07.04.07.04-.04-.03-.09-.08-.13-.11h0Z"/>
        <path class="cls-1" d="m96.13,83.8c.11-.65,1.04-.39,1.18.1.18.47-.07,1-.58,1.03-.18-.46-.31-.57-.35-.66.01-.16.06-.32-.25-.47h0Z"/>
        <path class="cls-1" d="m96.69,82.2c.99.09.94,1.68-.06,1.51-.14-.73-.43-.66.06-1.51h0Z"/>
        <path class="cls-1" d="m96.55,83.75c.99.11,1.13,1.85,0,2.01-.78.03-1.45-.8-1.08-1.49.13-.19.42-.31.57-.17-.16.1-.15.25-.11.34.03.11.59.39.52.33-.15.1.04,0,.1-.21.06-.2.1-.46,0-.81h0Z"/>
        <path class="cls-1" d="m96.86,83.48c1.06-.07,1.28,1.55.82,2.3-.7.95-2.38.77-2.74-.38-.25-.74.31-1.47.89-1.48-.85,1,.18,1.86,1.08,1.31.27-.4.5-1.39-.05-1.75h0Z"/>
        <path class="cls-1" d="m96.21,85.38c.22.98.19,1.54,0,2.41-.04.09-.02.19-.13.22-.03.03.04.05.03.01.05,0,.06.11-.03.14-.1.02-.16-.05-.19-.08-.8-.72-.71-2.19.32-2.7h0Z"/>
        <path class="cls-1" d="m96.48,85.44c.8.72.4,1.55-.17,2.22-.26-.11-.37-.4-.41-.62-.05-.68.06-.99.57-1.6h0Z"/>
        <path class="cls-1" d="m96.22,87.78c.32-.51.86.33.29.45-.13.04-.34-.04-.33-.26.06-.21-.11-.31-.21-.3-.5.06.14.6.25.11h0Z"/>
        <path class="cls-1" d="m95.84,86.09c-.44.21-.52.83-.48,1.24.07.49.56.82.94.54.31-.36,1.01-1.36.3-1.7.78-.23.98.91.79,1.43-.24,1.99-3,1.66-2.81-.3.09-.59.6-1.38,1.26-1.21h0Z"/>
        <path class="cls-1" d="m95.61,86.83c.25.23.35.42.48.62,0,.17-.09.32.16.54-.2.53-.96.26-1.1-.2-.13-.43.03-.78.46-.97h0Z"/>
        <path class="cls-1" d="m96.56,86.92c.58-.29.93.59.45.89-.13.09-.34.13-.52-.01-.03-.22-.11-.32-.16-.37-.06-.06-.08-.07-.09-.09.12-.1.23-.14.31-.42h0Z"/>
        <path class="cls-1" d="m95.98,88.51c.24.54.36.98.49,1.41l-.52-.4c.1-.01.22-.09.19-.05-.02,0-.05.18-.03.11.02-.16.04-.58.06-.75,0-.1.03-.34.04-.43,0,0-.01-.13.06-.14.1-.02.07.11.03.07.02-.03-.03-.01.01,0,.03.02.03-.05.05-.01.38.29.6.74.68,1.2.12.57-.58.98-1,.96,0,0-.48.06-.48.06-.09-.7-.11-1.46.42-2.04h0Z"/>
        <path class="cls-1" d="m95.85,90.06c-.03-.09-.11-.13-.15-.11l.25-.02c0,.29-.02.52.05.62.05.08.15.08.03.05-.09.01.01.08.11-.05.04-.1.31-.45.11-.52.1-.2.4,0,.48.15.33.54.12,1.36-.74,1.41-1.03-.06-1.09-1.44-.31-1.81,0,0,.2-.12.2-.12.09.13.1.35-.03.41h0Z"/>
        <path class="cls-1" d="m95.74,89.2c-.68.67-.69,1.87.3,1.89.82-.05,1.4-1.24.52-1.88.72-.07,1.26.78,1.1,1.45-.12,1.17-1.76,1.92-2.69,1.02-.92-.82-.29-2.4.78-2.48h0Z"/>
        <path class="cls-1" d="m95.91,91.34c-.04.6-.05,1.24,0,1.66.02-.06-.18-.3-.29-.29-.09-.01-.07,0-.02-.02.17,0,.38-.03.51-.03.01,0-.07.02-.15.11-.07.09-.05.14-.05.13.07-.42.14-.82.37-1.28.33.54.92,1.75-.03,1.97-.26.02-.53.13-.83.08-1.03-.31-.21-2.06.5-2.34h0Z"/>
        <path class="cls-1" d="m99.32,44.06c-.26.63.37,1.28.58,1.65-.02-.01-.14.03-.18.11-.05.09-.02.13-.02.08.02-.08-.09-.25-.17-.46-.13-.31-.34-.88-.33-1.16-.04.05-.07-.08.01-.07.09.02.17.11.25.15.48.42.86.65,1.16,1.3.3.84-.78,1.43-1.38.77-.51-.61-.84-2,.08-2.36h0Z"/>
        <path class="cls-1" d="m99.37,43.31c1.23.2,1.84,1.56,1.98,2.71.12,1.31-1.1,1.91-2.19,1.11-1.08-.66-1.45-2.36-.6-3.26-.12.74.06,1.42.42,1.89.2.32,1.02.82,1.25.75.07-.02.18-.16.17-.44-.04-.99-.2-2.02-1.03-2.75h0Z"/>
        <path class="cls-1" d="m100.38,46.35c-.3.57-.1,1.06.1,1.57.12.35.38.77.56.84-.03-.02-.22,0-.31.09-.08.08-.07.1-.06.07l.2-.4c.03-.06,0-.04.02.04.01.07.03.07,0,.03-.44-.58-.66-1.65-.22-2.26,0-.08-.17-.08-.32-.02.06-.12.22-.32.48-.21.13.06.16.22.15.35.01.33.1.67.23.96.15.41.53.54.62,1.05.02.23-.06.39-.09.47-.13.24-.13.44-.36.67-.15.14-.41.17-.52.14-1.26-.29-1.68-2.84-.49-3.39h0Z"/>
        <path class="cls-1" d="m100.98,49.14c.06,1.28.36,2.53,1.12,3.53.07.06.16.14.14.15-.03,0,0-.03.01-.04.04,0,.05.06.03.07-.08.08-.17.06-.27.08-1.67-.09-2.41-2.86-1.04-3.79h0Z"/>
        <path class="cls-1" d="m100.4,48.8c-.16,1.62-.16,3.41,1.24,4.28.21.08.43.21.64.03.02.15-.13.29-.27.35-2.51.7-3.36-3.42-1.61-4.66h0Z"/>
        <path class="cls-1" d="m101.4,48.99c1.37.28,1.86,2.21.99,3.23-.1.11-.31.36-.53.26.13-.14.07-.27.07-.44-.03-1.13-.19-1.87-.53-3.05h0Z"/>
        <path class="cls-1" d="m101.48,48.67c1.17-.45,1.86,1.11,2.08,2.04.31,1.02-.53,2.7-1.76,2.3,1.33-.74.78-2.23.45-3.39-.13-.39-.27-.77-.77-.96h0Z"/>
        <path class="cls-1" d="m101.54,51.89c.21-.22.56-.31.88-.3,0,0-.05.28-.05.28-.09.44.14.8.31,1.22.25.6.6,1.18.94,1.72-.62.3-1.3.48-2,.45-.15-1.11-.3-2.21-.13-3.34.46.89.78,1.81,1.02,2.75l-.5-.39c.24-.02.47-.08.69-.18l-.24.71c-.46-.91-1.06-2.18-.42-3.14,0,0,.14.28.14.28-.18-.07-.4-.11-.64-.09h0Z"/>
        <path class="cls-1" d="m102.03,54.31c-.02.7.29.97.59,1.52.2.48.51.59.89.87.01.04.12.04.13-.06.23.2-.1.4-.36.42-1.39.43-2.59-2.06-1.25-2.76h0Z"/>
        <path class="cls-1" d="m102.88,54.17c.65-.25,1.19.55,1.24,1.1.06.54-.07,1.14-.58,1.52-.27-.57-.34-.96-.41-1.39-.07-.43,0-.8-.25-1.24h0Z"/>
        <path class="cls-1" d="m101.81,53.45c-.18.5-.38.94-.33,1.3.09.83.25,1.6.86,2.28.26.3.57.59,1.11.6-.39.42-1.15.32-1.61,0-1.45-.79-1.74-3.54-.02-4.18h0Z"/>
        <path class="cls-1" d="m102.72,53.1c.79-.35,1.58.32,2.09.9.66,1.09.55,3.07-.78,3.57.44-1.02.28-2.06-.01-3.07-.34-.5-.65-1.16-1.29-1.41h0Z"/>
        <path class="cls-1" d="m103.2,56.35c.33.6.45,1.19.89,1.61.1.1.04-.08-.15.09-.08.11-.03.19-.05.12-.08-.26-.21-.63-.27-.92-.11-.31-.04-.59-.22-.77-.07-.03-.18-.06-.26.04-.04-.13.1-.28.26-.32.46-.11.77.49.94.75.2.34.35.57.49.96.3,1.05-1.02,1.34-1.45.67-.49-.67-.47-1.53-.18-2.23h0Z"/>
        <path class="cls-1" d="m103.92,58.44c.27.31.23.77.3,1,.34.82.41,1.72.85,2.54-1.17.02-1.8-1.57-1.62-2.59.1-.42.33-.6.48-.95h0Z"/>
        <path class="cls-1" d="m103.59,58.11c-.43.97-.07,1.74.22,2.67.29.93.55,1.7,1.43,2.27-2.18.45-3.69-4.04-1.65-4.94h0Z"/>
        <path class="cls-1" d="m105.12,61.4c.38.71.61,1.67,1,2.19,0-.06-.17.44-.17.44-.11-.83-.31-1.77-.44-2.6.06-.16-.24.05-.39.03.18-.19.37-.58.71-.25.62.78.95,1.71,1.11,2.69,0,0,.04.27.04.27l-.2.17c-1.79,1.1-2-1.84-1.66-2.93h0Z"/>
        <path class="cls-1" d="m104.46,58.33c1.6-.5,2.51,2.12,1.36,3.09-.47-1.25-.47-2.14-1.36-3.09h0Z"/>
        <path class="cls-1" d="m104.25,57.78c2.35-1.02,4.27,3.51,2.12,4.63.4-1,.07-1.78-.31-2.7-.36-.96-.78-1.58-1.81-1.93h0Z"/>
        <path class="cls-1" d="m105.87,64.1c.38,1.38.58,1.96,1.13,3.28-1.52-.06-2.29-2.3-1.13-3.28h0Z"/>
        <path class="cls-1" d="m107.04,66.29c.16.78.28,1.61.61,2.26.09.13.22.18.23.17l-.47.44c.06-.83.13-1.85.11-2.67-.03-.11-.04-.2-.15-.25-.1-.05-.26-.08-.36.06.03-.5.79-.4.97-.03.54,1.11.52,2.26.36,3.44-2,.25-1.92-2.21-1.3-3.42h0Z"/>
        <path class="cls-1" d="m106.51,63.96c1.21-.26,2.12,1.41,1.23,2.28-.68-.96-.8-1.19-1.23-2.28h0Z"/>
        <path class="cls-1" d="m106.3,62.98c1.36-.25,2.73.99,2.75,2.36.04.74-.1,1.8-.93,2.04.33-.68.1-1.28,0-1.93-.18-1.06-.92-1.82-1.81-2.47h0Z"/>
        <path class="cls-1" d="m105.28,63.17c.08,1.95.21,3.39,1.64,4.73-2.33,0-3.14-3.21-1.64-4.73h0Z"/>
        <path class="cls-1" d="m107.69,69.19c.76.99.99,1.65.98,2.9-1.16-.44-1.63-1.85-.98-2.9h0Z"/>
        <path class="cls-1" d="m107.19,68.87c-.08.42.09.7.19,1.04.29.83.64,1.62,1.03,2.41.05.14.11.34.26.16.1.37-.41.34-.61.18-.93-.52-1.5-1.6-1.45-2.66,0-.39.13-.97.58-1.14h0Z"/>
        <path class="cls-1" d="m108.1,69.03c1.41-.14,2.09,1.59,1.2,2.56-.19.19-.14.22-.24.11-.11-.11-.12-.26-.07-.36.08.08.18.08.23.05l-.24.11c-.13-.53-.2-.91-.31-1.24-.09-.27-.2-.55-.37-.81-.04-.09-.24-.24-.19-.42h0Z"/>
        <path class="cls-1" d="m107.89,68.15c.95-.35,2.02.43,2.36,1.3.34.88.04,2.26-.99,2.47.68-1.43-.1-2.97-1.37-3.76h0Z"/>
        <path class="cls-1" d="m108.71,70.86c.1.83.68,1.63,1.02,2.18,0,0-.48.53-.48.53-.02-.37-.12-.77-.24-1.2l-.2-.66c-.08-.22-.04-.5-.28-.52.08-.14.3-.06.4.02.84.68,1.35,1.66,1.35,2.78-.42.05-.95.09-1.22-.25-.61-.76-.97-2.05-.36-2.89h0Z"/>
        <path class="cls-1" d="m109.54,73.82c.54.85.86,1.15,1.16,2.2-1.16.24-2.11-1.44-1.16-2.2h0Z"/>
        <path class="cls-1" d="m109.25,73.31c-.13.38.15.68.18,1.06.08.38.09.77.15,1.02.12.62.71.98,1.14,1.53-1.56.19-2.49-1.1-2.07-2.55.1-.36.14-.98.6-1.06h0Z"/>
        <path class="cls-1" d="m110.73,75.86c-.67-.39.25-1.19.67-.67.11.13.16.34,0,.51-.22.03-.3.14-.33.2-.07.17.18.11.04-.01-.05-.04-.17-.1-.38-.03h0Z"/>
        <path class="cls-1" d="m110.8,75.75c1.82,2.18-.41,5.94,2.4,7.51-.76.1-1.53-.43-1.95-1.08-1.29-2-.11-4.32-.45-6.43h0Z"/>
        <path class="cls-1" d="m111.7,78.49c.55,1.63.88,2.71,1.32,4.38-1.57-.72-2.23-2.91-1.32-4.38h0Z"/>
        <path class="cls-1" d="m109.85,73.28s-.12,0-.15,0c.56-.19,1.23,0,1.65.52.69.86.52,1.96.72,2.88.09.42.33.89.66,1.3,0,0-.09.01-.09.01-.09.01-.16-.04-.17-.1.05.03.11,0,.12-.02v.12c-.53-.11-1-.49-1.28-1-.66-1.33-.09-2.98-1.45-3.71h0Z"/>
        <path class="cls-1" d="m109.85,73.07c1.12-.83,2.62.44,2.77,1.63.17,1.12-.08,1.89.61,2.77.02.04.05.09.02.15-.06.08-.14-.02-.09-.04.08.04-.11-.04-.23-.09-1.04-.37-1.18-1.78-1.29-2.58-.2-.95-.71-1.73-1.79-1.84h0Z"/>
        <path class="cls-1" d="m111.79,78.59c0-.29.29-.51.53-.64.24-.11.48-.26.78-.12,1.35.91,1.59,3.72.19,4.66.23-.95,0-1.85-.14-2.76-.08-.43-.21-.84-.4-1.21-.07-.08.08-.02.02-.07-.32-.02-.69-.08-.98.15h0Z"/>
        <path class="cls-1" d="m113.09,77.67c2.2.2,3.02,4.71.75,5.37.6-.9.44-1.74.28-2.73-.15-1-.33-1.83-1.04-2.63h0Z"/>
        <path class="cls-1" d="m113.24,82.04c.02,1.05.48,1.27,1.14,2.02.6.78.83,1.89.39,2.76-.37-.88-.7-1.55-1.18-2.15-.2-.3-.6-.65-.74-1.21-.14-.53.02-1.11.4-1.42h0Z"/>
        <path class="cls-1" d="m113.27,82.37c.7.04,1.07.73,1.45,1.16.26.28.7.65.77,1.1.1.7-.05,1.27-.31,1.93-.44-.63-.34-1.42-.81-1.97-.66-.56-.69-1.5-1.1-2.22h0Z"/>
        <path class="cls-1" d="m114.22,84.88c.59,1.18.56,1.93,1.15,3.03-1.51.13-2.1-2.05-1.15-3.03h0Z"/>
        <path class="cls-1" d="m113.81,84.13c-.1.15.21.99.24,1.24.26,1.08.45,2.16,1.18,3.02.07.08.12.25.1.16.02-.03.09.02.05.08-.05.05-.11.03-.14.03-1.5-.26-2.12-1.89-1.96-3.25.08-.43.11-1.07.53-1.29h0Z"/>
        <path class="cls-1" d="m115.32,87.31c.27.43.54.99.57,1.48.06.29.1.47.28.6.02.03.06-.04-.14.03-.11.05-.18.22-.17.25,0,.04,0,.01,0-.05-.15-.55-.17-1.24-.26-1.77-.08-.37-.22-.22-.44-.43.12.04.21-.1.41-.08.18.01.33.13.44.24.45.57.58,1.17.8,1.83.25.8-.61,1.21-1.16.8-.96-.74-.4-1.91-.32-2.9h0Z"/>
        <path class="cls-1" d="m115.17,86.65c1.17-.44,2.44,1.43,1.33,2.17-.45-.91-.86-1.16-1.33-2.17h0Z"/>
        <path class="cls-1" d="m115.28,86.22c1.64-.55,2.88,2.05,1.42,2.97-.17-1.29-.46-1.97-1.42-2.97h0Z"/>
        <path class="cls-1" d="m115.71,89.99c.54,1.37.68,2.47,1.64,3.51-1.69.39-2.69-2.36-1.64-3.51h0Z"/>
        <path class="cls-1" d="m115.44,89.17c-.27.41.1,1.05.07,1.53.06,1.01.49,1.87.95,2.7.24.38.61.75,1.18.79-.02.02-.07.06-.09.08,0,0,0-.08,0-.08l.03.04c-1.19.71-2.31-.8-2.7-1.76-.38-.81-.19-1.76.02-2.6.07-.24.18-.67.52-.7h0Z"/>
        <path class="cls-1" d="m116.22,89.82c1.97.46,2.3,3.15,1.36,4.64-.09.14-.04.17-.15.08-.13-.1-.1-.26-.02-.31-.01.09.09.14.11.11l-.15.08c-.31-1.79-.18-3-1.15-4.61h0Z"/>
        <path class="cls-1" d="m116.68,89.24c1.17-.03,1.94,1.24,2.18,2.26.35,1.07.03,2.24-.58,3.13,0,0-.15-.02-.15-.02.12-.26.07-.24.16,0,0,0-.15-.02-.15-.02-.03-.53,0-1.04-.02-1.51-.13-1.37-.38-2.83-1.42-3.83h0Z"/>
        <path class="cls-1" d="m116.85,95.2c.06-.45.49-.69.86-.9.91-.47,2.06.33,2.25,1.24.18.62,0,1.23-.16,1.81-.02-.18-.07-.58-.07-.76.19.16.31.13,0,.22-.58-.96-.81-1.71-1.82-1.78-.33.05-.74,0-1.06.17h0Z"/>
        <path class="cls-1" d="m116.54,94.94c1.69-3.05,4.95-.72,3.58,2.19-.33-.88-.41-1.92-1.12-2.47-.65-.5-1.68-.04-2.45.28h0Z"/>
        <path class="cls-1" d="m94.39,51.34c-.67,1.28-1.55,1.87-1.82,3.24-1.33-1.11.3-3.27,1.82-3.24h0Z"/>
        <path class="cls-1" d="m94.39,52.26c-.55,1.1-.8,1.46-1.66,2.35-.65-1.09.42-2.59,1.66-2.35h0Z"/>
        <path class="cls-1" d="m93.42,53.06c1.27,1.57-.18,4.36-2.2,4.21,1.31-1.34,1.85-2.37,2.2-4.21h0Z"/>
        <path class="cls-1" d="m92.44,53.85c-.35,1.19-.61,1.95-.92,3.05-.04.14-.11.39-.15.36.01-.04.07,0,.06.05-.05.07-.11.04-.15.02-.94-1.12-.3-3.16,1.16-3.48h0Z"/>
        <path class="cls-1" d="m92.66,53.12c-.35.43-.74.78-1.03,1.15-.7.93-.81,2.16-1.04,3.29,0,.22-.06.51.21.57-.11.12-.33.03-.44-.08-.65-.83-.45-1.91-.27-2.88.27-1.17,1.43-1.94,2.57-2.05h0Z"/>
        <path class="cls-1" d="m90.73,58.11c1.22-.17,2-.85,2.3-2.01.17-.57.61-2.03.77-2.59.03-.21.28-.68.1-.84.19,0,.28.25.31.4.11.47.14.96.12,1.44-.09.99-.23,1.97-.77,2.83-.59.88-1.91,1.3-2.81.76h0Z"/>
        <path class="cls-1" d="m90.61,57.88c-1.02,1.65-1.41,2.84-1.56,4.78-1.39-1.49-.44-4.39,1.56-4.78h0Z"/>
        <path class="cls-1" d="m89.89,60.28c.37.87.14,1.45-.44,2.03-.04.04-.18.08-.23-.03-.02-.06.05-.13.08-.09-.03.02.04.03.05,0-.07-.13-.17.02-.22-.13-.3-.7-.05-1.48.76-1.78h0Z"/>
        <path class="cls-1" d="m90.89,58.33c.74,1.7-.16,3.86-1.83,4.61.07-.18.1-.5.23-.17,0,0-.15-.05-.15-.05.61-1.62,1.06-2.79,1.76-4.39h0Z"/>
        <path class="cls-1" d="m91.71,58.13c.91,1.77.32,4.33-1.67,5.07.7-1.53,1.18-2.77,1.43-4.36.05-.22.06-.51.24-.71h0Z"/>
        <path class="cls-1" d="m89.05,62.86c1.16,1.09.18,2.91-1.02,3.5-.29.13-.34-.08-.24-.08-.02.01,0,.04.02.03.06-.28.14-.56.23-.86.41-.98.8-1.51,1-2.59h0Z"/>
        <path class="cls-1" d="m89.42,62.67c1.24.31.95,2.04,1.01,3.01.04.57-.25,1.44-.8,1.72-.52.31-1.09.52-1.64.62-.08-.07-.06-.16-.01-.2-.01.06.04.11.07.09-.12-.16,1.36-1.21,1.32-1.61.11-.68.07-1.54.23-2.25.08-.5.19-.94-.18-1.39h0Z"/>
        <path class="cls-1" d="m88.73,63.87c-.57.82-.66,1.12-.86,1.93-.08.25-.16.55-.36.83-.41-.55-.61-1.14-.4-1.82.24-.64.94-1.17,1.63-.94h0Z"/>
        <path class="cls-1" d="m88.73,62.78c-1.36,1.59-2.01,3.18-.62,4.98,0,0-.75.15-.75.15.45-.93,1.46-.98,1.81-1.98.09.45-.09.94-.34,1.32-.15.29-.6.62-.64.89,0,0,.02.98.02.98l-.76-.83c-1.91-1.88-1.16-4.63,1.29-5.51h0Z"/>
        <path class="cls-1" d="m87.67,68.17c-.3,1.46-.98,2.77-1.09,4.01.09.08-.08.15-.14.07-1.1-1.31-.24-3.45,1.23-4.09h0Z"/>
        <path class="cls-1" d="m87.32,67.59c-.76.73-.86,1.66-1.09,2.61-.18.94-.3,1.82-.1,2.84l-.18.02s.08-.14.05-.23c.15.07.15.31.12.46-1.71-1.3-1.05-5.43,1.2-5.7h0Z"/>
        <path class="cls-1" d="m87.69,68.47c1.35,1.06.55,3.57-1.1,3.82,0,0-1.02.17-1.02.17l.88-.34c.23-.09.26-.06.15.16,0,0-.13-.17-.13-.17.78-1.28,1.09-2.11,1.21-3.64h0Z"/>
        <path class="cls-1" d="m88.46,68.03c.75,1.12.71,2.74.04,3.92-.59.86-1.21,1.58-1.97,2.3-.08.06-.17.12-.35.15-.38.08-.71-.32-.66-.63.03-1.15.84-1.98,1.51-2.82-.17.84-.59,1.68-.66,2.39-.01.13,0,.25.01.38,0,.05.03.07-.01-.02-.03-.11-.24-.2-.32-.17-.08.01-.07.02-.07.01-.01.01.09-.11.15-.19l.82-.97c1.16-1.17,1.74-2.65,1.53-4.35h0Z"/>
        <path class="cls-1" d="m86.85,71.15c-.32-.7.29-1.11.81-.54-.07.76-.08.76-.81.54h0Z"/>
        <path class="cls-1" d="m85.72,73.62c-.4,1.25-.62,1.85-1.06,3.06,0,0-.2.02-.2.02.08-.17.11-.16.2,0,0,0,.41.8.41.8l-.61-.78c-.83-1.08-.12-2.93,1.25-3.09h0Z"/>
        <path class="cls-1" d="m85.79,72.83c-1.21,1.05-1.48,2.31-1.75,3.73-.05.14.18.43.04.68-.09-.22-.33-.23-.5-.52-.75-1.53.3-4.1,2.21-3.9h0Z"/>
        <path class="cls-1" d="m86.22,73.91c.95,1,.2,2.87-1.12,3.08,0,0-.48.07-.48.07.13-.17.34-.5.58-.43-.07.1-.07.21-.04.27l-.26-.21c.59-1.06.84-1.63,1.31-2.79h0Z"/>
        <path class="cls-1" d="m87,73.25c.97,1.59.09,4.54-2.07,4.4,1.41-1.27,1.48-2.75,2.07-4.4h0Z"/>
        <path class="cls-1" d="m84.95,76.23c-.5,1.16-.75,2.41-1.03,3.61-.05.14.03.1-.06-.07-.11-.14.02,0,.09.04l.23.18-.78.21c.47-1.27,1.14-2.51,1.77-3.69.05-.1-.1-.33-.28-.22,1.54-.92-.64,4.46-.8,4.92-.15-.14-.61-.5-.76-.62-.08-.09-.12-.04-.34-.35-.15-.36,0-.6,0-.64.38-1.23.91-2.54,1.96-3.36h0Z"/>
        <path class="cls-1" d="m82.48,82.05c-.71-.15-.63-1.12-.41-1.63.25-.53.78-.98,1.43-.92-.2.6-.35.95-.52,1.33l-.28.57c-.08.21-.25.33-.22.65h0Z"/>
        <path class="cls-1" d="m83.91,78.05c-1.12,1.42-1.96,3.26-1.83,5.09-1.66-1.41-.23-4.92,1.83-5.09h0Z"/>
        <path class="cls-1" d="m82.98,82.24c.66-1.09.84-1.41,1.46-2.52.99.97-.13,2.89-1.46,2.52h0Z"/>
        <path class="cls-1" d="m84.71,78.33c1.2,1.03.87,3.5-.32,4.43-.43.35-.97.57-1.51.54.39-.36.69-.71.94-1.07.49-.64.66-1.73.82-2.48.08-.46.16-.89.08-1.41h0Z"/>
        <path class="cls-1" d="m81.06,86.89c-.39-.91-.34-2.04.12-3,.36-.68.72-1.17.89-1.86.05-.21.16-.59.46-.76.51-.34,1.15.19,1.11.68-.01.48-.31.83-.46,1.22-.5,1.02-1.09,2.25-1.67,3.21,0,0-.19.31-.19.31-.05.11-.18.2-.14.31-.1-.34.19-1.07.24-1.44.3-1.21.75-2.47,1.23-3.59-.02.19.35.25.44.1-.55,1.81-2.12,2.71-2.04,4.81h0Z"/>
        <path class="cls-1" d="m80.92,87.94c.29-1.27.49-1.81,1.14-2.94.85,1.02.17,2.75-1.14,2.94h0Z"/>
        <path class="cls-1" d="m80.82,88.71c1.17-1.71,2.01-3.15,1.96-5.21,1.6,1.72.15,4.76-1.96,5.21h0Z"/>
        <path class="cls-1" d="m79.85,90.39c-.5-.9-.82-1.88-.53-2.9.32-.64.87-.86,1.51-1.09-.1.4-.29.75-.48,1.05-.17.32-.16.38-.15.72.03.74-.02,1.5-.35,2.21h0Z"/>
        <path class="cls-1" d="m79.82,90.42c.34-.19.11-.38.06-.68-.23-1.07.25-2.16,1.15-2.79.1.76-.06,1.36-.18,1.93-.13.42-.16,1.03-.42,1.43-.16.2-.47.28-.61.11h0Z"/>
        <path class="cls-1" d="m78.64,92.55c-1.19-.8-.42-3,1-2.88-.5,1.22-.64,1.61-1,2.88h0Z"/>
        <path class="cls-1" d="m78.19,93.27c-2.05-.97-.66-4.48,1.36-4.48-.99,1.29-1.9,2.83-1.36,4.48h0Z"/>
        <path class="cls-1" d="m78.97,93.34c.81-.65.84-1.7,1.23-2.59.08-.3.18-.58.12-1,.41.16.62.64.66,1.05.12,1.12-.64,2.93-2,2.54h0Z"/>
        <path class="cls-1" d="m78.82,94.14c1.05-.5,1.44-1.4,1.68-2.45.17-.89.49-1.81.17-2.68-.05-.1-.14-.34-.14-.19-.05,0-.07-.08-.01-.12.62.03.96.85,1.05,1.39.29,1.7-.64,4.43-2.75,4.04h0Z"/>
        <path class="cls-1" d="m77.29,96.06c-.36-.7-.2-1.53.02-2.25.31-.79.75-1.67,1.58-2.12.12-.05.41-.05.58.11.64.69-.22,1.7-.55,2.28-.45.57-.36,1.33-.78,1.92.02-.75-.28-1.54.08-2.26.18-.52.43-.9.5-1.39.04-.08-.09-.04.13.21.13.11.31.09.38.05-.9.88-1.76,2.1-1.94,3.43h0Z"/>
        <path class="cls-1" d="m120.37,97.38c-1.32,5.64-44.38,6.64-45.06.16.55-6.44,43.59-5.84,45.06-.16h0Zm0,0c-.03-.51-.43-.87-.82-1.13-1.23-.79-2.68-1.14-4.09-1.49-9.51-1.92-19.4-1.6-28.98-.48-13.38,1.85-13.48,4.68.02,6.45,9.59,1.05,19.48,1.3,28.98-.69,1.4-.35,2.85-.72,4.07-1.52.39-.27.79-.63.81-1.14h0Z"/>
        <path class="cls-1" d="m119.03,97.22c-1.28,4.55-42.39,5.58-42.86.16.28-5.39,41.47-4.74,42.86-.16h0Zm0,0c-.04-.48-.5-.76-.88-.97-1.22-.62-2.59-.9-3.93-1.17-10.78-1.68-21.95-1.29-32.68.54-1.32.35-3.6.68-4.37,1.76-.04.05.26.38.61.55,1.16.61,2.48.89,3.77,1.17,10.74,1.75,21.92,2.06,32.68.3,1.33-.28,2.7-.57,3.92-1.2.37-.22.83-.5.87-.98h0Z"/>
        <path class="cls-1" d="m119.76,98.49c-.69,4.47-5.03,7.2-8.9,8.81-8.11,3.13-17.46,3.16-25.58.07-3.88-1.59-8.23-4.32-8.9-8.8,1.09,4.29,5.31,6.65,9.18,8.08,7.99,2.75,17.05,2.72,25.03-.06,3.86-1.45,8.07-3.81,9.17-8.1h0Z"/>
        <path class="cls-1" d="m79.12,98.68c12.39-3.98,26.05-4.11,38.52-.41-1.37-.22-3.4-.56-4.8-.75-11.2-1.58-22.64-1.11-33.72,1.15h0Z"/>
      </g>
      <g>
        <path class="cls-1" d="m24.54,32.69c.69.95-.16,2.47-1.4,2.37-1.33-.03-1.74-1.7-.98-2.59.11.47.21.9.39,1.2.73.99,1.82,0,1.99-.98h0Z"/>
        <path class="cls-1" d="m24.91,32.34c1.41.73,1.16,3.05-.37,3.67-.51.23-1.03.23-1.47.23-.42-.02-1,.01-1.53-.4-.49-.43-.61-.98-.67-1.43-.12-.86-.04-2.1.86-2.51-.55.73-.3,1.57-.09,2.34.13.39.28.73.49.85.4.24,1.59.2,2.06.04,1.09-.4,1.46-1.73.73-2.8h0Z"/>
        <path class="cls-1" d="m23.09,33.64c1.07.82,1.07,2.58.18,3.53-.2.33-.72,0-.54-.28.09.17.31.04.19,0l-.07.09c.06-1.21.08-2.17.24-3.35h0Z"/>
        <path class="cls-1" d="m23.81,36.13c1.01.84,1.34,2.61.43,3.7-1.28,1.29-3.39.01-3.26-1.65.02-.97.6-1.75,1.29-2.18-.71,1.12-.87,3.08.59,3.35,1.43.12,1.39-2.19.95-3.21h0Z"/>
        <path class="cls-1" d="m23.18,37.64c.27.2.56.55.35,1.08-.27.66-1.21.61-1.49,0-.2-.44-.19-.75-.11-1.13.06-.35.41-.83.81-.72-.26.38.07,1.08.18,1.38.03.06-.01,0-.08.01-.07.03-.03.06.04.04.12,0,.22-.31.3-.66h0Z"/>
        <path class="cls-1" d="m23.91,39.8c1.12.49.93,2.34-.27,2.59-.05-1.17-.02-1.45.27-2.59h0Z"/>
        <path class="cls-1" d="m24.46,39.08c1.05.2,1.28,1.62,1.04,2.47-.15.78-.87,2.37-1.9,1.7.9-.31.67-1.19.93-1.93.19-.81.34-1.44-.06-2.24h0Z"/>
        <path class="cls-1" d="m23.32,39.91c.42,1.95.76,3.35,1.26,5.28-1.69-1.06-2.28-3.57-1.26-5.28h0Z"/>
        <path class="cls-1" d="m22.68,40.55c.46,2.09.5,3.58,1.64,5.45-2.17-.7-2.68-3.64-1.64-5.45h0Z"/>
        <path class="cls-1" d="m22.31,40.76c.4,1.38,0,2.74-1.08,3.7-.21-1.43.14-2.6,1.08-3.7h0Z"/>
        <path class="cls-1" d="m22.01,40.04c-1.02,1.36-.68,2.93-.76,4.53-1.42-1.11-1.32-4.33.76-4.53h0Z"/>
        <path class="cls-1" d="m24.46,44.25c1.23.43,1.2,2.37.12,2.95-.14.13-.61.15-.53-.1.07.07.1-.03.13-.07.2-.96.3-1.64.28-2.78h0Z"/>
        <path class="cls-1" d="m23.65,45.82c.55,1.16.7,1.74.72,3.03-1.21-.43-1.6-2.1-.72-3.03h0Z"/>
        <path class="cls-1" d="m23,44.97c-.04,1.81.14,2.94.72,4.65-1.77-.68-2.19-3.47-.72-4.65h0Z"/>
        <path class="cls-1" d="m24.01,49.37c1.06,1.01,1.22,3.3-.35,3.89.32-1.41-.01-2.42.35-3.89h0Z"/>
        <path class="cls-1" d="m23.23,49.81c-.01,1.45.09,2.07.52,3.45-1.59-.19-1.98-2.79-.52-3.45h0Z"/>
        <path class="cls-1" d="m24.95,49.25c1.22.69,1.47,3.29.32,4.15-.43.35-1.02.49-1.49.31.44-.24.73-.53.93-.85.2-.33.28-.61.29-1,.02-.81.17-1.8-.04-2.61h0Z"/>
        <path class="cls-1" d="m23.05,49.13c-.42.32-.57.72-.65,1.11-.18,1.28.01,2.62,1.04,3.56-2.44.12-2.93-4.65-.39-4.67h0Z"/>
        <path class="cls-1" d="m23.57,51.8c.47,1.12.49,1.82.08,2.96-.95-.75-.98-2.16-.08-2.96h0Z"/>
        <path class="cls-1" d="m23.98,54.81c1.16.49,1.25,2.51-.06,2.91-.16.03-.48.1-.52-.12.08.02.11-.06.14-.11.52-.92.32-1.53.44-2.69h0Z"/>
        <path class="cls-1" d="m23.19,54.87c.27,1.23.33,1.67.34,2.93-1.26-.35-1.48-2.29-.34-2.93h0Z"/>
        <path class="cls-1" d="m23.99,54.04c.87.44,1.75,1.45,1.73,2.52-.11,1.14-.55,2.64-1.92,2.69-2.03-.14-2.27-2.59-1.83-4.12.17-.51.56-.96,1.03-1.13-.73.74-.6,1.68-.43,2.59.13.92.6,1.67,1.22,1.66.65,0,.98-1.23,1.14-1.76.13-.8-.45-1.8-.96-2.44h0Z"/>
        <path class="cls-1" d="m23.54,56.72c1.6,1.04,1.48,3.29,1.31,4.96-.05.55-.19,1.4-.81,1.6.3-.55.09-1,.03-1.6-.27-1.69.08-3.33-.53-4.97h0Z"/>
        <path class="cls-1" d="m23.62,56.84c-.16.14-.16.28-.13.35.07.18.3-.02.13-.11-.06-.03-.2-.05-.36.09-.22.04-.36-.09-.41-.23-.19-.61.92-.82.77-.09h0Z"/>
        <path class="cls-1" d="m23.6,59.02c1.21,1.07.72,2.9.48,4.26-.01.03-.01.04-.03.06,0,.02.08.03.07-.03.14.15-.16.29-.29.07-.85-1.37-.28-2.85-.23-4.37h0Z"/>
        <path class="cls-1" d="m23.45,59.85c-.23,1.46,0,2.47.46,3.79-1.66-.25-2.09-3.19-.46-3.79h0Z"/>
        <path class="cls-1" d="m24.65,62.07c1.16.83.89,2.95-.41,3.51-.25.11-.57.08-.77-.1,0,0,.01-.03.01-.03.09-.22.12-.22.21,0,0,0-.08-.1-.08-.1.27-.12.36-.36.47-.61.38-.9.48-1.56.57-2.66h0Z"/>
        <path class="cls-1" d="m23.26,63.06c.14.61.39,1.76.48,2.37.03.12-.02.24.13.31-.11.19-.39.07-.51,0-.97-.5-1.14-2.14-.11-2.68h0Z"/>
        <path class="cls-1" d="m24.5,61.14c2.44.43,2.06,5.91-.73,4.96,1.1-.39,1.31-1.07,1.32-2.17.07-1.03.11-1.92-.58-2.79h0Z"/>
        <path class="cls-1" d="m22.89,62.31c-.38,1.15-.43,3.85,1.21,3.86-.28.46-1.06.45-1.49.08-1.27-.96-1.17-3.25.28-3.95h0Z"/>
        <path class="cls-1" d="m23.88,64.67c1.23.84,1.44,2.69.61,3.91-.09.2-.52.39-.74.24-.25-.15-.23-.21-.31-.29-.43-.72-.03-1.55.24-2.15.23.61.13,1.24.47,1.64,0,.01.1.06-.03-.02-.1-.08-.37,0-.43.09.52-1.08.47-2.21.19-3.41h0Z"/>
        <path class="cls-1" d="m23.8,64.54c0,.28.07.36.14.5-.01,0-.04,0-.12.02-.07.02-.19.05-.36.19-.22,0-.36-.11-.42-.23-.24-.45.4-.93.75-.48h0Z"/>
        <path class="cls-1" d="m24.41,67.7c.59.07.95.72.97,1.33.14,1.02-1.22,2.23-2.22,1.38-.7-.62-.43-2.32.55-2.31-.4.38-.23.8-.16,1.24.11.34.19.4.47.34.63-.24.88-1.35.39-1.98h0Z"/>
        <path class="cls-1" d="m24.12,68.61c.61.09.61,1.02.13,1.32-.42.33-.94-.05-1-.52-.08-.43.22-.97.69-.93,0,.39.09.51.25.71,0,0,.01.01.01.01-.05-.15-.37-.2-.49-.1.2-.04.33-.16.41-.5h0Z"/>
        <path class="cls-1" d="m23.5,67.6c-.26.11-.28.41-.38.65-.21.65-.24,1.48,0,2.07.42,1.05,1.29.77,1.31-.32.51.43.3,1.51-.43,1.75-2.05.42-2.51-2.63-1.31-3.75.2-.2.49-.52.8-.4h0Z"/>
        <path class="cls-1" d="m23.92,70.26c1.05.56-.36,1.66-.91.68-.2-.39.04-.86.47-.86.1.23.19.36.26.39.13.03.06-.2-.13-.08-.17.2.02.25.31-.13h0Z"/>
        <path class="cls-1" d="m23.87,71.39c.87.63,1.31,2.23.57,3.13-.16.18-.62.21-.8.02-.39-.45-.33-1.05-.33-1.58.03-.52.17-1.03.45-1.47.14.64.4,1.77.59,2.38,0,.07.06.05-.08-.09-.08-.11-.4-.11-.48-.01-.06.06-.03.08,0-.05.2-.78.2-1.47.08-2.32h0Z"/>
        <path class="cls-1" d="m23.75,74.05c-.31.55-.24,1.04.18,1.36.04.04.07.03-.03.02-.12,0-.16.06-.12.04.08-.04.15-.13.22-.23.13-.21.25-.49.22-.9.63.29.69,1.28.22,1.8-.09.1-.28.27-.58.26-.28-.02-.4-.12-.51-.18-.88-.56-.69-2.16.4-2.17h0Z"/>
        <path class="cls-1" d="m24.39,73.56c1.13.33,1.35,2.36.42,3.08-1.37,1.01-2.82-.33-2.52-1.86.06-.68.57-1.74,1.39-1.55-.34.11-.48.41-.56.69-.15.55-.06,1.16.14,1.69.3.63,1.22.44,1.34-.27.11-.58.26-1.25-.22-1.78h0Z"/>
        <path class="cls-1" d="m23.96,75.31c.91.85.91,2.31.42,3.43,0,0-.49-.23-.49-.23-.37-.17-.46-.5-.49-.67-.11-.73-.12-1.36-.07-2.09.02-.16.05-.37.24-.51.17-.12.43-.07.46.1-.55-.18.04.8.08,1.13.11.36.19.8.26,1.15.02.09.05.05-.06-.01l-.67.28c.29-.76.39-1.59.34-2.59h0Z"/>
        <path class="cls-1" d="m24.01,77.61c-.19.37-.14.67-.07.9.05.23.37.31.1.24.08-.02.27-.19.33-.38.07-.19.06-.51-.2-.84.42-.07.9.3.98.83.21.92-1.12,1.97-1.78.96-.45-.6-.1-1.69.64-1.71h0Z"/>
        <path class="cls-1" d="m24.29,77.16c1.29-.33,1.99,1.66,1.22,2.57-.86,1.25-2.96.48-2.96-.97-.04-.59.2-1.25.75-1.51.19-.09.35-.04.48-.16-.03.19-.25.28-.32.39-.51.67-.04,1.97.82,1.9,1-.04,1.07-1.91.02-2.21h0Z"/>
        <path class="cls-1" d="m23.85,78.81c.81.68,1.11,2.39-.09,2.75-.07-1.04-.53-1.71.09-2.75h0Z"/>
        <path class="cls-1" d="m24.02,78.87c-.02-.1.14-.2.28-.12.48.37.65.99.67,1.57,0,.55-.32,1.63-1.09,1.42-.07,0-.13-.13-.05-.13.03.06.17-.2.16-.26.03-.59-.05-1.21.03-1.83.02-.17.03-.42.1-.57.04-.02,0-.12-.09-.08h0Z"/>
        <path class="cls-1" d="m23.98,80.61c-.37.24-.43.45-.33.73.05.22.15.49.56.27.18.3-.19.76-.63.72-.42,0-.79-.33-.89-.73-.27-.75.71-1.65,1.3-1h0Z"/>
        <path class="cls-1" d="m24.5,80.92c.88.7.25,2.41-1.07,2.2-1.15-.21-1.96-1.63-1.18-2.59.34-.57,1.68-.81,1.64.01-.34-.43-.86.07-.98.4-.25.52.27,1.07.71,1.25.61.13.98-.53.87-1.28h0Z"/>
        <path class="cls-1" d="m23.74,81.79c1.35.26,2.16,2.62.66,3.19.08-1.26-.51-1.88-.66-3.19h0Z"/>
        <path class="cls-1" d="m23.92,82.14s-.09.08-.13.11l.07-.04c.16.13.46.12.6.43.43.76.57,1.85-.15,2.48,0,0-.14-.23-.14-.23.42.19.14.23-.12.39-.02-.8-.31-1.55-.32-2.31.05-.23-.35-.58-.02-.86,0,0,.06-.04.06-.04.05.02.11.05.16.08h0Z"/>
        <path class="cls-1" d="m24.23,84.39c-.31.15-.27.31-.25.47-.04.09-.17.2-.35.66-.51-.03-.76-.56-.58-1.03.14-.5,1.07-.76,1.18-.11h0Z"/>
        <path class="cls-1" d="m23.66,82.78c.49.83.21.78.07,1.51-.99.17-1.05-1.42-.07-1.51h0Z"/>
        <path class="cls-1" d="m23.81,84.34c-.1.35-.06.61,0,.81.05.21.25.3.1.21-.07.06.49-.22.51-.33.03-.09.04-.23-.12-.34.16-.14.44-.03.58.16.37.69-.3,1.53-1.07,1.5-1.13-.15-.99-1.89,0-2.01h0Z"/>
        <path class="cls-1" d="m23.49,84.07c-.55.36-.32,1.36-.04,1.75.9.55,1.92-.32,1.07-1.32,1.14.09,1.29,1.79.2,2.31-.72.28-1.52.22-2.04-.43-.47-.75-.25-2.38.8-2.31h0Z"/>
        <path class="cls-1" d="m24.16,85.97c1.03.5,1.13,1.97.34,2.7-.04.03-.09.1-.19.08-.09-.03-.08-.14-.03-.14,0,.04.07.02.03-.01-.11-.02-.09-.13-.13-.22-.2-.87-.24-1.43-.02-2.41h0Z"/>
        <path class="cls-1" d="m23.89,86.02c.52.6.63.91.58,1.59-.03.22-.14.51-.4.62-.57-.66-.98-1.5-.18-2.22h0Z"/>
        <path class="cls-1" d="m24.17,88.37c.11.49.75-.05.25-.11-.1,0-.26.09-.21.3.01.22-.2.3-.33.26-.57-.12-.04-.96.28-.45h0Z"/>
        <path class="cls-1" d="m24.54,86.67c.66-.17,1.17.61,1.27,1.2.21,1.95-2.55,2.31-2.81.32-.19-.52,0-1.66.78-1.44-.71.34,0,1.34.31,1.7.38.28.87-.05.94-.54.03-.4-.05-1.03-.49-1.23h0Z"/>
        <path class="cls-1" d="m24.77,87.41c.43.18.6.53.47.96-.13.45-.89.74-1.1.2.24-.22.15-.37.16-.54.12-.2.22-.39.47-.62h0Z"/>
        <path class="cls-1" d="m23.82,87.51c.09.28.2.32.32.42,0,.02-.03.03-.09.09-.05.06-.13.15-.16.37-.18.14-.38.11-.52.02-.49-.29-.13-1.18.44-.89h0Z"/>
        <path class="cls-1" d="m24.42,89.09c.53.57.52,1.33.44,2.03,0,0-.48-.06-.48-.06-.42.03-1.12-.39-1.01-.95.07-.46.29-.92.67-1.21.02-.04.02.03.05.01.05-.02,0-.03.01,0-.04.04-.07-.09.03-.07.07,0,.06.14.06.14.01.09.03.33.04.43.02.17.05.58.07.75.02.08-.01-.11-.03-.11-.03-.04.08.04.19.05l-.52.4c.12-.44.24-.87.47-1.42h0Z"/>
        <path class="cls-1" d="m24.56,90.65c-.13-.06-.12-.28-.04-.41,0,0,.21.12.21.12.79.36.74,1.74-.29,1.81-.85-.05-1.07-.86-.75-1.4.07-.16.37-.35.48-.15-.2.07.07.42.11.52.1.13.2.07.11.05-.12.03-.02.03.03-.05.07-.1.05-.33.05-.62l.25.02s-.12.02-.15.11h0Z"/>
        <path class="cls-1" d="m24.66,89.78c1.07.07,1.71,1.65.8,2.47-.93.91-2.58.17-2.7-1-.16-.68.37-1.53,1.09-1.46-.88.65-.29,1.84.53,1.88.99-.02.97-1.22.29-1.89h0Z"/>
        <path class="cls-1" d="m24.5,91.92c.71.27,1.54,2.02.51,2.33-.3.05-.57-.05-.83-.07-.95-.21-.37-1.43-.04-1.97.23.46.31.85.38,1.28.04-.08-.17-.24-.2-.24.13,0,.34.01.51.02.05.01.07,0-.02.02-.11-.01-.31.23-.29.29.04-.42.02-1.06-.02-1.66h0Z"/>
        <path class="cls-1" d="m20.75,44.67c.93.36.61,1.74.1,2.36-.59.67-1.68.09-1.38-.76.29-.65.67-.89,1.15-1.31.08-.04.15-.13.25-.15.09,0,.05.12.01.07.02-.05,0,.13-.03.23-.06.43-.38,1.05-.47,1.4,0,.05.03,0-.02-.08-.04-.07-.16-.12-.18-.11.21-.37.83-1.02.57-1.65h0Z"/>
        <path class="cls-1" d="m20.7,43.92c-.83.73-.98,1.77-1.02,2.76,0,.28.11.43.18.44.24.07,1.05-.43,1.24-.76.36-.47.53-1.15.41-1.9.86.9.51,2.6-.57,3.27-1.08.81-2.31.21-2.2-1.09.13-1.15.73-2.52,1.96-2.72h0Z"/>
        <path class="cls-1" d="m19.71,46.96c1.2.54.8,3.09-.46,3.39-.11.03-.37,0-.52-.14-.23-.23-.24-.43-.37-.67-.14-.19-.11-.73.1-.9.21-.22.3-.38.43-.62.13-.29.21-.62.22-.96,0-.14.02-.29.15-.35.26-.12.42.09.49.2-.15-.07-.31-.06-.32.02.45.61.23,1.68-.2,2.26-.02.04,0,.04,0-.03,0-.08-.02-.09.02-.04l.2.4s.02.01-.06-.07c-.09-.09-.28-.11-.31-.09.18-.07.43-.49.56-.84.19-.52.39-1.01.09-1.58h0Z"/>
        <path class="cls-1" d="m19.13,49.76c1.43.93.6,3.93-1.18,3.78-.05,0-.19-.09-.08-.13.01,0,.04.04.01.03-.01,0,.07-.09.14-.15.76-1.01,1.05-2.26,1.1-3.54h0Z"/>
        <path class="cls-1" d="m19.71,49.42c1.76,1.23.93,5.35-1.58,4.67-.14-.06-.29-.2-.27-.35.21.18.43.04.64-.04,1.39-.88,1.39-2.67,1.21-4.29h0Z"/>
        <path class="cls-1" d="m18.71,49.62c-.34,1.19-.48,1.93-.51,3.06,0,.17-.06.3.08.44-.22.1-.43-.15-.53-.26-.88-1.01-.4-2.95.97-3.24h0Z"/>
        <path class="cls-1" d="m18.63,49.29c-.5.19-.63.57-.76.96-.33,1.16-.86,2.66.47,3.39-1.23.41-2.09-1.27-1.78-2.29.21-.93.9-2.5,2.07-2.06h0Z"/>
        <path class="cls-1" d="m18.59,52.52c-.24-.03-.46.01-.64.09l.14-.28c.64.96.06,2.23-.4,3.14,0,0-.24-.71-.24-.71.22.09.45.15.69.17l-.49.39c.23-.94.54-1.86,1-2.75.18,1.12.04,2.23-.11,3.34-.69.03-1.37-.14-2-.44.34-.55.68-1.13.93-1.73.25-.56.42-.91.25-1.51.32-.01.67.07.88.29h0Z"/>
        <path class="cls-1" d="m18.12,54.94c1.35.69.16,3.19-1.23,2.77-.26-.02-.59-.22-.36-.42,0,.1.12.09.13.06.37-.28.68-.39.88-.87.3-.55.6-.83.58-1.53h0Z"/>
        <path class="cls-1" d="m17.27,54.81c-.25.44-.18.81-.24,1.24-.07.43-.14.82-.4,1.39-.51-.38-.65-.98-.59-1.52.05-.55.58-1.35,1.23-1.11h0Z"/>
        <path class="cls-1" d="m18.33,54.08c1.73.62,1.46,3.38.01,4.18-.45.33-1.22.44-1.61.02.54-.02.84-.3,1.1-.61.6-.68.75-1.45.84-2.28.04-.36-.16-.8-.34-1.3h0Z"/>
        <path class="cls-1" d="m17.42,53.73c-.64.26-.94.92-1.28,1.42-.29,1-.44,2.05,0,3.07-1.34-.5-1.46-2.47-.81-3.57.51-.59,1.29-1.27,2.08-.92h0Z"/>
        <path class="cls-1" d="m16.96,56.98c.29.71.32,1.57-.17,2.24-.43.67-1.75.4-1.45-.66.14-.4.29-.63.48-.97.17-.26.47-.87.94-.76.15.03.29.18.26.31-.08-.1-.19-.07-.26-.04-.18.18-.11.47-.21.77-.05.29-.19.66-.26.92-.01.06.03-.01-.05-.12-.19-.17-.25.01-.15-.09.43-.42.56-1.01.88-1.61h0Z"/>
        <path class="cls-1" d="m16.26,59.09c.15.35.38.53.48.95.11.43,0,.83-.08,1.14-.2.64-.71,1.53-1.52,1.46.43-.82.5-1.73.83-2.55.06-.24.02-.69.29-1h0Z"/>
        <path class="cls-1" d="m16.59,58.75c2.05.89.57,5.39-1.61,4.95.87-.57,1.13-1.35,1.42-2.28.28-.94.63-1.7.2-2.68h0Z"/>
        <path class="cls-1" d="m15.08,62.05c.35,1.09.16,4.03-1.64,2.94,0,0-.2-.17-.2-.17l.04-.27c.15-.97.48-1.91,1.09-2.69.34-.33.53.05.71.25-.15.02-.45-.18-.39-.02-.12.84-.32,1.77-.42,2.61,0,0-.17-.5-.17-.44.39-.52.61-1.49.98-2.2h0Z"/>
        <path class="cls-1" d="m15.71,58.97c-.88.95-.87,1.84-1.33,3.1-1.16-.96-.27-3.58,1.33-3.1h0Z"/>
        <path class="cls-1" d="m15.93,58.43c-1.03.35-1.44.98-1.8,1.94-.37.92-.7,1.71-.29,2.71-2.16-1.11-.27-5.65,2.09-4.65h0Z"/>
        <path class="cls-1" d="m14.35,64.76c1.16.97.41,3.22-1.11,3.29.54-1.33.74-1.91,1.11-3.29h0Z"/>
        <path class="cls-1" d="m13.2,66.96c.63,1.2.72,3.66-1.28,3.43-.13-.8-.16-1.64,0-2.43.09-.43.22-1.34.9-1.33.21,0,.43.16.41.35-.2-.22-.5-.05-.51.2-.02.81.06,1.84.13,2.67,0,0-.47-.44-.47-.44.02.02.14-.04.23-.17.33-.65.44-1.49.6-2.27h0Z"/>
        <path class="cls-1" d="m13.71,64.62c-.42,1.1-.54,1.33-1.22,2.29-.89-.86,0-2.54,1.22-2.29h0Z"/>
        <path class="cls-1" d="m13.91,63.64c-1.12.79-1.81,1.81-1.91,3.14-.06.42-.11.81.13,1.28-.83-.24-.98-1.29-.95-2.03.01-1.38,1.37-2.62,2.73-2.38h0Z"/>
        <path class="cls-1" d="m14.93,63.82c1.51,1.51.73,4.73-1.6,4.74,1.42-1.35,1.54-2.79,1.6-4.74h0Z"/>
        <path class="cls-1" d="m12.57,69.86c.66,1.05.2,2.46-.95,2.91-.02-1.25.2-1.92.95-2.91h0Z"/>
        <path class="cls-1" d="m13.06,69.54c.45.17.58.75.59,1.14.06,1.06-.5,2.14-1.43,2.67-.2.15-.71.19-.61-.18.15.17.21-.03.26-.16.38-.8.72-1.59,1.01-2.42.1-.35.27-.62.18-1.04h0Z"/>
        <path class="cls-1" d="m12.15,69.7c.06.18-.14.33-.19.42-.16.26-.27.54-.36.81-.11.34-.18.72-.3,1.25l-.25-.1s.15.02.23-.05c.06.1.04.25-.07.36-.11.12-.05.08-.25-.1-.9-.97-.23-2.7,1.18-2.57h0Z"/>
        <path class="cls-1" d="m12.36,68.82c-1.27.8-2.04,2.35-1.34,3.77-1.04-.2-1.35-1.57-1.01-2.46.34-.87,1.4-1.66,2.35-1.31h0Z"/>
        <path class="cls-1" d="m11.56,71.54c.62.83.27,2.13-.33,2.89-.28.34-.8.3-1.22.25,0-1.12.49-2.1,1.33-2.79.1-.08.32-.16.4-.02-.24.02-.19.3-.27.52l-.19.66c-.12.43-.22.82-.23,1.2l-.48-.52c.34-.55.91-1.36,1.01-2.19h0Z"/>
        <path class="cls-1" d="m10.75,74.5c.95.76.02,2.44-1.15,2.21.29-1.06.62-1.36,1.15-2.21h0Z"/>
        <path class="cls-1" d="m11.04,73.99c.46.08.51.71.61,1.06.43,1.45-.49,2.75-2.05,2.56.42-.55,1.01-.92,1.13-1.54.07-.25.06-.64.14-1.02.02-.38.3-.69.17-1.07h0Z"/>
        <path class="cls-1" d="m9.58,76.55c-.22-.08-.52.03-.39.15.05,0,.08-.03.05-.11-.03-.06-.11-.16-.33-.2-.15-.17-.11-.38,0-.51.42-.53,1.34.26.67.66h0Z"/>
        <path class="cls-1" d="m9.5,76.44c-.32,2.11.87,4.43-.4,6.43-.42.66-1.19,1.19-1.95,1.1,2.8-1.59.55-5.33,2.35-7.53h0Z"/>
        <path class="cls-1" d="m8.62,79.18c.92,1.47.27,3.66-1.29,4.39.43-1.67.75-2.75,1.29-4.39h0Z"/>
        <path class="cls-1" d="m10.44,73.96c-1.36.74-.77,2.38-1.42,3.72-.27.51-.74.89-1.26,1.01v-.12s.06.05.11.02c-.02.06-.08.11-.17.1h-.09c.33-.42.57-.89.65-1.31.2-.92,0-2.02.7-2.88.41-.52,1.08-.72,1.64-.53-.03,0-.13,0-.15,0h0Z"/>
        <path class="cls-1" d="m10.44,73.76c-1.08.11-1.59.9-1.78,1.85-.11.81-.23,2.21-1.27,2.59-.12.06-.31.14-.23.1.05.01-.02.12-.09.04-.05-.12.09-.24.13-.34.59-.83.3-1.54.48-2.59.14-1.18,1.64-2.48,2.76-1.65h0Z"/>
        <path class="cls-1" d="m8.53,79.29c-.29-.23-.67-.16-.99-.14-.06.05.09-.02.02.07-.5,1.24-.76,2.63-.51,3.98-1.4-.93-1.18-3.73.16-4.66.3-.14.54.01.78.11.24.12.53.34.54.63h0Z"/>
        <path class="cls-1" d="m7.22,78.38c-.7.8-.87,1.64-1.02,2.64-.15.99-.31,1.84.3,2.73-2.27-.63-1.49-5.15.71-5.37h0Z"/>
        <path class="cls-1" d="m7.1,82.75c.38.31.54.89.41,1.42-.14.57-.53.92-.73,1.22-.47.61-.8,1.27-1.16,2.16-.45-.87-.23-1.98.37-2.76.66-.76,1.11-.99,1.12-2.03h0Z"/>
        <path class="cls-1" d="m7.08,83.07c-.41.73-.42,1.67-1.08,2.23-.47.55-.35,1.34-.79,1.97-.27-.65-.42-1.22-.33-1.92.06-.45.5-.83.76-1.11.38-.43.75-1.12,1.44-1.17h0Z"/>
        <path class="cls-1" d="m6.15,85.6c.95.97.38,3.15-1.13,3.04.59-1.1.55-1.85,1.13-3.04h0Z"/>
        <path class="cls-1" d="m6.56,84.84c.13.02.22.16.27.27.34.75.36,1.61.17,2.41-.17.88-.91,1.71-1.84,1.87-.03,0-.09.02-.14-.02-.04-.06.02-.11.05-.08-.02.09.03-.08.1-.17.72-.87.9-1.95,1.15-3.03.04-.28.33-1.08.23-1.25h0Z"/>
        <path class="cls-1" d="m5.06,88.03c.08.99.65,2.16-.3,2.9-.54.42-1.42,0-1.17-.79.21-.66.34-1.26.79-1.83.11-.11.26-.23.44-.24.2-.03.28.11.41.07-.21.21-.36.06-.43.43-.09.53-.1,1.22-.24,1.77-.02.06,0,.09,0,.05.01-.04-.06-.21-.17-.25-.2-.06-.16,0-.14-.03.18-.12.21-.3.27-.6.03-.49.29-1.05.56-1.49h0Z"/>
        <path class="cls-1" d="m5.21,87.38c-.46,1.02-.87,1.27-1.31,2.18-1.12-.73.14-2.62,1.31-2.18h0Z"/>
        <path class="cls-1" d="m5.1,86.94c-.96,1.01-1.24,1.7-1.4,2.98-1.47-.91-.24-3.53,1.4-2.98h0Z"/>
        <path class="cls-1" d="m4.7,90.72c1.06,1.14.08,3.9-1.61,3.52.96-1.05,1.08-2.15,1.61-3.52h0Z"/>
        <path class="cls-1" d="m4.96,89.9c.34.03.46.46.53.7.22.83.41,1.78.04,2.6-.38.96-1.49,2.49-2.69,1.78,0,0,.03-.04.03-.04v.08s-.06-.06-.08-.08c.57-.05.94-.42,1.18-.8.45-.83.88-1.69.93-2.7-.03-.48.33-1.12.06-1.53h0Z"/>
        <path class="cls-1" d="m4.18,90.55c-.96,1.62-.82,2.82-1.12,4.62,0,0-.15-.08-.15-.08.02.03.12-.02.11-.11.08.05.11.21-.02.31-.11.09-.06.06-.15-.08-.95-1.49-.63-4.18,1.33-4.65h0Z"/>
        <path class="cls-1" d="m3.72,89.97c-1.03,1.01-1.27,2.48-1.39,3.84-.01.47.02.98,0,1.51l-.15.03c.09-.27.04-.25.16,0l-.15.03c-.62-.89-.95-2.06-.6-3.13.23-1.02.99-2.29,2.16-2.27h0Z"/>
        <path class="cls-1" d="m3.59,95.94c-.32-.17-.74-.12-1.06-.16-1.01.07-1.24.83-1.81,1.79-.3-.08-.2-.06,0-.22,0,.18-.04.58-.06.76-.36-.99-.4-2.27.63-2.93.6-.44,1.47-.29,1.97.21.15.13.35.32.35.55h0Z"/>
        <path class="cls-1" d="m3.9,95.67c-.77-.32-1.81-.77-2.46-.27-.71.56-.78,1.6-1.11,2.48-1.4-2.91,1.86-5.25,3.56-2.21h0Z"/>
        <path class="cls-1" d="m25.74,51.91c1.53-.04,3.16,2.11,1.85,3.23-.29-1.37-1.17-1.94-1.85-3.23h0Z"/>
        <path class="cls-1" d="m25.75,52.83c1.24-.25,2.32,1.24,1.68,2.34-.87-.88-1.11-1.24-1.68-2.34h0Z"/>
        <path class="cls-1" d="m26.71,53.62c.36,1.84.91,2.86,2.23,4.2-2.01.16-3.49-2.62-2.23-4.2h0Z"/>
        <path class="cls-1" d="m27.7,54.41c1.46.31,2.12,2.34,1.19,3.47-.03.02-.09.06-.15-.01-.01-.05.05-.09.06-.05-.04.03-.11-.22-.16-.36-.32-1.1-.59-1.86-.94-3.04h0Z"/>
        <path class="cls-1" d="m27.48,53.67c1.96.16,2.9,1.83,2.75,3.66,0,.41-.26,1.62-.85,1.34.27-.07.2-.35.2-.57-.24-1.12-.35-2.36-1.06-3.28-.29-.36-.68-.71-1.04-1.14h0Z"/>
        <path class="cls-1" d="m29.44,58.65c-.89.54-2.22.13-2.81-.74-.55-.86-.7-1.84-.8-2.83-.03-.48,0-.97.1-1.45.03-.15.11-.39.3-.4-.19.16.07.64.1.84.16.55.61,2.02.79,2.58.3,1.16,1.09,1.83,2.31,1.99h0Z"/>
        <path class="cls-1" d="m29.56,58.42c2,.37,2.97,3.27,1.59,4.76-.16-1.93-.55-3.12-1.59-4.76h0Z"/>
        <path class="cls-1" d="m30.3,60.81c.81.29,1.06,1.08.77,1.78-.05.16-.14,0-.22.14,0,.03.07.01.05,0,.03-.05.1.03.08.08-.05.11-.19.07-.23.04-.58-.58-.81-1.16-.45-2.03h0Z"/>
        <path class="cls-1" d="m29.28,58.88c.71,1.59,1.17,2.77,1.79,4.38,0,0-.15.05-.15.05.13-.33.16,0,.23.17-1.68-.74-2.59-2.9-1.87-4.6h0Z"/>
        <path class="cls-1" d="m28.46,58.68c.18.2.19.5.24.71.27,1.59.75,2.82,1.46,4.35-1.99-.72-2.6-3.28-1.71-5.06h0Z"/>
        <path class="cls-1" d="m31.16,63.4c.22,1.07.61,1.6,1.02,2.58.09.29.18.57.24.86,0,0,.04-.01.02-.03.1,0,.06.21-.24.08-1.2-.58-2.2-2.4-1.04-3.49h0Z"/>
        <path class="cls-1" d="m30.79,63.21c-.37.45-.25.89-.17,1.39.16.7.14,1.56.25,2.25-.03.4,1.44,1.42,1.33,1.6.03.01.08-.03.07-.09.05.04.06.13,0,.2-.55-.09-1.12-.3-1.64-.6-.54-.28-.84-1.15-.81-1.72.05-.97-.26-2.71.98-3.02h0Z"/>
        <path class="cls-1" d="m31.49,64.4c.69-.24,1.39.29,1.63.93.21.68.02,1.27-.39,1.82-.2-.28-.29-.58-.37-.83-.2-.81-.3-1.1-.88-1.92h0Z"/>
        <path class="cls-1" d="m31.48,63.31c2.46.87,3.23,3.6,1.33,5.5,0,0-.76.83-.76.83v-.98c-.03-.27-.48-.6-.63-.89-.26-.38-.44-.87-.35-1.32.36,1,1.37,1.04,1.82,1.97,0,0-.75-.14-.75-.14,1.37-1.81.71-3.4-.66-4.97h0Z"/>
        <path class="cls-1" d="m32.57,68.69c1.47.63,2.35,2.76,1.26,4.08-.06.08-.23,0-.14-.07-.12-1.25-.8-2.55-1.12-4.01h0Z"/>
        <path class="cls-1" d="m32.92,68.11c2.26.25,2.94,4.38,1.24,5.69-.03-.16-.03-.39.12-.46-.03.09,0,.18.05.23l-.18-.02c.19-1.02.07-1.9-.12-2.84-.24-.95-.35-1.88-1.11-2.6h0Z"/>
        <path class="cls-1" d="m32.56,68.99c.13,1.52.44,2.36,1.24,3.63,0,0-.13.17-.13.17-.11-.23-.08-.25.15-.16,0,0,.89.33.89.33l-1.02-.16c-1.65-.24-2.47-2.75-1.12-3.82h0Z"/>
        <path class="cls-1" d="m31.79,68.56c-.2,1.7.39,3.18,1.56,4.34.1.12.93,1.07.97,1.15-.08-.04-.34,0-.39.16.09-.58-.47-1.81-.68-2.73.67.83,1.49,1.66,1.53,2.8.05.31-.28.72-.66.64-.18-.03-.27-.09-.35-.15-.77-.71-1.39-1.43-1.99-2.28-.68-1.18-.74-2.8,0-3.92h0Z"/>
        <path class="cls-1" d="m33.42,71.67c-.72.23-.74.23-.81-.53.51-.58,1.13-.17.81.53h0Z"/>
        <path class="cls-1" d="m34.56,74.13c1.38.16,2.09,2,1.28,3.08,0,0-.6.78-.6.78l.41-.8c.08-.17.12-.16.2,0,0,0-.2-.02-.2-.02-.45-1.21-.67-1.81-1.08-3.05h0Z"/>
        <path class="cls-1" d="m34.49,73.34c1.91-.21,2.97,2.34,2.24,3.88-.17.29-.41.29-.5.52-.14-.25.09-.54.04-.68-.28-1.42-.56-2.68-1.78-3.72h0Z"/>
        <path class="cls-1" d="m34.07,74.42c.47,1.16.73,1.73,1.33,2.78,0,0-.25.21-.25.21.03-.06.02-.17-.04-.27.24-.08.46.26.59.42,0,0-.48-.07-.48-.07-1.32-.2-2.09-2.07-1.14-3.07h0Z"/>
        <path class="cls-1" d="m33.28,73.76c.6,1.64.68,3.12,2.1,4.38-2.16.16-3.06-2.78-2.1-4.38h0Z"/>
        <path class="cls-1" d="m35.36,76.74c1.06.81,1.59,2.11,1.98,3.34,0,.04.14.28,0,.64-.21.31-.26.27-.34.35-.15.13-.6.5-.75.63-.55-1.54-1.28-3.07-1.4-4.71.04-.29.45-.42.56-.2-.19-.11-.34.12-.28.22.64,1.17,1.32,2.41,1.8,3.68,0,0-.78-.2-.78-.2l.23-.18c.07-.04.2-.18.09-.04-.09.18-.01.21-.06.07-.29-1.2-.55-2.44-1.05-3.6h0Z"/>
        <path class="cls-1" d="m37.87,82.53c.03-.32-.14-.44-.22-.65l-.28-.56c-.17-.38-.32-.73-.53-1.33.65-.07,1.18.38,1.43.91.22.51.31,1.47-.4,1.63h0Z"/>
        <path class="cls-1" d="m36.41,78.55c2.07.15,3.52,3.65,1.87,5.08.11-1.83-.74-3.66-1.87-5.08h0Z"/>
        <path class="cls-1" d="m37.37,82.73c-1.33.38-2.46-1.54-1.48-2.51.63,1.11.81,1.42,1.48,2.51h0Z"/>
        <path class="cls-1" d="m35.62,78.83c-.14.88.22,1.91.38,2.75.26.87.78,1.55,1.49,2.21-1.13.06-2.13-.86-2.45-1.92-.18-1.02-.32-2.31.58-3.03h0Z"/>
        <path class="cls-1" d="m39.32,87.37c.07-2.1-1.51-2.99-2.07-4.79.1.15.45.07.43-.11.48,1.12.95,2.38,1.25,3.58.06.37.35,1.1.25,1.44.04-.11-.09-.2-.14-.31-.45-.7-.88-1.49-1.25-2.24l-.64-1.28c-.15-.39-.45-.74-.46-1.22-.04-.49.6-1.02,1.11-.69.3.17.41.54.46.76.18.69.55,1.18.91,1.85.47.95.53,2.08.15,3h0Z"/>
        <path class="cls-1" d="m39.47,88.42c-1.31-.18-2-1.91-1.16-2.93.66,1.13.86,1.66,1.16,2.93h0Z"/>
        <path class="cls-1" d="m39.58,89.19c-2.12-.44-3.58-3.47-2-5.2-.04,2.06.82,3.5,2,5.2h0Z"/>
        <path class="cls-1" d="m40.55,90.86c-.34-.71-.39-1.47-.37-2.21.01-.34.02-.4-.15-.72-.18-.3-.38-.65-.48-1.05.64.22,1.19.44,1.52,1.08.29,1.01-.02,2-.51,2.9h0Z"/>
        <path class="cls-1" d="m40.58,90.88c-.14.17-.46.09-.61-.11-.27-.39-.29-1.01-.43-1.43-.11-.57-.28-1.17-.19-1.92.91.62,1.39,1.71,1.17,2.78-.05.3-.28.49.06.68h0Z"/>
        <path class="cls-1" d="m41.78,93.01c-.37-1.26-.52-1.66-1.03-2.87,1.42-.13,2.21,2.06,1.03,2.87h0Z"/>
        <path class="cls-1" d="m42.23,93.73c.53-1.66-.39-3.19-1.39-4.47,2.02-.02,3.43,3.48,1.39,4.47h0Z"/>
        <path class="cls-1" d="m41.46,93.8c-1.36.4-2.13-1.41-2.02-2.53.03-.41.25-.9.65-1.06-.05.42.04.7.13,1,.39.89.42,1.94,1.24,2.58h0Z"/>
        <path class="cls-1" d="m41.62,94.59c-2.11.4-3.06-2.32-2.78-4.02.08-.54.41-1.37,1.04-1.4.06.04.04.12,0,.12,0-.15-.09.09-.14.19-.31.87.02,1.8.19,2.68.25,1.05.65,1.94,1.7,2.43h0Z"/>
        <path class="cls-1" d="m43.16,96.5c-.19-1.33-1.06-2.55-1.97-3.42.07.04.25.06.38-.06.21-.25.09-.29.13-.21.08.49.33.87.52,1.39.36.72.07,1.52.09,2.26-.43-.59-.34-1.35-.8-1.92-.34-.58-1.21-1.59-.57-2.28.17-.16.46-.16.58-.11.83.44,1.27,1.32,1.59,2.11.23.71.39,1.55.04,2.25h0Z"/>
        <path class="cls-1" d="m.09,98.14c.03.51.43.87.82,1.13,1.23.79,2.68,1.14,4.09,1.49,9.51,1.92,19.4,1.6,28.98.48,13.39-1.85,13.48-4.68-.02-6.45-9.59-1.05-19.48-1.3-28.98.69-1.4.35-2.85.72-4.07,1.52-.39.27-.79.63-.81,1.14H.09Zm0,0c1.32-5.64,44.4-6.64,45.06-.16-.56,6.43-43.59,5.84-45.06.16H.09Z"/>
        <path class="cls-1" d="m1.43,97.97c.04.48.5.76.88.97,1.22.62,2.59.9,3.93,1.17,10.78,1.68,21.95,1.29,32.68-.54,1.29-.29,2.61-.59,3.77-1.2.35-.18.65-.51.61-.56-.78-1.08-3.07-1.38-4.39-1.73-10.74-1.75-21.92-2.06-32.68-.3-1.34.28-2.7.57-3.92,1.2-.37.22-.83.5-.87.98h0Zm0,0c1.27-4.55,42.4-5.59,42.86-.16-.29,5.38-41.47,4.74-42.86.16h0Z"/>
        <path class="cls-1" d="m.71,99.24c1.14,4.28,5.36,6.61,9.23,8.03,8,2.73,17.06,2.69,25.03-.12,3.86-1.46,8.06-3.84,9.12-8.14-.64,4.48-4.97,7.24-8.84,8.86-8.1,3.15-17.45,3.19-25.58.12-3.88-1.59-8.23-4.29-8.96-8.75h0Z"/>
        <path class="cls-1" d="m41.34,99.14c-11.1-2.18-22.53-2.57-33.73-.91-1.4.19-3.42.54-4.8.78,12.44-3.79,26.11-3.76,38.53.13h0Z"/>
      </g>
      <path class="cls-1" d="m54.28,43.52c.66.75,1.48,1.38,1.9,2.35,1.12,2.92-.4,5.99-.41,8.97-.31,3.96-.2,7.95-.09,11.95.07,5.79.12,12.19.05,18.01-.05,2-.06,4-.14,6.01-.15-2-.23-4-.35-6-.27-5.83-.43-12.21-.56-18-.02-3.99-.15-8.03.33-12.04.14-2.94,1.75-5.89.93-8.8-.32-.92-1.08-1.64-1.66-2.45h0Z"/>
      <path class="cls-1" d="m64.89,43.35c-1.43,1.51-1.29,3.69-1.18,5.62,0,0,.28,5.98.28,5.98.4,9.9.59,20.02.55,29.94-.04,2-.04,3.99-.11,5.99-.16-1.99-.25-3.99-.38-5.98-.5-9.92-.77-20.02-.82-29.93,0,0,0-5.99,0-5.99.04-1.93.06-4.28,1.67-5.63h0Z"/>
      <path class="cls-1" d="m55.39,90.48c-.71.39-1.51,1.14-1.25,1.98.1.35.41.55.81.73.63.24,1.68.78,1.59,1.73-.07.91-1.13,1.26-1.66,1.65-2.14,1.26-3.39,4.23-1.49,6.24,1.12,1.29,2.9,1.92,4.61,2.53-.91-.11-1.81-.29-2.71-.56-5.54-1.89-4.62-7.52.2-9.65.24-.22.28-.36.11-.65-.48-.67-1.81-.83-1.95-1.91-.13-1.09.82-1.83,1.73-2.08h0Z"/>
      <path class="cls-1" d="m64.55,90.97c1.05.45,1.99,1.96.64,2.7-.25.14-.49.24-.63.38-.44.49-.03,1.2.49,1.53,2.19.99,3.52,3.19,2.96,5.63-1.04,4.21-5.95,5.49-9.63,4.36-.53-.12-1.01-.36-1.55-.35.53-.12,1.08.04,1.6.09,3.33.53,7.76-.71,8.6-4.31.32-1.37-.09-2.96-1.17-3.89-.35-.3-.83-.55-1.29-.93-.73-.52-1.24-1.88-.38-2.56.27-.21.55-.29.77-.38,1.16-.46.29-1.75-.42-2.27h0Z"/>
      <path class="cls-1" d="m54.59,91.61c.77.62,1.63.82,2.58.83,2.7.08,5.59.09,8.01-1.26.04-.03-.06-.07-.06,0-.05-.08.15-.11.14.02,0,.09-.07.15-.1.19-2.03,2.16-5.33,2.34-8.07,1.83-.99-.15-2.03-.67-2.49-1.6h0Z"/>
      <path class="cls-1" d="m55.85,94.36c2.87-.29,5.41-.52,8.29-.73-2.42,1.55-5.64,1.83-8.29.73h0Z"/>
      <path class="cls-1" d="m54.99,96.39c1.64.46,3.19.27,4.85.19,1.67-.1,3.28-.21,4.85-.89.06.19-.07.38-.23.35.11-.03.14-.18.09-.22l.12.04c-2.09,2.06-7.41,2.43-9.68.52h0Z"/>
      <path class="cls-1" d="m58.36,46.13c.61,14.37-.06,28.74-.23,43.1-.03.17.07.9-.09,1.04-.13.16-.26-.17-.1-.14-.14-.01,0,.25.07.11.12-.16-.04-.81-.04-1.01-.29-3.16-.42-6.57-.45-9.74-.07-11.13.14-22.26.84-33.37h0Z"/>
      <path class="cls-1" d="m61.26,46.23c.61,14.37-.06,28.74-.23,43.1-.03.17.07.9-.09,1.04-.13.16-.26-.17-.1-.14-.14-.01,0,.25.07.11.12-.16-.04-.81-.04-1.01-.29-3.16-.42-6.57-.45-9.74-.07-11.13.14-22.26.84-33.37h0Z"/>
      <path class="cls-1" d="m57.23,105.67c.51.33.71,1.05.52,1.68-.1.62-.87.97-1.23,1.31-.3.33.02.67.32.87.89.51,2.15.34,3.18.4,1.37.07,3.57.1,3.74-1.63,0,0,.53.28.53.28-1.33.54-2.13-.99-1.77-2.08.08-.27.12-.78.49-.78-.33.09-.22.54-.26.8-.08.69.42,1.79,1.2,1.43,0,0,.45-.32.45-.32l.08.6c.17,1.51-1.35,2.53-2.64,2.63-1.26.14-2.38.03-3.59-.02-.92-.08-2.21-.44-2.52-1.52-.14-.4.05-.93.36-1.16.51-.41,1.03-.39,1.33-.96.24-.45.22-1.08-.16-1.54h0Z"/>
      <path class="cls-1" d="m56.04,109.69c-.72-.08-1.16.72-.98,1.23.99,2.77,9.06,2.41,9.91-.39.18-.51-.36-1.29-1.06-1.09.64-.45,1.61.29,1.54,1.14-.71,3.61-6.98,3.89-9.57,2.27-.62-.39-1.23-1.02-1.31-1.85-.08-.77.72-1.64,1.47-1.3h0Z"/>
      <path class="cls-1" d="m49.25,120.32c-.14-.67-.22-1.33-.29-2l.27-.06c2.37-.55,4.45-1.8,6.03-3.61.51-.61,1.06-1.23,1.05-2.09.2.39.18.87.06,1.3-.96,2.92-4.06,4.95-7.08,4.96,0,0,.25-.28.25-.28-.07.59-.16,1.19-.29,1.78h0Z"/>
      <path class="cls-1" d="m49.23,120.22c3.46-1.51,6.11-4.06,7.76-7.39.07-.12.15.05.08.12.04-.05-.08-.13,0-.1-.35,3.87-3.96,7.28-7.83,7.37h0Z"/>
      <path class="cls-1" d="m50.1,119.98c.36.65,1.04.82,1.66.51,1.73-.99,3.61-2.16,4.82-3.8.07-.15-.06-.01,0-.02-.06.03-.08-.11.02-.12.09.01.12.11.12.17-.04.32-.14.58-.25.87-.5,1.78-5.83,5.77-6.38,2.4h0Z"/>
      <path class="cls-1" d="m52.7,120.97c.41.04.65.47.89.65.25.21.27.07.65-.06,1.96-.91,2.54-2.81,3.39-4.81.39,2.33-.87,5.23-3.43,5.6-.38.1-.87-.11-1-.43-.2-.37-.21-.71-.5-.95h0Z"/>
      <path class="cls-1" d="m59.75,117.17c.67,1.51,1.01,3.11.97,4.71-.11.36-.4.49-.64.65-1.77,1.11-1.92.93-.5-.6,0,0,.28-.29.28-.29.02-.03,0-.03-.02.01-.3-1.45-.38-2.97-.09-4.48h0Z"/>
      <path class="cls-1" d="m55.91,121.61c1.22.16,1.9.56,2.62,1.55-1.18.33-2.34-.36-2.62-1.55h0Z"/>
      <path class="cls-1" d="m60.36,121.96c.83.11,1.62.32,2.4.55l-.51.23c.09-.48.6-1.11.89-1.32-.02.03-.02.11-.01.13-1.21-1.29-2.18-3.09-2.31-4.91.84,1.34,1.62,2.55,2.59,3.71.25.34.42.39.65.87.14.29-.06.77-.29.92-.5.31-.74.73-.98,1.24-.83-.42-1.65-.86-2.42-1.43h0Z"/>
      <path class="cls-1" d="m63.68,121.31c.34-.03.68.13.97.19.78.17,1.72-.31,1.98-1.01,0,0,.13.56.13.56-1.56-1.34-3.78-2.72-3.94-4.99,1.17,1.97,3.26,2.92,4.84,4.52-.48,1.26-1.98,1.94-3.15,1.28-.32-.18-.52-.42-.83-.56h0Z"/>
      <path class="cls-1" d="m62.91,113.32c1.95,2.92,4.78,5.07,8.17,5.9,0,0-.08.39-.08.39-.22.99-1.12,2.43-2.29,1.86-.53-.19-1.1-.4-1.61-.62.38.03.77.06,1.15.1.35.03.83.14,1.04.09.42-.2.79-1.07.85-1.58,0,0,.33.5.33.5-3.45-.61-6.62-3.25-7.57-6.63h0Z"/>
      <path class="cls-1" d="m63.82,112.66c1.08,1.23,1.83,2.82,3.3,3.57,1.54.76,3.28,1.45,4.79,2.34-.24.8-.81,1.51-1.53,1.83.47-.53.76-1.15.86-1.77l.17.36c-1.66-.55-3.22-1.06-4.79-1.92-1.63-.94-2.27-2.75-2.82-4.41h0Z"/>
      <path class="cls-1" d="m49.02,119.11c-.47.33-1.35.74-1.76,1.1-.23.22-.15.48.07.75,1.02,1.39,2.7,1.98,4.37,2.33,2.73.48,5.51,1.08,8.23.97,2.73-.1,5.46-.78,8.1-1.66l3.98-1.34c.65-.17,1.31-.39,1.04-1.17-.2-.62-.96-.89-1.62-1.08.66.1,1.5.23,1.86.98.16.34.2.82-.11,1.17-.33.33-.66.4-.98.55-3.83,1.61-8,3.43-12.24,3.54-2.92.08-5.7-.56-8.45-1.23-1.37-.39-2.79-.92-3.84-1.99-1.84-1.97-.39-2.17,1.35-2.93h0Z"/>
      <path class="cls-1" d="m42.14,123.17c-.2-.05-.34.15-.29.21l-.23-.21c1.62-1.18,3.31-2.11,5.17-2.82.07-.02.2-.06.29.04.11.18-.17.22-.12.11.1-.02,0-.02-.04.07-1.39,1.62-3.41,2.68-5.53,2.97,0,0,.13-.26.13-.26.15-.3.51-.29.63-.12h0Z"/>
      <path class="cls-1" d="m41.8,123.44c2.55.96,6.51,1.3,9.21,1.74,3.13.5,6.07,1,9.25.61,3.13-.17,6.27-.33,9.4-.43,3.09-.11,6.25-.56,8.85-2.41-2.35,2.2-5.68,2.92-8.8,3.18-3.14.28-6.26.47-9.39.66-3.11.36-6.38-.17-9.44-.86-3.04-.67-6.25-1.05-9.08-2.49h0Z"/>
      <path class="cls-1" d="m73.58,120.44c.48-.16.9.4,1.26.56,1.24.53,2.56,1.16,3.48,2.27,0,0-.1-.02-.1-.02-.15-.02-.13,0-.02-.09,0,0,0,.09,0,.09-1.47-.21-2.71-.68-3.82-1.65-.44-.42-.37-.9-.77-1.16h0Z"/>
      <path class="cls-1" d="m41.86,123.25c-1.24.4-2.44.9-3.6,1.48-.55.31-1.24.56-1.43,1.06-.32,1.34,1.3,1.81,2.36,2.06,6.96,1.51,14.2,1.14,21.29,1.64,5.16.47,10.31-.36,15.46-.98,2.45-.43,5.18-.76,7.23-2.22,2.16-2.53-3.08-3.31-4.74-3.49,1.87.17,4.29.08,5.49,1.81.9,2.36-2.4,3.17-4.02,3.75-6.32,1.63-12.93,2.39-19.46,2.12-7.14-.57-14.43-.25-21.4-2.09-1.22-.28-3.13-1.11-2.56-2.74.16-.36.48-.58.77-.74,1.47-.73,3.02-1.28,4.6-1.66h0Z"/>
    </g>
  </g>
</svg>