<?xml version="1.0" encoding="UTF-8"?>
<svg id="Layer_2" data-name="Layer 2" xmlns="http://www.w3.org/2000/svg" viewBox="0 0 48.23 64.8">
  <defs>
    <style>
      .cls-1 {
        fill: #a37d2d;
        stroke-width: 0px;
      }
    </style>
  </defs>
  <g id="Layer_1-2" data-name="Layer 1">
    <g>
      <rect class="cls-1" x="11.02" y="-.36" width="3" height="65.53" transform="translate(-6.24 3.17) rotate(-11.57)"/>
      <rect class="cls-1" x=".15" y="7.46" width="14.51" height="3" transform="translate(-1.65 1.67) rotate(-11.57)"/>
      <path class="cls-1" d="m40.01,61.37c-2.38.49-6.12.76-7.4-2.46-1.46-3.64,1.36-6.29,3.23-8.04.3-.28.6-.56.87-.83,1.75-1.77,3.28-3.72,4.54-5.8,2.58-4.26,3.96-8.97,3.99-13.63.04-6.28-2.62-14.43-10.21-16.98l-25.27,5.17-.6-2.94,26.03-5.33.37.11c9.44,2.9,12.74,12.58,12.69,19.99-.03,5.19-1.56,10.44-4.42,15.16-1.38,2.28-3.05,4.42-4.97,6.36-.29.29-.61.6-.95.91-1.93,1.81-3.14,3.11-2.49,4.73.42,1.06,2.17,1.16,5.34.31l.77,2.9c-.37.1-.89.24-1.5.36Z"/>
    </g>
  </g>
</svg>