<?xml version="1.0" encoding="UTF-8"?>
<svg id="Layer_2" data-name="Layer 2" xmlns="http://www.w3.org/2000/svg" viewBox="0 0 105.74 143.4">
  <defs>
    <style>
      .cls-1 {
        fill: #a37d2d;
        stroke-width: 0px;
      }
    </style>
  </defs>
  <g id="Layer_1-2" data-name="Layer 1">
    <g>
      <g>
        <path class="cls-1" d="m97.41,107.4c2.2-.79,3.69,1.89,4.33,3.6,2.83,6.99.9,11.55-2.74,17.63-2.05,3.52-4.22,7.08-7.11,10.05-2.69,2.59-6.96,6.36-10.81,3.95,3.92,1.95,7.71-1.85,10.25-4.48,2.7-2.99,4.82-6.46,6.81-10.01,3.56-5.72,5.53-10.26,3.14-16.97-.51-1.72-1.69-4.29-3.87-3.76h0Z"/>
        <path class="cls-1" d="m91.23,123.1c1.66,7.69-2.25,17.09-10.12,19.61,7.09-3.9,10.22-11.79,10.12-19.61h0Z"/>
        <path class="cls-1" d="m86.31,140.43c1.73-1.13,3.08-2.69,4.33-4.3,1.28-1.58,2.56-3.24,2.86-5.19.47-2.86-.65-6.03-3.04-7.74-1.64-1.1-4.01-1.79-5-3.76-2.31-3.88-.22-9.1,3.53-11.2,2.49-1.27,5.18.45,7.68-.5.46-.17,1.01-.45,1.5-.2-.51-.2-.99.12-1.44.34-1.43.7-3.11.43-4.61.4-4.09-.44-6.94,4.35-6.71,7.96.16,1.92,1.2,3.74,2.9,4.63.84.5,1.83.88,2.71,1.56,2.61,1.95,3.91,5.48,3.22,8.66-.44,2.17-1.89,3.84-3.23,5.35-1.38,1.51-2.86,3.05-4.7,3.99h0Z"/>
        <path class="cls-1" d="m91.25,124.38c-1.48,1.15-3.02,2.2-4.52,3.27-1.97,1.58-3.42,3.72-4.26,6.1-.47,1.37-.75,2.81-.82,4.32-.68-2.99.2-6.27,2.04-8.71,1.85-2.53,4.8-3.75,7.55-4.98h0Z"/>
        <path class="cls-1" d="m81.46,137.99c-3.72-5.01-2.15-12.99,2.84-16.59.75-.47,1.56-.84,2.41-1.02-6.01,3.22-7.88,11.6-5.25,17.61h0Z"/>
        <path class="cls-1" d="m97.6,107.46c2.53-2.34-.35-5.46-1.99-7.42-1.91-2.21-4.02-4.24-6.33-6.01l.8-.37c-.1,1.74-1.14,3.35-2.66,4.16l.25-.47c.22,2.21.81,4.41,1.92,6.34,1.13,1.91,2.77,3.58,4.86,4.53-4.69-1.43-7.34-6.43-7.76-11.09,1.36-.63,2.34-2.04,2.41-3.53,0,0,.05-.96.05-.96l.75.59c2.76,2.15,12.47,10.99,7.72,14.22h0Z"/>
        <path class="cls-1" d="m89.52,93.26c-3.31-2.23-3.99-3.72-7.99-1.26-2.79,1.44-5.54,2.96-8.41,4.35,3.09-2.55,6.46-4.69,10.15-6.26,2.66-1.11,4.67,1.43,6.24,3.17h0Z"/>
        <path class="cls-1" d="m87.23,97.65c-1.21-.14-2.39-.37-3.51-.27-3.44.62-6.56,2.7-10.06,3.39,2.04-1.31,4.21-2.35,6.41-3.31,2.23-1.16,4.99-1.08,7.17.19h0Z"/>
        <path class="cls-1" d="m72.4,101.42c1.32-.36.75-1.8.65-2.8-.1-.56-.11-1.19-.31-1.5-2.03-1.95-5.14-1.21-7.71-1.5,0,0,.02-.07.02-.07l.16.19-.21-.12-.08-.05.11-.03c2.27-.46,4.79-1.24,6.97-.07.58.27,1.27.55,1.58,1.22.31.73.21,1.3.25,1.87.06.98.08,3.05-1.42,2.86h0Z"/>
        <path class="cls-1" d="m73.05,101.03c-1.41.74-3.07.18-4.53-.07-1.45-.36-3.04-.73-4.18-1.79,1.49.34,2.91.48,4.4.81,1.48.28,2.78.98,4.3,1.05h0Z"/>
        <path class="cls-1" d="m63.52,99.09c1.31-.24.55-1.53.59-2.52.14-1.19.17-1.16-.47-1.9-.17-.22-.33-.45-.49-.69l.19-.19c.22.4.17.43-.2.18,0,0,.19-.19.19-.19.25.13.5.27.73.42.53.27,1.19.9,1.1,1.58-.14.97.06,1.42-.12,2.51-.14.63-.97,1.28-1.52.81h0Z"/>
        <path class="cls-1" d="m57.45,98.73c.04-.1-.12-.12-.12-.1-.15.82-.33,1.66-.18,2.43.09.76.7,1.33,1.07,2.18.76,1.61.87,3.51.32,5.23l-.83-.5c2.41-2.54,3.22-6.44,2.23-9.8.46.79.73,1.69.91,2.61.45,2.81-.43,5.8-2.42,7.88l-1.52,1.59c.79-2.11,1.51-4.5.6-6.71-.27-.78-.86-1.54-.86-2.43,0-.92.3-1.73.63-2.5.09-.1.23.04.17.11h0Z"/>
      </g>
      <g>
        <path class="cls-1" d="m7.73,104.93c-2.15-.65-3.47,1.86-4.07,3.54-2.75,6.54-1.04,11.24,2.2,17.12,1.78,3.65,3.71,7.24,6.24,10.37,2.4,2.76,5.97,6.77,9.99,5.03-3.98,2.2-8.03-1.81-10.58-4.54-2.73-3.12-4.69-6.79-6.55-10.42C1.68,119.78,0,115.1,3.21,108.29c.73-1.68,2.37-4.26,4.52-3.36h0Z"/>
        <path class="cls-1" d="m13.03,120.94c-.53,7.8,2.16,15.85,9.02,20.14-7.72-2.95-11.1-12.55-9.02-20.14h0Z"/>
        <path class="cls-1" d="m16.99,138.52c-1.79-1.04-3.18-2.65-4.48-4.24-1.26-1.59-2.61-3.34-2.93-5.52-.51-3.21.98-6.67,3.7-8.47.92-.63,1.93-.96,2.8-1.41,1.75-.79,2.89-2.56,3.15-4.46.41-3.62-2.14-8.51-6.26-8.32-1.5-.05-3.19.12-4.58-.65-.44-.24-.9-.58-1.42-.41.5-.22,1.04.09,1.48.28,2.44,1.08,5.23-.48,7.64.92,3.63,2.3,5.43,7.63,2.9,11.37-1.1,1.92-3.5,2.47-5.2,3.48-2.48,1.57-3.77,4.68-3.46,7.56.19,1.96,1.38,3.68,2.57,5.34,1.16,1.68,2.43,3.31,4.09,4.53h0Z"/>
        <path class="cls-1" d="m12.94,122.21c2.68,1.38,5.56,2.76,7.26,5.39,1.71,2.54,2.41,5.86,1.56,8.81.02-1.51-.18-2.97-.58-4.36-.71-2.43-2.04-4.64-3.91-6.33-1.44-1.15-2.92-2.29-4.33-3.51h0Z"/>
        <path class="cls-1" d="m21.97,136.35c2.96-5.85,1.55-14.33-4.27-17.87.84.22,1.62.64,2.35,1.15,4.79,3.87,5.91,11.92,1.92,16.72h0Z"/>
        <path class="cls-1" d="m7.54,104.97c-4.56-3.49,5.61-11.77,8.49-13.78,0,0,.79-.55.79-.55v.96c-.02,1.49.88,2.95,2.2,3.65,0,0-.06.31-.06.31-.73,4.51-3.66,9.19-8.3,10.33,2.14-.84,3.87-2.41,5.1-4.26,1.21-1.87,1.92-4.03,2.26-6.23l.22.49c-1.48-.9-2.43-2.56-2.43-4.3l.78.41c-2.41,1.64-4.62,3.56-6.66,5.66-1.75,1.86-4.8,4.83-2.4,7.3h0Z"/>
        <path class="cls-1" d="m16.39,91.24c3.02-3.1,4.58-4.33,8.56-1.68,2.72,1.63,5.33,3.48,7.64,5.67-2.78-1.55-5.44-3.21-8.15-4.81-1.35-.79-2.66-1.75-4.03-1.43-1.42.38-2.7,1.55-4.02,2.25h0Z"/>
        <path class="cls-1" d="m18.43,95.75c2.24-1.15,5-1.08,7.16.2,2.14,1.08,4.25,2.23,6.21,3.66-3.46-.88-6.46-3.13-9.86-3.94-1.11-.16-2.31,0-3.52.08h0Z"/>
        <path class="cls-1" d="m33.04,100.33c-1.5.1-1.37-1.96-1.26-2.94.06-.56,0-1.14.35-1.85.35-.65,1.06-.89,1.65-1.13,2.24-1.05,4.71-.13,6.95.45,0,0,.11.03.11.03-.05.02-.25.13-.31.15,0,0,.17-.18.17-.18l.02.08c-2.57.15-5.65-.77-7.78,1.07-.21.3-.26.93-.39,1.48-.16.99-.8,2.4.49,2.83h0Z"/>
        <path class="cls-1" d="m32.4,99.9c1.52.02,2.87-.61,4.36-.81,1.5-.25,2.92-.31,4.44-.57-1.19.99-2.8,1.27-4.27,1.55-1.47.17-3.16.64-4.52-.18h0Z"/>
        <path class="cls-1" d="m42.03,98.49c-.58.44-1.37-.25-1.48-.89-.13-1.09.1-1.53.01-2.51-.01-1.05,1.15-1.51,1.94-1.89,0,0,.18.2.18.2-.38.24-.42.19-.19-.19,0,0,.18.2.18.2-.16.23-.34.45-.52.66-.68.71-.66.68-.58,1.87-.02,1-.85,2.24.45,2.55h0Z"/>
        <path class="cls-1" d="m41.61,98.52c1.24-.47,1.87-.78,2.94-1.51,0,0,.2.21.2.21-.31.02-.34-.06-.13-.28,0,0,.24-.29.24-.29l-.04.5c-.11,1.43-2.11,2.35-3.21,1.36h0Z"/>
      </g>
      <path class="cls-1" d="m56.93,101.85c.03,1.22-1.17,2.13-1.13,3.34-1.6-.99-2.9-2.49-3.51-4.31,0,0,.95-.06.95-.06-.19.96-.86,1.65-1.43,2.35-.7.81-1.41,1.64-2.14,2.42,0,0-.18-.61-.18-.61-.38-1.27-.71-2.56-.99-3.87.62,1.19,1.18,2.39,1.69,3.61l-.64-.1c.8-1.29,2.28-2.63,2.72-4,0,0,.38-1.74.38-1.74.6,2.01,1.42,4.1,3.09,5.5,0,0-.51.18-.51.18.38-1.2,1.45-1.66,1.7-2.72h0Z"/>
      <path class="cls-1" d="m48.6,98.49c.61,1.59.23,3.41-.39,4.94-.54,1.33-1.38,2.96-.48,4.2,0,0,2.62,3.26,2.62,3.26l-3.31-2.58c-3.27-2.44-4.04-7.57-1.48-10.73,0,0,.12-.16.12-.16l-.05.19-.09.37v-.38c-.58,1.74-1.1,3.5-.64,5.43.36,1.77,1.36,3.39,2.74,4.51l-.69.69c-1.21-1.65-.22-3.63.58-5.1.71-1.42,1.3-2.98,1.06-4.64h0Z"/>
      <path class="cls-1" d="m63.65,99.17c-.93,1.44-3.25-.41-2.89-1.8.61.43,1,.77,1.45,1.09.49.34.78.69,1.45.71h0Z"/>
      <path class="cls-1" d="m66.69,77.42c2.1,3.53-.55,7.46-2.01,10.68-.86,1.73-.92,3.56-1.35,5.43-.49,1.93-1.84,3.55-3.48,4.61-4.62,2.88-12.76,2.01-16.08-2.55-1.7-2.55-1.26-5.53-2.47-8.11-.41-.93-1.18-1.39-1.56-2.42-.24-1.22-.06-1.62-.59-2.72-1.2-2.87.33-6.1,2.24-8.21.59-.81,1.78-1.41,2.81-1.24,2.85.3,5.45,1.56,8.26,1.87,1.83.04,3.76-.03,5.57-.31,1.46-.1,2.61-1.06,4.04-1.25.53,0,.99.24,1.39.48,1.53.94,3.46,2.2,3.46,4.2-.11-1.99-2.04-3.09-3.59-3.97-.4-.22-.83-.41-1.26-.39-1.34.26-2.55,1.25-3.96,1.41-1.9.34-3.76.45-5.69.45-1.94-.04-3.69-.9-5.58-1.18-1.28-.2-2.67-.79-3.89-.32-1.73,1.23-2.98,3.51-3.29,5.55-.26,1.45.46,2.58.82,3.97.1.57.03,1.04.15,1.33.11.32.38.65.69,1.02.98,1.12,1.46,2.68,1.72,4.08.35,1.87.53,3.74,1.51,5.2,3.08,4.2,10.55,4.92,14.88,2.43,1.54-.94,2.8-2.38,3.28-4.12.44-1.78.6-3.8,1.51-5.47,1.6-3.21,4.32-6.82,2.45-10.47h0Z"/>
      <path class="cls-1" d="m67.55,77.65c1.95-3.24,1.08-8.78-2.78-9.98-4.06-1.05-7.88.64-12.05.35-2.12-.32-3.97-1.26-5.89-1.45-1.92-.21-3.9.29-5.53,1.31-3.44,2.06-4.34,7.24-1.61,10.3-5.2-5.48.25-13.31,7.23-12.52,2.14.2,4.03,1.12,5.94,1.37,2.83.32,6.04-.76,9.03-.54,6.3-.47,8.9,6.42,5.67,11.16h0Z"/>
      <path class="cls-1" d="m67.66,69.48c2.32-3.05,1.41-8.16-1.75-10.19-1.72-.72-3.75-.1-5.54.34-1.92.54-3.98.85-6.01.76-3.92-.13-7.73-2.25-11.57-1.04-4.21,1.12-4.17,6.4-2.74,9.71-3.68-7.31.78-12.38,8.57-10.61,3.87.92,7.66,1.43,11.53.3,1.97-.44,4.12-1.1,6.1-.14,3.41,2.28,4.19,7.87,1.4,10.87h0Z"/>
      <path class="cls-1" d="m67.7,60.7c1.53-3.2.47-7.65-2.8-9.21-2.18-1.19-4.27.52-6.57.37-2.26-.21-3.95-2.54-6.22-1.21-.78.36-1.73.88-2.8.84-1.9-.06-3.48-1.05-5.33-.59-3.87.81-3.82,5.83-3.02,8.92-1.9-4.69-.52-10.95,5.74-9.7,1.86.49,3.27.7,4.99-.35.86-.45,2.04-.7,3-.36.98.3,1.76.83,2.55,1.17,1.7.85,3.3-.13,5.11-.34,5.27-.47,7.99,6.49,5.34,10.47h0Z"/>
      <path class="cls-1" d="m65.26,51.51c.57-1.4.22-2.92-.34-4.23-.56-1.33-1.28-2.67-2.4-3.45-2.55-1.67-5.56.13-8.44.03-2.89-.05-5.78-1.95-8.43-.44-1.99,1.45-2.8,4.27-2.73,6.67.03.32.15.8.57.77-.42.11-.65-.41-.72-.75-.37-2.61.32-5.61,2.45-7.33,2.69-1.89,6.08,0,8.88.08,2.81.06,6.31-1.69,8.87.35,2.07,1.84,3.65,5.76,2.28,8.29h0Z"/>
      <path class="cls-1" d="m61.81,42.52c.47-2.14.4-4.7-1.37-6.19-1.66-1.23-3.7-2.74-5.84-2.87-4.72-.31-7.99,4.39-7.7,8.87-1.16-4.79,2.56-10.24,7.75-9.87,2.5.2,4.48,1.71,6.32,3.31,1.81,1.76,1.76,4.59.84,6.74h0Z"/>
      <path class="cls-1" d="m59.44,34.96c-.88-2.27-.15-4.84-.36-7.16-.08-2.27-1.6-4.35-3.91-4.53-2.21-.24-4.33,1.41-4.76,3.6-.38,2.28-.07,4.79-.24,7.14-.24-3.49-1.85-7.99,1.37-10.61,2.08-1.73,5.47-1.44,7.14.73,2.51,3.24.05,7.31.75,10.84h0Z"/>
      <path class="cls-1" d="m57.95,23.73c-.05.07.02.15.08.18.23.04.34-.27.49-.42,0,0,.6-.73.6-.73,1.16-1.4,2.12-3.15,2.26-4.96.2-2.27-1.31-4.83-3.77-4.78-3.92,0-5.66,4.42-5.71,7.82-.13,1.24.12,2.62-.5,3.76.4-1.22.03-2.48,0-3.77-.32-3.85,1.71-8.84,6.21-8.82,2.98-.07,4.99,3.12,4.51,5.86-.33,2.35-1.81,4.21-3.51,5.72-.17.13-.36.45-.62.35-.07-.04-.13-.15-.06-.21h0Z"/>
      <path class="cls-1" d="m68,2.92c1.29.63,1.7,2.29,1.65,3.63-.11,2.85-2.14,5.33-4.55,6.63-1.19.68-2.48,1.12-3.79,1.42,1.17-.67,2.31-1.33,3.37-2.08,2.87-1.91,5.92-6.42,3.32-9.6h0Z"/>
      <path class="cls-1" d="m67.87,2.84c-4.98,1.13-10.02,4.23-11.11,9.49-.45-5.67,5.92-9.92,11.11-9.49h0Z"/>
      <path class="cls-1" d="m80.03,2.45c1.71,5.63-7.19,6.66-10.68,4.62,2.31.31,4.55.25,6.69-.33,2.23-.46,4.14-1.79,3.99-4.28h0Z"/>
      <path class="cls-1" d="m80.08,2.41c-1.64-1.56-4.11-1.53-6.21-1.38-2.19.14-4.31,1.24-6.2,2.24,0,0,.2-.13.2-.13l-.15.19c1.85-2.86,6.29-3.97,9.58-2.98,1.11.31,2.32.95,2.79,2.06h0Z"/>
      <path class="cls-1" d="m92.92,10.83c-.04-.67-.12-1.41-.49-1.6-.34-.2-.97-.14-1.41.1-.97.47-1.49,1.62-1.54,2.95l-.04-.05s.13.04.16-.05c.03.09-.07.23-.23.19-.75-1.3-.23-3.28,1.22-3.93,1.77-.85,3.5.52,2.34,2.39h0Z"/>
      <path class="cls-1" d="m91.46,8.65c-1.22-3.24-4.67-4.93-7.84-5.7-1.1-.24-2.24-.34-3.43-.35,4.26-1.56,10.94,1.06,11.27,6.05h0Z"/>
      <path class="cls-1" d="m89.3,11.47c-3.93.36-8.13-1.95-9.93-5.47,2.96,2.61,6.13,4.36,9.93,5.47h0Z"/>
      <path class="cls-1" d="m92.26,11.03c3.98.52,7.02,4.64,6.36,8.65-.47,4.01-4.26,6.67-5.76,10.03-.48,1.11-.61,2.35-.19,3.43.41,1.08,1.29,2,2.36,2.4l-.31.94c-1.32-.36-2.69-.78-3.95-1.54-1.27-.76-2.21-1.95-2.93-3.15-1.42-2.39-2.58-5.01-2.94-7.82-.91-6.02,2.43-11.05,7.89-13.35-5.07,2.62-8.19,7.48-7.11,13.24.76,3.67,2.4,8.06,5.59,10.26,1.11.67,2.41,1.02,3.72,1.41l-.31.94c-2.79-1.04-3.94-4.55-2.64-7.11,1.66-3.68,5.28-5.8,5.98-9.77.7-3.82-1.91-7.71-5.75-8.56h0Z"/>
      <g>
        <path class="cls-1" d="m74.78,84.79c.79,2.88-2.11,3.86-4.37,3.67-2.1-.04-4.16-.03-6.3.03,1.99-.84,4.19-1.04,6.31-1.03,2.17.15,4.18-.18,4.36-2.67h0Z"/>
        <path class="cls-1" d="m74.8,85.01c-.88-1.86-4.74-.41-6.33-.15-.76.2-1.65.23-2.44.02.8-.21,1.5-.43,2.23-.77,1.6-.81,6.4-1.84,6.53.91h0Z"/>
        <path class="cls-1" d="m85.67,80.69c-.02-.7.11-1.46.05-2.1-.48-2.07-3.75.14-4.94.61-2.48,1.26-4.75,2.88-6.94,4.72.81-1.19,1.78-2.27,2.88-3.2,2.26-2.15,11.64-7.25,8.96-.04h0Z"/>
        <path class="cls-1" d="m85.48,80.68c-.05-.07.1-.14.16-.04.07.22-.31.36-.42.47-3.16,2.22-6.4,5.49-10.57,5.2,3.9-1.06,6.69-4.08,10.44-5.45.06-.03.47-.11.48-.2.03-.02-.12-.06-.09.01h0Z"/>
        <path class="cls-1" d="m95.6,83.77c.57-.48,1.18-1.03,1.46-1.69,0-.07-.02-.11-.08-.19-1.65-1.2-3.9-1.98-5.79-2.84-1.67-.74-3.46-1.61-5.3-.81.98-.9,2.53-1,3.8-.67,2.8.9,5.74,1.85,7.84,3.96.58,1.05-1.17,1.91-1.93,2.23h0Z"/>
        <path class="cls-1" d="m95.46,83.86c.07.56-1,.2-1.26.06-1.15-.64-2.28-1.2-3.55-1.48-1.56-.38-4.07-.31-4.78-2.17,1.44,1.31,3.23.74,5.01,1.2,1.36.31,2.62,1.08,3.58,2.04.19.16.88.75.99.35h0Z"/>
        <path class="cls-1" d="m102.04,88.89c-1.33-2.56-2.45-4.93-4.48-7.08,2.87.97,4.54,4.16,4.48,7.08h0Z"/>
        <path class="cls-1" d="m101.95,88.95c-.63.47-.87,1.07-1.01,1.74-1.2-.91-2.37-1.91-3.05-3.39-.29-.64-.43-1.23-.76-1.7-.32-.5-.81-.94-1.27-1.44.64.21,1.26.49,1.79.99.54.52.82,1.2,1.1,1.73.56,1.07,1.42,2,2.22,3.04l-.52.1c.32-.59.89-1,1.49-1.08h0Z"/>
        <path class="cls-1" d="m105.74,92.67c-1.1-.02-2.11-.76-2.67-1.73-.56-.86-.31-2-1.53-2.07.4-.51,1.28-.22,1.62.24.41.48.54.97.77,1.33.44.79,1.03,1.47,1.8,2.22h0Z"/>
        <path class="cls-1" d="m105.51,92.71c-1.6.21-3.68.21-4.6-1.38-.29-.53-.32-1.28.08-1.7.24,2.3,3.02,1.98,4.52,3.08h0Z"/>
        <path class="cls-1" d="m74.98,77.2c1.26-.79,1.23-2.54-.05-3.04-.36-.14-.69-.16-1.09,0-1.79.7-3.64,1.4-5.36,2.34,1.29-1.62,3.15-2.52,5.05-3.29.53-.19,1.27-.19,1.8.1,1.84.85,1.55,3.6-.35,3.89h0Z"/>
        <path class="cls-1" d="m75,77.22c-2.51,1.25-4.81,2.22-7.46,3.13,1.86-2.08,4.67-3.25,7.46-3.13h0Z"/>
        <path class="cls-1" d="m84.88,67.31c.62-1.23.29-3.26-.97-3.77-.59-.12-1.08.66-1.51,1.03-2.74,2.79-4.55,6.43-7.54,9.03,2.66-3.63,4.44-8.45,8.48-10.84,2.3-.26,2.81,3.22,1.54,4.57h0Z"/>
        <path class="cls-1" d="m84.99,67.13c-2,3.77-5.05,6.98-8.74,9.14,2.8-3.24,5.63-6.19,8.74-9.14h0Z"/>
        <path class="cls-1" d="m95.09,68.38c1.01-.67,1.51-2.13.66-3.03-.68-.76-2.14-.22-3.54-.59-2.61-.72-4.78-2.01-7.51-1.14,1.12-.71,2.54-1.03,3.92-.83,2.08.32,3.6,1.26,5.67,1.17.66.03,1.56.19,2.06.89,1,1.27.15,3.13-1.26,3.53h0Z"/>
        <path class="cls-1" d="m95.32,68.06c-.77.57-1.9.39-2.73,0-1.63-.86-2.98-1.47-4.8-1.66-.43-.05-1.55-.18-1.97-.23-.19-.03-.53-.03-.63-.27.18.15.39.03.61,0,2.43-.68,5.24-.14,7.14,1.47.7.45,1.46.83,2.36.68h0Z"/>
        <path class="cls-1" d="m102.19,70.49c-.77-.21-1.04-1.22-1.4-1.79-.79-1.21-2.17-1.78-3.31-2.7-.64-.45-.96-1.18-1.72-1.43.79-.2,1.5.48,2.15.78,1.35.69,2.96,1.44,3.58,3.01.32.81.18,1.54.71,2.13h0Z"/>
        <path class="cls-1" d="m102,70.46c-.7.14-1.19.43-1.63.85-.91-.44-1.78-.98-2.59-1.58-.75-.51-1.24-1.26-2.19-1.37.41-.29,1.01-.21,1.46-.05,1.3.55,2.39,1.33,3.47,2.22,0,0-.43,0-.43,0,.61-.33,1.34-.36,1.9-.08h0Z"/>
        <path class="cls-1" d="m104.34,73.07c-1.38-.3-2.35-1.44-2.41-2.85,1.25.68,1.94,1.51,2.41,2.85h0Z"/>
        <path class="cls-1" d="m104.61,73.16c-1.75.5-3.79-.56-4.38-2.29,1.67.75,2.81,1.35,4.38,2.29h0Z"/>
        <path class="cls-1" d="m78.25,61.46c-2.64-1.32-3.23-.22-4.89,1.72-1.42,1.57-2.9,3.08-4.61,4.4,1.41-2.3,3.12-4.3,4.96-6.24,1.41-1.57,3.17-1.38,4.54.12h0Z"/>
        <path class="cls-1" d="m78.28,61.53c.37.55.04,1.29-.32,1.77-1.18,1.39-2.52,2.53-3.86,3.74-1.36,1.16-2.73,2.29-4.22,3.3-.51.32-1.11.62-1.73.59.57-.19,1.01-.56,1.42-.97,2.05-2.12,4.28-4.13,6.62-5.91.81-.73,2.22-1.23,2.08-2.5h0Z"/>
        <path class="cls-1" d="m82.75,51.68c1.48,1.86-.44,3.75-1.52,5.19-1.11,1.48-2.09,3.02-3.18,4.6.45-2.36,1.7-4.52,3.29-6.31,1-.96,1.8-1.95,1.41-3.48h0Z"/>
        <path class="cls-1" d="m82.77,51.53c-.85-.22-2.15-1.17-2.63-.03,0,0-1.39,3.08-1.39,3.08-.74,1.62-1.9,4.24-2.69,5.81-.03.06-.06.12-.05.16-.01.06.13,0,.06-.05.1.02-.03.21-.12.1-.07-.08-.04-.18-.04-.25.56-3.29,1.82-6.39,3.55-9.24.87-1.47,2.41-.38,3.3.43h0Z"/>
        <path class="cls-1" d="m90.65,49.76c1.38-3.23-2.02-2.29-3.83-1.67-2.09.71-4.3,1.33-5.88,3,.43-1.1,1.39-1.94,2.39-2.54,2.07-1.11,4.37-2.17,6.77-1.87,1.62.44,1.63,2.07.55,3.08h0Z"/>
        <path class="cls-1" d="m90.53,49.89c-2.3,1.42-4.84,1.56-7.34,2.46,1.74-2.09,4.76-2.4,7.34-2.46h0Z"/>
        <path class="cls-1" d="m93.04,48.79c.73.48.32,1.65-.43,1.95-.79.33-1.67-.08-1.87-.77,1.22.06,1.97-.03,2.3-1.17h0Z"/>
        <path class="cls-1" d="m93.12,48.77c-1.05.06-1.6-.23-2.12-1.15.97-.4,1.92.12,2.12,1.15h0Z"/>
        <path class="cls-1" d="m93.19,48.94c1.91.42,3.88.39,5.77.32-1.86.98-4.2,2.21-6.33,1.34-.2-.1-.4-.34-.34-.56.07.21.26.25.44.26.55,0,1.15-.16,1.69-.27.75-.16,1.46-.41,2.16-.69l.2.93c-1.31-.04-2.63-.47-3.59-1.34h0Z"/>
      </g>
      <g>
        <path class="cls-1" d="m31.35,83.33c.04,2.5,2.03,2.93,4.21,2.91,2.12.11,4.3.43,6.25,1.38-2.14-.18-4.19-.3-6.29-.38-2.26.06-5.11-1.07-4.16-3.91h0Z"/>
        <path class="cls-1" d="m31.31,83.54c.28-2.73,5.01-1.44,6.57-.55.71.38,1.4.64,2.19.9-.79.17-1.69.09-2.43-.15-1.46-.44-2.95-.89-4.48-1.01-.73-.06-1.49.08-1.85.81h0Z"/>
        <path class="cls-1" d="m20.7,78.63c-2.28-7.35,6.79-1.74,8.94.53,1.05.99,1.96,2.13,2.7,3.35-2.08-1.96-4.26-3.7-6.67-5.1-1.16-.54-4.31-2.93-4.9-.88-.1.63-.01,1.4-.07,2.1h0Z"/>
        <path class="cls-1" d="m20.9,78.63c.03-.07-.11-.04-.09-.02,0,.1.4.19.47.23,3.67,1.57,6.28,4.74,10.12,6.01-4.18.06-7.23-3.38-10.26-5.78-.1-.12-.48-.28-.4-.49.06-.1.22-.02.16.04h0Z"/>
        <path class="cls-1" d="m10.61,81.16c-.74-.37-2.44-1.32-1.8-2.34,2.21-2,5.2-2.78,8.04-3.52,1.28-.26,2.83-.08,3.75.88-1.79-.91-3.63-.14-5.34.51-1.93.76-4.22,1.41-5.94,2.52-.07.07-.09.11-.09.18.25.67.82,1.26,1.36,1.77h0Z"/>
        <path class="cls-1" d="m10.75,81.26c.08.41.82-.15,1.01-.3,1.02-.91,2.32-1.61,3.69-1.84,1.8-.36,3.56.31,5.07-.92-.81,1.82-3.31,1.61-4.89,1.9-1.29.21-2.44.7-3.63,1.28-.28.13-1.35.43-1.25-.13h0Z"/>
        <path class="cls-1" d="m3.9,85.91c.1-2.92,1.94-6.02,4.86-6.83-2.14,2.04-3.39,4.35-4.86,6.83h0Z"/>
        <path class="cls-1" d="m3.99,85.99c.59.11,1.14.55,1.43,1.16l-.51-.13c.86-1,1.76-1.88,2.38-2.91.53-1.18,1.68-2.32,3.04-2.55-1.08.91-1.66,1.7-2.2,3.02-.76,1.44-1.99,2.37-3.23,3.21-.1-.68-.31-1.3-.91-1.8h0Z"/>
        <path class="cls-1" d="m0,89.49c.81-.71,1.43-1.35,1.92-2.12.25-.35.41-.83.85-1.29.37-.44,1.26-.69,1.63-.15-1.22,0-1.04,1.15-1.64,1.98-.61.93-1.66,1.62-2.76,1.58h0Z"/>
        <path class="cls-1" d="m.23,89.54c1.56-1.01,4.32-.54,4.69-2.82.38.45.31,1.19-.01,1.7-1.01,1.54-3.09,1.42-4.67,1.12H.23Z"/>
        <path class="cls-1" d="m31.57,75.74c-1.87-.4-2.02-3.16-.13-3.91.55-.26,1.28-.22,1.8,0,1.85.88,3.66,1.88,4.86,3.57-1.67-1.03-3.47-1.84-5.22-2.63-1.87-.75-3.02,1.82-1.31,2.98h0Z"/>
        <path class="cls-1" d="m31.54,75.75c2.78.03,5.53,1.36,7.27,3.54-2.59-1.06-4.83-2.16-7.27-3.54h0Z"/>
        <path class="cls-1" d="m22.22,65.32c-1.2-1.41-.5-4.87,1.79-4.47,3.91,2.62,5.41,7.53,7.87,11.29-2.28-2.2-3.77-5.09-5.6-7.61-.66-.93-1.4-1.84-2.2-2.65-.26-.24-.43-.33-.68-.28-1.29.45-1.73,2.46-1.18,3.72h0Z"/>
        <path class="cls-1" d="m22.13,65.13c2.94,3.12,5.6,6.22,8.22,9.61-3.56-2.36-6.43-5.73-8.22-9.61h0Z"/>
        <path class="cls-1" d="m11.98,65.82c-1.39-.47-2.13-2.38-1.06-3.59.54-.67,1.45-.78,2.11-.77,2.06.2,3.63-.65,5.72-.86,1.39-.13,2.79.27,3.87,1.05-2.68-1.02-4.91.16-7.56.73-1.42.28-2.85-.34-3.57.39-.9.86-.48,2.34.49,3.06h0Z"/>
        <path class="cls-1" d="m11.76,65.49c.9.2,1.68-.14,2.4-.55,1.99-1.51,4.83-1.89,7.21-1.08.22.05.42.18.61.04-.11.24-.45.22-.64.24-.42.02-1.54.09-1.98.12-1.82.08-3.21.61-4.88,1.39-.85.34-1.99.46-2.73-.16h0Z"/>
        <path class="cls-1" d="m4.77,67.54c.56-.56.46-1.3.82-2.09.7-1.53,2.36-2.19,3.74-2.81.67-.26,1.42-.9,2.19-.66-.77.2-1.13.92-1.8,1.33-1.19.86-2.6,1.34-3.46,2.51-.4.55-.72,1.54-1.5,1.71h0Z"/>
        <path class="cls-1" d="m4.96,67.52c.58-.25,1.31-.18,1.9.18l-.43-.02c1.12-.84,2.25-1.55,3.58-2.03.46-.14,1.06-.18,1.46.13-.96.06-1.48.78-2.26,1.25-.84.56-1.74,1.04-2.67,1.43-.41-.44-.89-.76-1.58-.94h0Z"/>
        <path class="cls-1" d="m2.48,70c.54-1.31,1.28-2.11,2.57-2.72-.14,1.41-1.17,2.49-2.57,2.72h0Z"/>
        <path class="cls-1" d="m2.2,70.07c1.62-.85,2.8-1.39,4.5-2.04-.69,1.69-2.78,2.63-4.5,2.04h0Z"/>
        <path class="cls-1" d="m29.17,59.84c2.72-2.43,4.13-.36,5.94,1.74,1.5,1.75,3.05,3.49,4.18,5.53-1.75-1.54-3.39-3.13-4.93-4.87-1.74-1.96-2.19-3.8-5.19-2.4h0Z"/>
        <path class="cls-1" d="m29.13,59.91c-.22,1.26,1.17,1.85,1.94,2.62,2.24,1.91,4.36,4.04,6.29,6.27.39.43.8.82,1.37,1.05-.62,0-1.2-.33-1.69-.68-1.43-1.09-2.73-2.29-4.03-3.53-1.27-1.28-2.55-2.49-3.65-3.94-.33-.5-.62-1.25-.22-1.78h0Z"/>
        <path class="cls-1" d="m25.22,49.83c-.47,1.51.26,2.54,1.21,3.56,1.49,1.87,2.61,4.1,2.93,6.48-1-1.64-1.89-3.23-2.92-4.77-.99-1.49-2.81-3.5-1.23-5.27h0Z"/>
        <path class="cls-1" d="m25.2,49.68c.93-.75,2.53-1.76,3.32-.24,1.51,2.81,2.55,5.83,2.99,8.99,0,.16.13.54,0,.68-.1.11-.22-.09-.12-.1-.07.04.07.12.06.05.03-.09-.18-.46-.21-.56-.6-1.42-1.62-4.09-2.19-5.55,0,0-1.21-3.16-1.21-3.16-.42-1.16-1.77-.29-2.63-.11h0Z"/>
        <path class="cls-1" d="m17.43,47.48c-1.02-1.06-.92-2.69.72-3.04,2.41-.17,4.65,1.02,6.66,2.24.96.65,1.88,1.55,2.24,2.67-1.48-1.75-3.66-2.49-5.71-3.32-1.78-.72-5.11-1.85-3.92,1.45h0Z"/>
        <path class="cls-1" d="m17.55,47.62c2.57.21,5.57.68,7.19,2.86-2.44-1.03-4.97-1.32-7.19-2.86h0Z"/>
        <path class="cls-1" d="m15.11,46.37c.27,1.16,1.01,1.29,2.24,1.3-.24.68-1.14,1.04-1.91.67-.73-.34-1.08-1.53-.32-1.97h0Z"/>
        <path class="cls-1" d="m15.02,46.35c.26-1.02,1.24-1.48,2.18-1.03-.57.89-1.14,1.15-2.18,1.03h0Z"/>
        <path class="cls-1" d="m14.94,46.52c-1.01.81-2.35,1.17-3.66,1.14l.25-.92c.68.32,1.38.61,2.12.81.53.14,1.12.33,1.67.36.17,0,.36-.04.45-.24.05.22-.16.45-.37.54-2.17.75-4.44-.61-6.24-1.69,1.88.18,3.85.31,5.78,0h0Z"/>
      </g>
      <path class="cls-1" d="m56.27,98.73c-2.98-2.83-2.36-7.9.2-10.83,2.2-2.7,5.42-4.22,8.71-5.04.37-.04,1.11-.44,1.38-.03-.26-.31-.99.2-1.29.29-2.95,1.3-5.99,2.88-8.02,5.42-2.38,2.8-3.14,7.02-.97,10.2h0Z"/>
      <path class="cls-1" d="m57.71,98.6c-2.47-2.92-2.12-7.5-.02-10.57,2-2.94,5.26-4.75,8.69-5.41.11-.02.23-.06.37,0,.18.05.05.34-.07.23.12.06.15-.17.04-.16-.09-.02-.19.04-.3.08-6.47,2.27-12.13,8.84-8.71,15.83h0Z"/>
      <path class="cls-1" d="m58.57,98.19c-2.76-6.63,2.44-14.49,9.18-15.78-6.1,2.8-10.31,8.95-9.18,15.78h0Z"/>
      <path class="cls-1" d="m59.78,97.23c-2.82-5.21,1.58-11.13,6.11-13.59-3.59,3.7-7.38,8.12-6.11,13.59h0Z"/>
      <path class="cls-1" d="m61.44,96.08c-2.02-4.88.79-10.96,5.14-13.55.23-.02.37.31.18.39.13-.13-.07-.31-.17-.24-3.35,3.54-5.72,8.4-5.16,13.4h0Z"/>
      <path class="cls-1" d="m63.23,93.09c-2-3.33.53-7.25,2.58-9.91.11-.12.36-.03.31.11-.03-.12-.18-.09-.2,0-.96,3.29-3.26,6.19-2.69,9.8h0Z"/>
      <path class="cls-1" d="m50.56,98.25c1.83-8.23-.53-12.76-9.26-13.41-.4,0-.87.23-.92.7-.08-.48.42-.91.89-.96,9.04-.89,12.93,5.74,9.29,13.67h0Z"/>
      <path class="cls-1" d="m49,98.45c1.72-6.11-2.01-12.85-8.6-13.38,7.16-1.06,11.97,7.41,8.6,13.38h0Z"/>
      <path class="cls-1" d="m47.64,98.03c.92-5.28-1.47-10.61-6.35-13.13,5.65,1.13,8.85,8,6.35,13.13h0Z"/>
      <path class="cls-1" d="m46.34,96.72c.55-4.72-1.63-9.04-5.75-11.4,4.85.87,7.92,6.99,5.75,11.4h0Z"/>
      <path class="cls-1" d="m44.76,95.77c.51-1.9.16-3.8-.8-5.45-.69-1.28-1.48-2.5-2.32-3.68-.28-.38-.56-.76-1.02-.9l.07-.05c-.05.08-.05.21.02.31-.12-.07-.18-.24-.15-.39,1.13-.04,1.84,1.03,2.56,1.74,1.97,2.21,3.67,5.74,1.64,8.43h0Z"/>
      <path class="cls-1" d="m43.97,94.29c-.46-1.55-.27-3.14-.94-4.61-.54-1.42-1.44-2.74-2.15-4.25,2.94,2.17,4.17,5.3,3.09,8.86h0Z"/>
      <path class="cls-1" d="m57.14,87.48c-2.99-4.56-.03-13,5.56-13.98.23.06-.02.26-.02.13.02.08.15-.06.02-.05-2.44,1.17-4.11,3.31-4.99,5.86-.99,2.53-1.44,5.32-.56,8.05h0Z"/>
      <path class="cls-1" d="m57.89,86.91c-1.48-4.35.21-9.6,3.62-12.59.55-.39,1.18-.7,1.83-.72-1.23.47-1.93,1.54-2.58,2.59-1.94,3.25-3.04,6.85-2.88,10.72h0Z"/>
      <path class="cls-1" d="m59.29,85.64c-1.03-2.88-.54-6.26,1.08-8.87.8-1.13,1.76-2.12,2.77-3.05-.68,1.49-1.72,2.73-2.33,4.22-1.12,2.4-1.46,4.99-1.52,7.71h0Z"/>
      <path class="cls-1" d="m60.68,84.73c.06-.96-.52-1.72-.53-2.82.14-2.04.73-3.73,1.55-5.58.53-.87,1.23-1.48,1.85-2.21-.26.94-.83,1.75-1.16,2.56-.44,1.67-1.1,3.6-1.47,5.26-.14.86.22,1.95-.25,2.78h0Z"/>
      <path class="cls-1" d="m62.3,83.99c-.91-3.12-1.09-7.27,1.45-9.67.08-.08.34-.11.3.04-.15-.15-.24.18-.33.34-1.26,2.94-.97,6.13-1.43,9.28h0Z"/>
      <path class="cls-1" d="m64.17,82.97c-.62-1.45-.89-2.9-1.17-4.41-.23-1.49-.25-3.37.92-4.5-.71,2.99.76,5.88.25,8.91h0Z"/>
      <path class="cls-1" d="m65.83,82.53c-1.77-2.22-2.4-5.32-1.64-8.05.65,2.78,1.15,5.24,1.64,8.05h0Z"/>
      <path class="cls-1" d="m66.97,81.99c-.13.16-.39.03-.5-.09-1.52-1.92-2.08-4.64-1.31-6.99.5,1.9.79,3.61,1.24,5.47,0,0,.21.92.21.92.08.25.04.71.37.69h0Z"/>
      <path class="cls-1" d="m49.41,86.9c-.04-2.02.55-4.12.34-6.09-1.04-2.95-2.68-6.64-6.12-7.25,3.81-.38,6.23,3.91,7.05,7.1.14,2.19-.71,4.17-1.28,6.24h0Z"/>
      <path class="cls-1" d="m48.09,86.3c.57-2.46.75-4.95-.57-7.17-1.14-2.24-2.16-4.6-4.52-5.79,2.7.41,4.3,3.12,5.41,5.34,1.39,2.33,1.06,5.38-.32,7.63h0Z"/>
      <path class="cls-1" d="m46.62,85.28c.85-2.05-.11-4.22-.54-6.24-.56-1.89-1.29-4.02-2.83-5.27-.04.02-.09.1-.02.14-.19-.11.04-.33.23-.23,2.96,1.62,3.9,5.27,4.12,8.41.06,1.1-.11,2.41-.96,3.2h0Z"/>
      <path class="cls-1" d="m45.22,85.06c.24-3.62-.13-7.16-1.85-10.39-.23-.42-.52-.83-1.02-.91l.08-.06c-.06.1-.06.26.02.38-.13-.09-.21-.29-.17-.47,0,0,.07-.01.07-.01,1.23-.12,1.84,1.27,2.37,2.11,1.72,2.75,1.74,6.41.5,9.35h0Z"/>
      <path class="cls-1" d="m44.19,84.59l.03.29h-.12c-.16-3.73-.06-7.47-2.25-10.62,0,0,.11-.06.11-.06v.32c-.04-.11-.16-.37-.22-.48,3.44,2.32,3.61,7.25,2.47,10.85,0,0-.12-.01-.12-.01l.09-.28h0Z"/>
      <path class="cls-1" d="m42.76,84.78c-.27-2.81.43-5.4-.51-8.04-.15-.43-.52-1.53-.66-1.95-.06-.13-.05-.34-.18-.39-.04,0-.1.06-.05.1-.07-.03-.04-.13.02-.17.22-.1.34.21.46.33,2.54,2.96,2.16,6.69.92,10.13h0Z"/>
      <path class="cls-1" d="m41.43,84.84c.04-3.38-.02-6.44-.17-9.82,1.52,3,1.59,6.77.17,9.82h0Z"/>
      <path class="cls-1" d="m40.65,84.69c-.24-2.57.13-4.97.1-7.5-.04-.34.13-.79-.21-.92.21-.1.4.14.48.31,1.1,2.58.7,5.58-.37,8.11h0Z"/>
      <path class="cls-1" d="m39.78,81.99c-.27-1.43.13-2.33-.14-3.7,1.54.56,1.27,2.84.14,3.7h0Z"/>
      <path class="cls-1" d="m15.3,119.63c.93-.97,1.13-2.34,1.33-3.6.48-3.93-1.3-7.68-4.56-10.05,4.02,1.38,6.35,6.11,5.33,10.19-.34,1.3-.87,2.79-2.1,3.47h0Z"/>
      <path class="cls-1" d="m9.68,128.99c-3.18-3.15-4.82-7.64-5.29-12.04-.67-4.9.47-8.87,4.36-12.09-.67.88-1.34,1.75-1.89,2.69-3.63,5.47-.84,16.4,2.81,21.44h0Z"/>
      <path class="cls-1" d="m17.87,95.35l-.59,2.7c-.52,2.81-2.42,5.22-4.81,6.73,1-1.6,2.19-2.97,2.99-4.52.85-1.57,1.27-3.46,2.41-4.91h0Z"/>
      <path class="cls-1" d="m17.44,94.81c-2.02,3.67-2.89,8.3-6.5,10.83,2.53-3.42,3.31-7.89,6.5-10.83h0Z"/>
      <path class="cls-1" d="m16.91,94.19c-1.73,4.22-4.78,7.56-7.05,11.45.26-2.29,1.74-4.21,2.91-6.11,1.25-1.86,2.57-3.69,4.14-5.34h0Z"/>
      <path class="cls-1" d="m16.73,93.37c-2.48,4.18-6.06,7.4-7.75,12.02.31-5.01,4.26-8.83,7.75-12.02h0Z"/>
      <path class="cls-1" d="m16.44,92.85c-3.11,3.77-6.37,7.17-8.2,11.78.43-4.99,4.19-9.12,8.2-11.78h0Z"/>
      <path class="cls-1" d="m16.16,92.51c-3.79,3.5-7.59,6.98-8.8,12.19-.27-5.45,4.23-9.95,8.8-12.19h0Z"/>
      <path class="cls-1" d="m97.81,107.05c.3-1.28.38-2.51-.63-3.48-2.66-2.95-4.99-6.13-7.35-9.33,3.2,2.45,5.6,5.65,7.96,8.86.98,1.13.77,2.77.02,3.96h0Z"/>
      <path class="cls-1" d="m96.89,107.45c.78-2.6-1.11-4.58-2.69-6.41-1.63-1.93-3.2-3.91-4.55-6.09,1.94,1.67,3.65,3.53,5.31,5.44,1.61,1.75,3.58,4.71,1.93,7.05h0Z"/>
      <path class="cls-1" d="m96.38,107.91c-.36-2.59-1.69-4.5-3.19-6.55-1.4-2.05-2.86-4.06-4.22-6.2,1.95,1.62,3.59,3.57,5.04,5.63,1.47,2.02,2.83,4.53,2.36,7.12h0Z"/>
      <path class="cls-1" d="m95.65,108.31c-.97-3.48-3.02-6.27-5.02-9.18-.68-.98-1.26-1.97-2.17-2.76,1.14.44,2.01,1.41,2.79,2.28,2.33,2.66,4.57,5.97,4.4,9.66h0Z"/>
      <path class="cls-1" d="m95.08,108.16c-2.5-3.65-4.81-7.47-6.85-11.29-.07.04.03.1.09.12-.05,0-.12,0-.17-.07-.06-.11.11-.21.17-.12,3.1,3.19,5.46,7.1,6.76,11.36h0Z"/>
      <path class="cls-1" d="m94.07,107.68c.05-.09.15.05.12.12-.05.12-.19.08-.26.04-.3-.32-.46-.67-.74-1-1.7-2.09-3.71-4.18-4.41-6.87-.34-1.03-.65-2.07-.9-3.14l.14.02c-.09.06-.11.24-.01.35-.19-.09-.2-.39-.05-.56,1.17,1.85,1.91,4,3.04,5.83,1.06,1.66,2.47,3.31,3.03,5.26.13.17.13-.12.04-.05h0Z"/>
      <path class="cls-1" d="m92.77,106.86c-2.91-2.2-4.79-5.81-4.93-9.45,1.52,3.33,3.07,6.3,4.93,9.45h0Z"/>
      <path class="cls-1" d="m72.37,101.15c.43-1.93.21-3.61-.74-5.25-.07-.07-.15-.2-.27-.11.03-.18.29-.18.42-.12,1.99.93,2.39,4.17.59,5.48h0Z"/>
      <path class="cls-1" d="m71.03,100.61c.26-.05.27-.31.3-.52.22-1.69-.05-3.1-.72-4.75,1.76.81,2.28,3.39,1.17,4.94-.13.21-.5.55-.75.33h0Z"/>
      <path class="cls-1" d="m69.76,100.34c.95-1.35.59-2.91.16-4.36-.07-.19-.14-.4-.4-.45.23-.2.6-.02.8.16,1.36,1.2,1.51,4.16-.56,4.65h0Z"/>
      <path class="cls-1" d="m68.54,99.91c.67-1.56,1.09-2.97.21-4.4-.01-.05-.17-.05-.18.08-.11-.1-.01-.34.2-.36,1.01.13,1.5,1.33,1.47,2.25-.06,1.1-.76,2.07-1.7,2.42h0Z"/>
      <path class="cls-1" d="m67.21,99.83c.34-1.44.5-2.57.39-3.94,0-.15-.17-.27-.32-.15-.04-.3.48-.41.7-.16.23.22.31.43.41.64.52,1.26.09,2.98-1.18,3.6h0Z"/>
      <path class="cls-1" d="m65.98,99.23c.28-.31.26-.61.3-.92.03-.66.1-1.37.25-2.03.02-.27.32-.68-.1-.64.02-.27.5-.27.66,0,.16.25.18.46.22.64.18.95-.01,3-1.32,2.95h0Z"/>
      <path class="cls-1" d="m65.45,98.75c-.08-1.12-.06-2,.14-2.96-.03-.02-.12-.05-.15.04-.21-.17.19-.53.48-.3.87.91.61,2.57-.47,3.21h0Z"/>
      <path class="cls-1" d="m40.48,98.8c-1.56-.66-1.7-3.26-.2-4.07-.12,1.61-.08,2.48.2,4.07h0Z"/>
      <path class="cls-1" d="m38.95,99.12c-.57-1.09-1.19-2.38-.53-3.57.22-.4.65-.75,1.1-.72-.93,1.34.12,2.88-.58,4.29h0Z"/>
      <path class="cls-1" d="m38.12,99.39c-1.27-1.35-1.99-3.99.22-4.8-.27.83-.61,1.39-.44,2.23.12.8.36,1.7.22,2.57h0Z"/>
      <path class="cls-1" d="m36.92,99.26c-.44-.91-1.19-1.58-1.2-2.67-.04-1.03.44-2.16,1.4-2.6-.45,1.41-.55,2.44-.21,3.78.11.44.24,1.01,0,1.49h0Z"/>
      <path class="cls-1" d="m35.62,99.41c-1.92-.67-1.7-4,.3-4.4-.78,1.62-.86,2.69-.3,4.4h0Z"/>
      <path class="cls-1" d="m34.48,100.27c-.86-1.9-1.91-4.51.36-5.88.21-.16.51,0,.34.17.03-.09-.09-.15-.15.03-.4.75-.65,1.62-.59,2.45.04,1.01.45,2.19.04,3.23h0Z"/>
      <path class="cls-1" d="m33.17,100.03c-1.42-1.52-.92-4.43.94-5.38-.67,1.93-.92,3.34-.94,5.38h0Z"/>
    </g>
  </g>
</svg>