<?xml version="1.0" encoding="UTF-8"?>
<svg id="Layer_2" data-name="Layer 2" xmlns="http://www.w3.org/2000/svg" viewBox="0 0 95.41 118.94">
  <defs>
    <style>
      .cls-1 {
        fill: #a37d2d;
        stroke-width: 0px;
      }
    </style>
  </defs>
  <g id="Layer_1-2" data-name="Layer 1">
    <g>
      <path class="cls-1" d="m24.16,38.95c-.56-.98-.37-2.27.05-3.32,0,0,.43.73.43.73,1.08,1.83,3.07,2.93,5.08,2.8,1.72.08,2.96-1.38,4.57-1.67.62-.07,1.24.07,1.73.37-.57-.09-1.12-.02-1.61.16-.52.18-.88.54-1.28.9-.84.79-2.08,1.37-3.31,1.47-2.49.29-5.08-1.36-5.84-3.74,0,0,.67,0,.67,0-.37.66-.55,1.46-.49,2.3h0Z"/>
      <path class="cls-1" d="m30.28,47.12c-.94-4.49,2.43-9.17,6.93-9.98,1.54-.34,3.58-.23,4.54,1.3.88,1.43,1.08,3.42-.06,4.75-3.03,3.81-9.44-.14-11.63,4.54,1.18-4.95,8.12-2.08,10.69-5.29.78-.94.53-2.35-.06-3.31-.54-.95-1.95-1.06-3.25-.82-4.17.66-7.24,4.49-7.15,8.8h0Z"/>
      <path class="cls-1" d="m43.87,39.73c-2.42,3.15-4.79,7.71-1.02,10.72,1.61,1.42,3.14,3.47,3.35,5.73.27,2.1-.2,4.94-2.35,5.84.89-.63,1.33-1.63,1.48-2.64.31-2-.16-4.11-1.29-5.77-1.17-1.78-3.34-2.88-4.06-5.11-1.1-3.49,1.49-6.71,3.89-8.77h0Z"/>
      <path class="cls-1" d="m47.12,46.94c-.96,1.26-.21,2.65.53,3.82,1.88,2.51,1.76,6.44-.36,8.78-.84,1.03-1.77,1.96-2.85,2.72-.17.09-.43.13-.56-.02.38.14.58-.3.77-.56,1.35-1.95,3.06-4.11,3.1-6.52.5-2.63-3.34-6.1-.62-8.22h0Z"/>
      <path class="cls-1" d="m40.49,38.02c2.38-3.16,8.01-1.53,8.4,2.4-.09-.13-.28-.4-.37-.53l.27.1-.13.11c-2.19-2.48-5.05-3.18-8.17-2.07h0Z"/>
      <path class="cls-1" d="m45.41,37.28c1.98-2.38,5.82-1.7,7.93.17.83.66,1.6,1.74,1.37,2.9-.08-.16-.24-.49-.32-.65l.33.21-.18.08c-.35-.82-1.07-1.26-1.81-1.69-2.25-1.31-4.68-2.01-7.32-1.03h0Z"/>
      <path class="cls-1" d="m52.15,42.27c.4-.14.71.34.85.63.52.97.88,2.02,1.03,3.12.22,1.47.03,3.06-.67,4.46-1.5,2.67-4,3.92-5.08,6.81.05-1.44.64-2.89,1.53-4.07.86-1.19,1.86-2.17,2.42-3.32.91-1.73.95-3.9.64-5.85-.15-.51-.08-1.7-.71-1.78h0Z"/>
      <path class="cls-1" d="m52.9,49.85c2.8.02,4.97-1.45,5.77-3.97.26-.81.38-1.72.6-2.65.31.9.48,1.85.38,2.85-.17,3.11-4.01,5.47-6.74,3.77h0Z"/>
      <path class="cls-1" d="m53.32,41.17c1.31-2.19,4.34-3.02,6.72-2.19,1.81.48,3.01,1.95,4.57,2.71.49.17,1.07.2,1.58-.14-.3.56-1.04.8-1.69.75-1.8-.26-3.15-1.7-4.84-2.11-2.05-.71-4.32-.37-6.33.98h0Z"/>
      <path class="cls-1" d="m61.55,45.62c2.15-1.12,3.37-2.15,4.85-4.07.46,2.5-2.47,4.95-4.85,4.07h0Z"/>
      <path class="cls-1" d="m64.67,41.75c-.23-.35-.02-.83.14-1.15.49-1.06,1.19-2.09,2.26-2.68,1.09-.66,2.53-1.13,2.65-2.41,0,0,0-1.39,0-1.39l.9.95c.97,1.02,1.12,2.61.41,3.62.11-1.19-.38-2.26-1.14-2.83l.9-.44c.13,1.03-.47,1.9-1.12,2.42-1.3,1-2.59,1.1-3.69,2.27-.34.41-1.35,1.09-1.3,1.64h0Z"/>
      <path class="cls-1" d="m.78,52.01c4.39-3.01,10.75-2.27,14.7,1.22,3.73,3.17,7.93,6.65,9.02,11.67.09.2.32-.01.17-.09.2.09-.08.39-.25.15-1.92-4.59-6.03-7.62-9.74-10.74-3.8-3.33-9.21-4.16-13.9-2.21h0Z"/>
      <path class="cls-1" d="m15.65,53.8c1.56-.71,2.6-.86,4.29-.6-.97,1.4-2.98,1.67-4.29.6h0Z"/>
      <path class="cls-1" d="m.91,51.87c-1.31,5.44,1.09,12.08,6.67,13.89,4.14,1.44,8.39-.54,12.28-2.13,1.43-.42,3.16-.45,4.33.52-2.91-1.44-5.44.94-8.04,2.03-9.88,4.78-19.12-4.32-15.23-14.31h0Z"/>
      <path class="cls-1" d="m24.52,65.07c0-1.76.42-2.94,1.53-4.3.64,1.63-.01,3.44-1.53,4.3h0Z"/>
      <path class="cls-1" d="m19.21,64.3c.96,1.48,2.83,1.08,4.36,1.08,1.56,0,3.53-.28,5.07.23,3.52,1.21,4.88,5.19,4.58,8.54-.7-2.96-1.96-6.3-4.98-7.34-2.29-.63-4.86-.11-7.19-.83-.8-.26-1.69-.81-1.83-1.68h0Z"/>
      <path class="cls-1" d="m19.2,64.57c-.21.72.35,1.27.69,1.88.37.6.76,1.18,1.2,1.65,1.98,2.06,5.18.68,7.78,1.22,1.45.17,3,.69,3.99,1.78-1.31-.64-2.68-.79-4.06-.79-2.74-.08-6.57,1.16-8.48-1.58-.68-.96-1.03-1.97-1.32-3.07-.08-.36-.07-.81.19-1.09h0Z"/>
      <path class="cls-1" d="m24.94,70.3c1.97,2.31,4.58,4.26,5.73.12.34.74.33,1.69-.16,2.49-1.93,2.91-5.48.03-5.57-2.61h0Z"/>
      <path class="cls-1" d="m24.68,70.18c-.7,2.63.86,5.11,3.06,6.4.74.44,1.56.77,2.5,1.01-3.91,1.36-8.67-4.01-5.55-7.41h0Z"/>
      <path class="cls-1" d="m29.94,73.24c1.12-.45,2.34.09,3,.98.02.04.05.07-.02.07-.07-.02-.33.12-.29.22.07,0,.31-.51.52-.67.34.58.49,1.47-.46,1.41-.36-.06-.48-.22-.72-.35-.74-.51-1.28-.88-2.03-1.67h0Z"/>
      <path class="cls-1" d="m75.24,65.11c-.46,1.79-2.85,1.94-4.34,2.04-1.53.19-3.26-.03-4.69.42-3.03,1.02-4.31,4.35-5.03,7.31-.09-1.64.08-3.36.82-4.95,1-2.44,3.77-4.17,6.44-3.85,0,0,2.44.08,2.44.08,1.52.02,3.4.42,4.36-1.05h0Z"/>
      <path class="cls-1" d="m75.25,65.38c.26.28.26.73.18,1.09-.29,1.1-.65,2.1-1.34,3.06-1.92,2.73-5.74,1.46-8.48,1.53-1.38,0-2.75.13-4.06.77,1-1.09,2.55-1.59,4-1.76,2.6-.52,5.79.88,7.78-1.17.45-.47.84-1.04,1.21-1.64.34-.61.9-1.16.7-1.88h0Z"/>
      <path class="cls-1" d="m69.47,71.07c-.11,2.63-3.68,5.49-5.58,2.58-.48-.8-.48-1.76-.14-2.49,1.12,4.15,3.75,2.21,5.73-.08h0Z"/>
      <path class="cls-1" d="m69.73,70.96c3.09,3.42-1.7,8.75-5.6,7.37.93-.23,1.76-.56,2.5-.99,2.21-1.28,3.78-3.75,3.1-6.38h0Z"/>
      <path class="cls-1" d="m64.46,73.98c-.76.78-1.3,1.15-2.04,1.66-.24.13-.36.3-.72.35-.95.05-.79-.83-.45-1.41.21.16.44.67.51.67.04-.1-.22-.25-.29-.23-.07,0-.04-.04-.02-.07.67-.89,1.89-1.42,3.01-.97h0Z"/>
      <path class="cls-1" d="m71.38,65.45c2.46-10.11,13.83-17.29,24-14.88-10.29-.36-19.67,5.58-24,14.88h0Z"/>
      <path class="cls-1" d="m76.24,52.59c1.91.68,3.33.31,5.4.45-1.28,1.68-4.66,1.8-5.4-.45h0Z"/>
      <path class="cls-1" d="m95.07,50.62c1.52,7.41-2.09,17.34-11.05,16.62-3.16-.38-5.33-2.58-8.44-2.95-1.25-.18-3.24-1.05-3.95.43.44-1.69,2.78-1.08,4.05-1.05,2.94.06,5.65,2.09,8.46,2.37,8.14.47,11.16-8.65,10.95-15.42h0Z"/>
      <path class="cls-1" d="m24.5,74.75c-4.86,10.92,6.45,18.19,8.31,28.13.23,1.47.24,2.99-.09,4.42.05-1.47-.09-2.91-.52-4.29-2.82-9.48-14.29-17.52-7.7-28.26h0Z"/>
      <path class="cls-1" d="m70.07,75.03c5.14,13.03-6.41,21.82-8.79,33.63,0-1.49.27-2.98.61-4.44,3.05-10.39,10.85-17.47,8.17-29.19h0Z"/>
      <path class="cls-1" d="m37.2,96.98c-.24,2.83,2.78,3.75,4.93,4.56,1.99.63,2.55,3.27.91,4.64-2.05,1.75-4.59.07-6.11-1.39-.81-.69-1.51-1.7-1.66-2.78-.2-1.25.02-2.4.22-3.58l.02.47v.4s-.1-.38-.1-.38h.1c.06,1.01.11,2.03.41,2.93.28.92.88,1.58,1.66,2.15.79.55,1.62,1.22,2.42,1.51,1.46.72,3.43-.69,2.59-2.23-.33-.59-1.38-.91-2.28-1.39-1.8-.76-3.93-2.77-3.11-4.91h0Z"/>
      <path class="cls-1" d="m56.3,98.2c.13,2.7-2.76,4.26-4.16,6.04-1.39,2.33,2.38,2.81,3.63,1.49,1.15-.97,1.71-2.61,2.25-4.2-.06,1.65-.24,3.51-1.56,4.92-1.44,1.87-6.02,1.68-5.86-1.43.09-1.5,1.56-2.51,2.57-3.21,1.32-.95,2.66-1.95,3.13-3.61h0Z"/>
      <path class="cls-1" d="m42.32,102.75c-.24,3.04,1.62,5.57,4.83,5.45,2.76.28,6.04-1.59,5.1-4.77.52.59.69,1.46.57,2.27-.6,3.63-5.22,4.45-8.14,3.28-2.41-1-3.38-3.94-2.36-6.24h0Z"/>
      <path class="cls-1" d="m42.2,102.71c-.86,4.25.15,7.37,5.07,7.36,4.28.15,6.97-2.56,5.3-6.9,3.07,4.48-.5,8.36-5.32,8.18-5.31.01-7.36-4.06-5.05-8.63h0Z"/>
      <path class="cls-1" d="m33.44,100.57c.49,1.02.92,2.09,1,3.3.1,2.28-1.59,4.28-1.44,6.45.45,3.77,5.22,1.85,7.7,1.47,2.19-.48,4.57-.85,6.8-.28-2.28-.06-4.4.61-6.55,1.25-3.02,1.05-8.9,2.51-9.14-2.38-.09-2.47,1.76-4.25,2.02-6.51.13-1.06-.16-2.18-.38-3.28h0Z"/>
      <path class="cls-1" d="m61.04,101.78c-.75,2.91-.21,5.94,1.45,8.32.3.46.75.9,1.08,1.55.63,1.02.13,2.94-1.36,2.98-.44.03-.81-.07-1.14-.17-2.32-1.08-4.24-1.94-6.64-1.29-1.3.26-2.56-.46-3.64-.98-1.04-.5-2.24-.64-3.44-.49,1.13-.44,2.44-.45,3.65-.1,1.2.38,2.23.89,3.27.59,2.36-.89,5.07.03,7.21,1.07,1.03.41,1.33-.24.99-1.1-.18-.44-.57-.89-.92-1.44-1.7-2.63-1.91-6.22-.53-8.94h0Z"/>
      <path class="cls-1" d="m36.83,113.45c.04,2.34,1.9,4.19,4.18,4.35,2.19.26,4.39-.55,6.87-.68,2.55-.12,4.78.98,6.89.64,2.05-.33,3.89-2.32,3.96-4.68.46,2.34-1.18,5.04-3.75,5.65-2.58.59-4.9-.51-7.04-.34-2.19.06-4.58.88-7.07.39-2.48-.32-4.57-2.84-4.02-5.33h0Z"/>
      <path class="cls-1" d="m40.91,112.51c.06,2.51,2.97,2.24,4.77,1.9,2.78-.52,5.74,1.45,8.23-.08.55-.35,1-.9,1.18-1.61.22,1.6-1.37,2.94-2.86,3.18-1.57.32-3.07-.07-4.42-.22-1.44-.26-2.75.12-4.24-.04-1.49-.03-3.37-1.52-2.65-3.12h0Z"/>
      <path class="cls-1" d="m34.49,97.07c.26-2.52,2.35-4.9,5.07-5.36,2.7-.48,5.22.47,7.58.55,3.35.19,8.1-2.21,11.12.76.94.95,1.52,2.17,1.72,3.41-.47-1.16-1.16-2.24-2.13-2.94-3.33-2.34-6.89.26-10.77.04-2.65-.15-5.03-1.09-7.37-.84-2.3.24-4.46,1.98-5.22,4.38h0Z"/>
      <path class="cls-1" d="m37.37,70.21c1.24,1.57.88,4.08-.77,5.22.02-2.01.22-3.29.77-5.22h0Z"/>
      <path class="cls-1" d="m38.44,71.51c.9,2.14.07,4.84-1.89,6.1.46-2.3.98-3.94,1.89-6.1h0Z"/>
      <path class="cls-1" d="m38.92,72.99c.95,2.29-.52,4.82-2.45,6.08.48-2.37,1.57-3.86,2.45-6.08h0Z"/>
      <path class="cls-1" d="m39.21,74.61c.37,2.34-.63,4.74-2.57,6.1.45-2.34,1.21-4.14,2.57-6.1h0Z"/>
      <path class="cls-1" d="m39.81,75.8c.63,2.18-.66,4.72-2.79,5.5.87-2.11,1.61-3.55,2.79-5.5h0Z"/>
      <path class="cls-1" d="m40.06,78.78c-.09,2.17-1.37,4.1-3.35,5,.67-2.09,1.68-3.58,3.35-5h0Z"/>
      <path class="cls-1" d="m39.32,80.81c.32.46.23,1.11.05,1.58-.6,1.39-1.46,2.47-2.85,3.22.21-2.12,1.75-3.18,2.8-4.81h0Z"/>
      <path class="cls-1" d="m39.48,83.09c.11,2.04-1.02,3.92-2.88,4.76.5-1.99,1.35-3.39,2.88-4.76h0Z"/>
      <path class="cls-1" d="m39.16,84.99c1.05,1.42-1.73,4.18-3.07,4.73.31-1.54,1.17-2.7,2.27-3.69.32-.32.67-.51.8-1.03h0Z"/>
      <path class="cls-1" d="m39.04,87.64c.61,1.53-.85,2.92-1.81,3.88-.31.32-.61.61-.91,1.07-.23-.51-.14-1.12.07-1.6.6-1.43,1.83-2.06,2.65-3.34h0Z"/>
      <path class="cls-1" d="m38.99,89.6c-.18,1.81-1.03,3.08-2.65,3.9.13-1.74,1.08-3.14,2.65-3.9h0Z"/>
      <path class="cls-1" d="m55.84,69.85c.93,2.66,1.3,5.12,1.16,7.93-1.56-2.33-1.99-5.26-1.16-7.93h0Z"/>
      <path class="cls-1" d="m54.91,73.59c1.21,1.82,1.75,3.57,1.74,5.76-1.61-1.47-2.26-3.65-1.74-5.76h0Z"/>
      <path class="cls-1" d="m54.84,76.26c1.01,2.15,1.58,3.85,2.04,6.18-1.96-1.31-2.83-3.96-2.04-6.18h0Z"/>
      <path class="cls-1" d="m54.39,79.47c.16,1.1,1.07,1.67,1.5,2.65,1.7,3.56.89,4-1.12.6-.41-.93-1.28-2.33-.38-3.25h0Z"/>
      <path class="cls-1" d="m54.25,82.68c1.55,1.54,2.46,3.06,3.07,5.16-1.96-.95-3.17-2.99-3.07-5.16h0Z"/>
      <path class="cls-1" d="m54.89,85.77c1.07,1.56,2.5,2.52,2.98,4.52-1.54-.44-3.83-2.9-2.98-4.52h0Z"/>
      <path class="cls-1" d="m55.04,88.69c1.34.91,1.9,1.54,2.6,3.01-1.62.13-2.96-1.43-2.6-3.01h0Z"/>
      <path class="cls-1" d="m54.95,90.3c1.48.63,2.15,1.17,3.04,2.51-1.56.36-3.09-.91-3.04-2.51h0Z"/>
      <g>
        <g>
          <path class="cls-1" d="m17.46,51.09c1.01,1.95,3.58,2.53,5.26,1.17,1.61-1.25,2.71-3.26,3.42-5.16,1.72-4.57.16-8.68-5.33-8.35,3.85-1.18,7.36,1.16,7.17,5.34-.09,3.97-3.42,10.85-8.24,9.45-1.11-.43-2.02-1.35-2.29-2.45h0Z"/>
          <path class="cls-1" d="m10.7,48.22c.47,1.98,2.61,3.02,4.47,2.54,1.83-.42,3.24-1.85,4.17-3.53,1.94-3.12,2.99-8.34-1.32-9.98,2.21.1,3.86,2.32,4.03,4.44.22,2.23-.6,4.32-1.6,6.17-1.06,1.88-2.86,3.6-5.1,3.87-2.15.41-4.7-1.24-4.64-3.52h0Z"/>
          <path class="cls-1" d="m6.46,43.72c.85,4.49,5.61,4.84,8.09,1.48,1.34-1.39,2.38-2.85,2.62-4.74.31-1.82.62-3.99-1.15-5.16,3,1.12,2.47,5.97,1.31,8.31-1.11,1.83-2.39,3.34-4.28,4.44-3,1.64-7.07-.91-6.59-4.33h0Z"/>
          <path class="cls-1" d="m3.39,36.44c.79,8.51,7.53,8.84,10.97,1.58.46-1.06,2.14-5.14.44-5.51,2.03.05.95,4.69.48,5.9-1.15,2.94-3.81,6.46-7.43,5.98-3.63-.61-5.1-4.83-4.45-7.94h0Z"/>
          <path class="cls-1" d="m2.9,27.3c-.55,2.08-1.15,4.29-.51,6.17,1.5,4.1,7.16,3.85,10.09,1.38,1.41-1.14,3.07-3.64,1.42-5.24,2.2,1.32.74,4.62-.76,5.98-6.79,5.83-15.46.02-10.24-8.29h0Z"/>
          <path class="cls-1" d="m5.86,20.45c-2.55,2.72-4.19,8.55.42,9.88,1.78.45,4.11,1.12,5.82.23,1.47-1.1,3.85-2.62,3.11-4.79,1.08,1.49-.25,3.36-1.32,4.47-1.06,1.43-3.01,2.14-4.69,1.9-2.24-.25-4.86-.55-6.19-2.7-1.8-3.18.23-7.13,2.86-8.99h0Z"/>
          <path class="cls-1" d="m10.86,15.63c-4.91.71-5.59,4.99-1.73,7.65,2.7,2.14,8.38,2.13,10.01-1.33-.02,1.06-.86,1.93-1.69,2.53-2.66,1.88-6.46,1.79-9.07-.17-1.69-1.31-3.4-3.42-2.68-5.72.65-2.19,3.07-3.27,5.16-2.96h0Z"/>
          <path class="cls-1" d="m15.86,12.55c-1.51-.43-4,.32-4.15,1.95-.06,1.73.51,3.52,1.64,4.8,2.32,2.8,6.98,2.78,9.09-.41-1.42,4.19-7.39,4.56-10.05,1.24-1.47-1.69-2.72-5.55-.8-7.22,1.19-.94,2.99-1.1,4.27-.36h0Z"/>
          <path class="cls-1" d="m19.94,10.32c-3.57.55-5.19,3.53-2.01,5.78,2.27,1.57,6.26,3.07,8.06.08-1.08,3.91-6.27,2.82-8.79.96-3.87-2.73-1.9-7.45,2.75-6.82h0Z"/>
          <path class="cls-1" d="m24.44,8.5c-3.42.24-5.58,2.96-2.26,5.19,1.56,1.16,4.16,2.2,6.04,1.54.73-.55,2.24-2.71,1.08-.6-.33.8-1,1.6-1.93,1.63-2.09.31-4.26-.28-5.96-1.56-4.05-2.78-1.37-7.25,3.03-6.21h0Z"/>
          <path class="cls-1" d="m28.31,6.78c-.64-.34-1.27.02-1.79.38-.53.38-1.06.82-1.31,1.29-.51.89.31,2.01,1.26,2.77,1.14.91,2.77,1.57,4.23,1.25.9-.37,1.67-1.04,2.32-1.8-.21.67-.6,1.29-1.09,1.83-1.6,1.86-4.57,1.05-6.26-.29-1.19-.94-2.4-2.81-1.29-4.29.79-.99,2.91-2.2,3.92-1.13h0Z"/>
          <path class="cls-1" d="m30.01,5.29c-2.39.99-1.74,4.11.4,4.76,2.01.82,4.73-.45,4.37-2.97.74,1.06.35,2.77-.8,3.62-2.27,1.85-6.41.39-6.45-2.71-.09-1.47,1.19-2.82,2.49-2.7h0Z"/>
          <path class="cls-1" d="m31.95,2.96c-.73.5-1.02,1.57-1.19,2.32,0,.39.05.44.33.59.94.41,2.46,1.07,3.24.2.53-.51.71-1.44.41-2.38.76.63,1.07,1.98.38,2.99-.61,1.07-2.17,1.24-3.2.86-.78-.32-1.77-.53-2.13-1.46-.32-.93.34-1.76.84-2.37.33-.37.8-.76,1.32-.75h0Z"/>
          <path class="cls-1" d="m33.9.3c-.92.73-1.71,2.93-.53,3.33,1.12-.21,1.06-2.56.66-3.63,1.11.87,1.58,2.66.85,3.97-.66,1.3-2.59,1.17-3.08-.25-.51-1.51.66-3.21,2.1-3.42h0Z"/>
        </g>
        <path class="cls-1" d="m21.57,38.81c1.85,2.2,1.16,5.23.25,7.68-.79,2.14-1.99,4.29-4.11,5.35-.18.09-.02.37.16.28,2.26-1.13,3.5-3.44,4.32-5.72.91-2.53,1.48-5.56-.4-7.8-.13-.16-.36.07-.23.22h0Z"/>
        <path class="cls-1" d="m23.05,38.74c.88,2.55.87,5.36-.13,7.89-.93,2.35-2.63,4.28-4.49,5.96-.15.14.07.36.22.23,1.9-1.71,3.63-3.69,4.57-6.1,1.01-2.57,1.02-5.45.13-8.06-.07-.19-.37-.11-.31.08h0Z"/>
        <path class="cls-1" d="m24.13,38.94c1.72,5.38-1.43,10.5-4.85,14.42-.13.15.09.38.22.23,3.49-4,6.68-9.24,4.93-14.73-.06-.19-.37-.11-.31.08h0Z"/>
        <path class="cls-1" d="m25.43,39.51c1.02,5.28-2.23,9.94-5.16,13.99-.12.17.16.33.27.16,2.99-4.13,6.23-8.86,5.19-14.24-.04-.2-.35-.12-.31.08h0Z"/>
        <path class="cls-1" d="m26.35,41.18c-.09,4.35-1.74,8.57-4.62,11.83-.14.15.09.38.22.23,2.94-3.32,4.62-7.62,4.72-12.06,0-.2-.31-.21-.32,0h0Z"/>
        <path class="cls-1" d="m27.28,43.22c-.32.48-.41,1.04-.52,1.6-.12.6-.28,1.19-.47,1.77-.4,1.2-.96,2.35-1.66,3.41-.11.17.16.33.27.16.67-1.02,1.21-2.11,1.61-3.26.2-.58.37-1.17.5-1.76s.19-1.23.54-1.75c.11-.17-.16-.33-.27-.16h0Z"/>
        <path class="cls-1" d="m6.5,44.68c.76.96,2.18.87,3.23.53,1.25-.41,2.31-1.25,3.2-2.2,1.95-2.1,3.23-4.79,3.73-7.6.04-.2-.27-.29-.31-.09-.45,2.56-1.55,4.99-3.22,6.98-.78.93-1.7,1.79-2.8,2.33-1.06.52-2.75.9-3.6-.17-.13-.16-.35.07-.23.22h0Z"/>
        <path class="cls-1" d="m7.07,46.14c2.51.48,5-.76,6.64-2.62,1.89-2.15,2.69-5.01,3.35-7.73.05-.2-.26-.28-.31-.09-.62,2.57-1.36,5.26-3.06,7.35-1.55,1.91-4.03,3.26-6.53,2.78-.2-.04-.29.27-.09.31h0Z"/>
        <path class="cls-1" d="m8.16,47c1.33.53,2.73-.16,3.84-.88s2-1.56,2.78-2.56c1.6-2.04,2.52-4.56,2.56-7.15,0-.2-.32-.21-.32,0-.03,2.4-.85,4.73-2.27,6.67-.72.98-1.6,1.85-2.59,2.55-1.1.77-2.55,1.61-3.91,1.07-.19-.08-.27.23-.09.31h0Z"/>
        <path class="cls-1" d="m9.74,47.77c4.04-1.17,7.26-4.59,8.18-8.69.04-.2-.26-.29-.31-.09-.89,4-4.02,7.33-7.95,8.47-.2.06-.11.36.08.31h0Z"/>
        <path class="cls-1" d="m2.17,29.4c1.12,1.78,2.96,2.99,5.06,3.23,2.39.27,4.4-.83,6.17-2.3.16-.13-.07-.36-.22-.23-1.66,1.38-3.52,2.41-5.76,2.23-2.06-.17-3.89-1.35-4.98-3.08-.11-.17-.38-.01-.28.16h0Z"/>
        <path class="cls-1" d="m1.97,30.34c1.26,2.17,3.8,3.36,6.28,3.17,2.63-.2,4.93-1.85,6.35-4,.11-.17-.16-.33-.27-.16-1.36,2.06-3.57,3.64-6.08,3.85-2.37.19-4.8-.94-6-3.01-.1-.18-.38-.02-.28.16h0Z"/>
        <path class="cls-1" d="m1.68,31.39c1.25,2.33,3.81,3.68,6.44,3.32,2.86-.4,5.09-2.86,6.46-5.25.1-.18-.17-.34-.27-.16-1.25,2.18-3.27,4.51-5.85,5.03s-5.25-.76-6.51-3.1c-.1-.18-.37-.02-.28.16h0Z"/>
        <path class="cls-1" d="m1.58,32.65c1.3,2.41,4.26,3.52,6.88,2.98,2.96-.61,5.16-3.12,6.15-5.86.07-.19-.24-.28-.31-.09-.94,2.59-2.99,4.95-5.76,5.6-2.53.59-5.43-.46-6.69-2.79-.1-.18-.37-.02-.28.16h0Z"/>
        <path class="cls-1" d="m3.31,35.77c1.99,1.21,4.52,1.03,6.53-.02,2.17-1.14,3.7-3.17,4.85-5.28.1-.18-.18-.34-.27-.16-1.07,1.97-2.46,3.85-4.43,5-1.97,1.15-4.52,1.4-6.52.19-.18-.11-.34.17-.16.27h0Z"/>
        <path class="cls-1" d="m8.78,36.85c1.51-.48,2.81-1.36,3.86-2.54.95-1.08,2.16-2.41,1.9-3.97-.03-.2-.34-.12-.31.08.24,1.47-1.07,2.83-1.98,3.83-.97,1.06-2.19,1.85-3.56,2.29-.19.06-.11.37.08.31h0Z"/>
        <path class="cls-1" d="m9.8,15.85c.19,1.08.54,2.13,1.06,3.11.49.92,1.11,1.91,2.02,2.47,1.76,1.08,4.31,1.79,6.16.55.17-.11.01-.39-.16-.28-.9.6-1.98.72-3.03.53s-2.09-.59-2.94-1.16-1.4-1.53-1.84-2.4-.78-1.89-.96-2.9c-.04-.2-.34-.12-.31.08h0Z"/>
        <path class="cls-1" d="m8.89,15.89c.08,2.51,1.77,4.67,3.86,5.94,1.9,1.15,5.05,2.09,6.63-.05.12-.16-.15-.32-.27-.16-1.54,2.08-4.73.91-6.48-.24-1.85-1.22-3.35-3.2-3.42-5.48,0-.2-.32-.21-.32,0h0Z"/>
        <path class="cls-1" d="m8.1,16.35c-.02,1.38.81,2.55,1.64,3.59s1.8,2.01,2.97,2.65c2.01,1.11,4.77,1.14,6.38-.7.13-.15-.09-.38-.22-.23-1.55,1.78-4.23,1.68-6.14.56-.99-.58-1.82-1.38-2.55-2.26-.85-1.02-1.78-2.24-1.76-3.63,0-.2-.31-.21-.32,0h0Z"/>
        <path class="cls-1" d="m7.25,17.04c1.11,2.4,2.59,5.21,5.15,6.29,2.28.96,4.88.45,6.7-1.2.15-.14-.07-.36-.22-.23-1.86,1.68-4.58,2.09-6.82.91s-3.53-3.76-4.54-5.94c-.09-.19-.36-.03-.28.16h0Z"/>
        <path class="cls-1" d="m6.29,17.83c1.3,2.49,2.77,5.17,5.51,6.29s5.51-.26,7.43-2.2c.14-.15-.08-.37-.22-.23-1.94,1.97-4.78,3.27-7.45,1.97-2.45-1.19-3.78-3.68-4.99-6-.09-.18-.37-.02-.28.16h0Z"/>
        <path class="cls-1" d="m6.18,19.26c1.02,2.57,3.27,4.58,5.99,5.17,1.43.31,2.94.23,4.33-.21.97-.3,2.8-.93,2.89-2.14.02-.2-.3-.2-.32,0-.06.73-1.05,1.16-1.62,1.43s-1.21.48-1.85.62c-1.31.27-2.68.22-3.96-.16-2.34-.71-4.26-2.52-5.16-4.79-.07-.19-.38-.11-.31.08h0Z"/>
        <path class="cls-1" d="m18.96,10.29c-.03,1.72.57,3.52,1.96,4.6,1.46,1.14,3.41,1.27,5.19,1.37.2.01.21-.31,0-.32-1.67-.09-3.51-.2-4.91-1.23s-1.95-2.77-1.92-4.42c0-.2-.31-.21-.32,0h0Z"/>
        <path class="cls-1" d="m18.09,10.55c.49,1.91,1.08,4.03,2.84,5.16.79.51,1.77.75,2.69.87s1.89.04,2.69-.5c.17-.11.01-.39-.16-.28-.78.52-1.71.58-2.61.44s-1.81-.37-2.55-.88c-1.61-1.11-2.13-3.12-2.59-4.9-.05-.2-.36-.12-.31.08h0Z"/>
        <path class="cls-1" d="m17.27,10.89c.48,2.01,1.46,4.26,3.27,5.39s3.99,1.01,5.69-.14c.17-.11.01-.39-.16-.28-1.65,1.12-3.81,1.17-5.49.07s-2.57-3.25-3.01-5.12c-.05-.2-.35-.12-.31.08h0Z"/>
        <path class="cls-1" d="m16.48,11.51c.32,2.26,1.65,4.47,3.77,5.44,1.96.9,4.42.61,5.98-.92.15-.14-.08-.37-.22-.23-1.52,1.5-3.97,1.73-5.83.76-1.92-1-3.08-3.03-3.38-5.13-.03-.2-.34-.12-.31.08h0Z"/>
        <path class="cls-1" d="m15.78,13.21c1.07,2,2.31,3.91,4.68,4.43,1.02.22,2.1.19,3.12-.04s2.07-.62,2.7-1.48c.12-.17-.16-.33-.27-.16-.61.85-1.76,1.19-2.74,1.39s-2.04.19-3.02-.08c-2.11-.58-3.21-2.39-4.18-4.21-.1-.18-.37-.02-.28.16h0Z"/>
        <path class="cls-1" d="m27.26,6.44c-.71,1.42-.24,3.13.91,4.16s3.01,1.68,4.36.67c.16-.12,0-.4-.16-.28-1.23.93-2.93.33-3.98-.62s-1.52-2.48-.86-3.78c.09-.18-.18-.34-.27-.16h0Z"/>
        <path class="cls-1" d="m26.17,6.85c-.35,1,.17,2.02.68,2.87s1.1,1.47,1.99,1.85c.78.33,1.67.42,2.5.23.4-.09.82-.24,1.16-.47.24-.16.24-.55-.11-.5-.2.03-.12.34.08.31h.05c-.05-.02-.1-.03-.15-.05-.07-.06-.3.12-.41.17-.16.07-.32.13-.49.18-.32.09-.65.13-.99.14-.68,0-1.37-.18-1.96-.53-.67-.4-1.11-1.02-1.5-1.68-.43-.73-.84-1.58-.54-2.44.07-.19-.24-.28-.31-.09h0Z"/>
        <path class="cls-1" d="m25.14,7.46c-.02,1.59.9,3.13,2.3,3.88.84.45,1.86.58,2.79.65.86.06,1.78-.11,2.35-.81.13-.16-.1-.39-.22-.23-.57.71-1.49.79-2.33.7s-1.76-.2-2.51-.63c-1.26-.72-2.07-2.11-2.06-3.56,0-.2-.32-.21-.32,0h0Z"/>
        <path class="cls-1" d="m24.88,9.66c.34.65.71,1.33,1.26,1.83.61.55,1.37.73,2.16.86,1.52.25,3.35.39,4.45-.92.13-.16-.09-.38-.22-.23-1.06,1.26-2.82,1.06-4.27.82-.73-.12-1.43-.31-1.97-.83-.49-.48-.81-1.09-1.13-1.69-.1-.18-.37-.02-.28.16h0Z"/>
        <path class="cls-1" d="m31.12,3.24c.03.95.76,1.82,1.71,1.95s1.87-.48,2.17-1.36c.07-.19-.24-.28-.31-.09-.25.73-1.04,1.23-1.81,1.13s-1.42-.85-1.44-1.63c0-.2-.32-.21-.32,0h0Z"/>
        <path class="cls-1" d="m30.78,4.36c.19.11.3.31.43.48.12.15.26.27.42.37.35.21.78.29,1.18.26.46-.03.9-.2,1.31-.4.31-.16.79-.37.76-.79-.01-.2-.33-.21-.32,0,0,.18-.17.28-.31.35-.17.1-.34.19-.52.27-.36.16-.76.28-1.16.26-.34-.01-.7-.12-.96-.35s-.38-.55-.67-.72c-.18-.1-.34.17-.16.27h0Z"/>
        <path class="cls-1" d="m30.54,5.02c.29.86,1.26,1.16,2.08.98.95-.21,1.81-.87,2.45-1.57.14-.15-.09-.38-.22-.23-.54.61-1.24,1.15-2.02,1.41-.71.24-1.7.15-1.98-.67-.07-.19-.37-.11-.31.08h0Z"/>
        <path class="cls-1" d="m31.3,6.55c1.5.02,2.94-.79,3.71-2.07.11-.18-.17-.34-.27-.16-.72,1.19-2.05,1.93-3.44,1.92-.2,0-.21.32,0,.32h0Z"/>
        <path class="cls-1" d="m32.91,6.64c.12.26.45.18.64.05.23-.16.43-.36.62-.56.37-.41.68-.92.61-1.49,0-.09-.07-.16-.16-.16-.08,0-.17.07-.16.16.05.45-.15.85-.44,1.18-.15.18-.32.34-.49.49-.07.06-.14.13-.23.17-.03.01-.07.03-.1.03-.03,0,0,.02-.02-.01-.09-.19-.36-.02-.28.16h0Z"/>
      </g>
      <g>
        <g>
          <path class="cls-1" d="m76.92,51.27c-.27,1.1-1.19,2.01-2.3,2.44-4.83,1.37-8.12-5.52-8.18-9.5-.16-4.17,3.36-6.5,7.21-5.29-5.49-.36-7.07,3.73-5.38,8.31.7,1.91,1.78,3.92,3.39,5.18,1.67,1.37,4.25.81,5.26-1.14h0Z"/>
          <path class="cls-1" d="m83.69,48.44c.05,2.27-2.51,3.91-4.66,3.49-2.25-.29-4.03-2.02-5.08-3.91-1-1.85-1.8-3.95-1.57-6.18.19-2.12,1.85-4.33,4.06-4.41-4.32,1.61-3.3,6.83-1.38,9.97.92,1.69,2.33,3.13,4.15,3.56,1.85.49,4.01-.54,4.48-2.52h0Z"/>
          <path class="cls-1" d="m87.96,43.97c.46,3.42-3.63,5.94-6.62,4.29-1.88-1.11-3.15-2.64-4.25-4.47-1.15-2.35-1.65-7.2,1.36-8.3-1.77,1.16-1.48,3.34-1.18,5.16.23,1.89,1.26,3.36,2.59,4.76,2.46,3.38,7.22,3.06,8.1-1.43h0Z"/>
          <path class="cls-1" d="m91.07,36.7c.63,3.11-.86,7.32-4.5,7.91-3.63.47-6.27-3.07-7.4-6.02-.47-1.22-1.52-5.85.51-5.89-1.71.38-.05,4.45.41,5.51,3.4,7.29,10.13,6.98,10.98-1.51h0Z"/>
          <path class="cls-1" d="m91.62,27.56c5.17,8.35-3.54,14.09-10.29,8.23-1.5-1.36-2.93-4.68-.73-5.98-1.66,1.59,0,4.09,1.39,5.25,2.91,2.49,8.57,2.78,10.1-1.32.65-1.88.06-4.09-.47-6.17h0Z"/>
          <path class="cls-1" d="m88.7,20.7c3.81,2.48,5.42,9.53-.1,11.09-2.23.51-4.65,1.16-6.74-.19-1.53-1.29-3.88-3.56-2.54-5.64-.75,2.17,1.62,3.69,3.08,4.81,1.7.91,4.04.25,5.82-.19,4.61-1.31,3.01-7.14.48-9.88h0Z"/>
          <path class="cls-1" d="m83.72,15.85c2.09-.3,4.51.8,5.14,2.99.7,2.3-1.01,4.4-2.71,5.7-2.63,1.95-6.43,2.01-9.07.12-.83-.6-1.66-1.48-1.67-2.54,1.61,3.47,7.29,3.51,10,1.39,3.88-2.63,3.22-6.92-1.68-7.66h0Z"/>
          <path class="cls-1" d="m78.74,12.73c1.28-.73,3.08-.56,4.26.39,1.92,1.68.64,5.53-.84,7.21-2.68,3.3-8.66,2.89-10.05-1.3,2.09,3.2,6.75,3.25,9.09.46,1.13-1.27,1.71-3.06,1.67-4.79-.14-1.63-2.63-2.39-4.14-1.97h0Z"/>
          <path class="cls-1" d="m74.68,10.48c4.65-.6,6.6,4.13,2.71,6.84-2.53,1.84-7.73,2.9-8.78-1.01,1.78,3,5.78,1.52,8.06-.03,3.19-2.23,1.59-5.22-1.98-5.79h0Z"/>
          <path class="cls-1" d="m70.19,8.64c4.41-1.02,7.06,3.47,2.99,6.22-1.7,1.27-3.88,1.85-5.97,1.53-.93-.04-1.59-.84-1.92-1.64-1.15-2.12.35.05,1.07.6,1.88.67,4.48-.35,6.05-1.5,3.34-2.21,1.19-4.94-2.23-5.21h0Z"/>
          <path class="cls-1" d="m66.32,6.89c.48-.62,1.45-.42,2.08-.16.65.3,1.33.62,1.84,1.32,1.1,1.49-.12,3.35-1.31,4.28-2.6,2.03-6.24,1.96-7.34-1.58.65.76,1.42,1.44,2.31,1.81,1.46.33,3.09-.33,4.23-1.23.95-.76,1.78-1.86,1.27-2.76-.25-.47-.77-.92-1.3-1.3-.51-.35-1.14-.72-1.78-.39h0Z"/>
          <path class="cls-1" d="m64.64,5.4c1.29-.1,2.57,1.25,2.47,2.72-.06,3.1-4.21,4.53-6.47,2.67-1.15-.86-1.53-2.57-.78-3.63-.38,2.52,2.33,3.81,4.35,3,2.15-.64,2.81-3.76.43-4.76h0Z"/>
          <path class="cls-1" d="m62.71,3.06c.52,0,.98.39,1.31.76.5.61,1.15,1.45.83,2.37-.36.93-1.36,1.13-2.14,1.45-1.03.37-2.59.2-3.19-.88-.69-1.02-.37-2.37.4-2.99-.31.95-.14,1.87.39,2.39.77.87,2.31.22,3.24-.19.29-.15.33-.2.33-.59-.17-.76-.46-1.82-1.18-2.33h0Z"/>
          <path class="cls-1" d="m60.77.38c1.43.22,2.59,1.93,2.08,3.43-.49,1.42-2.42,1.54-3.08.23-.73-1.32-.24-3.1.87-3.97-.27.85-.34,1.66-.21,2.4.25,1.63,1.57,1.64,1.43-.04-.09-.71-.44-1.44-1.09-2.06h0Z"/>
        </g>
        <path class="cls-1" d="m72.65,38.74c-1.89,2.23-1.34,5.27-.45,7.8.81,2.29,2.04,4.61,4.29,5.75.18.09.34-.18.16-.27-2.11-1.07-3.3-3.22-4.08-5.37-.89-2.45-1.56-5.49.3-7.68.13-.16-.09-.38-.22-.23h0Z"/>
        <path class="cls-1" d="m71.09,38.8c-.91,2.6-.91,5.48.08,8.06.93,2.41,2.65,4.4,4.53,6.13.15.14.38-.09.23-.22-1.84-1.69-3.54-3.63-4.45-5.98-.98-2.53-.98-5.34-.08-7.89.07-.19-.24-.28-.31-.09h0Z"/>
        <path class="cls-1" d="m70.01,38.99c-1.78,5.48,1.37,10.74,4.84,14.76.13.16.36-.07.23-.22-3.4-3.94-6.51-9.08-4.76-14.45.06-.2-.24-.28-.31-.09h0Z"/>
        <path class="cls-1" d="m68.71,39.55c-1.07,5.37,2.14,10.12,5.11,14.27.12.17.39,0,.28-.16-2.91-4.07-6.13-8.75-5.08-14.02.04-.2-.27-.29-.31-.09h0Z"/>
        <path class="cls-1" d="m67.77,41.3c.07,4.44,1.72,8.74,4.64,12.08.14.15.36-.07.23-.22-2.87-3.28-4.49-7.51-4.55-11.86,0-.2-.32-.21-.32,0h0Z"/>
        <path class="cls-1" d="m66.87,43.5c.34.53.4,1.15.53,1.76s.29,1.19.49,1.77c.4,1.15.93,2.25,1.59,3.27.11.17.39.01.28-.16-.69-1.07-1.24-2.21-1.64-3.42-.19-.58-.34-1.17-.46-1.77-.11-.56-.2-1.12-.51-1.6-.11-.17-.39-.01-.28.16h0Z"/>
        <path class="cls-1" d="m87.69,44.7c-.86,1.07-2.54.67-3.6.15-1.1-.54-2.01-1.41-2.79-2.34-1.66-2-2.74-4.44-3.18-7-.03-.2-.34-.12-.31.08.48,2.82,1.74,5.51,3.68,7.63.88.96,1.94,1.81,3.18,2.22,1.05.35,2.47.44,3.24-.51.13-.16-.1-.39-.22-.23h0Z"/>
        <path class="cls-1" d="m87.25,46.07c-2.51.46-4.97-.91-6.52-2.82-1.69-2.1-2.41-4.79-3.01-7.37-.05-.2-.35-.12-.31.08.64,2.73,1.42,5.59,3.3,7.75,1.63,1.87,4.11,3.12,6.62,2.66.2-.04.12-.34-.08-.31h0Z"/>
        <path class="cls-1" d="m86.15,46.92c-1.35.53-2.76-.29-3.84-1.05-1.02-.71-1.91-1.61-2.64-2.61-1.41-1.94-2.21-4.28-2.23-6.68,0-.2-.32-.21-.32,0,.02,2.59.93,5.12,2.52,7.17.78,1,1.71,1.88,2.77,2.57s2.5,1.43,3.83.91c.19-.07.11-.38-.08-.31h0Z"/>
        <path class="cls-1" d="m84.74,47.68c-3.93-1.16-7.04-4.51-7.9-8.52-.04-.2-.35-.12-.31.08.89,4.11,4.09,7.55,8.13,8.74.2.06.28-.25.09-.31h0Z"/>
        <path class="cls-1" d="m92.06,29.5c-1.1,1.73-2.94,2.9-5,3.06-2.23.17-4.09-.87-5.74-2.26-.16-.13-.38.09-.23.22,1.77,1.49,3.77,2.59,6.16,2.34,2.1-.22,3.96-1.42,5.08-3.19.11-.17-.16-.33-.27-.16h0Z"/>
        <path class="cls-1" d="m92.25,30.45c-1.22,2.06-3.66,3.18-6.02,2.97-2.51-.22-4.7-1.82-6.06-3.88-.11-.17-.39-.01-.28.16,1.42,2.16,3.7,3.82,6.33,4.04,2.47.21,5.02-.98,6.29-3.13.1-.18-.17-.34-.27-.16h0Z"/>
        <path class="cls-1" d="m92.54,31.5c-1.27,2.33-3.9,3.61-6.52,3.06s-4.58-2.88-5.82-5.07c-.1-.18-.38-.02-.28.16,1.36,2.4,3.57,4.87,6.43,5.29,2.63.38,5.2-.96,6.46-3.28.1-.18-.18-.34-.27-.16h0Z"/>
        <path class="cls-1" d="m92.63,32.76c-1.27,2.33-4.18,3.36-6.71,2.75-2.76-.67-4.8-3.04-5.72-5.64-.07-.19-.38-.11-.31.08.98,2.75,3.16,5.27,6.11,5.9,2.62.56,5.58-.53,6.9-2.93.1-.18-.18-.34-.27-.16h0Z"/>
        <path class="cls-1" d="m90.99,35.75c-2.01,1.2-4.55.93-6.52-.23-1.96-1.16-3.34-3.05-4.4-5.03-.1-.18-.37-.02-.28.16,1.13,2.12,2.65,4.16,4.82,5.31,2.01,1.07,4.54,1.26,6.53.06.18-.1.02-.38-.16-.28h0Z"/>
        <path class="cls-1" d="m85.77,36.77c-1.37-.44-2.58-1.24-3.55-2.31-.9-1-2.2-2.37-1.95-3.84.03-.2-.27-.29-.31-.09-.26,1.55.93,2.89,1.88,3.98,1.03,1.19,2.34,2.08,3.84,2.57.2.06.28-.24.09-.31h0Z"/>
        <path class="cls-1" d="m84.47,15.99c-.18.98-.49,1.93-.94,2.83s-1.04,1.89-1.89,2.46-1.89.94-2.87,1.13c-1.07.21-2.19.09-3.1-.53-.17-.12-.33.16-.16.27,1.85,1.25,4.39.55,6.16-.52.89-.54,1.51-1.49,1.99-2.39.54-.99.91-2.06,1.11-3.17.04-.2-.27-.29-.31-.09h0Z"/>
        <path class="cls-1" d="m85.37,16.11c-.08,2.28-1.59,4.25-3.45,5.46-1.75,1.14-4.96,2.29-6.48.2-.12-.16-.4,0-.28.16,1.57,2.15,4.72,1.23,6.63.09,2.09-1.25,3.8-3.4,3.89-5.91,0-.2-.31-.21-.32,0h0Z"/>
        <path class="cls-1" d="m86.16,16.58c.02,1.37-.89,2.55-1.72,3.55-.74.9-1.6,1.72-2.61,2.31-1.92,1.1-4.59,1.18-6.13-.6-.13-.16-.36.07-.23.22,1.59,1.84,4.36,1.84,6.37.73,1.15-.63,2.11-1.56,2.93-2.57.85-1.05,1.73-2.24,1.71-3.65,0-.2-.32-.21-.32,0h0Z"/>
        <path class="cls-1" d="m87.05,17.12c-1.02,2.17-2.36,4.76-4.57,5.91s-4.96.74-6.81-.95c-.15-.14-.38.09-.23.22,1.81,1.66,4.41,2.18,6.7,1.23,2.57-1.06,4.06-3.87,5.19-6.26.09-.18-.19-.35-.27-.16h0Z"/>
        <path class="cls-1" d="m88.01,17.92c-1.21,2.3-2.56,4.8-5.02,5.97-2.68,1.27-5.5-.03-7.44-2.02-.14-.15-.37.08-.23.22,1.91,1.96,4.72,3.33,7.42,2.25,2.74-1.1,4.24-3.78,5.55-6.26.1-.18-.18-.34-.27-.16h0Z"/>
        <path class="cls-1" d="m88.08,19.42c-.92,2.26-2.84,4.06-5.19,4.76-1.25.37-2.58.42-3.86.16-.64-.13-1.26-.33-1.85-.6s-1.65-.73-1.71-1.48c-.01-.2-.33-.21-.32,0,.09,1.21,1.91,1.84,2.88,2.16,1.39.45,2.9.53,4.33.23,2.73-.57,4.98-2.57,6.02-5.13.08-.19-.23-.27-.31-.09h0Z"/>
        <path class="cls-1" d="m75.34,10.46c.02,1.65-.57,3.4-1.95,4.41-1.4,1.03-3.24,1.12-4.92,1.2-.2,0-.21.33,0,.32,1.78-.09,3.73-.2,5.2-1.34s2-2.87,1.98-4.59c0-.2-.32-.21-.32,0h0Z"/>
        <path class="cls-1" d="m76.22,10.64c-.47,1.78-1.01,3.79-2.62,4.89-.72.49-1.63.73-2.49.86-.92.14-1.88.09-2.67-.45-.17-.12-.33.16-.16.27.78.52,1.71.62,2.62.52s1.95-.35,2.76-.86c1.77-1.11,2.37-3.25,2.87-5.15.05-.2-.25-.28-.31-.09h0Z"/>
        <path class="cls-1" d="m77.03,10.98c-.46,1.87-1.37,4.02-3.04,5.11s-3.84,1.03-5.48-.1c-.17-.12-.33.16-.16.27,1.69,1.16,3.93,1.25,5.69.18s2.82-3.37,3.31-5.37c.05-.2-.26-.28-.31-.09h0Z"/>
        <path class="cls-1" d="m77.83,11.61c-.31,2.1-1.49,4.12-3.41,5.11s-4.32.71-5.83-.79c-.15-.14-.37.08-.23.22,1.55,1.54,4.01,1.85,5.97.96,2.13-.96,3.47-3.16,3.8-5.42.03-.2-.28-.29-.31-.09h0Z"/>
        <path class="cls-1" d="m78.54,13.24c-.98,1.81-2.09,3.62-4.21,4.19-.96.26-1.97.26-2.94.08s-2.19-.55-2.81-1.42c-.12-.17-.39,0-.28.16.61.85,1.63,1.24,2.61,1.48,1.04.25,2.14.3,3.2.08,2.37-.5,3.62-2.41,4.7-4.41.1-.18-.18-.34-.27-.16h0Z"/>
        <path class="cls-1" d="m67.1,6.72c.64,1.3.16,2.84-.89,3.77s-2.75,1.53-3.98.59c-.16-.12-.32.15-.16.27,1.34,1.02,3.22.39,4.37-.64s1.64-2.73.94-4.16c-.09-.18-.37-.02-.28.16h0Z"/>
        <path class="cls-1" d="m68.16,7.06c.29.84-.11,1.67-.53,2.39-.4.67-.85,1.31-1.54,1.71-.58.34-1.25.52-1.92.52-.33,0-.67-.04-.99-.13-.18-.05-.36-.11-.53-.19-.09-.04-.34-.22-.4-.17l-.15.04h.05c.2.04.29-.27.09-.3-.36-.06-.36.33-.12.5.34.23.76.39,1.16.48.83.19,1.71.11,2.5-.22.89-.37,1.5-1.04,2-1.84s1.05-1.86.7-2.86c-.07-.19-.37-.11-.31.08h0Z"/>
        <path class="cls-1" d="m69.17,7.59c0,1.45-.81,2.84-2.08,3.55-.76.42-1.66.53-2.51.62s-1.76,0-2.33-.71c-.13-.16-.35.07-.23.22.55.69,1.43.87,2.27.83.95-.05,2.01-.18,2.87-.63,1.41-.74,2.34-2.28,2.33-3.87,0-.2-.32-.21-.32,0h0Z"/>
        <path class="cls-1" d="m69.46,9.64c-.31.58-.63,1.18-1.1,1.65-.55.55-1.27.74-2.02.86-1.45.24-3.22.42-4.27-.84-.13-.16-.36.07-.23.22,1.09,1.32,2.92,1.19,4.45.95.77-.12,1.52-.29,2.12-.81s.96-1.2,1.32-1.86c.1-.18-.18-.34-.27-.16h0Z"/>
        <path class="cls-1" d="m63.22,3.33c-.03.79-.66,1.52-1.45,1.63s-1.56-.41-1.81-1.14c-.06-.19-.37-.11-.31.08.3.89,1.23,1.5,2.16,1.37s1.69-.99,1.72-1.94c0-.2-.31-.21-.32,0h0Z"/>
        <path class="cls-1" d="m63.72,4.18c-.29.17-.41.48-.66.69-.27.24-.63.35-.99.36-.39.01-.78-.1-1.13-.25-.18-.08-.35-.17-.52-.27-.14-.08-.34-.19-.33-.37.01-.2-.31-.2-.32,0-.02.41.42.62.73.78.42.22.86.39,1.33.43.4.03.81-.04,1.16-.24.17-.1.32-.23.45-.38.14-.17.24-.37.43-.48.18-.1.02-.38-.16-.28h0Z"/>
        <path class="cls-1" d="m63.81,5.03c-.28.82-1.28.9-1.98.66-.78-.27-1.47-.82-2.01-1.42-.14-.15-.36.07-.23.22.63.71,1.49,1.38,2.44,1.59.82.19,1.79-.1,2.09-.96.07-.19-.24-.28-.31-.09h0Z"/>
        <path class="cls-1" d="m63.34,6.33c-1.39,0-2.72-.75-3.43-1.94-.1-.18-.38-.02-.28.16.76,1.29,2.2,2.1,3.7,2.1.2,0,.21-.32,0-.32h0Z"/>
        <path class="cls-1" d="m61.46,6.57s0,.01-.02.01-.06-.01-.09-.02c-.09-.04-.16-.11-.24-.18-.17-.15-.34-.31-.49-.49-.28-.33-.49-.73-.43-1.18.01-.09-.08-.16-.16-.16-.09,0-.15.07-.16.16-.07.57.23,1.09.6,1.5.18.2.39.41.62.57.19.13.52.21.64-.05.09-.18-.19-.35-.27-.16h0Z"/>
      </g>
    </g>
  </g>
</svg>